<?xml version="1.0" encoding="utf-8"?>
<!-- Generator: Adobe Illustrator 24.1.0, SVG Export Plug-In . SVG Version: 6.00 Build 0)  -->
<svg version="1.1" id="Layer_1" xmlns="http://www.w3.org/2000/svg" xmlns:xlink="http://www.w3.org/1999/xlink" x="0px" y="0px"
	 viewBox="0 0 1606 494.7" style="enable-background:new 0 0 1606 494.7;" xml:space="preserve">
<style type="text/css">
	.st0{fill:#FAFBFF;}
	.st1{fill:#E3E7FA;}
	.st2{fill:#FFFFFF;}
</style>
<g id="Group_3151" transform="translate(57.523 -240.177)">
	<path id="Path_1169" class="st0" d="M-57.5,369.4c0,0,222.9-60.1,372,72.2s373.8,175.2,552.2,76.1s-0.3-197.1,334-76.1
		c117.6,33.5,350.2-201.4,350.2-201.4v486.3H-57.5V369.4z"/>
	<g id="Group_3150" transform="translate(-1318.714 -3155.575)">
		<g id="Group_3131" transform="translate(2306.332 3570.059)">
			<g id="Group_3115" transform="translate(153.424 169.052)">
				<path id="Path_4832" class="st1" d="M-32.4,109.3C-19.7,96.7-7.2,93.4-0.7,93.7c5.6,0.2,8.4,3,8.2,9
					c-0.4,9.7-9.7,11.1-17.7,10.7c-0.8,0-1.7-0.1-2.5-0.2C-19.4,112.7-25.8,110.5-32.4,109.3z"/>
				<path id="Path_4833" class="st1" d="M-24.4,88.9c6.1-12,16-18,27.5-18c3.8,0,6.7,1.2,6.7,5.1c0,9.7-19.3,13-29.7,13
					C-21.5,89-23,89-24.4,88.9z"/>
				<path id="Path_4834" class="st1" d="M-12,65.9c9.3-13.8,23.3-18,31.7-17.5c4.2,0.2,7.9,2,7.7,6.2c-0.5,8.9-11.2,10.1-18.4,10.6
					C2,65.6-5,64.9-12,65.9z"/>
				<path id="Path_4835" class="st1" d="M1.4,44.8c14.1-12.1,20.1-15.7,27.6-15c4.5,0.4,6.6,3.3,6.4,5.7C34.4,45.1,14,46,4,45.1
					C3,45,2.1,44.9,1.4,44.8z"/>
				<path id="Path_4836" class="st1" d="M16.7,25.4c8-2.3,21-8.8,23.7-17.6c1-3.3,0.1-6.3-3.2-7.3C28.4-2.1,22.5,6,16.7,25.4
					L16.7,25.4z"/>
				<path id="Path_4837" class="st1" d="M4.2,40.3c3.4-6,7-11.8,7.4-20.8c0.2-5-1-9.8-6-10C1.3,9.3-1,15-1.3,20.2
					C-1.6,27.6,1.2,36.5,4.2,40.3z"/>
				<path id="Path_4838" class="st1" d="M-11.5,64.6c1.6-6,6.2-18.6,6.5-25.4c0.2-5-1.4-10.5-6.4-10.8c-5.2-0.2-7.7,5.9-8,11.9
					C-19.8,49.3-16.2,60.6-11.5,64.6z"/>
				<path id="Path_4839" class="st1" d="M-24.3,89.3c0.4-3.7,1.1-7.6,1.3-11.4c0.3-7.7-0.5-22.8-9.6-23.2c-4.1-0.2-6.1,3.4-6.2,7.5
					c-0.1,1.1,0.1,2.3,0.3,3.4C-37.1,71-28.8,86-24.3,89.3z"/>
				<path id="Path_4840" class="st1" d="M-31.7,109.6c-0.4-13.2-0.4-36.5-13.9-37.1c-4.9-0.2-5.7,4.5-5.9,9.5
					C-52,94.4-42.3,104.6-31.7,109.6z"/>
				<path id="Path_4841" class="st1" d="M11.5,40.8c-2.7,1-5.4,1.8-8.2,2.4c0.7-0.9,1.3-1.8,2-2.7c0.8-1.1,1.7-2.2,2.5-3.2
					s1.7-2.1,2.6-3.2c3.4-4.2,6.9-8.4,10.5-12.5s7.4-7.9,11.3-11.8l-0.3-0.4c-4.2,3.5-8.1,7.3-11.9,11.3c-3.7,4-7.2,8.3-10.6,12.5
					c-0.9,1-1.7,2.1-2.6,3.2c-0.4,0.5-0.7,0.9-1.1,1.4l0.1-4.7l0-1.7c0-0.6,0-1.1,0-1.7l-0.1-3.4H5l-0.2,3.4c0,0.6-0.1,1.1-0.1,1.7
					l-0.2,1.7l-0.6,6.7H4c-1.6,2.1-3.2,4.3-4.8,6.5c-3.2,4.5-6.1,9-9,13.7c-0.4,0.6-0.7,1.2-1.1,1.8l0-0.4l-0.1-3l-0.3-6.1
					c-0.1-2-0.2-4.1-0.2-6.1c0-0.5,0-1,0-1.5s0-1,0-1.5l0-0.8l0-0.8c0-0.5,0.1-1,0.1-1.5l-0.6-0.1c-0.1,0.5-0.1,1-0.2,1.5l-0.1,0.8
					l0,0.8c0,0.5,0,1-0.1,1.5s0,1,0,1.5c0,2,0,4.1,0,6.1l0,6.1l0,3v1.5l0,0.8l0,0.6c-4.3,7.2-8.1,14.5-11.6,22.1
					c-0.8-3-1.5-6.1-2.3-9.1c-1-3.7-2.1-7.4-3.5-11.1l-0.8,0.3c1.2,3.6,2.2,7.4,3.1,11.1c0.9,3.7,1.6,7.4,2.4,11.1
					c0,0.1-0.1,0.2-0.1,0.3c-0.3,0.6-0.5,1.3-0.8,1.9s-0.5,1.3-0.8,1.9c-0.5,1.3-1,2.5-1.5,3.8c-1,2.6-1.9,5.1-2.7,7.8
					c-0.3,1-0.6,2-0.9,3.1c-1-1.1-1.8-2.2-2.7-3.3c-1-1.5-2-3.1-2.9-4.7c-0.9-1.6-1.6-3.3-2.3-5c-0.7-1.7-1.2-3.5-1.5-5.3l-0.6,0.1
					c0.3,1.9,0.7,3.7,1.3,5.5c0.6,1.8,1.3,3.5,2.1,5.2c0.8,1.7,1.7,3.4,2.7,5c1,1.6,2.1,3,3.3,4.4c-0.3,1-0.5,2.1-0.8,3.1
					c-0.6,2.7-1,5.4-1.3,8.1l1.3,0.1c0.3-2.7,0.8-5.3,1.4-8c0.2-1,0.5-2,0.8-3c3.8-0.2,7.6-0.7,11.3-1.4c3.9-0.8,7.7-2.1,11.2-3.9
					l-0.2-0.4c-3.6,1.6-7.4,2.7-11.2,3.3c-3.5,0.5-7.1,0.8-10.7,0.9c0.3-1.1,0.7-2.2,1-3.2c1.7-5.2,3.7-10.2,5.9-15.2
					c0-0.1,0.1-0.2,0.1-0.3c2.7-1.8,5.6-3.4,8.4-5.2c1.4-0.9,2.8-1.8,4.2-2.7c1.4-0.9,2.9-1.6,4.4-2.1l-0.1-0.4
					c-1.6,0.4-3.2,1.1-4.7,1.9c-1.5,0.8-2.9,1.7-4.4,2.5c-2.2,1.2-4.5,2.4-6.7,3.6c1.9-4,3.8-8,5.9-11.9c1.7-3.2,3.5-6.3,5.3-9.4
					c3.2-1.1,6.3-2.3,9.4-3.5c3.1-1.2,6.2-2.3,9.4-3.2l-0.2-0.8c-3.3,0.7-6.5,1.7-9.6,2.8c-2.6,0.9-5.2,1.8-7.7,2.6
					c0.5-0.9,1.1-1.8,1.6-2.7C-5.6,56-2.7,51.4,0.5,47c0.5-0.7,1-1.4,1.4-2c3.4-0.8,6.7-1.8,10-3.2c3.3-1.3,6.5-2.7,9.8-3.8
					l-0.2-0.6C18.1,38.3,14.8,39.6,11.5,40.8z"/>
			</g>
			<g id="Group_3116" transform="translate(514.612 42.152)">
				<path id="Path_4842" class="st1" d="M9.1,241.3c-8.5-32.4-25.4-49.5-36.2-55.3c-9.1-4.9-16.4-3.2-21.7,6.8c-8.5,16,5,27,18.2,34
					c1.4,0.7,2.8,1.4,4.1,2.1C-15.1,234.4-2.7,236.9,9.1,241.3z"/>
				<path id="Path_4843" class="st1" d="M15.7,200.9c1.5-25.1-8.6-44-27.2-55.1c-6-3.6-11.8-4.4-15.6,1.9
					c-9.3,15.6,18.8,39.2,35.4,49.1C10.8,198.3,13.2,199.6,15.7,200.9z"/>
				<path id="Path_4844" class="st1" d="M17.5,152.1c-1.8-30.9-20.4-51-34.3-58.3c-7-3.6-14.6-4.3-18.2,2.7
					c-7.7,14.8,8.5,26.9,19.6,34.5C-4.7,138.5,7.3,143.9,17.5,152.1z"/>
				<path id="Path_4845" class="st1" d="M16.1,105.5C4.9,72.7-1.2,61.1-14,55.2c-7.6-3.6-13.7-1-15.6,3.2
					c-7.7,16.4,24.2,37.2,41.2,45.2C13.2,104.2,14.7,104.9,16.1,105.5z"/>
				<path id="Path_4846" class="st1" d="M9.8,59.8C-0.9,48.6-15.5,25.7-11.4,9c1.5-6.3,5.8-10.2,12-8.6c16.4,4.1,18.3,22.8,9.3,59.3
					C9.9,59.7,9.9,59.7,9.8,59.8z"/>
				<path id="Path_4847" class="st1" d="M15.7,95.6c0.2-13-0.1-25.7,7.8-40.5c4.4-8.3,10.9-14.8,19.3-10.4
					c7.2,3.8,5.5,15.2,0.8,23.8C37.1,80.7,24.2,92.5,15.7,95.6z"/>
				<path id="Path_4848" class="st1" d="M17.9,149.6c3.1-11.3,7.7-35.7,13.7-46.9c4.4-8.2,12.3-15.6,20.5-11.2
					c8.6,4.6,6.8,16.8,1.5,26.7C45.8,132.9,29.2,147.6,17.9,149.6z"/>
				<path id="Path_4849" class="st1" d="M15,201.4c2.9-6.4,5.4-13.2,8.7-19.5c6.8-12.6,22.4-36.1,37.5-28.1c6.8,3.6,6.6,11.2,2.9,18
					c-1,1.9-2.2,3.6-3.7,5.1C53,184.1,25.4,200.4,15,201.4z"/>
				<path id="Path_4850" class="st1" d="M7.7,241.1c13.2-20.8,35.2-58.3,57.5-46.4c8.1,4.3,4.9,12.6,0.5,20.9
					C54.7,236,29.5,243,7.7,241.1z"/>
				<path id="Path_4851" class="st1" d="M3.6,89.4c3.4,4.1,7.1,8,11,11.6c-0.2-2.1-0.4-4.2-0.7-6.3c-0.3-2.5-0.6-5-0.9-7.5
					c-0.4-2.5-0.7-5-1.1-7.5c-1.5-10.1-3.1-20.1-5-30C4.9,39.7,2.5,29.9,0,20l0.9-0.3C4.2,29.4,7,39.2,9.2,49.2
					c2.2,10,3.7,20.1,5.3,30.1c0.4,2.5,0.8,5,1.1,7.6c0.1,1.1,0.3,2.2,0.4,3.3l4.4-7.7l1.6-2.7c0.5-0.9,1.1-1.8,1.6-2.7l3.3-5.4
					l0.9,0.5L25,77.7c-0.5,0.9-1,1.9-1.4,2.8l-1.4,2.9l-5.4,11.4l-0.2-0.1c0.6,5,1.1,10,1.5,15c0.8,10.2,1.3,20.4,1.5,30.6
					c0,1.3,0,2.6,0.1,3.9l0.4-0.6l3.1-4.8l6.2-9.5c2.1-3.2,4.1-6.4,6.1-9.6c0.5-0.8,1-1.6,1.5-2.4c0.5-0.8,1-1.6,1.4-2.4l0.7-1.2
					l0.7-1.2c0.5-0.8,0.9-1.7,1.3-2.5l1.1,0.4c-0.4,0.9-0.8,1.8-1.2,2.6l-0.6,1.3l-0.7,1.3c-0.4,0.8-0.9,1.7-1.4,2.5
					s-0.9,1.7-1.4,2.5c-1.9,3.3-3.8,6.6-5.7,9.8l-5.9,9.8l-2.9,4.9l-1.4,2.4l-0.7,1.2l-0.5,1c0,15.5-0.7,31.1-2.2,46.5
					c4.1-4.2,8.2-8.3,12.4-12.4c5.2-5,10.5-10,16.1-14.5l0.9,1.2c-5.4,4.7-10.5,9.7-15.5,14.9c-4.9,5.1-9.7,10.3-14.5,15.6
					c0,0.2,0,0.4-0.1,0.5c-0.1,1.3-0.3,2.5-0.5,3.8s-0.3,2.5-0.5,3.8c-0.4,2.5-0.7,5.1-1.2,7.6c-0.8,5-1.9,10.1-3,15.1
					c-0.5,1.9-0.9,3.9-1.4,5.8c2.5-0.8,5-1.7,7.4-2.8c3.1-1.4,6.1-3.1,9.1-4.9c2.9-1.8,5.8-3.8,8.4-5.9c2.7-2.1,5.2-4.5,7.5-7.1
					l0.8,0.7c-2.2,2.7-4.7,5.3-7.4,7.6c-2.7,2.3-5.4,4.5-8.3,6.4c-2.9,2-5.9,3.8-9.1,5.4c-3,1.6-6.2,2.9-9.4,3.9
					c-0.5,1.9-1.1,3.8-1.7,5.7c-1.6,4.9-3.4,9.7-5.6,14.4l-2.2-1c2-4.6,3.8-9.3,5.3-14.1c0.6-1.8,1.1-3.7,1.6-5.6
					c-5.9-3.9-11.5-8.3-16.8-13c-5.5-5-10.4-10.7-14.4-16.9l0.7-0.4c4.2,6,9.3,11.3,15,15.9c5.2,4.2,10.6,8.1,16.3,11.5
					c0.5-2,1-4.1,1.5-6.1c2.2-9.9,3.8-19.9,5-30c0-0.2,0-0.4,0.1-0.6c-2.6-5.5-5.7-10.8-8.6-16.3c-1.5-2.8-2.8-5.6-4.2-8.4
					c-1.4-2.8-3.1-5.3-5.1-7.7l0.6-0.6c2.2,2.3,4.1,4.8,5.7,7.6c1.6,2.7,3.1,5.5,4.7,8.1c2.4,4.1,5,8,7.4,12.2
					c0.8-8.2,1.4-16.4,1.7-24.7c0.3-6.7,0.4-13.4,0.4-20.2c-4.1-4.7-7.9-9.7-11.7-14.6c-3.7-4.9-7.8-9.6-12.1-14l1.1-1.1
					c4.5,4.3,8.8,8.9,12.8,13.7c3.3,3.9,6.6,7.8,9.9,11.6c0-2,0-3.9-0.1-5.9c-0.2-10.1-0.6-20.3-1.4-30.4c-0.1-1.5-0.2-3.1-0.4-4.6
					c-4.8-4.5-9.1-9.4-13-14.6c-4-5.2-7.9-10.6-12.2-15.5l0.8-0.7C-4.7,79.2-0.6,84.4,3.6,89.4z"/>
			</g>
			<g id="Group_3117" transform="translate(284.4 103.056)">
				<path id="Path_4852" class="st1" d="M60.1,148.1c-0.5,2-1.1,3.9-2,5.8c-0.2,0.4-0.4,0.9-0.6,1.3c-0.1,0.1-0.1,0.3-0.2,0.4
					c-2.2,4.1-5.1,7.7-8.7,10.7H-8.6c-0.1-0.1-0.2-0.1-0.3-0.2c-3.5-2.6-12.5-9.6-3.9-13.4c3.2-1.4,8-1.7,10.8-2.9
					c1.9-0.8,2.8-2.1,1.8-4.4c-3.9-8.9-18.1-7.1-22.9-14.8c-0.7-1.1-0.8-2.4-0.1-3.5c0.4-0.5,1-1,1.7-1.2c4.4-2.2,10.8-4.9,8.7-10.7
					c-0.1-0.2-0.1-0.3-0.2-0.5c-4.5-10.2-26.5-14-28.8-19.1c-0.8-2.6,0.5-5.3,3-6.3c3.7-1.6,9.5-1.1,12.8-2.6
					c3.1-1.4,2.9-4.4,1.8-6.9c-3.4-7.7-18.1-7.5-21.6-15.4c-1.3-2.9-0.4-4.3,1.8-5.2c2.3-1,6-1.4,8.6-2.5c2.7-1.2,4.2-3.2,2.3-7.5
					c-1.8-3.6-4.7-6.6-8.2-8.6c-3-1.7-6.9-2-8.9-5c-4.4-6.7,5.3-7,9.3-8.7c2.4-1,2.9-2.6,2-4.7c-1.9-4.4-9.8-10.7-11.9-15.5
					c-1-2.3-0.7-4.2,2-5.4c16-7,13.6,19,23.2,14.7c2.5-1.1,5.3-3.5,7.8-4.7c2.3-1,4.3-0.9,5.7,2.3c2.4,5.4-4.4,18.6-2.7,22.5
					c0.8,1.7,3.7,1.7,6,0.6c3-1.3,6.2-4.1,9.3-5.5c3.9-1.7,7,0,8.1,2.6c2.7,6.1-7.8,16-5,22.3c1.9,4.3,15.2-0.4,16.7,3.1
					C22.3,64,6.5,73.7,8.8,79c2.8,6.4,18.9-3.7,21.9,3.1c3.1,7.1-9,13.9-5.8,21.2c4.6,10.4,20.9-5.7,25.3,4.2
					c3.7,8.5-11.7,15.8-8,24.3c1.9,4.4,6.2,2.4,10.3,1.8c4.2-0.6,8.5,1.7,9.4,5.3C62.6,141.6,60.8,145.2,60.1,148.1z"/>
				<path id="Path_4853" class="st2" d="M49.6,143c-1.2,1.6-2.6,3.1-4.1,4.5c-0.6,0.6-1.3,1.3-2,2c-4.7,4.6-10.7,9.9-12.7,11.3
					c0.8,1.9,1.6,3.7,2.4,5.6h-1.6c-0.7-1.6-1.4-3.3-2.2-5c-5,1.5-12.6,0.3-18.3-0.6c-1.9-0.3-3.6-0.6-4.6-0.6l0.2-1.3
					c1.1,0.1,2.8,0.3,4.8,0.6c5.1,0.8,12.7,2,17.4,0.7c-3.9-9.1-7.7-18.5-11.9-28.7c-5.4,1.7-21.4-0.8-26.9-2.5l0.6-1.2
					c6.4,2,21.3,3.9,25.9,2.6c-0.1-0.2-0.2-0.5-0.3-0.7l-2.1-5.2c-1-2.4-2-4.9-3.1-7.5c-2-5-4.2-10.2-6.4-15.6
					C3,101.6-1,101.1-7.1,99.6c-5.4-1.2-10.7-2.8-16-4.6l0.7-1.2c8.2,3,23,6.5,26.7,6.4C-0.1,89.6-5.1,78-10.9,65
					c-4.3,1.3-18.8-1.5-18.9-1.6l0.5-1.2c1,0.2,5.4,1,9.5,1.5c5.6,0.6,7.7,0.4,8.5,0.2c-4.2-9.4-8.7-19.5-13.8-30.5l1.3-0.6
					c5,10.8,9.5,20.8,13.7,30.1c2.1-2.6,3.6-7,4.8-10.7c0.4-1.1,0.7-2.1,1-3l1.3,0.3c-0.3,0.9-0.7,1.9-1,3c-1.4,4-3,9-5.6,11.7
					C-3.8,77.3,1.2,89.1,5.6,99.8c4.5-2.4,12.7-10.6,15.3-14.2l1.2,0.6C19.4,89.8,11,98.3,6.1,100.9c2.4,5.8,4.7,11.4,6.8,16.6
					c1.1,2.7,2.2,5.3,3.2,7.8c0.5,1.3,1,2.5,1.5,3.8c0.1,0.2,0.2,0.4,0.3,0.7c1-0.6,1.9-1.2,2.9-1.9c1.4-1,3-2.2,4.6-3.6
					c3.4-2.7,6.6-5.7,9.5-8.8l1.1,0.7c-3,3.2-6.3,6.2-9.7,8.9c-1.5,1.2-3,2.4-4.4,3.4c-1.1,0.8-2.3,1.6-3.5,2.3
					c4.1,10.2,8,19.6,11.8,28.6c1.9-1.5,7.6-6.5,12.2-10.9c0.8-0.7,1.5-1.4,2.2-2.1c1.4-1.3,2.6-2.7,3.8-4.2L49.6,143z"/>
			</g>
			<path id="Path_4854" class="st1" d="M569,315.5H-5.1C2,301,11.6,291.1,23.1,284.6c15-8.5,33.2-11.3,53.3-11.3
				c37.7,0,81.9,9.7,123.6,9.7c29.7,0,52.7-7.1,75.3-14.3c7.4-2.3,14.7-4.7,22.2-6.8c1.5-0.4,3-0.8,4.6-1.2c1.8-0.5,3.6-0.9,5.4-1.4
				c6.1-1.5,12.3-2.7,18.9-3.6c5.3-0.8,10.7-1.3,16.4-1.5c2.3-0.1,4.7-0.2,7.1-0.2h0.4c12.7,0.1,25.4,1.5,37.8,4.3
				c9.5,2,18.8,4.6,28.5,7.3c1.4,0.4,2.8,0.8,4.2,1.2c7.3,2,14.8,4,22.9,5.8c15.6,3.5,39.3,3.5,62,5.6c12.7,1.1,25.1,2.9,35.5,6.4
				C557.1,289.9,568.4,299,569,315.5z"/>
			<g id="Group_3120" transform="translate(358.078 0)">
				<g id="Group_3118" transform="translate(33.39 61.784)">
					<rect id="Rectangle_379" x="-51.5" y="0" class="st1" width="2.7" height="206.8"/>
				</g>
				<path id="Path_4855" class="st1" d="M-16.8,179.6c0,0-0.7-29.3,31.9-36C15.2,143.7,17.9,175.7-16.8,179.6z"/>
				<path id="Path_4856" class="st1" d="M-16.8,98.2c0,0-0.5-21,22.9-25.8C6.2,72.4,8.2,95.4-16.8,98.2z"/>
				<path id="Path_4857" class="st1" d="M-16.8,135.3c0,0,0.4-16.4-17.9-20.1C-34.6,115.2-36.2,133.1-16.8,135.3z"/>
				<g id="Group_3119" transform="translate(0)">
					<circle id="Ellipse_125" class="st1" cx="-16.8" cy="34.8" r="29.8"/>
					<path id="Path_4858" class="st2" d="M-19.3,50.6v-1.9c-1.8-0.2-3.5-0.9-4.9-1.9c-1.3-0.9-2.3-2.1-3-3.5
						c-0.2-0.4-0.3-0.8-0.3-1.2c0-0.2,0-0.5,0.1-0.7c0.2-0.5,0.6-0.9,1-1.2c0.3-0.2,0.6-0.3,1-0.3c0.8,0.1,1.6,0.6,2.1,1.3
						c1.3,2,3.6,3.2,6,3.1c1.3,0,2.6-0.3,3.7-1.1c1-0.7,1.7-1.8,1.7-3c0-1.2-0.6-2.3-1.7-2.8c-0.9-0.5-2-0.8-3-1.1l-0.6-0.2
						c-2.4-0.4-4.8-1.3-6.8-2.7c-1.8-1.3-2.8-3.4-2.8-5.6c0-2,0.8-4,2.2-5.4c1.4-1.4,3.3-2.4,5.3-2.7v-1.7c0-0.5,0.2-1,0.6-1.4
						c0.4-0.4,0.9-0.6,1.4-0.5c0.5,0,1,0.2,1.3,0.5c0.3,0.4,0.5,0.9,0.5,1.4V20c2.7,0.3,5.1,1.8,6.6,4c0.2,0.3,0.2,0.5,0.2,0.8
						c0,0.1,0,0.2,0,0.4c-0.1,0.4-0.3,0.8-0.6,1c-0.4,0.4-0.9,0.5-1.5,0.5c-0.5,0-0.9-0.1-1.3-0.4c-0.7-0.7-1.5-1.2-2.3-1.6
						c-0.9-0.4-1.9-0.6-2.9-0.5c-1.2,0-2.5,0.3-3.5,1c-0.9,0.6-1.5,1.6-1.5,2.7c0,1.2,0.8,2.3,1.9,2.7c1.5,0.6,3,1.1,4.5,1.3
						c2.1,0.4,4,1.3,5.8,2.6c1.7,1.3,2.6,3.3,2.6,5.5c0,2.1-0.8,4.1-2.3,5.7c-1.5,1.6-3.5,2.6-5.7,2.9v1.9c0,1-0.8,1.9-1.8,1.9
						c0,0,0,0-0.1,0C-18.4,52.5-19.3,51.7-19.3,50.6C-19.3,50.6-19.3,50.6-19.3,50.6z"/>
				</g>
			</g>
			<g id="Group_3123" transform="translate(447.479 100.126)">
				<g id="Group_3121" transform="translate(30.387 52.151)">
					<rect id="Rectangle_380" x="-51.5" y="0" class="st1" width="2.1" height="130.4"/>
				</g>
				<path id="Path_4859" class="st1" d="M-20.1,142.5c0,0-0.5-22.4,24.5-27.6C4.4,114.9,6.5,139.5-20.1,142.5z"/>
				<path id="Path_4860" class="st1" d="M-20.1,80.1c0,0-0.4-16.1,17.6-19.8C-2.5,60.3-1,77.9-20.1,80.1z"/>
				<path id="Path_4861" class="st1" d="M-20.1,108.5c0,0,0.3-12.6-13.7-15.4C-33.8,93.1-35,106.8-20.1,108.5z"/>
				<g id="Group_3122" transform="translate(0 0)">
					<circle id="Ellipse_126" class="st1" cx="-20.1" cy="31.4" r="22.8"/>
					<path id="Path_4862" class="st2" d="M-22,43.6v-1.4c-1.4-0.2-2.6-0.7-3.8-1.5c-1-0.7-1.8-1.6-2.3-2.7c-0.1-0.3-0.2-0.6-0.2-0.9
						c0-0.2,0-0.4,0.1-0.5c0.1-0.4,0.4-0.7,0.8-0.9c0.2-0.1,0.5-0.2,0.8-0.2c0.7,0.1,1.2,0.5,1.6,1c1,1.6,2.7,2.5,4.6,2.4
						c1,0,2-0.3,2.8-0.8c0.8-0.5,1.3-1.4,1.3-2.3c0-0.9-0.5-1.8-1.3-2.2c-0.7-0.4-1.5-0.6-2.3-0.8l-0.4-0.1c-1.9-0.3-3.7-1-5.2-2.1
						c-1.4-1-2.1-2.6-2.1-4.3c0-1.5,0.6-3,1.7-4.1c1.1-1.1,2.5-1.8,4.1-2.1v-1.3c0-0.4,0.2-0.8,0.4-1c0.3-0.3,0.7-0.4,1-0.4
						c0.4,0,0.7,0.1,1,0.4c0.3,0.3,0.4,0.7,0.4,1v1.3c2.1,0.2,3.9,1.4,5,3.1c0.1,0.2,0.2,0.4,0.2,0.6c0,0.1,0,0.2,0,0.3
						c-0.1,0.3-0.2,0.6-0.5,0.8c-0.3,0.3-0.7,0.4-1.1,0.4c-0.4,0-0.7-0.1-1-0.3c-0.5-0.5-1.1-0.9-1.8-1.3c-0.7-0.3-1.5-0.4-2.3-0.4
						c-0.9,0-1.9,0.2-2.7,0.8c-0.7,0.5-1.2,1.2-1.1,2.1c0,0.9,0.6,1.8,1.5,2.1c1.1,0.5,2.3,0.8,3.5,1c1.6,0.3,3.1,1,4.4,2
						c1.3,1,2,2.6,2,4.2c0,1.6-0.6,3.2-1.7,4.3c-1.2,1.2-2.7,2-4.4,2.3v1.5c0,0.8-0.6,1.4-1.4,1.5c0,0,0,0,0,0
						C-21.4,45-22,44.4-22,43.6C-22,43.6-22,43.6-22,43.6z"/>
				</g>
			</g>
			<g id="Group_3126" transform="translate(249.529 164.299)">
				<g id="Group_3124" transform="translate(20.207 34.681)">
					<rect id="Rectangle_381" x="-51.5" y="0" class="st1" width="1.4" height="86.7"/>
				</g>
				<path id="Path_4863" class="st1" d="M-30.6,94.8c0,0-0.4-14.9,16.3-18.3C-14.3,76.4-12.9,92.8-30.6,94.8z"/>
				<path id="Path_4864" class="st1" d="M-30.6,53.3c0,0-0.3-10.7,11.7-13.2C-18.9,40.1-17.9,51.8-30.6,53.3z"/>
				<path id="Path_4865" class="st1" d="M-30.6,72.2c0,0,0.2-8.4-9.1-10.3C-39.7,61.9-40.5,71-30.6,72.2z"/>
				<g id="Group_3125" transform="translate(0 0)">
					<circle id="Ellipse_127" class="st1" cx="-30.6" cy="20.9" r="15.2"/>
					<path id="Path_4866" class="st2" d="M-31.9,29V28c-0.9-0.1-1.8-0.4-2.5-1c-0.7-0.4-1.2-1.1-1.5-1.8c-0.1-0.2-0.1-0.4-0.1-0.6
						c0-0.1,0-0.2,0.1-0.4c0.1-0.3,0.3-0.5,0.5-0.6c0.2-0.1,0.3-0.1,0.5-0.1c0.4,0.1,0.8,0.3,1,0.7c0.7,1,1.8,1.6,3.1,1.6
						c0.7,0,1.3-0.2,1.9-0.5c0.5-0.3,0.9-0.9,0.9-1.5c0-0.6-0.3-1.2-0.9-1.4c-0.5-0.2-1-0.4-1.5-0.5l-0.3-0.1
						c-1.2-0.2-2.4-0.7-3.5-1.4c-0.9-0.7-1.4-1.7-1.4-2.8c0-1,0.4-2,1.1-2.7c0.7-0.7,1.7-1.2,2.7-1.4v-0.9c0-0.3,0.1-0.5,0.3-0.7
						c0.2-0.2,0.4-0.3,0.7-0.3c0.2,0,0.5,0.1,0.7,0.3c0.2,0.2,0.3,0.4,0.3,0.7v0.9c1.4,0.2,2.6,0.9,3.3,2c0.1,0.1,0.1,0.3,0.1,0.4
						c0,0.1,0,0.1,0,0.2c-0.1,0.2-0.2,0.4-0.3,0.5c-0.2,0.2-0.5,0.3-0.7,0.3c-0.2,0-0.5-0.1-0.7-0.2c-0.4-0.3-0.8-0.6-1.2-0.8
						c-0.5-0.2-1-0.3-1.5-0.3c-0.6,0-1.3,0.2-1.8,0.5c-0.5,0.3-0.8,0.8-0.8,1.4c0,0.6,0.4,1.2,1,1.4c0.7,0.3,1.5,0.5,2.3,0.7
						c1.1,0.2,2.1,0.7,2.9,1.3c0.9,0.7,1.3,1.7,1.3,2.8c0,1.1-0.4,2.1-1.1,2.9c-0.8,0.8-1.8,1.3-2.9,1.5v1c0,0.5-0.4,1-0.9,1
						c0,0,0,0,0,0C-31.5,30-31.9,29.5-31.9,29C-31.9,29-31.9,29-31.9,29z"/>
				</g>
			</g>
			<g id="Group_3128" transform="translate(136.245 47.432)">
				<g id="Group_3127" transform="translate(30.004 60.007)">
					<rect id="Rectangle_382" x="-51.5" y="0" class="st1" width="2.9" height="179.8"/>
				</g>
				<path id="Path_4867" class="st1" d="M-20.1,98.5c0,0-0.5-22.2,24.2-27.3C4.1,71.2,6.3,95.6-20.1,98.5z"/>
				<path id="Path_4868" class="st1" d="M-20.1,137.7c0,0,0.4-17.3-18.9-21.3C-39,116.4-40.6,135.4-20.1,137.7z"/>
				<circle id="Ellipse_128" class="st1" cx="-20.1" cy="31.5" r="31.5"/>
				<path id="Path_4869" class="st2" d="M-22.8,48.2v-2c-1.9-0.2-3.6-0.9-5.2-2c-1.4-0.9-2.5-2.2-3.2-3.7c-0.2-0.4-0.3-0.8-0.3-1.3
					c0-0.3,0-0.5,0.1-0.8c0.2-0.5,0.6-1,1.1-1.2c0.3-0.2,0.7-0.3,1-0.3c0.9,0.1,1.7,0.6,2.2,1.4c1.4,2.1,3.8,3.4,6.3,3.3
					c1.4,0,2.7-0.4,3.9-1.1c1.1-0.7,1.8-1.9,1.8-3.2c0-1.3-0.7-2.4-1.8-3c-1-0.5-2.1-0.9-3.2-1.1l-0.6-0.2c-2.6-0.4-5-1.3-7.2-2.9
					c-1.9-1.4-3-3.6-2.9-5.9c0-2.1,0.9-4.2,2.4-5.7c1.5-1.5,3.5-2.5,5.6-2.9v-1.8c0-0.5,0.2-1.1,0.6-1.4c0.4-0.4,0.9-0.6,1.4-0.6
					c0.5,0,1,0.2,1.4,0.6c0.4,0.4,0.6,0.9,0.6,1.4v1.8c2.8,0.3,5.4,1.9,6.9,4.2c0.2,0.3,0.3,0.6,0.3,0.9c0,0.1,0,0.3,0,0.4
					c-0.1,0.4-0.3,0.8-0.6,1.1c-0.4,0.4-1,0.6-1.5,0.6c-0.5,0-1-0.1-1.4-0.4c-0.7-0.7-1.6-1.3-2.5-1.7c-1-0.4-2-0.6-3.1-0.6
					c-1.3,0-2.6,0.3-3.7,1.1c-1,0.6-1.6,1.7-1.6,2.9c0,1.3,0.8,2.4,2.1,2.9c1.5,0.7,3.1,1.1,4.8,1.4c2.2,0.5,4.3,1.4,6.1,2.7
					c1.8,1.4,2.8,3.5,2.7,5.8c0,2.2-0.8,4.4-2.4,6c-1.6,1.7-3.7,2.8-6,3.1v2c0,1.1-0.8,2-1.9,2c0,0,0,0-0.1,0
					C-21.8,50.2-22.7,49.3-22.8,48.2C-22.8,48.2-22.8,48.2-22.8,48.2z"/>
			</g>
			<g id="Group_3129" transform="translate(0 59.11)">
				<path id="Path_4870" class="st1" d="M-50.3,149.7c-2.3,18.1-2.2,49.6,7.7,70.1c3.8,7.9,9.2,14.2,16.4,17.4c2.4,1,4.9,1.7,7.5,2
					c0.8,0.1,1.6,0.2,2.5,0.2c38,0.4,25.7-21.9,47.4-33.2c1.8-1,3.7-1.8,5.7-2.5c14.4-5.3,29-4.5,31.7-25.9
					c1.3-10-0.5-20.7,0.8-30.8c2.6-20.2,21.8-30.8,24-47.6c0.4-3.1,0.1-6.3-0.9-9.3c-4.2-12.6-19.3-22-22.3-52.1
					C68.7,23.7,72.9,2.2,56.2,0.1C49.2-0.8,14.7,6,10.8,37.3c-0.1,0.7-0.2,1.5-0.3,2.2C6.2,73.3-9.1,63.6-17.9,78.9
					c-5.1,8.9-4.3,19.5-8.7,28.5C-34.4,123.5-47.2,125.4-50.3,149.7z"/>
				<path id="Path_4871" class="st2" d="M2.6,196.1C26.3,170.2,39.5,138.4,45.2,93c1.9-15,2.9-30.2,3.7-44.3l-2.8-0.2
					c-0.8,14.1-1.8,29.2-3.6,44.1c-5.7,44.8-18.6,76.1-41.9,101.6L2.6,196.1z"/>
			</g>
			<g id="Group_3130" transform="translate(390.33 166.36)">
				<path id="Path_4872" class="st1" d="M39.2,57.6C46,47.2,54.4,37.4,60.5,26.3c2-3.2,3.4-6.8,4.2-10.5c0.6-3.8,0-7.8-2.3-10.8
					c-3.8-4.8-10.8-5.4-16.8-4.7C34,1.6,24.3,10.6,13.1,10.8c-1.1,0-2.2,0-3.4-0.2c-8.3-0.9-15.1-4.7-21.6,5
					c-3,4.5-4.7,10.2-7.7,14.8c-6.1,9.2-18,9.7-23,17.4c-1,1.4-1.6,3-1.8,4.7c-0.9,6.2,1.7,12.1,0.8,18.3
					c-1.2,6.8-3.2,13.5-5.9,19.9c-1.9,4.7-4,10.6,1.2,14c3.2,2.1,21.5,7,30.9-7.2c0.2-0.3,0.4-0.7,0.7-1c10.1-15.4,15.3-7,23.2-12.3
					c4.6-3.1,6.7-8.4,11-11.8C25.2,66.5,31.9,68.7,39.2,57.6z"/>
				<path id="Path_4873" class="st2" d="M24.6,22.5C6.9,29.4-7.1,41.7-20.7,62.3c-4.5,6.8-8.6,13.9-12.4,20.6l1.3,0.8
					C-28,77-23.9,70-19.4,63.2C-6,42.8,7.8,30.7,25.2,23.9L24.6,22.5z"/>
			</g>
			<path id="Path_4874" class="st1" d="M489.3,228.9l-14.2,38.9c-1.2,3.6-2.7,7-4.5,10.3c-8.7,14.3-57.1,32.4-46.3,1.9
				C434.4,251.3,461.7,236.5,489.3,228.9z"/>
			<path id="Path_4875" class="st1" d="M426.3,291.5c-0.7-10.5-3.6-22.5-8.5-31.9c-2.7-5.1-6.6-10.1-12.2-11.5
				c-1.1-0.3-2.3-0.3-3.4-0.1c-3,0.9-4.2,4.5-3.9,7.6c0.5,5.4,4.2,10.1,8.3,13.7s8.9,6.4,12.8,10.3s7,9,6.5,14.5"/>
			<path id="Path_4876" class="st1" d="M216.4,281.5c-2.6-12.4-10.9-22.7-22.4-28c-3.9-1.7-8.4-2.8-12.3-1.3s-6.8,6.4-4.8,10.2
				c1.7,3.2,5.7,4.1,9.3,4.2c1.9-0.1,3.8,0,5.7,0.5c1.8,0.6,3.5,2.2,3.4,4.1c-7.3-0.9-15.8-1.5-21.1,3.7c-2.2,2.2-3.3,6.3-0.9,8.2
				c1.7,1.4,4.2,0.9,6.4,0.4l8.7-2.1c1.2-0.3,3.1-0.1,3.1,1.1c-0.1,0.5-0.4,1-0.8,1.3c-1.4,1-2.6,2.1-3.7,3.4
				c-1,1.4-1.3,3.4-0.1,4.7c1,1.1,2.7,1.2,4.2,1.2c7.1,0,14.1-0.3,21.1-0.9"/>
			<path id="Path_4877" class="st1" d="M65.6,288.9c-2.1-7.6-3.7-15.4-4.8-23.3c-0.9-6.6-1.4-13.4-0.1-19.9
				c2.9-14.6,14.3-25.9,25-36.2c-2,7.5-3.9,15-4.3,22.7c-0.3,7.2,0.8,14.4,0.3,21.6c-0.5,5.7-1.6,11.4-3.1,16.9l-3.6,15.1
				c3.8-13.7,12.8-25.4,25.2-32.6c-3.3,8.9-5.5,18.2-9.6,26.7s-10.7,16.4-19.7,19.5"/>
			<path id="Path_4878" class="st1" d="M265.2,264.9c-4.7-2.1-9.2-4.5-13.5-7.2c-3.7-2.2-7.1-4.9-9.9-8.2c-6-7.5-7-17.7-7.7-27.3
				c2.9,4,5.8,8.1,9.5,11.5c3.4,3.1,7.5,5.5,10.8,8.7c2.6,2.6,5,5.4,7.1,8.4l6,8c-5.3-7.5-7.3-16.8-5.8-25.8
				c3.1,5.3,6.8,10.2,9.3,15.8s3.8,12.1,1.6,17.8"/>
		</g>
		<g id="Group_3149" transform="translate(1261.191 3592.858)">
			<path id="Path_4879" class="st1" d="M-12.3,292.7h574.9c9.7-14.8,14.6-31.7,14.6-46.6c0-20.9-10.6-35.4-26.7-44.2
				c-6.9-3.7-14.3-6.4-21.9-8.1c-3.8-0.9-7.7-1.6-11.7-2c-5.8-0.7-11.5-1-17.3-1c-11.3-0.1-22.5,0.9-33.6,2.9
				c-6.4,1.2-12.7,3-18.8,5.2c-1.6,0.6-3.1,1.2-4.6,1.8c-3.9,1.7-7.6,3.6-11.2,5.8c-0.9,0.5-1.8,1.1-2.7,1.7
				c-21.2,13.8-31.7,32.8-49.5,44.9c-0.8,0.6-1.7,1.1-2.6,1.7c-9.1,5.6-20.2,9.4-35.4,10.1c-1.5,0.1-3.1,0.1-4.8,0.1
				c-7,0-14-0.7-20.9-1.9c-13.2-2.2-26.2-6.1-39.1-9.8c-17.1-4.9-33.9-9.4-50.8-9.4c-16.7,0-31.3,4.4-46.1,9.4
				c-4.6,1.6-9.1,3.2-13.8,4.8c-16.1,5.5-33.1,10.4-53.9,10.4c-16.7,0-69.4-13.9-86.2-13.9C-15.1,254.6-1.7,279.7-12.3,292.7z"/>
			<g id="Group_3133" transform="translate(403.812 9.121)">
				<g id="Group_3132" transform="translate(31.338 57.421)">
					<rect id="Rectangle_383" x="-51.5" y="0" class="st1" width="2.5" height="190"/>
				</g>
				<path id="Path_4880" class="st1" d="M-18.9,165.7c0,0-0.6-26.9,29.3-33C10.4,132.6,13,162.1-18.9,165.7z"/>
				<path id="Path_4881" class="st1" d="M-18.9,90.9c0,0-0.5-19.3,21.1-23.7C2.1,67.2,4,88.3-18.9,90.9z"/>
				<path id="Path_4882" class="st1" d="M-18.9,125c0,0,0.4-15.1-16.4-18.5C-35.4,106.5-36.8,123-18.9,125z"/>
				<circle id="Ellipse_129" class="st1" cx="-18.9" cy="32.6" r="27.3"/>
				<path id="Path_4883" class="st2" d="M-21.3,47.1v-1.7c-1.6-0.2-3.2-0.8-4.5-1.7c-1.2-0.8-2.2-1.9-2.8-3.2
					c-0.2-0.3-0.3-0.7-0.3-1.1c0-0.2,0-0.4,0.1-0.7c0.2-0.5,0.5-0.8,1-1.1c0.3-0.2,0.6-0.3,0.9-0.3c0.8,0.1,1.5,0.6,1.9,1.2
					c1.2,1.9,3.3,2.9,5.5,2.8c1.2,0,2.4-0.3,3.4-1c1-0.6,1.5-1.7,1.6-2.8c0-1.1-0.6-2.1-1.6-2.6c-0.9-0.5-1.8-0.8-2.8-1l-0.5-0.1
					c-2.2-0.3-4.4-1.2-6.2-2.5c-1.6-1.2-2.6-3.1-2.5-5.1c0-1.9,0.7-3.6,2.1-4.9c1.3-1.3,3-2.2,4.9-2.5v-1.5c0-0.5,0.2-0.9,0.5-1.2
					c0.3-0.3,0.8-0.5,1.2-0.5c0.4,0,0.9,0.2,1.2,0.5c0.3,0.3,0.5,0.8,0.5,1.2V19c2.5,0.3,4.7,1.6,6,3.7c0.1,0.2,0.2,0.5,0.2,0.8
					c0,0.1,0,0.3,0,0.4c-0.1,0.4-0.3,0.7-0.6,1c-0.4,0.3-0.8,0.5-1.3,0.5c-0.4,0-0.9-0.1-1.2-0.4c-0.6-0.6-1.4-1.1-2.2-1.5
					c-0.9-0.3-1.8-0.5-2.7-0.5c-1.1,0-2.3,0.3-3.2,0.9c-0.9,0.5-1.4,1.5-1.4,2.5c0,1.1,0.7,2.1,1.8,2.5c1.3,0.6,2.7,1,4.2,1.2
					c1.9,0.4,3.7,1.2,5.3,2.4c1.5,1.2,2.4,3.1,2.4,5c0,1.9-0.7,3.8-2.1,5.2c-1.4,1.5-3.2,2.4-5.2,2.7v1.7c0,0.9-0.7,1.7-1.7,1.7
					c0,0,0,0,0,0C-20.5,48.9-21.2,48.1-21.3,47.1C-21.3,47.2-21.3,47.2-21.3,47.1z"/>
			</g>
			<g id="Group_3136" transform="translate(152.138 85.918)">
				<g id="Group_3134" transform="translate(26.522 48.727)">
					<rect id="Rectangle_384" x="-51.5" y="0" class="st1" width="2.1" height="145.3"/>
				</g>
				<path id="Path_4884" class="st1" d="M-23.9,153.1c0,0-0.5-22.9,25-28.1C1,124.9,3.2,150-23.9,153.1z"/>
				<path id="Path_4885" class="st1" d="M-23.9,89.4c0,0-0.4-16.4,17.9-20.2C-6,69.2-4.4,87.2-23.9,89.4z"/>
				<path id="Path_4886" class="st1" d="M-23.9,118.4c0,0,0.3-12.8-14-15.8C-37.9,102.6-39.1,116.7-23.9,118.4z"/>
				<g id="Group_3135" transform="translate(0 0)">
					<circle id="Ellipse_130" class="st1" cx="-23.9" cy="27.6" r="23.3"/>
					<path id="Path_4887" class="st2" d="M-25.9,40v-1.4c-1.4-0.2-2.7-0.7-3.8-1.5c-1-0.7-1.8-1.6-2.4-2.7c-0.1-0.3-0.2-0.6-0.2-0.9
						c0-0.2,0-0.4,0.1-0.6c0.2-0.4,0.4-0.7,0.8-0.9c0.2-0.1,0.5-0.2,0.8-0.2c0.7,0.1,1.2,0.5,1.6,1c1,1.6,2.8,2.5,4.7,2.4
						c1,0,2-0.3,2.9-0.8c0.8-0.5,1.3-1.4,1.3-2.4c0-0.9-0.5-1.8-1.3-2.2c-0.7-0.4-1.5-0.7-2.4-0.8l-0.5-0.1c-1.9-0.3-3.7-1-5.3-2.1
						c-1.4-1-2.2-2.6-2.2-4.3c0-1.6,0.6-3.1,1.7-4.2c1.1-1.1,2.6-1.9,4.2-2.1v-1.3c0-0.4,0.2-0.8,0.5-1.1c0.3-0.3,0.7-0.4,1.1-0.4
						c0.4,0,0.7,0.1,1,0.4c0.3,0.3,0.4,0.7,0.4,1.1V16c2.1,0.2,4,1.4,5.1,3.1c0.1,0.2,0.2,0.4,0.2,0.7c0,0.1,0,0.2,0,0.3
						c-0.1,0.3-0.2,0.6-0.5,0.8c-0.3,0.3-0.7,0.4-1.1,0.4c-0.4,0-0.7-0.1-1-0.3c-0.5-0.5-1.2-0.9-1.8-1.3c-0.7-0.3-1.5-0.4-2.3-0.4
						c-1,0-1.9,0.2-2.7,0.8c-0.7,0.5-1.2,1.3-1.2,2.1c0,1,0.6,1.8,1.5,2.1c1.1,0.5,2.3,0.8,3.5,1c1.6,0.3,3.2,1,4.5,2
						c1.3,1,2.1,2.6,2,4.3c0,1.6-0.6,3.2-1.8,4.4c-1.2,1.2-2.8,2-4.4,2.3V40c0,0.8-0.6,1.5-1.4,1.5c0,0,0,0,0,0
						C-25.2,41.5-25.9,40.8-25.9,40C-25.9,40-25.9,40-25.9,40z"/>
				</g>
			</g>
			<g id="Group_3139" transform="translate(281.744 0)">
				<g id="Group_3137" transform="translate(33.39 61.784)">
					<rect id="Rectangle_385" x="-51.5" y="0" class="st1" width="2.7" height="206.8"/>
				</g>
				<path id="Path_4888" class="st1" d="M-16.8,179.6c0,0-0.7-29.3,31.9-36C15.2,143.7,17.9,175.7-16.8,179.6z"/>
				<path id="Path_4889" class="st1" d="M-16.8,98.2c0,0-0.5-21,22.9-25.8C6.2,72.4,8.2,95.4-16.8,98.2z"/>
				<path id="Path_4890" class="st1" d="M-16.8,135.3c0,0,0.4-16.4-17.9-20.1C-34.6,115.2-36.2,133.1-16.8,135.3z"/>
				<g id="Group_3138" transform="translate(0)">
					<circle id="Ellipse_131" class="st1" cx="-16.8" cy="34.8" r="29.8"/>
					<path id="Path_4891" class="st2" d="M-19.3,50.6v-1.9c-1.8-0.2-3.5-0.9-4.9-1.9c-1.3-0.9-2.3-2.1-3-3.5
						c-0.2-0.4-0.3-0.8-0.3-1.2c0-0.2,0-0.5,0.1-0.7c0.2-0.5,0.6-0.9,1-1.2c0.3-0.2,0.6-0.3,1-0.3c0.8,0.1,1.6,0.6,2.1,1.3
						c1.3,2,3.6,3.2,6,3.1c1.3,0,2.6-0.3,3.7-1.1c1-0.7,1.7-1.8,1.7-3c0-1.2-0.6-2.3-1.7-2.8c-1-0.5-2-0.8-3-1.1l-0.6-0.2
						c-2.4-0.4-4.8-1.3-6.8-2.7c-1.8-1.3-2.8-3.4-2.8-5.6c0-2,0.8-4,2.2-5.4c1.4-1.4,3.3-2.4,5.3-2.7v-1.7c0-0.5,0.2-1,0.6-1.4
						c0.4-0.4,0.9-0.6,1.4-0.5c0.5,0,1,0.2,1.3,0.5c0.3,0.4,0.5,0.9,0.5,1.4V20c2.7,0.3,5.1,1.8,6.6,4c0.2,0.3,0.2,0.5,0.2,0.8
						c0,0.1,0,0.2,0,0.4c-0.1,0.4-0.3,0.8-0.6,1c-0.4,0.4-0.9,0.5-1.5,0.5c-0.5,0-0.9-0.1-1.3-0.4c-0.7-0.7-1.5-1.2-2.3-1.6
						c-0.9-0.4-1.9-0.6-2.9-0.5c-1.2,0-2.5,0.3-3.5,1c-0.9,0.6-1.5,1.6-1.5,2.7c0,1.2,0.8,2.3,1.9,2.7c1.5,0.6,3,1.1,4.5,1.3
						c2.1,0.4,4,1.3,5.8,2.6c1.7,1.3,2.6,3.3,2.6,5.5c0,2.1-0.8,4.1-2.3,5.7c-1.5,1.6-3.5,2.6-5.7,2.9v1.9c0,1-0.8,1.9-1.8,1.9
						c0,0,0,0-0.1,0C-18.4,52.5-19.3,51.7-19.3,50.6C-19.3,50.6-19.3,50.6-19.3,50.6z"/>
				</g>
			</g>
			<g id="Group_3142" transform="translate(60.154 23.4)">
				<g id="Group_3140" transform="translate(33.39 61.784)">
					<rect id="Rectangle_386" x="-51.5" y="0" class="st1" width="2.7" height="179.4"/>
				</g>
				<path id="Path_4892" class="st1" d="M-16.8,118.5c0,0-0.6-25.4,27.7-31.2C11,87.3,13.4,115.1-16.8,118.5z"/>
				<path id="Path_4893" class="st1" d="M-16.8,155.6c0,0,0.4-16.4-17.9-20.1C-34.6,135.5-36.2,153.4-16.8,155.6z"/>
				<path id="Path_4894" class="st1" d="M-16.8,88.8c0,0,0.4-16.4-17.9-20.1C-34.6,68.7-36.2,86.7-16.8,88.8z"/>
				<g id="Group_3141" transform="translate(0 0)">
					<circle id="Ellipse_132" class="st1" cx="-16.8" cy="34.8" r="29.8"/>
					<path id="Path_4895" class="st2" d="M-19.3,50.6v-1.9c-1.8-0.2-3.5-0.9-4.9-1.9c-1.3-0.9-2.3-2.1-3-3.5
						c-0.2-0.4-0.3-0.8-0.3-1.2c0-0.2,0-0.5,0.1-0.7c0.2-0.5,0.6-0.9,1-1.2c0.3-0.2,0.6-0.3,1-0.3c0.8,0.1,1.6,0.6,2.1,1.3
						c1.3,2,3.6,3.2,6,3.1c1.3,0,2.6-0.3,3.7-1.1c1-0.7,1.7-1.8,1.7-3c0-1.2-0.6-2.3-1.7-2.8c-0.9-0.5-2-0.8-3-1.1l-0.6-0.2
						c-2.4-0.4-4.8-1.3-6.8-2.7c-1.8-1.3-2.8-3.4-2.8-5.6c0-2,0.8-4,2.2-5.4c1.4-1.4,3.3-2.4,5.3-2.7v-1.7c0-0.5,0.2-1,0.6-1.4
						c0.4-0.4,0.9-0.6,1.4-0.5c0.5,0,1,0.2,1.3,0.5c0.3,0.4,0.5,0.9,0.5,1.4V20c2.7,0.3,5.1,1.8,6.6,4c0.2,0.3,0.2,0.5,0.2,0.8
						c0,0.1,0,0.3,0,0.4c-0.1,0.4-0.3,0.8-0.6,1c-0.4,0.4-0.9,0.5-1.5,0.5c-0.5,0-0.9-0.1-1.3-0.4c-0.7-0.7-1.5-1.2-2.3-1.6
						c-0.9-0.4-1.9-0.6-2.9-0.5c-1.2,0-2.5,0.3-3.5,1c-0.9,0.6-1.5,1.6-1.5,2.7c0,1.2,0.8,2.3,1.9,2.7c1.5,0.6,3,1.1,4.5,1.3
						c2.1,0.4,4,1.3,5.8,2.6c1.7,1.3,2.6,3.3,2.6,5.5c0,2.1-0.8,4.1-2.3,5.7c-1.5,1.6-3.5,2.6-5.7,2.9v1.9c0,1-0.8,1.9-1.8,1.9
						c0,0,0,0-0.1,0C-18.4,52.5-19.3,51.7-19.3,50.6C-19.3,50.6-19.3,50.6-19.3,50.6z"/>
				</g>
			</g>
			<g id="Group_3143" transform="translate(0 145.653)">
				<path id="Path_4896" class="st1" d="M-50.7,95.1c-1.5,11.5-1.4,31.5,4.9,44.5c2.4,5,5.8,9,10.4,11c1.5,0.7,3.1,1.1,4.7,1.3
					c0.5,0.1,1,0.1,1.6,0.1C-5,152.2-12.8,138.1,1,130.9c1.2-0.6,2.4-1.1,3.6-1.6c9.2-3.4,18.4-2.9,20.1-16.5
					c0.8-6.3-0.3-13.2,0.5-19.6C26.8,80.4,39.1,73.7,40.4,63c0.3-2,0.1-4-0.6-5.9c-2.7-8-12.2-14-14.1-33.1
					c-0.9-8.9,1.8-22.6-8.8-24C12.5-0.5-9.4,3.8-12,23.7c-0.1,0.5-0.1,0.9-0.2,1.4c-2.7,21.4-12.4,15.3-18,25
					c-3.2,5.6-2.7,12.4-5.5,18.1C-40.6,78.4-48.8,79.6-50.7,95.1z"/>
				<path id="Path_4897" class="st2" d="M-17.1,124.6C-2.1,108.1,6.3,87.9,9.9,59c1.2-9.5,1.8-19.2,2.3-28.2l-1.8-0.1
					c-0.5,9-1.1,18.5-2.3,28c-3.6,28.5-11.8,48.4-26.6,64.5L-17.1,124.6z"/>
			</g>
			<path id="Path_4898" class="st1" d="M117.9,271.4c-4.4-3.2-8.5-6.7-12.4-10.5c-3.4-3.1-6.2-6.7-8.4-10.7
				c-4.6-9.1-3.3-19.9-1.9-30c2.1,4.8,4.2,9.7,7.3,14c2.9,4,6.5,7.4,9.3,11.5c2.1,3.3,4,6.7,5.5,10.3l4.4,9.6c-3.8-9-3.9-19-0.2-28
				c2,6.1,4.7,12.1,6.1,18.4c1.4,6.3,1.2,13.3-2.3,18.7"/>
			<g id="Group_3144" transform="translate(475.892 19.049)">
				<path id="Path_4899" class="st1" d="M92.4,190.9c-0.6,2.6-1.5,5.1-2.6,7.5c-0.3,0.6-0.5,1.1-0.8,1.7c-0.1,0.2-0.2,0.4-0.3,0.6
					c-2.8,5.3-6.6,10-11.2,13.7H3.9c-0.1-0.1-0.2-0.2-0.4-0.3c-4.5-3.4-16.1-12.4-5-17.3c4.1-1.8,10.3-2.2,13.9-3.7
					c2.4-1.1,3.6-2.7,2.3-5.7c-5.1-11.5-23.4-9.1-29.6-19.1c-0.9-1.4-1-3.1-0.1-4.5c0.6-0.7,1.3-1.2,2.2-1.6
					c5.6-2.8,13.9-6.3,11.2-13.8c-0.1-0.2-0.2-0.4-0.3-0.6c-5.8-13.2-34.2-18-37.1-24.6c-0.9-1.9-0.4-6.2,3.9-8.1
					c4.7-2.1,12.2-1.4,16.5-3.3c4-1.8,3.8-5.7,2.3-8.9c-4.4-10-23.4-9.7-27.9-19.9c-1.6-3.7-0.5-5.5,2.3-6.7c3-1.3,7.7-1.8,11-3.3
					c3.4-1.5,5.5-4.1,3-9.7c-1.9-4.4-6.3-8.6-10.6-11.1c-3.9-2.2-8.9-2.5-11.4-6.4c-5.6-8.7,6.8-9,11.9-11.2
					c3.1-1.3,3.7-3.4,2.6-6.1c-2.5-5.7-12.6-13.8-15.3-20c-1.3-2.9-0.9-5.4,2.6-7c20.6-9.1,17.5,24.5,29.9,19c3.2-1.4,6.8-4.6,10-6
					c2.9-1.3,5.6-1.2,7.4,3c3.1,7-5.7,24-3.5,29c1,2.2,4.7,2.2,7.8,0.8c3.9-1.7,8-5.3,12-7.1c5.1-2.2,9,0,10.5,3.3
					c3.5,7.9-10,20.6-6.4,28.8c2.4,5.5,19.6-0.5,21.5,4c2.7,6.1-17.7,18.7-14.7,25.4c3.6,8.3,24.3-4.7,28.2,4
					c4,9.2-11.6,17.9-7.5,27.3c5.9,13.4,27-7.4,32.6,5.4c4.8,10.9-15.1,20.4-10.3,31.4c2.5,5.7,8,3,13.2,2.3
					c5.4-0.8,10.9,2.1,12.2,6.8C95.6,182.5,93.3,187.3,92.4,190.9z"/>
				<path id="Path_4900" class="st2" d="M78.8,184.3c-1.6,2.1-3.3,4-5.2,5.8c-0.8,0.8-1.7,1.6-2.6,2.5c-6.1,5.9-13.9,12.8-16.4,14.6
					c1,2.4,2.1,4.8,3.1,7.2h-2c-0.9-2.1-1.9-4.2-2.8-6.4c-6.5,1.9-16.3,0.4-23.6-0.8c-2.5-0.4-4.6-0.7-6-0.8l0.3-1.6
					c1.4,0.1,3.6,0.4,6.2,0.8c6.6,1,16.4,2.6,22.4,0.9c-5-11.7-10-23.8-15.3-37c-7,2.2-27.6-1.1-34.7-3.3l0.8-1.6
					c8.3,2.6,27.5,5.1,33.4,3.4c-0.1-0.3-0.2-0.6-0.4-0.9c-0.9-2.2-1.8-4.4-2.7-6.6c-1.3-3.1-2.6-6.4-3.9-9.7
					c-2.6-6.4-5.4-13.1-8.3-20.2c-2.3,0.3-7.5-0.4-15.3-2.3c-7-1.6-13.9-3.6-20.6-5.9l0.8-1.5c10.6,3.9,29.7,8.4,34.4,8.2
					c-5.7-13.7-12.1-28.7-19.5-45.4c-5.6,1.7-24.2-2-24.4-2l0.6-1.6c1.3,0.3,6.9,1.3,12.2,1.9c7.2,0.8,9.9,0.6,10.9,0.3
					C-5.1,70.2-11,57.1-17.5,43l1.7-0.8C-9.4,56.2-3.6,69,1.8,81.1c2.7-3.3,4.6-9,6.2-13.7c0.5-1.4,0.9-2.7,1.4-3.9l1.7,0.4
					c-0.4,1.1-0.9,2.5-1.3,3.9C8,72.8,5.8,79.3,2.5,82.7c7.5,16.9,13.9,32.1,19.7,45.9c5.8-3.2,16.3-13.7,19.7-18.3l1.5,0.8
					c-3.4,4.7-14.3,15.6-20.6,19c3.1,7.5,6.1,14.7,8.8,21.4c1.4,3.5,2.8,6.8,4.1,10.1c0.7,1.6,1.3,3.3,2,4.9
					c0.1,0.3,0.2,0.6,0.4,0.9c1.3-0.7,2.5-1.5,3.7-2.4c1.8-1.3,3.9-2.9,5.9-4.6C52,156.8,56.1,153,60,149l1.4,0.9
					c-3.9,4.1-8.1,8-12.5,11.5c-2,1.6-3.9,3.1-5.7,4.4c-1.4,1.1-2.9,2-4.5,2.9c5.3,13.1,10.3,25.2,15.3,36.9
					c2.4-1.9,9.8-8.4,15.7-14c1-0.9,1.9-1.8,2.8-2.7c1.8-1.7,3.4-3.5,4.9-5.4L78.8,184.3z"/>
			</g>
			<g id="Group_3145" transform="translate(190.563 180.807)">
				<path id="Path_4901" class="st1" d="M-50.5,77.8c0.2,1,0.6,2.1,1,3c0.1,0.2,0.2,0.5,0.3,0.7c0,0.1,0.1,0.2,0.1,0.2
					c1.1,2.2,2.7,4.1,4.6,5.6h30l0.1-0.1c1.8-1.4,6.5-5,2-7c-1.7-0.7-4.2-0.9-5.6-1.5c-0.8-0.2-1.3-1-1.1-1.9c0-0.2,0.1-0.3,0.2-0.5
					c2.1-4.7,9.5-3.7,12-7.8c0.4-0.6,0.4-1.3,0.1-1.9c-0.2-0.3-0.5-0.5-0.9-0.6c-2.3-1.1-5.7-2.6-4.5-5.6c0-0.1,0.1-0.2,0.1-0.3
					c2.4-5.4,13.9-7.3,15.1-10c0.4-1.3-0.3-2.8-1.6-3.3c-1.9-0.8-5-0.6-6.7-1.3c-1.6-0.7-1.5-2.3-1-3.6c1.8-4.1,9.5-4,11.4-8.1
					c0.7-1.5,0.2-2.2-0.9-2.7c-1.2-0.5-3.1-0.7-4.5-1.3c-1.4-0.6-2.2-1.7-1.2-3.9c1-1.9,2.5-3.5,4.3-4.5c1.6-0.9,3.6-1,4.6-2.6
					c2.3-3.5-2.8-3.7-4.9-4.6c-0.9-0.2-1.4-1.1-1.2-2c0-0.2,0.1-0.3,0.2-0.5c1-2.3,5.1-5.6,6.2-8.1c0.6-0.9,0.3-2-0.6-2.6
					C7.1,0.8,6.9,0.7,6.8,0.6c-8.4-3.7-7.1,10-12.2,7.7c-1.3-0.6-2.8-1.9-4.1-2.4c-1.2-0.5-2.3-0.5-3,1.2c-1.3,2.8,2.3,9.8,1.4,11.8
					c-0.4,0.9-1.9,0.9-3.2,0.3c-1.6-0.7-3.3-2.2-4.9-2.9c-1.4-0.8-3.3-0.3-4.1,1.1c0,0.1-0.1,0.2-0.1,0.2c-1.4,3.2,4.1,8.4,2.6,11.7
					c-1,2.3-8-0.2-8.8,1.6c-1.1,2.5,7.2,7.6,6,10.4c-1.5,3.4-9.9-1.9-11.5,1.6c-1.6,3.7,4.7,7.3,3,11.1c-2.4,5.4-11-3-13.3,2.2
					c-2,4.4,6.2,8.3,4.2,12.8c-1,2.3-3.3,1.2-5.4,0.9c-2.2-0.3-4.5,0.9-5,2.8C-51.8,74.3-50.9,76.3-50.5,77.8z"/>
				<path id="Path_4902" class="st2" d="M-45,75.1c0.6,0.8,1.4,1.6,2.1,2.4c0.3,0.3,0.7,0.7,1,1c2.5,2.4,5.6,5.2,6.7,5.9
					c-0.4,1-0.8,2-1.3,2.9h0.8c0.4-0.9,0.8-1.7,1.1-2.6c2.6,0.8,6.6,0.2,9.6-0.3c1-0.2,1.9-0.3,2.4-0.3l-0.1-0.7
					c-0.6,0-1.5,0.2-2.5,0.3c-2.7,0.4-6.7,1-9.1,0.4c2-4.8,4.1-9.7,6.2-15.1c2.8,0.9,11.2-0.4,14.1-1.3l-0.3-0.6
					c-3.4,1-11.2,2.1-13.6,1.4c0-0.1,0.1-0.2,0.2-0.4c0.4-0.9,0.7-1.8,1.1-2.7c0.5-1.3,1.1-2.6,1.6-3.9c1.1-2.6,2.2-5.3,3.4-8.2
					c0.9,0.1,3-0.2,6.2-0.9c2.8-0.7,5.6-1.5,8.4-2.4l-0.3-0.6c-4.3,1.6-12.1,3.4-14,3.3c2.3-5.6,4.9-11.7,7.9-18.5
					c2.3,0.7,9.9-0.8,9.9-0.8l-0.2-0.7c-0.5,0.1-2.8,0.5-5,0.8c-1.5,0.3-3,0.3-4.5,0.1c2.2-4.9,4.6-10.3,7.3-16l-0.7-0.3
					c-2.6,5.7-5,10.9-7.2,15.8c-1.1-1.7-2-3.6-2.5-5.6c-0.2-0.6-0.4-1.1-0.6-1.6l-0.7,0.1c0.2,0.5,0.4,1,0.5,1.6
					c0.7,2.1,1.6,4.7,2.9,6.1c-3,6.9-5.7,13.1-8,18.7c-2.4-1.3-6.7-5.6-8-7.4l-0.6,0.3c1.4,1.9,5.8,6.4,8.4,7.7
					c-1.3,3.1-2.5,6-3.6,8.7c-0.6,1.4-1.1,2.8-1.7,4.1l-0.8,2c0,0.1-0.1,0.2-0.1,0.4c-0.5-0.3-1-0.6-1.5-1c-0.7-0.5-1.6-1.2-2.4-1.9
					c-1.8-1.4-3.4-3-5-4.6l-0.6,0.4c1.6,1.7,3.3,3.2,5.1,4.7c0.8,0.7,1.6,1.3,2.3,1.8c0.6,0.4,1.2,0.8,1.8,1.2
					c-2.2,5.3-4.2,10.3-6.2,15c-1-0.8-4-3.4-6.4-5.7c-0.4-0.4-0.8-0.8-1.1-1.1c-0.7-0.7-1.4-1.4-2-2.2L-45,75.1z"/>
			</g>
			<g id="Group_3146" transform="translate(76.047 141.193)">
				<path id="Path_4903" class="st1" d="M-32.4,109.3C-19.7,96.7-7.2,93.4-0.7,93.7c5.6,0.2,8.4,3,8.2,9
					c-0.4,9.7-9.7,11.1-17.7,10.7c-0.8,0-1.7-0.1-2.5-0.2C-19.4,112.7-25.8,110.5-32.4,109.3z"/>
				<path id="Path_4904" class="st1" d="M-24.4,88.9c6.1-12,16-18,27.5-18c3.8,0,6.7,1.2,6.7,5.1c0,9.7-19.3,13-29.7,13
					C-21.5,89-23,89-24.4,88.9z"/>
				<path id="Path_4905" class="st1" d="M-12,65.9c9.3-13.8,23.3-18,31.7-17.5c4.2,0.2,7.9,2,7.7,6.2c-0.5,8.9-11.3,10.1-18.4,10.6
					C2,65.6-5,64.9-12,65.9z"/>
				<path id="Path_4906" class="st1" d="M1.3,44.8c14.1-12.1,20.1-15.7,27.6-15c4.5,0.4,6.6,3.3,6.4,5.7C34.4,45.1,14,46,4,45.1
					C3,45,2.1,44.9,1.3,44.8z"/>
				<path id="Path_4907" class="st1" d="M16.7,25.4c8-2.3,21-8.8,23.7-17.6c1-3.3,0.1-6.3-3.2-7.3C28.4-2.1,22.5,6,16.7,25.4
					L16.7,25.4z"/>
				<path id="Path_4908" class="st1" d="M4.2,40.3c3.4-6,7-11.8,7.4-20.8c0.2-5-1-9.8-6-10C1.3,9.3-1,15-1.3,20.2
					C-1.6,27.6,1.2,36.5,4.2,40.3z"/>
				<path id="Path_4909" class="st1" d="M-11.5,64.6c1.6-6,6.2-18.6,6.5-25.4c0.2-5-1.4-10.5-6.4-10.8c-5.2-0.2-7.7,5.9-8,11.9
					C-19.8,49.3-16.2,60.6-11.5,64.6z"/>
				<path id="Path_4910" class="st1" d="M-24.3,89.3c0.4-3.7,1.1-7.6,1.3-11.4c0.3-7.7-0.5-22.8-9.6-23.2c-4.1-0.2-6.1,3.4-6.2,7.5
					c-0.1,1.1,0.1,2.3,0.3,3.4C-37.1,71-28.8,86-24.3,89.3z"/>
				<path id="Path_4911" class="st1" d="M-31.7,109.6c-0.4-13.2-0.4-36.5-13.9-37.1c-4.9-0.2-5.7,4.5-5.9,9.5
					C-52,94.4-42.3,104.6-31.7,109.6z"/>
				<path id="Path_4912" class="st1" d="M11.5,40.8c-2.7,1-5.4,1.8-8.2,2.4c0.7-0.9,1.3-1.8,2-2.7c0.8-1.1,1.7-2.2,2.5-3.2
					s1.7-2.1,2.6-3.2c3.4-4.2,6.9-8.4,10.5-12.5s7.4-7.9,11.3-11.8l-0.3-0.4c-4.2,3.5-8.1,7.3-11.9,11.3c-3.7,4-7.2,8.3-10.6,12.5
					c-0.9,1-1.7,2.1-2.6,3.2c-0.4,0.5-0.7,0.9-1.1,1.4l0.1-4.7l0-1.7c0-0.6,0-1.1,0-1.7l-0.1-3.4H5l-0.2,3.4c0,0.6-0.1,1.1-0.1,1.7
					l-0.2,1.7l-0.6,6.7H4c-1.6,2.1-3.2,4.3-4.8,6.5c-3.2,4.5-6.1,9-9,13.7c-0.4,0.6-0.7,1.2-1.1,1.8l0-0.4l-0.1-3l-0.3-6.1
					c-0.1-2-0.2-4.1-0.2-6.1c0-0.5,0-1,0-1.5s0-1,0-1.5l0-0.8l0-0.8c0-0.5,0.1-1,0.1-1.5l-0.6-0.1c-0.1,0.5-0.1,1-0.2,1.5l-0.1,0.8
					l0,0.8c0,0.5,0,1-0.1,1.5s0,1,0,1.5c0,2,0,4.1,0,6.1l0,6.1l0,3v1.5l0,0.8l0,0.6c-4.3,7.2-8.1,14.5-11.6,22.1
					c-0.8-3-1.5-6.1-2.3-9.1c-1-3.7-2.1-7.4-3.5-11.1l-0.8,0.3c1.2,3.6,2.2,7.4,3.1,11.1c0.9,3.7,1.6,7.4,2.4,11.1
					c0,0.1-0.1,0.2-0.1,0.3c-0.3,0.6-0.5,1.3-0.8,1.9s-0.5,1.3-0.8,1.9c-0.5,1.3-1,2.5-1.5,3.8c-1,2.6-1.9,5.1-2.7,7.8
					c-0.3,1-0.6,2-0.9,3.1c-1-1.1-1.8-2.2-2.7-3.3c-1-1.5-2-3.1-2.9-4.7c-0.9-1.6-1.6-3.3-2.3-5c-0.7-1.7-1.2-3.5-1.5-5.3l-0.6,0.1
					c0.3,1.9,0.7,3.7,1.3,5.5c0.6,1.8,1.3,3.5,2.1,5.2c0.8,1.7,1.7,3.4,2.7,5c1,1.6,2.1,3,3.3,4.4c-0.3,1-0.5,2.1-0.8,3.1
					c-0.6,2.7-1,5.4-1.3,8.1l1.3,0.1c0.3-2.7,0.8-5.3,1.4-8c0.2-1,0.5-2,0.8-3c3.8-0.2,7.6-0.7,11.3-1.4c3.9-0.8,7.7-2.1,11.2-3.9
					l-0.2-0.4c-3.6,1.6-7.4,2.7-11.2,3.3c-3.5,0.5-7.1,0.8-10.7,0.9c0.3-1.1,0.7-2.2,1-3.2c1.7-5.2,3.7-10.2,5.9-15.2
					c0-0.1,0.1-0.2,0.1-0.3c2.7-1.8,5.6-3.4,8.4-5.2c1.4-0.9,2.8-1.8,4.2-2.7c1.4-0.9,2.9-1.6,4.4-2.1l-0.1-0.4
					c-1.6,0.4-3.2,1.1-4.7,1.9c-1.5,0.8-2.9,1.7-4.4,2.5c-2.2,1.2-4.5,2.4-6.7,3.6c1.9-4,3.8-8,5.9-11.9c1.7-3.2,3.5-6.3,5.3-9.4
					c3.2-1.1,6.3-2.3,9.4-3.5c3.1-1.2,6.2-2.3,9.4-3.2l-0.2-0.8c-3.3,0.7-6.5,1.7-9.6,2.8c-2.6,0.9-5.2,1.8-7.7,2.6
					c0.5-0.9,1.1-1.8,1.6-2.7C-5.6,56-2.7,51.4,0.5,47c0.5-0.7,1-1.4,1.4-2c3.4-0.8,6.7-1.8,10-3.2c3.3-1.3,6.5-2.7,9.8-3.8
					l-0.2-0.6C18.1,38.3,14.8,39.6,11.5,40.8z"/>
			</g>
			<g id="Group_3147" transform="translate(359.879 120.624)">
				<path id="Path_4913" class="st1" d="M22.5,115.2c-13-13.4-25.9-17.1-32.8-16.9c-5.8,0.1-8.8,3-8.7,9.2
					c0.2,10.1,9.8,11.7,18.2,11.5c0.9,0,1.7-0.1,2.6-0.1C8.8,118.5,15.5,116.3,22.5,115.2z"/>
				<path id="Path_4914" class="st1" d="M14.6,93.7c-6.1-12.6-16.3-19-28.3-19.3c-3.9-0.1-7,1.1-7.1,5.2C-21,89.7-0.9,93.5,9.9,93.8
					C11.5,93.8,13.1,93.8,14.6,93.7z"/>
				<path id="Path_4915" class="st1" d="M2.1,69.6C-7.3,55-21.8,50.3-30.6,50.6c-4.4,0.2-8.3,1.9-8.1,6.3c0.3,9.3,11.5,10.7,19,11.4
					C-12.4,69-5.1,68.3,2.1,69.6z"/>
				<path id="Path_4916" class="st1" d="M-11.4,47.3c-14.4-12.8-20.5-16.8-28.4-16.2c-4.7,0.4-6.9,3.3-6.7,5.8
					c0.8,10,21.9,11.4,32.4,10.6C-13.1,47.5-12.2,47.4-11.4,47.3z"/>
				<path id="Path_4917" class="st1" d="M-26.9,26.8c-8.3-2.5-21.7-9.6-24.3-18.9c-1-3.5,0-6.5,3.5-7.5c9.1-2.5,15.1,6.1,20.8,26.3
					L-26.9,26.8z"/>
				<path id="Path_4918" class="st1" d="M-14.3,42.6c-3.5-6.4-7.1-12.4-7.3-21.8c-0.1-5.2,1.2-10.2,6.5-10.3
					c4.5-0.1,6.8,5.9,6.9,11.3C-8,29.5-11,38.7-14.3,42.6z"/>
				<path id="Path_4919" class="st1" d="M1.6,68.2c-1.6-6.3-6-19.5-6.2-26.6c-0.1-5.2,1.7-10.9,6.9-11.1c5.4-0.1,7.9,6.3,8,12.6
					C10.6,52.5,6.5,64.2,1.6,68.2z"/>
				<path id="Path_4920" class="st1" d="M14.4,94.2c-0.4-3.9-1-7.9-1.1-11.9c-0.2-8,1-23.7,10.5-23.9c4.3-0.1,6.2,3.6,6.3,7.9
					c0,1.2-0.1,2.4-0.4,3.5C28.1,75.3,19.2,90.8,14.4,94.2z"/>
				<path id="Path_4921" class="st1" d="M21.7,115.4c0.7-13.7,1.1-38,15.2-38.3c5.1-0.1,5.8,4.8,5.9,10
					C43.2,100.1,32.8,110.4,21.7,115.4z"/>
				<path id="Path_4922" class="st1" d="M-21.8,42.9c2.8,1.1,5.6,2,8.5,2.6c-0.7-1-1.4-1.9-2-2.9c-0.8-1.1-1.7-2.3-2.5-3.4
					s-1.7-2.2-2.6-3.4c-3.5-4.5-7-8.9-10.7-13.2s-7.6-8.4-11.5-12.5l0.4-0.4c4.3,3.8,8.3,7.8,12.1,12c3.8,4.3,7.3,8.7,10.8,13.2
					c0.9,1.1,1.8,2.2,2.6,3.4c0.4,0.5,0.7,1,1.1,1.5l0-4.9l0-1.8c0-0.6,0-1.2,0.1-1.8l0.1-3.5l0.6,0l0.1,3.5c0,0.6,0,1.2,0.1,1.8
					l0.1,1.8l0.5,7H-14c1.7,2.3,3.3,4.6,4.8,6.9C-6,53.5-3,58.3-0.1,63.2c0.4,0.6,0.7,1.2,1.1,1.9l0-0.4l0.2-3.2l0.4-6.3
					C1.8,53.1,1.9,51,2,48.9c0-0.5,0-1.1,0.1-1.6s0-1.1,0-1.6l0-0.8l0-0.8c0-0.5,0-1-0.1-1.6l0.6-0.1c0.1,0.5,0.1,1.1,0.1,1.6l0,0.8
					l0,0.8c0,0.5,0,1.1,0,1.6s0,1.1,0,1.6c0,2.1,0,4.2-0.1,6.4l-0.2,6.3l-0.1,3.2l0,1.6l0,0.8l0,0.6C6.8,75.3,10.7,83,14.2,91
					c0.8-3.1,1.7-6.3,2.6-9.4c1.1-3.9,2.4-7.7,3.9-11.5l0.8,0.3C20.1,74.1,19,78,18,81.9c-1,3.8-1.9,7.7-2.8,11.5
					c0,0.1,0.1,0.2,0.1,0.3c0.3,0.7,0.5,1.3,0.8,2c0.3,0.7,0.5,1.3,0.8,2c0.5,1.3,1,2.7,1.5,4c1,2.7,1.9,5.4,2.7,8.1
					c0.3,1.1,0.6,2.1,0.9,3.2c1-1.1,2-2.2,2.8-3.4c1.1-1.6,2.1-3.2,3.1-4.9c0.9-1.7,1.8-3.4,2.5-5.2c0.7-1.8,1.3-3.6,1.7-5.5
					l0.6,0.1c-0.3,1.9-0.8,3.8-1.5,5.7c-0.7,1.8-1.4,3.7-2.3,5.4c-0.9,1.8-1.8,3.5-2.9,5.1c-1,1.6-2.2,3.1-3.5,4.5
					c0.3,1.1,0.5,2.2,0.7,3.2c0.6,2.8,1,5.6,1.2,8.5l-1.3,0.1c-0.3-2.8-0.7-5.6-1.3-8.3c-0.2-1.1-0.5-2.1-0.7-3.1
					c-3.9-0.3-7.9-0.9-11.7-1.7c-4.1-0.9-8-2.3-11.6-4.3l0.2-0.4c3.7,1.7,7.6,3,11.6,3.6c3.7,0.6,7.4,1,11.1,1.1
					c-0.3-1.1-0.6-2.3-1-3.4c-1.7-5.4-3.6-10.7-5.8-15.9c0-0.1-0.1-0.2-0.1-0.3C11,92,8.1,90.3,5.2,88.4c-1.5-0.9-2.9-2-4.3-2.9
					c-1.4-1-3-1.7-4.6-2.3l0.1-0.5c1.7,0.5,3.3,1.2,4.8,2.1c1.5,0.9,3,1.8,4.5,2.7c2.3,1.3,4.6,2.5,6.9,3.9
					c-1.9-4.2-3.8-8.4-5.9-12.5C5,75.5,3.2,72.2,1.4,69c-3.3-1.2-6.5-2.5-9.7-3.9c-3.2-1.4-6.4-2.5-9.7-3.5l0.2-0.8
					c3.4,0.8,6.7,1.9,10,3.2c2.7,1,5.3,2,8,2.9c-0.5-0.9-1.1-1.9-1.6-2.8c-2.9-4.9-5.9-9.7-9-14.4c-0.5-0.7-1-1.4-1.5-2.1
					c-3.5-0.9-7-2.1-10.3-3.5c-3.4-1.4-6.7-3-10.2-4.2l0.2-0.6C-28.7,40.2-25.2,41.6-21.8,42.9z"/>
			</g>
			<g id="Group_3148" transform="translate(238.288 112.245)">
				<path id="Path_4923" class="st1" d="M-37.1,67.4c-4.1-13.6-10-27.1-13.1-41.1c-0.9-4.2-1.7-8.6-1.1-12.9s2.5-8.6,6.1-11
					c5.7-4,13.5-2.4,19.9,0.4C-13.2,8-5.6,20.9,6.5,24.9c1.2,0.4,2.5,0.7,3.7,0.9c9.3,1.7,18-0.2,21.9,12.5
					c1.8,5.9,1.8,12.6,3.6,18.6c3.6,12,16.4,16.5,19.4,26.5c0.6,1.9,0.7,3.8,0.4,5.7c-1.1,7.1-5.8,12.6-6.8,19.7
					c-0.9,7.8-1,15.8-0.1,23.6c0.6,5.8,0.9,12.8-5.9,14.9c-4.1,1.2-25.8,0.6-31.4-18c-0.1-0.4-0.3-0.9-0.4-1.3
					C5,108-3.3,115.4-10.2,107.1c-4-4.9-4.6-11.4-8.2-16.4C-24.8,81.7-32.8,81.9-37.1,67.4z"/>
				<path id="Path_4924" class="st2" d="M-9.8,33.8C7.3,47.1,18.5,65.1,26.7,92.1c2.7,8.9,4.8,18,6.8,26.5l-1.7,0.4
					c-1.9-8.5-4.1-17.5-6.7-26.4C17,66,5.9,48.3-10.8,35.2L-9.8,33.8z"/>
			</g>
			<path id="Path_4925" class="st1" d="M410.7,241.9c-2.8-31.3,4.2-62.7,20.2-89.8c3.5-5.9,7.8-11.9,14.2-14.2
				c0.8-0.4,1.8-0.5,2.7-0.3c1.5,0.6,2,2.5,2.1,4.1c2.9,29.3-2.4,58.8-9.9,87.2c-2.6,9.7-6.2,20.4-15.1,25"/>
			<path id="Path_4926" class="st1" d="M380.3,263.9c-15.8,2.3-34.1,0.1-43.8-12.6c-7.9-10.4-7.6-24.5-8.8-37.4
				c-1.6-16.4-7-33.7-20.3-43.4c-1.1-0.9-2.4-1.5-3.9-1.6c-3.5,0.1-4.8,4.6-4.8,8.1c0.1,12,4,23.6,11.1,33.2c2,2.7,4.3,5.3,4.9,8.6
				s-1.6,7.3-4.9,7.2c-3.1-0.1-4.9-3.3-6.5-6s-4.6-5.4-7.4-4.1c-1.5,0.7-2.3,2.4-2.7,4c-2.1,8.1,1.1,16.6,7.8,21.4
				c5.5,3.8,13.4,5.2,16.1,11.3c2.3,5.1-0.1,11.4,2.6,16.2c1.9,3.3,5.6,4.9,9.2,6.2c9.5,3.4,19.5,5.5,29.6,6.2"/>
			<path id="Path_4927" class="st1" d="M247.4,264.1c-3.4-21.4-21.1-39.7-42.4-43.8l10.8,29.1c1.9,5.1,3.9,10.3,7.5,14.4
				c6.5,7.4,17,9.6,26.7,11.4"/>
		</g>
	</g>
</g>
</svg>
