<svg id="Group_1166" data-name="Group 1166" xmlns="http://www.w3.org/2000/svg" width="42.961" height="47.222" viewBox="0 0 42.961 47.222">
  <g id="Group_621" data-name="Group 621" transform="translate(0 0)">
    <path id="Path_1124" data-name="Path 1124" d="M64.943,7.137H43.652a1.83,1.83,0,0,0-1.83,1.83V21.585a.806.806,0,0,0,.287.545,1.633,1.633,0,0,0,.638.374l3.215-3.287s3.126-.214,2.56,1.464a6.409,6.409,0,0,1-1.235,1.92h18.5a1,1,0,0,0,.986-1.016V8.967A1.83,1.83,0,0,0,64.943,7.137Z" transform="translate(-24.696 -4.214)" fill="#ff838d"/>
    <g id="Group_620" data-name="Group 620">
      <g id="Group_608" data-name="Group 608" transform="translate(13.007)">
        <g id="Group_606" data-name="Group 606">
          <g id="Group_605" data-name="Group 605">
            <g id="Group_599" data-name="Group 599" transform="translate(0.009 0.018)">
              <path id="Path_1125" data-name="Path 1125" d="M32.514,18.665a.727.727,0,0,0,.727-.727V.771a.727.727,0,0,0-1.455,0V17.938a.727.727,0,0,0,.727.727Z" transform="translate(-31.787 -0.044)" fill="#252f40"/>
              <path id="Path_1126" data-name="Path 1126" d="M102.087,18.665a.727.727,0,0,0,.727-.727V.771a.727.727,0,1,0-1.454,0V17.938a.727.727,0,0,0,.727.727Z" transform="translate(-72.87 -0.044)" fill="#252f40"/>
            </g>
            <g id="Group_604" data-name="Group 604">
              <g id="Group_600" data-name="Group 600" transform="translate(0 0.018)">
                <path id="Path_1127" data-name="Path 1127" d="M34.42,1.5H32.491a.727.727,0,1,1,0-1.454H34.42a.727.727,0,1,1,0,1.454Z" transform="translate(-31.764 -0.044)" fill="#252f40"/>
              </g>
              <g id="Group_601" data-name="Group 601" transform="translate(7.79 0.018)">
                <path id="Path_1128" data-name="Path 1128" d="M72.224,1.5H51.515a.727.727,0,1,1,0-1.454H72.224a.727.727,0,0,1,0,1.454Z" transform="translate(-50.788 -0.044)" fill="#252f40"/>
              </g>
              <g id="Group_602" data-name="Group 602" transform="translate(0.009 17.185)">
                <path id="Path_1129" data-name="Path 1129" d="M36.4,43.34c.2-.187.385-.382.57-.581.248-.265.494-.532.745-.794h-5.2a.727.727,0,1,0,0,1.455h3.8C36.344,43.393,36.374,43.367,36.4,43.34Z" transform="translate(-31.787 -41.965)" fill="#252f40"/>
                <path id="Path_1130" data-name="Path 1130" d="M74.681,41.965H55.874c-.318.479-.624.966-.926,1.455H74.681a.727.727,0,0,0,0-1.455Z" transform="translate(-45.464 -41.965)" fill="#252f40"/>
              </g>
              <g id="Group_603" data-name="Group 603" transform="translate(4.119)">
                <circle id="Ellipse_40" data-name="Ellipse 40" cx="0.738" cy="0.738" r="0.738" fill="#252f40"/>
              </g>
            </g>
          </g>
        </g>
        <g id="Group_607" data-name="Group 607" transform="translate(13.144 5.521)">
          <path id="Path_1131" data-name="Path 1131" d="M76.108,13.483H64.531a.668.668,0,0,0,0,1.336H76.108a.668.668,0,0,0,0-1.336Z" transform="translate(-63.863 -13.483)" fill="#252f40"/>
          <path id="Path_1132" data-name="Path 1132" d="M72.909,29.21H64.531a.668.668,0,0,0,0,1.336h8.378a.668.668,0,0,0,0-1.336Z" transform="translate(-63.863 -22.77)" fill="#252f40"/>
        </g>
      </g>
      <g id="Group_617" data-name="Group 617" transform="translate(0 9.359)">
        <g id="Group_614" data-name="Group 614">
          <g id="Group_613" data-name="Group 613">
            <g id="Group_612" data-name="Group 612">
              <g id="Group_611" data-name="Group 611">
                <g id="Group_610" data-name="Group 610">
                  <g id="Group_609" data-name="Group 609">
                    <path id="Path_1133" data-name="Path 1133" d="M11.809,52.786a.674.674,0,0,0-.052-1.076l-.023-.015a5.309,5.309,0,0,0-2.921-.875H5.345A5.362,5.362,0,0,0,0,56.164v4.2a.615.615,0,0,0,.688.623H8.642a.71.71,0,0,0,.712-.57.686.686,0,0,0-.676-.8H1.37V56.164a3.975,3.975,0,0,1,3.975-3.975H8.814a3.951,3.951,0,0,1,2.173.647.676.676,0,0,0,.8-.029Z" transform="translate(0 -39.368)" fill="#252f40"/>
                    <path id="Path_1134" data-name="Path 1134" d="M10.5,22.9a5.114,5.114,0,0,0-2.638.362A.674.674,0,0,0,7.6,24.284l.008.011a.689.689,0,0,0,.819.21,3.788,3.788,0,1,1,1.063,7.278,3.812,3.812,0,0,1-3.393-3.272,3.852,3.852,0,0,1-.008-.925.692.692,0,0,0-.466-.746l-.013,0a.672.672,0,0,0-.875.551,5.111,5.111,0,0,0,.085,1.744A5.158,5.158,0,1,0,10.5,22.9Z" transform="translate(-2.77 -22.855)" fill="#252f40"/>
                    <circle id="Ellipse_41" data-name="Ellipse 41" cx="0.679" cy="0.679" r="0.679" transform="translate(2.98 1.367)" fill="#252f40"/>
                  </g>
                </g>
              </g>
            </g>
          </g>
        </g>
        <g id="Group_616" data-name="Group 616" transform="translate(10.724 4.784)">
          <g id="Group_615" data-name="Group 615">
            <path id="Path_1135" data-name="Path 1135" d="M28.907,47.653a.667.667,0,0,1-.667-.667V45.308a.666.666,0,0,1,.372-.6l4.4-2.169a2.554,2.554,0,0,0,.7-.511l4.265-4.416a.671.671,0,0,1,.077-.068.933.933,0,0,0-1.09-1.514L33,40.141a3.871,3.871,0,0,1-1.041.767l-4.8,2.419a.667.667,0,1,1-.6-1.19l4.8-2.419a2.545,2.545,0,0,0,.682-.5l4-4.152a.65.65,0,0,1,.077-.069,2.266,2.266,0,0,1,2.78,3.579l-4.234,4.383a3.856,3.856,0,0,1-1.069.78l-4.026,1.986v1.263A.666.666,0,0,1,28.907,47.653Z" transform="translate(-26.189 -34.537)" fill="#252f40"/>
          </g>
        </g>
      </g>
      <g id="Group_618" data-name="Group 618" transform="translate(17.072 3.815)">
        <path id="Path_1136" data-name="Path 1136" d="M47.617,14.065H42.341a.649.649,0,0,1-.65-.65V9.966a.649.649,0,0,1,.65-.65h5.276a.649.649,0,0,1,.649.65v3.45A.649.649,0,0,1,47.617,14.065Zm-4.627-1.3h3.977v-2.15H42.99Z" transform="translate(-41.691 -9.316)" fill="#252f40"/>
      </g>
      <g id="Group_619" data-name="Group 619" transform="translate(17.072 10.255)">
        <path id="Path_1137" data-name="Path 1137" d="M47.617,29.791H42.341a.649.649,0,0,1-.65-.649V25.692a.649.649,0,0,1,.65-.649h5.276a.649.649,0,0,1,.649.649v3.449A.649.649,0,0,1,47.617,29.791Zm-4.627-1.3h3.977V26.342H42.99Z" transform="translate(-41.691 -25.043)" fill="#252f40"/>
      </g>
    </g>
  </g>
  <g id="Group_628" data-name="Group 628" transform="translate(12.204 26.925)">
    <g id="Group_624" data-name="Group 624">
      <g id="Group_623" data-name="Group 623">
        <g id="Group_622" data-name="Group 622">
          <path id="Path_1138" data-name="Path 1138" d="M41.8,95.237a5.431,5.431,0,0,0-2.986-.894H35.266A5.482,5.482,0,0,0,29.8,99.807v2.425a.7.7,0,0,0,.7.7h0a.7.7,0,0,0,.7-.7V99.807a4.064,4.064,0,0,1,4.064-4.064h3.547a4.064,4.064,0,0,1,4.064,4.064v2.425a.7.7,0,0,0,.7.7h0a.7.7,0,0,0,.7-.7V99.807A5.464,5.464,0,0,0,41.8,95.237Z" transform="translate(-29.802 -82.635)" fill="#252f40"/>
          <path id="Path_1139" data-name="Path 1139" d="M39.871,76.3A5.273,5.273,0,1,0,34.6,71.025,5.279,5.279,0,0,0,39.871,76.3Zm0-9.147A3.873,3.873,0,1,1,36,71.025,3.877,3.877,0,0,1,39.871,67.152Z" transform="translate(-32.634 -65.752)" fill="#252f40"/>
        </g>
      </g>
    </g>
    <g id="Group_627" data-name="Group 627" transform="translate(16.282)">
      <g id="Group_626" data-name="Group 626">
        <g id="Group_625" data-name="Group 625">
          <path id="Path_1140" data-name="Path 1140" d="M81.559,95.237a5.431,5.431,0,0,0-2.986-.894H75.026a5.482,5.482,0,0,0-5.464,5.464v2.425a.7.7,0,0,0,.7.7h0a.7.7,0,0,0,.7-.7V99.807a4.064,4.064,0,0,1,4.064-4.064h3.547a4.064,4.064,0,0,1,4.064,4.064v2.425a.7.7,0,0,0,.7.7h0a.7.7,0,0,0,.7-.7V99.807A5.464,5.464,0,0,0,81.559,95.237Z" transform="translate(-69.562 -82.635)" fill="#252f40"/>
          <path id="Path_1141" data-name="Path 1141" d="M79.632,76.3a5.273,5.273,0,1,0-5.273-5.274A5.279,5.279,0,0,0,79.632,76.3Zm0-9.147a3.873,3.873,0,1,1-3.873,3.873A3.877,3.877,0,0,1,79.632,67.152Z" transform="translate(-72.394 -65.752)" fill="#252f40"/>
        </g>
      </g>
    </g>
  </g>
</svg>
