<svg xmlns="http://www.w3.org/2000/svg" xmlns:xlink="http://www.w3.org/1999/xlink" width="522.462" height="556.883" viewBox="0 0 522.462 556.883">
  <defs>
    <clipPath id="clip-path">
      <path id="Path_6057" data-name="Path 6057" d="M2920.173,1955.466l4.371,2.14a3.283,3.283,0,0,0-3.049.326l-4.371-2.141A3.275,3.275,0,0,1,2920.173,1955.466Z" transform="translate(-2917.124 -1955.219)" fill="#ff6355"/>
    </clipPath>
    <clipPath id="clip-path-2">
      <path id="Path_6073" data-name="Path 6073" d="M2918.535,1970.469l-4.371-2.14c-.049-.025-.1-.05-.146-.077q-1.473-.826-1.438-3.747a10.324,10.324,0,0,1,1.492-5.119,9.153,9.153,0,0,1,3.561-3.651l4.371,2.141a9.16,9.16,0,0,0-3.561,3.65,10.325,10.325,0,0,0-1.491,5.121c-.023,1.944.456,3.2,1.438,3.746C2918.437,1970.42,2918.486,1970.445,2918.535,1970.469Z" transform="translate(-2912.579 -1955.734)" fill="#ff6355"/>
    </clipPath>
    <clipPath id="clip-path-3">
      <path id="Path_6097" data-name="Path 6097" d="M2919.035,1958.867l-4.37-2.142a1.89,1.89,0,0,1-.277-.162c-.768-.516-1.137-1.688-1.116-3.531a23.445,23.445,0,0,1,.925-6.427,29.187,29.187,0,0,1,2.316-5.642q1.426-2.657,3.854-6.569c1.421-2.272,2.444-3.972,3.076-5.085a23.549,23.549,0,0,0,1.6-3.441,10.425,10.425,0,0,0,.676-3.466c.025-2.2-.606-3.691-1.887-4.508a3.4,3.4,0,0,0-.325-.182l4.37,2.14a3.274,3.274,0,0,1,.326.184c1.281.816,1.913,2.312,1.886,4.508a10.4,10.4,0,0,1-.675,3.465,23.655,23.655,0,0,1-1.6,3.442c-.633,1.113-1.656,2.813-3.077,5.085q-2.425,3.91-3.854,6.57a29.231,29.231,0,0,0-2.317,5.641,23.49,23.49,0,0,0-.924,6.427c-.022,1.843.348,3.015,1.116,3.531A2.15,2.15,0,0,0,2919.035,1958.867Z" transform="translate(-2913.271 -1917.711)" fill="#ff6355"/>
    </clipPath>
    <clipPath id="clip-path-4">
      <path id="Path_6121" data-name="Path 6121" d="M2909.08,1942.013l-4.371-2.141a2.428,2.428,0,0,1-.4-.248,3.3,3.3,0,0,1-1.228-2.842,25.206,25.206,0,0,1,2.1-8.975,37.107,37.107,0,0,1,5.912-9.744,29.775,29.775,0,0,1,8.982-7.383q4.754-2.529,8.368-2.267a8.015,8.015,0,0,1,2.956.761l4.371,2.14a8.015,8.015,0,0,0-2.956-.76q-3.615-.255-8.367,2.267a29.773,29.773,0,0,0-8.982,7.383,37.092,37.092,0,0,0-5.912,9.745,25.194,25.194,0,0,0-2.1,8.974,3.29,3.29,0,0,0,1.228,2.842A2.328,2.328,0,0,0,2909.08,1942.013Z" transform="translate(-2903.083 -1908.39)" fill="#ff6355"/>
    </clipPath>
  </defs>
  <g id="Group_3812" data-name="Group 3812" transform="translate(-2855.208 -1804.937)">
    <g id="Group_3911" data-name="Group 3911" transform="translate(2855.208 1804.937)">
      <path id="Path_5978" data-name="Path 5978" d="M2904.37,2222.628c12.726-4.146,11.1-17.874,23.95-22.552,11.737-4.273,26.039-3.571,37.68.7,7.627,2.8,18.118,9.674,18.36,18.966.263,10.163-8.346,16.611-17.442,18.9-5.188,1.307-10.579,1.706-15.738,3.129-11.162,3.08-11.593,10.542-18.57,17.976-12.614,13.44-36.948,13.385-52.759,6.828-8.574-3.555-17.08-11.07-16.158-20.31.867-8.691,10.507-17.44,18.576-19.937C2889.2,2224.183,2897.377,2224.905,2904.37,2222.628Z" transform="translate(-2854.265 -1761.021)" fill="#1a50b2" opacity="0.1"/>
      <g id="Group_3902" data-name="Group 3902" transform="translate(115.55)">
        <g id="Group_3876" data-name="Group 3876">
          <path id="Path_5979" data-name="Path 5979" d="M3241.682,2247.116l-1.718,3.089-6.178-3.435,1.719-3.089,6.177,3.435Zm-49.965-395.123,4.081,2.27,1.718-3.089-4.081-2.269-1.718,3.089Zm7.17,3.988,1.719-3.089,6.178,3.436-1.719,3.089-6.178-3.436Zm9.267,5.154,1.718-3.089,6.178,3.435-1.718,3.089-6.178-3.435Zm9.266,5.153,1.718-3.089,6.178,3.435-1.718,3.089-6.178-3.435Zm9.266,5.153,1.719-3.089,6.177,3.436-1.718,3.089-6.178-3.436Zm9.267,5.153,1.718-3.089,6.177,3.436-1.718,3.089-6.177-3.436Zm9.265,5.154,1.719-3.089,6.177,3.435-1.719,3.089-6.177-3.435Zm9.266,5.153,1.718-3.089,6.177,3.435-1.718,3.089-6.177-3.435Zm9.266,5.153,1.718-3.089,6.177,3.435-1.718,3.089-6.177-3.435Zm9.266,5.153,1.718-3.089,6.177,3.435-1.718,3.089-6.177-3.435Zm9.265,5.153,1.718-3.089,6.178,3.436-1.719,3.089-6.177-3.436Zm9.266,5.153,1.718-3.089,6.177,3.436-1.718,3.089-6.177-3.436Zm9.266,5.154,1.718-3.089,6.177,3.435-1.718,3.089-6.177-3.435Zm9.264,5.153,1.719-3.089,6.177,3.435-1.718,3.089-6.178-3.435Zm9.266,5.153,1.718-3.089,6.178,3.435-1.719,3.089-6.177-3.435Zm9.076,5.122a17.316,17.316,0,0,1,4.406,4.607l2.937-1.967a20.783,20.783,0,0,0-5.321-5.538l-2.022,2.9Zm6.006,7.45a22.006,22.006,0,0,1,1.867,6.238v-.007l3.5-.468a25.535,25.535,0,0,0-2.168-7.263l-3.2,1.5Zm2.04,9.452a63.682,63.682,0,0,1-.9,6.82l3.5.512a67.175,67.175,0,0,0,.933-7.191l-3.531-.141Zm-1.41,10.317,3.5.513-1.024,6.994-3.5-.513,1.025-6.994Zm-1.538,10.491,3.5.513-1.025,6.993-3.5-.511,1.024-6.994Zm-1.537,10.491,3.5.511-1.025,6.994-3.5-.513,1.024-6.993Zm-1.537,10.49,3.5.513-1.024,6.994-3.5-.512,1.024-6.994Zm-1.537,10.491,3.5.511-1.024,6.994-3.5-.512,1.025-6.993Zm-1.537,10.49,3.5.512-1.024,6.994-3.5-.512,1.025-6.994Zm-1.536,10.491,3.5.513-1.024,6.993-3.5-.511,1.025-6.994Zm-1.537,10.49,3.5.512-1.025,6.994-3.5-.513,1.025-6.994Zm-1.538,10.491,3.5.513-1.025,6.994-3.5-.513,1.024-6.994Zm-1.537,10.492,3.5.511-1.025,6.994-3.5-.513,1.024-6.993Zm-1.537,10.49,3.5.513-1.025,6.994-3.5-.512,1.024-6.994Zm-1.537,10.491,3.5.513-1.024,6.993-3.5-.511,1.024-6.994Zm-1.537,10.491,3.5.511-1.024,6.994-3.5-.512,1.025-6.993Zm-1.537,10.49,3.5.512-1.024,6.994-3.5-.512,1.025-6.994Zm-1.538,10.491,3.5.513-1.025,6.993-3.5-.511,1.024-6.994ZM3312,2112.674l3.5.511-1.025,6.994-3.5-.513,1.024-6.993Zm-1.537,10.49,3.5.511-1.025,6.994-3.5-.513,1.024-6.993Zm-1.537,10.489,3.5.513-1.024,6.993-3.5-.511,1.024-6.994Zm-1.537,10.49,3.5.513-1.024,6.993-3.5-.513,1.025-6.993Zm-1.537,10.49,3.5.511-1.024,6.994-3.5-.513,1.025-6.993Zm-1.537,10.489,3.5.513-1.024,6.993-3.5-.511,1.025-6.994Zm-1.538,10.49,3.5.513-1.025,6.993-3.5-.512,1.024-6.993Zm-1.536,10.49,3.5.511-1.025,6.994-3.5-.513,1.024-6.993Zm-1.537,10.489,3.5.513-1.025,6.993-3.5-.511,1.024-6.994Zm-1.537,10.49,3.5.512-1.024,6.993-3.5-.512,1.024-6.993Zm-1.537,10.49,3.5.513-1.024,6.993-3.5-.513,1.025-6.993Zm-1.537,10.49,3.5.511-1.024,6.994-3.5-.513,1.025-6.993Zm-1.537,10.489,3.5.512-1.024,6.993-3.5-.511,1.024-6.994Zm-1.537,10.49,3.5.513-1.024,6.993-3.5-.512,1.024-6.993Zm-1.536,10.49,3.5.511-.237,1.618a15.247,15.247,0,0,1-2.005,5.776l-3.005-1.859a11.755,11.755,0,0,0,1.513-4.428l.237-1.618Zm-3.645,8.165a6.461,6.461,0,0,1-5.3,1.09l-.718,3.461a9.97,9.97,0,0,0,8.116-1.706l-2.1-2.845Zm-8.1.03-1.712,3.091-6.181-3.436,1.718-3.089,6.176,3.434Zm-9.264-5.152-1.718,3.089-6.177-3.435,1.718-3.089,6.177,3.435Zm-9.266-5.153-1.718,3.089-6.177-3.436,1.718-3.089,6.177,3.436Zm-9.266-5.153-1.718,3.089-6.177-3.436,1.718-3.089Z" transform="translate(-2933.084 -1800.015)" fill="#e3e7fa" fill-rule="evenodd"/>
          <g id="Group_3875" data-name="Group 3875" transform="translate(203.455)">
            <g id="Group_3873" data-name="Group 3873">
              <path id="Path_5980" data-name="Path 5980" d="M3159.386,1812.893a20.27,20.27,0,0,1,7.176,6.818c-.026-.518-.05,1.381-.033-1.552s-1.667-7.674.628-10.048c.91-.941,5.34-2.67,6.4-2.943a9.481,9.481,0,0,1,6.937,1.212c3.844,2.1,7.324,6.194,9.851,11.113a46.457,46.457,0,0,1,4.1,16.113c0,2.968-.016,1.025-.045,1.523,2.14-.643,4.06-.634,7.364,1.193s7.467,6.338,10.048,11.346a37.072,37.072,0,0,1,4.225,16.385c.01,4.278-.966,7.676-2.626,10.028-1.673,2.372-4.906,3.772-7.2,4.532-6.572,2.282-19.241-11.042-25.927-14.826q-10.642-6.025-21.174-11.98c-3.828-2.165-7.257-6.291-9.714-11.219a36.109,36.109,0,0,1-3.88-15.983c.028-3.12-2.253-7.8.7-10.045C3150.809,1811.077,3155.711,1810.86,3159.386,1812.893Z" transform="translate(-3141.802 -1804.937)" fill="#223165" fill-rule="evenodd"/>
              <path id="Path_5981" data-name="Path 5981" d="M3155.962,1814.345a20.254,20.254,0,0,1,7.175,6.819c-.024-.518-.05,1.38-.033-1.553s1.605-9.342,4.127-11.473,6-2.407,9.842-.3,7.324,6.194,9.851,11.113a46.436,46.436,0,0,1,4.1,16.112c0,2.969-.014,1.026-.044,1.524,2.14-.643,4.06-.635,7.364,1.193s7.467,6.338,10.048,11.346a36.985,36.985,0,0,1,4.226,16.384c.012,5.5-1.593,9.6-4.181,11.761s-6.159,2.354-10.093.128l-21.479-12.155q-10.641-6.023-21.175-11.979c-3.826-2.165-7.257-6.291-9.714-11.219a36.108,36.108,0,0,1-3.88-15.983c.05-5.341,1.616-9.311,4.116-11.427S3152.749,1812.568,3155.962,1814.345Z" transform="translate(-3142.095 -1804.775)" fill="#34478b" fill-rule="evenodd"/>
            </g>
            <g id="Group_3874" data-name="Group 3874" transform="translate(14.7 19.145)">
              <path id="Path_5982" data-name="Path 5982" d="M3161.9,1839.042l-6.585-3.8,10.356,17.936,10.422-5.94-6.582-3.8.019-16.888-7.612-4.395Z" transform="translate(-3155.314 -1822.154)" fill="#5869a3" fill-rule="evenodd"/>
              <path id="Path_5983" data-name="Path 5983" d="M3183.187,1845.345l6.585,3.8-10.356-17.936-10.422,5.94,6.582,3.8-.018,16.888,7.612,4.395Z" transform="translate(-3153.783 -1821.14)" fill="#5869a3" fill-rule="evenodd"/>
            </g>
          </g>
          <path id="Path_5984" data-name="Path 5984" d="M3010.2,1857.434l1.5-2.693,5.387,2.995-1.5,2.694-5.387-3Zm7.929,252.131-4.051-2.253-1.5,2.694,4.05,2.252,1.5-2.693Zm-6.744-3.751-1.5,2.693-5.387-3,1.5-2.694,5.387,3Zm-8.081-4.495-1.5,2.694-5.387-3,1.5-2.693,5.386,3Zm-8.079-4.493-1.5,2.694-5.387-3,1.5-2.693,5.387,3Zm-8.081-4.493-1.5,2.693-5.387-3,1.5-2.693,5.386,3Zm-8.079-4.493-1.5,2.693-5.386-2.995,1.5-2.694,5.387,3Zm-8.081-4.493-1.5,2.694-2.772-1.542a12.772,12.772,0,0,1-2.709-2.055l2.167-2.192a9.141,9.141,0,0,0,2.038,1.552l2.774,1.542Zm-6.521-5.223a14.609,14.609,0,0,1-2.045-5.151l-3.03.563a17.737,17.737,0,0,0,2.472,6.239l2.6-1.651Zm-2.263-7.881a57.966,57.966,0,0,1,.8-5.939l-3.05-.447a59.568,59.568,0,0,0-.833,6.271l3.08.114Zm1.25-8.989-3.05-.447.9-6.1,3.049.447-.894,6.1Zm1.341-9.148-3.049-.448.894-6.1,3.049.448-.894,6.1Zm1.341-9.149-3.049-.447.894-6.1,3.049.447-.894,6.1Zm1.341-9.148-3.05-.447.894-6.1,3.049.447-.893,6.1Zm1.34-9.148-3.049-.447.893-6.1,3.05.447-.894,6.1Zm1.34-9.148-3.049-.447.894-6.1,3.049.447-.894,6.1Zm1.341-9.148-3.05-.447.894-6.1,3.049.447-.893,6.1Zm1.34-9.148-3.049-.447.893-6.1,3.05.447-.894,6.1Zm1.34-9.148-3.049-.447.894-6.1,3.049.447-.894,6.1Zm1.341-9.148-3.049-.447.893-6.1,3.05.447-.894,6.1Zm1.34-9.148-3.049-.447.894-6.1,3.049.448-.894,6.1Zm1.341-9.148-3.05-.447.894-6.1,3.049.448-.893,6.1Zm1.339-9.148-3.049-.447.894-6.1,3.049.447-.894,6.1Zm1.34-9.148-3.049-.447.893-6.1,3.05.447-.894,6.1Zm1.34-9.148-3.049-.447.893-6.1,3.05.447-.894,6.1Zm1.34-9.148-3.049-.447.893-6.1,3.05.447-.894,6.1Zm1.34-9.148-3.049-.447.893-6.1,3.049.447-.893,6.1Zm1.34-9.148-3.049-.447.893-6.1,3.049.447-.893,6.1Zm1.34-9.147-3.049-.448.893-6.1,3.049.447-.893,6.1Zm1.34-9.148-3.049-.448.893-6.1,3.049.447-.893,6.1Zm1.34-9.148-3.05-.447.894-6.1,3.049.447-.893,6.1Zm1.34-9.148-3.05-.447.894-6.1,3.049.447-.893,6.1Zm1.34-9.148-3.05-.447a26.944,26.944,0,0,1,1.29-6.406l2.841,1.2a25.961,25.961,0,0,0-1.081,5.658Zm2.432-7.615a4.154,4.154,0,0,1,4.25-.71l1-2.915a7.216,7.216,0,0,0-7.307,1.325l2.052,2.3Zm6.753.558,1.5-2.694,5.386,3-1.5,2.693Z" transform="translate(-2959.124 -1800.082)" fill="#e3e7fa" fill-rule="evenodd"/>
        </g>
        <path id="Path_5985" data-name="Path 5985" d="M3317.74,2297.57,3048.911,2148.9c-6.6-3.015-16.3-5.859-22.769-1.917l-16.563,10.091c-3.33,2.029-14.285,8.767-6.958,12.75,21.557,11.721,250.318,139.313,272.208,151.22,4.141,2.251,10.2,3.065,16.555,2.539,6.33-.525,12.9-2.238,17.93-5.34l6.615-4.081c4.676-2.884,7.267-6.033,7.516-9.056C3323.688,2302.158,3321.791,2299.419,3317.74,2297.57Z" transform="translate(-2954.531 -1766.859)" fill="#1a50b2" fill-rule="evenodd" opacity="0.1"/>
        <g id="Group_3885" data-name="Group 3885" transform="translate(18.777 17.21)">
          <g id="Group_3884" data-name="Group 3884">
            <g id="Group_3881" data-name="Group 3881">
              <path id="Path_5986" data-name="Path 5986" d="M3037.388,1821.981a10.339,10.339,0,0,0-8.8-.984l-6.605,2.582c-2.4,12.413,258.86,500.608,261.923,503.765l5.9-2.225c3.871-1.524,5.9-5.554,6.469-9.472l44.534-308.25a.323.323,0,0,0,.007-.039,24.285,24.285,0,0,0-4.05-16.437,19.128,19.128,0,0,0-6.65-6.411Z" transform="translate(-2970.865 -1820.414)" fill="#cad4ef" fill-rule="evenodd"/>
              <path id="Path_5987" data-name="Path 5987" d="M3328.744,1986.77l-292.722-162.528c-7.174-3.976-14.005-.16-15.272,8.494l-44.535,308.252c-1.267,8.653,3.5,18.9,10.675,22.876l292.726,162.528c7.173,3.976,14.021.168,15.287-8.483l44.535-308.255C3340.706,2001,3335.917,1990.746,3328.744,1986.77Z" transform="translate(-2976.01 -1820.162)" fill="#e3e7fa" fill-rule="evenodd"/>
              <g id="Group_3880" data-name="Group 3880" transform="translate(15.185 265.112)">
                <g id="Group_3877" data-name="Group 3877" transform="translate(7.944)">
                  <path id="Path_5988" data-name="Path 5988" d="M3276.41,2218.917a3.324,3.324,0,0,1-1.616-.42l-276.266-153.409a3.336,3.336,0,1,1,3.239-5.833l276.265,153.409a3.337,3.337,0,0,1-1.622,6.254Z" transform="translate(-2996.811 -2058.834)" fill="#f5f7ff"/>
                </g>
                <g id="Group_3878" data-name="Group 3878" transform="translate(3.51 22.59)">
                  <path id="Path_5989" data-name="Path 5989" d="M3272.423,2239.231a3.322,3.322,0,0,1-1.615-.42L2994.541,2085.4a3.336,3.336,0,1,1,3.238-5.833l276.266,153.409a3.337,3.337,0,0,1-1.623,6.254Z" transform="translate(-2992.823 -2079.149)" fill="#f5f7ff"/>
                </g>
                <g id="Group_3879" data-name="Group 3879" transform="translate(0 44.704)">
                  <path id="Path_5990" data-name="Path 5990" d="M3269.266,2259.12a3.32,3.32,0,0,1-1.615-.42l-276.267-153.41a3.336,3.336,0,1,1,3.238-5.833l276.266,153.41a3.337,3.337,0,0,1-1.622,6.254Z" transform="translate(-2989.666 -2099.038)" fill="#f5f7ff"/>
                </g>
              </g>
              <path id="Path_5991" data-name="Path 5991" d="M3192.92,1973.933l-157.805-87.618c-3.867-2.143-7.549-.085-8.233,4.579l-24.008,166.176c-.683,4.666,1.888,10.19,5.754,12.333l157.806,87.617c3.867,2.144,7.558.09,8.241-4.573l24.008-166.177C3199.369,1981.606,3196.787,1976.077,3192.92,1973.933Z" transform="translate(-2973.016 -1813.131)" fill="#f5f7ff" fill-rule="evenodd"/>
              <path id="Path_5992" data-name="Path 5992" d="M3274.671,2050.192l-75.97-40.4c-3.866-2.144-7.549-.086-8.233,4.579l-15.033,106.649c-.683,4.664,1.888,10.189,5.755,12.331l75.971,40.4c3.867,2.144,7.558.09,8.24-4.573l15.034-106.65C3281.119,2057.865,3278.537,2052.335,3274.671,2050.192Z" transform="translate(-2953.696 -1799.308)" fill="#e3e7fa" fill-rule="evenodd"/>
              <path id="Path_5993" data-name="Path 5993" d="M3262.863,2057.3l-59.723-31.76c-3.04-1.685-5.936-.068-6.473,3.6l-5.049,35.539c-.537,3.667,1.484,8.011,4.523,9.7l59.724,31.761c3.04,1.685,5.941.071,6.479-3.6l5.051-35.54C3267.932,2063.332,3265.9,2058.986,3262.863,2057.3Z" transform="translate(-2951.882 -1797.524)" fill="#f5f7ff" fill-rule="evenodd"/>
              <path id="Path_5994" data-name="Path 5994" d="M3253.168,2108.263l-59.722-31.761c-3.041-1.685-5.936-.067-6.473,3.6l-1.985,11.884c-.537,3.667,1.484,8.009,4.525,9.694l59.723,31.761c3.04,1.685,5.942.071,6.479-3.6l1.984-11.885C3258.238,2114.3,3256.208,2109.947,3253.168,2108.263Z" transform="translate(-2952.624 -1791.819)" fill="#f5f7ff" fill-rule="evenodd"/>
            </g>
            <g id="Group_3883" data-name="Group 3883" transform="translate(42.19 2.505)">
              <path id="Path_5995" data-name="Path 5995" d="M3324.5,1986.77l-292.723-162.528c-7.173-3.976-14-.16-15.271,8.494l-2.55,17.4L3332.634,2027.1l2.555-17.443C3336.458,2001,3331.669,1990.746,3324.5,1986.77Z" transform="translate(-3013.953 -1822.668)" fill="#cad4ef" fill-rule="evenodd"/>
              <g id="Group_3882" data-name="Group 3882" transform="translate(13.171 14.117)">
                <path id="Path_5996" data-name="Path 5996" d="M3028.964,1846.922a9.783,9.783,0,0,1-3.027-8.664c.594-2.918,2.911-3.772,5.176-1.9a9.791,9.791,0,0,1,3.026,8.664C3033.545,1847.937,3031.227,1848.788,3028.964,1846.922Z" transform="translate(-3025.797 -1835.363)" fill="#f5f7ff" fill-rule="evenodd"/>
                <path id="Path_5997" data-name="Path 5997" d="M3041.9,1854.782a9.79,9.79,0,0,1-3.026-8.666c.594-2.918,2.91-3.772,5.176-1.9a9.792,9.792,0,0,1,3.026,8.665C3046.482,1855.8,3044.163,1856.648,3041.9,1854.782Z" transform="translate(-3024.349 -1834.484)" fill="#f5f7ff" fill-rule="evenodd"/>
                <path id="Path_5998" data-name="Path 5998" d="M3054.836,1862.639a9.783,9.783,0,0,1-3.025-8.664c.593-2.917,2.91-3.772,5.176-1.9a9.8,9.8,0,0,1,3.026,8.664C3059.419,1863.655,3057.1,1864.505,3054.836,1862.639Z" transform="translate(-3022.9 -1833.604)" fill="#f5f7ff" fill-rule="evenodd"/>
              </g>
            </g>
          </g>
        </g>
        <g id="Group_3901" data-name="Group 3901" transform="translate(43.28 26.327)">
          <g id="Group_3890" data-name="Group 3890" transform="translate(7.717 124.377)">
            <g id="Group_3889" data-name="Group 3889">
              <g id="Group_3886" data-name="Group 3886">
                <path id="Path_5999" data-name="Path 5999" d="M3162.585,2039.548l-10.032,68.184,1.2.146,3.286-1.276c3.6-1.419,5.494-5.171,6.022-8.817l8.026-61.558c0-.013,0-.026,0-.037a22.585,22.585,0,0,0-3.77-15.3,17.8,17.8,0,0,0-6.189-5.969l-131.693-73a9.624,9.624,0,0,0-8.191-.914l-2.9,1.132c-1.458.547-1.909.985-1.9,1.076C3017.824,1955.963,3164.5,2026.475,3162.585,2039.548Z" transform="translate(-3003.702 -1940.468)" fill="#223165" fill-rule="evenodd"/>
                <path id="Path_6000" data-name="Path 6000" d="M3159.107,2016.1l-131.69-73a9.546,9.546,0,0,0-8.187-.917c-3.069,1.2-5.365,4.3-6.028,8.824l-8.025,61.56c-1.181,8.055,3.259,17.594,9.936,21.294l131.692,73c6.678,3.7,13.05.156,14.231-7.9l8.025-61.562C3170.242,2029.345,3165.784,2019.8,3159.107,2016.1Z" transform="translate(-3004.987 -1940.337)" fill="#34478b" fill-rule="evenodd"/>
              </g>
              <g id="Group_3887" data-name="Group 3887" transform="translate(72.179 59.809)">
                <path id="Path_6001" data-name="Path 6001" d="M3153.742,2035.873l-75.01-41.268a2.28,2.28,0,0,0-1.958-.218,2.508,2.508,0,0,0-1.441,2.109l-.5,3.034a5.313,5.313,0,0,0,2.375,5.09l75.013,41.268c1.6.884,3.12.037,3.4-1.888l.5-3.036A5.314,5.314,0,0,0,3153.742,2035.873Z" transform="translate(-3069.35 -1994.255)" fill="#5869a3"/>
                <path id="Path_6002" data-name="Path 6002" d="M3151.3,2052.575l-75.01-41.268a2.285,2.285,0,0,0-1.958-.218,2.508,2.508,0,0,0-1.441,2.109l-.5,3.035a5.313,5.313,0,0,0,2.375,5.09l75.012,41.267c1.6.884,3.119.038,3.4-1.888l.5-3.036A5.313,5.313,0,0,0,3151.3,2052.575Z" transform="translate(-3069.625 -1992.385)" fill="#5869a3"/>
                <path id="Path_6003" data-name="Path 6003" d="M3103.678,2043.891l-29.835-15.881a2.278,2.278,0,0,0-1.957-.219,2.505,2.505,0,0,0-1.441,2.11l-.5,3.034a5.308,5.308,0,0,0,2.375,5.089l29.836,15.882c1.6.885,3.119.038,3.4-1.888l.5-3.035A5.315,5.315,0,0,0,3103.678,2043.891Z" transform="translate(-3069.898 -1990.515)" fill="#5869a3"/>
              </g>
              <g id="Group_3888" data-name="Group 3888" transform="translate(10.018 17.93)">
                <path id="Path_6004" data-name="Path 6004" d="M3014.292,1977.451c-2.314,20.771,9.2,46.146,25.76,56.636s32.427-3.02,34.168-18.657-1.184-22.14-5.917-32.452c-2.881,1.59-5.763,3.18-8.641,4.737,3.07,6.627,4.965,10.868,3.845,20.92s-11.326,18.728-21.955,11.987-18.031-23.043-16.546-36.38C3021.47,1981.987,3017.869,1979.718,3014.292,1977.451Z" transform="translate(-3013.996 -1954.257)" fill="#5869a3" fill-rule="evenodd"/>
                <path id="Path_6005" data-name="Path 6005" d="M3026.025,1958.522c-6.188,3.354-10.606,10.646-11.763,21.048,3.577,2.267,7.179,4.536,10.714,6.791.743-6.669,3.565-11.371,7.546-13.528Q3029.26,1965.692,3026.025,1958.522Z" transform="translate(-3013.966 -1956.377)" fill="#fff" fill-rule="evenodd"/>
                <path id="Path_6006" data-name="Path 6006" d="M3047.248,1961.117c-8.284-5.244-16.238-5.767-22.4-2.412q3.223,7.187,6.493,14.343c3.982-2.157,9.095-1.829,14.388,1.533s9.845,9.134,12.831,15.708c2.878-1.558,5.757-3.116,8.638-4.706C3062.543,1975.326,3055.53,1966.362,3047.248,1961.117Z" transform="translate(-3012.781 -1956.593)" fill="#ff6355" fill-rule="evenodd"/>
              </g>
            </g>
          </g>
          <g id="Group_3892" data-name="Group 3892" transform="translate(82.581 279.099)">
            <g id="Group_3891" data-name="Group 3891">
              <path id="Path_6007" data-name="Path 6007" d="M3256.638,2191.3l-12.191,79.387,1.116.136,3.043-1.182c.153-.06.3-.124.449-.194l.043-.017c3.337-1.313,5.087-4.789,5.576-8.165l10.333-73.251c0-.012,0-.023,0-.032a20.928,20.928,0,0,0-3.492-14.172,16.479,16.479,0,0,0-5.733-5.529l-157.723-87.315a8.912,8.912,0,0,0-7.586-.847l-2.684,1.049c-.281.106-.522.207-.727.3-1.165.464-1.532.827-1.524.905C3086.811,2094.175,3258.415,2179.19,3256.638,2191.3Z" transform="translate(-3070.832 -2079.612)" fill="#223165" fill-rule="evenodd"/>
              <path id="Path_6008" data-name="Path 6008" d="M3253.708,2169.554l-157.721-87.316a8.841,8.841,0,0,0-7.584-.85c-2.843,1.108-4.969,3.983-5.584,8.174l-10.331,73.252c-1.093,7.46,3.019,16.295,9.2,19.723l157.723,87.315c6.186,3.427,12.088.145,13.181-7.314l10.331-73.253C3264.021,2181.824,3259.892,2172.982,3253.708,2169.554Z" transform="translate(-3072.313 -2079.47)" fill="#34478b" fill-rule="evenodd"/>
              <path id="Path_6009" data-name="Path 6009" d="M3081.037,2133.1c1.778-10.341,5.8-13.839,10.943-12.4a10.847,10.847,0,0,1,2.443,1.04c5.044,2.876,10.187,10.393,10.971,22.908.5,7.924,2.016,15.185,8.655,18.97,17.453,9.344,11.159-45.95,27.684-36.52,14.229,8.122,5.715,37.492,11.253,56.1,1.925,6.453,5.391,9.488,7.781,10.851,10.05,5.36,11.162-11.582,12.469-18.711,6.057-32.942,9.9-34.756,16.026-31.263,6.4,3.717,9.25,6.241,8.066,40.644-.49,14.07,0,26.669,9.9,32.6,11.054,6.307,12.026-6.618,16.934-12.914,2.917-3.738,6.7-4.5,10.16-2.533,3.738,2.13,7.091,7.459,8.549,15.686,2.443,13.8,1.318,32.883.592,39.544l-166.386-94.2C3078.507,2152.813,3079.5,2142.043,3081.037,2133.1Z" transform="translate(-3071.779 -2075.046)" fill="#5869a3" fill-rule="evenodd"/>
            </g>
          </g>
          <g id="Group_3896" data-name="Group 3896" transform="translate(216.206 71.712)">
            <g id="Group_3895" data-name="Group 3895">
              <path id="Path_6010" data-name="Path 6010" d="M3290.489,1957.123l-14.728,97.623,1.258.154,3.434-1.333c3.764-1.482,5.739-5.4,6.292-9.213l12.632-90.7a.182.182,0,0,0,.005-.038,23.609,23.609,0,0,0-3.937-15.987,18.625,18.625,0,0,0-6.467-6.236l-67.119-36.766a10.058,10.058,0,0,0-8.559-.956l-3.027,1.183c-1.523.572-1.994,1.031-1.985,1.124C3209.716,1909.295,3292.494,1943.465,3290.489,1957.123Z" transform="translate(-3190.714 -1893.105)" fill="#223165" fill-rule="evenodd"/>
              <path id="Path_6011" data-name="Path 6011" d="M3287.283,1932.62l-67.116-36.767a9.974,9.974,0,0,0-8.554-.958c-3.207,1.249-5.606,4.493-6.3,9.22l-12.633,90.7c-1.233,8.418,3.406,18.382,10.381,22.249l67.119,36.767c6.978,3.866,13.636.164,14.868-8.25l12.631-90.7C3298.916,1946.464,3294.259,1936.487,3287.283,1932.62Z" transform="translate(-3192.483 -1892.969)" fill="#ff6355" fill-rule="evenodd"/>
              <path id="Path_6012" data-name="Path 6012" d="M3287,1932.62l-67.116-36.767a9.974,9.974,0,0,0-8.554-.958c-3.207,1.249-5.606,4.492-6.3,9.22l-10.059,72.22,92.389,50.612,10.036-72.07C3298.638,1946.462,3293.98,1936.487,3287,1932.62Z" transform="translate(-3192.204 -1892.969)" fill="#34478b" fill-rule="evenodd"/>
              <g id="Group_3893" data-name="Group 3893" transform="translate(7.74 93.547)" opacity="0.4">
                <path id="Path_6013" data-name="Path 6013" d="M3201.611,1979.194c.227-1.685,1.5-2.427,2.836-1.656l30.376,16.48a4.746,4.746,0,0,1,2.012,4.451l-.441,3.333c-.228,1.685-1.5,2.426-2.837,1.656l-30.376-16.48a4.742,4.742,0,0,1-2.012-4.451Z" transform="translate(-3199.255 -1977.234)" fill="#fff" fill-rule="evenodd"/>
                <path id="Path_6014" data-name="Path 6014" d="M3199.864,1992.316c.2-1.484,1.32-2.138,2.5-1.459,17.223,9.344,45.455,24.59,62.678,33.932a4.183,4.183,0,0,1,1.771,3.922l-.389,2.937c-.2,1.483-1.321,2.137-2.5,1.458-17.222-9.344-45.456-24.589-62.679-33.934a4.177,4.177,0,0,1-1.771-3.92Z" transform="translate(-3199.444 -1975.738)" fill="#fff" fill-rule="evenodd"/>
              </g>
              <path id="Path_6015" data-name="Path 6015" d="M3275.986,1950.459l-7.851,58.531,15.01,8.456,7.851-58.531-15.01-8.456Zm-42.711-43.2-10.531,78.348,15.009,8.455,10.531-78.348-15.009-8.455Zm20.7,26.1,15.01,8.455-8.719,64.939-15.009-8.456,8.718-64.938Zm-45.894-18.96,15.009,8.455-7.852,58.532-15.009-8.457Z" transform="translate(-3191.616 -1891.521)" fill="#5869a3" fill-rule="evenodd"/>
              <g id="Group_3894" data-name="Group 3894" transform="translate(12.98 43.976)">
                <path id="Path_6016" data-name="Path 6016" d="M3204.377,1934.8a1.313,1.313,0,0,1,.315-1.763,1.207,1.207,0,0,1,1.731-.037l13.155,16.047,6.97,3.256,16.526-4.968,11.391-13.281a1.314,1.314,0,0,1,1.761-.338.891.891,0,0,1,.231.275l17.93,26.724,15.371-1.627a.976.976,0,0,1,1.117,1.111,1.589,1.589,0,0,1-1.357,1.367l-15.969,1.689a1,1,0,0,1-.989-.409l-17.489-26.064-10.555,12.307,0,0a1.591,1.591,0,0,1-.746.494l-17.416,5.236a1.153,1.153,0,0,1-.822-.04l-7.467-3.487a.922.922,0,0,1-.4-.284Z" transform="translate(-3204.156 -1932.654)" fill="#fff" fill-rule="evenodd"/>
              </g>
            </g>
          </g>
          <g id="Group_3900" data-name="Group 3900">
            <g id="Group_3899" data-name="Group 3899">
              <path id="Path_6017" data-name="Path 6017" d="M3005.755,1838.074c.374-2.849-.4-4.571,1.013-6.183.9-1.025,3.742-2.347,4.93-2.794a9.1,9.1,0,0,1,7.854,1.033l81.222,47.474c6.54,3.787,10.984,13.5,9.912,21.67l-5.567,41.023c-.333,2.533-1.277,5.8-3.436,7.665a13.344,13.344,0,0,1-5.926,2.934c-1.859.234-2.352-1.447-4.437-2.654l-81.22-47.474c-6.549-3.792-10.985-13.5-9.913-21.67Z" transform="translate(-2997.824 -1828.614)" fill="#223165" fill-rule="evenodd"/>
              <path id="Path_6018" data-name="Path 6018" d="M3003.776,1839.246c1.071-8.172,7.248-11.737,13.8-7.945l81.221,47.473c6.542,3.787,10.984,13.5,9.913,21.671l-5.569,41.022c-1.071,8.171-7.255,11.733-13.8,7.946l-81.219-47.474c-6.548-3.792-10.985-13.5-9.913-21.67Z" transform="translate(-2998.046 -1828.483)" fill="#34478b" fill-rule="evenodd"/>
              <path id="Path_6019" data-name="Path 6019" d="M3003.248,1839.246c1.071-8.172,7.248-11.737,13.8-7.946l81.222,47.474c6.54,3.788,10.984,13.5,9.912,21.67l-.523,3.852a21.069,21.069,0,0,0-2.19-1.464l-102.7-60.029Z" transform="translate(-2997.518 -1828.483)" fill="#5869a3" fill-rule="evenodd"/>
              <g id="Group_3897" data-name="Group 3897" transform="translate(4.28 35.568)">
                <path id="Path_6020" data-name="Path 6020" d="M3017.681,1860.918c8.272,1.893,14.626,11.742,14.191,22s-7.494,17.039-15.765,15.146-14.626-11.742-14.191-22S3009.409,1859.025,3017.681,1860.918Z" transform="translate(-3001.895 -1860.601)" fill="#5869a3" fill-rule="evenodd"/>
                <path id="Path_6021" data-name="Path 6021" d="M3016.623,1868.6c4.46,1.02,7.885,6.332,7.651,11.861s-4.04,9.187-8.5,8.167-7.886-6.331-7.651-11.862,4.039-9.186,8.5-8.166Zm-.2,4.695c-2.368-.542-4.39,1.4-4.514,4.339s1.695,5.758,4.064,6.3,4.39-1.4,4.515-4.337S3018.793,1873.838,3016.424,1873.3Z" transform="translate(-3001.199 -1859.724)" fill="#fff" fill-rule="evenodd" opacity="0.3"/>
                <path id="Path_6022" data-name="Path 6022" d="M3033.375,1878.891c.286-2.18,1.932-3.105,3.674-2.062l53.038,30.071a6.341,6.341,0,0,1,2.638,5.84l-.554,4.313c-.287,2.181-1.934,3.106-3.675,2.064l-53.037-30.071a6.338,6.338,0,0,1-2.639-5.84Z" transform="translate(-2998.437 -1858.832)" fill="#5869a3" fill-rule="evenodd"/>
                <path id="Path_6023" data-name="Path 6023" d="M3031.518,1893.057c.169-1.288,1.14-1.835,2.171-1.218l31.318,17.757a3.742,3.742,0,0,1,1.558,3.448l-.327,2.548c-.169,1.288-1.142,1.833-2.171,1.218l-31.318-17.757a3.742,3.742,0,0,1-1.558-3.448Z" transform="translate(-2998.618 -1857.132)" fill="#5869a3" fill-rule="evenodd"/>
              </g>
              <g id="Group_3898" data-name="Group 3898" transform="translate(11.149 7.095)">
                <path id="Path_6024" data-name="Path 6024" d="M3011.514,1835.064c1.8.411,3.187,2.559,3.093,4.795s-1.633,3.714-3.436,3.3-3.188-2.56-3.094-4.795S3009.711,1834.651,3011.514,1835.064Z" transform="translate(-3008.073 -1834.995)" fill="#34478b" fill-rule="evenodd"/>
                <path id="Path_6025" data-name="Path 6025" d="M3018.9,1839.3c1.8.412,3.188,2.56,3.094,4.8s-1.634,3.714-3.436,3.3-3.188-2.56-3.094-4.8S3017.095,1838.891,3018.9,1839.3Z" transform="translate(-3007.246 -1834.52)" fill="#34478b" fill-rule="evenodd"/>
                <path id="Path_6026" data-name="Path 6026" d="M3026.887,1843.962c1.8.413,3.188,2.56,3.094,4.8s-1.634,3.714-3.437,3.3-3.187-2.56-3.092-4.8S3025.085,1843.549,3026.887,1843.962Z" transform="translate(-3006.351 -1833.999)" fill="#34478b" fill-rule="evenodd"/>
              </g>
            </g>
          </g>
        </g>
      </g>
      <g id="Group_3910" data-name="Group 3910" transform="translate(0 205.585)">
        <g id="Group_3904" data-name="Group 3904" transform="translate(76.971 7.051)">
          <path id="Path_6027" data-name="Path 6027" d="M2958.606,2058.273c-5.519-1.739-16.447-7.9-27.943-20.711-6.852-7.637-7.053-13.258-1.926-19.327,2.692-3.187,7.511-1.82,9.192-1.06,3.073,1.392,7.571,5.679,12.022,11.878,2.383,3.317,6.847,6.832,11.081,10.421.634-2.492,1.179-5.134,1.514-6.237,1.6-5.227,3.729-10.935,6.233-16.958,2.2-5.3,11.924-2.425,10.452,1.96a8.836,8.836,0,0,0,.218,2.482c.844,6.72-1.766,21.861-6.618,34.01C2969.571,2062.9,2965.044,2060.3,2958.606,2058.273Z" transform="translate(-2924.346 -1994.232)" fill="#101542" fill-rule="evenodd"/>
          <path id="Path_6028" data-name="Path 6028" d="M2961.1,2057.809c-6.9-1.4-17.123-7.468-28.225-19.388-2.78-2.983-5.565-5.454-8.451-9.318,3.013-6.793,11.615-9.645,18.74.811C2948.251,2037.073,2955.081,2046.119,2961.1,2057.809Z" transform="translate(-2924.429 -1993.157)" fill="#090d30" fill-rule="evenodd"/>
          <g id="Group_3903" data-name="Group 3903" transform="translate(46.807)">
            <path id="Path_6029" data-name="Path 6029" d="M2978.993,2007.5a9,9,0,0,1-1.216.4c.356-.292.644-.538.839-.718a37.2,37.2,0,0,0,2.641-5.4c-2.911-1.836-4.466,2.871-5.063,3.306-.236.173-2.1.9-3.779,1.827-2.388,1.313-4.215,2.626-4.73,5.364-1.157,2.665-2.121,5.443.569,7.433,2.381,1.764,4.941-.243,7.011-1.358a26.99,26.99,0,0,1,6.021-1.769c4.446-1.034,5.076-1.475,8.269-9.073,2.337-5.564,3.584-8.642,1.519-10.415C2986.24,1992.96,2983.706,2003.628,2978.993,2007.5Z" transform="translate(-2966.523 -1996.164)" fill="#fbb686" fill-rule="evenodd"/>
            <path id="Path_6030" data-name="Path 6030" d="M2989.482,1997.707c-.833,2.14-6.71,10.93-8.865,11.721-.578.211-1.108-.836-1.911-2.033.108,1.057,1.716,2.594.687,2.676-5.76.454-7.909,1.2-9.463,4.368a10.658,10.658,0,0,1,5.241-2.711c1.846-.423,3.814-.389,5.7-.94C2984.358,2006.935,2986.676,2004.921,2989.482,1997.707Z" transform="translate(-2966.142 -1995.991)" fill="#f89c69" fill-rule="evenodd"/>
          </g>
        </g>
        <g id="Group_3905" data-name="Group 3905" transform="translate(41.048 107.239)">
          <path id="Path_6031" data-name="Path 6031" d="M2895.972,2217.945a25.583,25.583,0,0,1-.7,3.573,41.351,41.351,0,0,0-1.836,5.738c-.941,4,.353,9.352-.916,15.006a6.185,6.185,0,0,0,.9,6.07c1.472,1.957,4.244,5.1,7.857,4.977a5.414,5.414,0,0,0,3.812-1.849,9.109,9.109,0,0,0,2.278-6.7,55.5,55.5,0,0,1-.6-7.713c.094-2.77.6-4.294.538-7.333-.068-3.209-.315-7.628-.365-9.7Z" transform="translate(-2892.123 -2071.522)" fill="#090d30" fill-rule="evenodd"/>
          <path id="Path_6032" data-name="Path 6032" d="M2924.468,2203.466c-1.047,2.843-1.737,4.06-1.785,8.029.642,2.1,2.118,2.948,3.764,4.4l1.16.253c2.875,1.556,3.926,7.012,6.595,9.5,1.883,1.753,5.628,2.707,9.347,3.424,3.975.769,7.75-.368,6.716-3.494-2.571-7.765-13.681-16.536-13.936-25.212Z" transform="translate(-2888.701 -2073.491)" fill="#090d30" fill-rule="evenodd"/>
          <path id="Path_6033" data-name="Path 6033" d="M2942.12,2160.889c-.286,14.877-3.527,42.719-3.032,57.379-3.8,3.811-11.411,2.632-13.884-1.268-1.543-13.49-3.343-32.654-3.52-40.056a57.448,57.448,0,0,1,1.978-17.36c-2.208-16.277-11.61-38.488-9.371-53.8.983-6.726,5.392-13.967,6.675-19.517,11.087,13.661,19.537,7.114,24.125,5.927-.027,4.72.331,4.09.178,9.052-.517,16.774-1.3,34.686-2.218,52.092A23.787,23.787,0,0,1,2942.12,2160.889Z" transform="translate(-2889.68 -2086.265)" fill="#34478b" fill-rule="evenodd"/>
          <path id="Path_6034" data-name="Path 6034" d="M2922.649,2191.057c-.52-5.859-.89-10.958-.965-14.112a57.443,57.443,0,0,1,1.978-17.36c-2.208-16.277-11.61-38.488-9.371-53.8.983-6.726,5.392-13.967,6.675-19.517,11.087,13.661,19.537,7.114,24.125,5.927,0,.526,0,.985,0,1.395l-14.532,10.737,3.581-.808c-.136,19.33-2.528,36.953-2.887,56.016-3.75,10.81-5.957,20.044-8.548,31.185Z" transform="translate(-2889.68 -2086.265)" fill="#22326b" fill-rule="evenodd"/>
          <path id="Path_6035" data-name="Path 6035" d="M2919.588,2171.308c-2.672,14.878-10.467,50.979-12.324,65.639-4.8,2.667-10.932,1.273-12.628-2.626-.054-13.489,0-37.752,1.009-45.153.841-6.16,3.021-15.664,5.483-21.2-.984-34.758-4.867-44.021-.171-59.336,2.062-6.726,7.458-13.218,9.632-18.766,2.977,4.571,7.568,11.057,17.4,10.255.963-.078,9.164-5.938,11.872-6.611-3.433,20.679-13.322,47.689-18.135,70.242A26.062,26.062,0,0,1,2919.588,2171.308Z" transform="translate(-2891.843 -2085.862)" fill="#34478b" fill-rule="evenodd"/>
        </g>
        <path id="Path_6036" data-name="Path 6036" d="M2945.06,2031.1c2.369,6.024,3.639,14.592,4.331,20.752,1,8.9.24,16.284-.042,24.424-.226,6.495.393,9.862.1,16.009-.086,1.82-.777,3.8-.965,5.734.006,1.387-.486,2.765-.469,3.835-1.164,13.679-34.135,14.1-42.7,5.385.345-1.375-.2-13.97-.706-18.92a21.657,21.657,0,0,0-1.791-7.575,190.794,190.794,0,0,1-10.127-36.529c-.881-6,6.355-12.382,14.712-11.832a61.542,61.542,0,0,1,19.256-7.273C2931.555,2017.572,2941.486,2022.019,2945.06,2031.1Z" transform="translate(-2851.02 -1986.3)" fill="#101542" fill-rule="evenodd"/>
        <g id="Group_3906" data-name="Group 3906" transform="translate(46.751 61.077)">
          <path id="Path_6037" data-name="Path 6037" d="M2907.072,2044.75c1.507,6.962-.945,28.12-4.4,34.392a79.645,79.645,0,0,0-5.421-11.513C2897.442,2067.135,2905.309,2050.965,2907.072,2044.75Z" transform="translate(-2897.252 -2044.75)" fill="#090d30" fill-rule="evenodd"/>
        </g>
        <g id="Group_3908" data-name="Group 3908" transform="translate(47.181)">
          <path id="Path_6038" data-name="Path 6038" d="M2900.281,2032.48c11.276-8.122,22.979-12.354,32.369-11.891l4.4,3.964-10.57,14.643-23.23,6.5-5.615-6.276Z" transform="translate(-2897.639 -1986.382)" fill="#101542" fill-rule="evenodd"/>
          <path id="Path_6039" data-name="Path 6039" d="M2928.935,2030.353c.1-.547.235-1.1.352-1.682.335-1.673-.542-3.107-.094-6.942l-14.519-6.135c-.242,8.154-1.136,8.017-2.637,14.66.161,6.533,16.386,9.456,16.726,1.782A12.052,12.052,0,0,1,2928.935,2030.353Z" transform="translate(-2896.027 -1986.938)" fill="#fbb686" fill-rule="evenodd"/>
          <g id="Group_3907" data-name="Group 3907" transform="translate(10.181)">
            <path id="Path_6040" data-name="Path 6040" d="M2931.064,2032.251c-1.967-.827-7.3-2.834-9.083-3.691-3.9-1.874-4.09-5.162-6.028-10.007-3.638-1.691-5.058-3.307-5.731-5.311-1.6-4.754.2-10.537,3.385-14.113a13.181,13.181,0,0,1,10.79-4.4c8.525.256,13.061,5.819,14.823,12.818a4.843,4.843,0,0,1,.1,1.8,22.437,22.437,0,0,0-.264,2.772c-.037,2.183,1.526,2.678,1.449,5.393-.1,3.695-1.747,11.176-2.737,12.561C2937.01,2031.141,2932.928,2032.206,2931.064,2032.251Z" transform="translate(-2906.478 -1989.274)" fill="#fbb686" fill-rule="evenodd"/>
            <path id="Path_6041" data-name="Path 6041" d="M2907.813,2011.913c.726,2.666,4.152,9.223,6.24,11.5,2.165,2.361.825-.778,1.356-2.772.409-1.532,2.558-2.1,2.944-3.678.555,1.172,1.211,2.292,2.087,2.575.557.181,1.651.367,1.419-1.094-.8-5.051,1.507-5.845.191-8.716-.985-2.152-1.032-3.147-.633-4.065,1.682-.079,3.054,1.4,5.131,1.871a17.1,17.1,0,0,0,11.214-3.23c3.634-2.971,3.085-7.974-.911-10.5-2.223-1.408-4.431-1.456-7.774-2.885a13.1,13.1,0,0,0-16.243,4.866C2905.666,1998.688,2906.189,2005.953,2907.813,2011.913Z" transform="translate(-2906.795 -1989.823)" fill="#090d30" fill-rule="evenodd"/>
            <path id="Path_6042" data-name="Path 6042" d="M2915.831,2012.171c-3.353-.821-3.041,2.938-2.336,5.172.485,1.534,1.768,1.3,2.345,2.5a2.963,2.963,0,0,0,2.865,1.895c1.976-.229.49-3.063.152-4.211C2918.919,2015.591,2917.958,2012.691,2915.831,2012.171Z" transform="translate(-2906.096 -1987.334)" fill="#fbb686" fill-rule="evenodd"/>
          </g>
        </g>
        <path id="Path_6043" data-name="Path 6043" d="M2896.73,2086.479c5.484-5.848,13.516-32.67,15.278-56.553-5.038,2.07-12.453-3.154-17.79,5.438-2.881,4.64-3.435,11.041-3.665,15.678-.255,5.109-2.359,15.066-4.064,21.562-.838,3.2-4.093,13.014,1.43,15.163C2892.511,2089.552,2895.12,2088.614,2896.73,2086.479Z" transform="translate(-2851.898 -1985.333)" fill="#101542" fill-rule="evenodd"/>
        <path id="Path_6044" data-name="Path 6044" d="M2886.8,2041.286c-1.543-6.552-13.539.514-9.394,4.249a8.774,8.774,0,0,1-.16,2.473c-.68,6.7,1.979,23.407,7.085,35.367,2.77,6.488,10.918,7.7,13.357,2.1,3.869-8.885-4.3-29.4-8.866-39.715C2888.161,2044.264,2887.472,2042.78,2886.8,2041.286Z" transform="translate(-2852.819 -1984.361)" fill="#101542" fill-rule="evenodd"/>
        <g id="Group_3909" data-name="Group 3909" transform="translate(0 50.575)">
          <path id="Path_6045" data-name="Path 6045" d="M2871.194,2040.241a9.057,9.057,0,0,0,1.2-.459c-.461,0-.841-.01-1.105-.025a37.285,37.285,0,0,1-5.461-2.512c1.094-3.264,5.275-.6,6.014-.642.291-.017,2.2-.631,4.082-.977,2.681-.492,4.927-.633,7.058,1.162,2.582,1.334,5.084,2.875,4.261,6.118-.73,2.872-3.982,2.938-6.289,3.384a27.028,27.028,0,0,0-5.782,2.438c-4.1,2.01-4.865,2.069-12.143-1.8-5.331-2.831-8.243-4.427-7.765-7.105C2856.381,2033.56,2865.092,2040.221,2871.194,2040.241Z" transform="translate(-2855.208 -2035.305)" fill="#fbb686" fill-rule="evenodd"/>
          <path id="Path_6046" data-name="Path 6046" d="M2856.538,2039.236c2,1.132,12.111,4.222,14.281,3.47.582-.2.329-1.347.193-2.782.587.886.313,3.094,1.161,2.507,4.748-3.292,6.887-4.071,10.093-2.6a10.643,10.643,0,0,0-5.774,1.214c-1.7.841-3.2,2.112-5.012,2.881C2866.343,2043.142,2863.275,2043.049,2856.538,2039.236Z" transform="translate(-2855.059 -2034.879)" fill="#f89c69" fill-rule="evenodd"/>
        </g>
      </g>
    </g>
    <g id="Group_3935" data-name="Group 3935" transform="translate(2908.444 1919.972)">
      <g id="Group_3931" data-name="Group 3931">
        <g id="Group_3922" data-name="Group 3922" transform="translate(10.559 52.072)" style="isolation: isolate">
          <g id="Group_3917" data-name="Group 3917" transform="translate(5.053)" style="isolation: isolate">
            <path id="Path_6047" data-name="Path 6047" d="M2920.173,1955.466l4.371,2.14a3.283,3.283,0,0,0-3.049.326l-4.371-2.141A3.275,3.275,0,0,1,2920.173,1955.466Z" transform="translate(-2917.124 -1955.219)" fill="#ff6355"/>
            <g id="Group_3916" data-name="Group 3916" clip-path="url(#clip-path)">
              <g id="Group_3915" data-name="Group 3915" transform="translate(0 0)" style="isolation: isolate">
                <path id="Path_6048" data-name="Path 6048" d="M2921.495,1957.886l-4.371-2.141c.075-.04.151-.078.224-.115l4.372,2.142c-.075.036-.149.073-.225.114" transform="translate(-2917.124 -1955.173)" fill="#ff6355"/>
                <path id="Path_6049" data-name="Path 6049" d="M2921.7,1957.8l-4.371-2.142a5.371,5.371,0,0,1,.684-.277l4.37,2.141a5.2,5.2,0,0,0-.683.278" transform="translate(-2917.101 -1955.201)" fill="#ff6355"/>
                <path id="Path_6050" data-name="Path 6050" d="M2922.311,1957.535l-4.37-2.141a3.938,3.938,0,0,1,.467-.122l4.371,2.142a3.929,3.929,0,0,0-.468.121" transform="translate(-2917.032 -1955.214)" fill="#ff6355"/>
                <path id="Path_6051" data-name="Path 6051" d="M2922.732,1957.418l-4.371-2.142a3.227,3.227,0,0,1,.375-.05l4.37,2.14a3.276,3.276,0,0,0-.374.051" transform="translate(-2916.985 -1955.218)" fill="#ff6355"/>
                <path id="Path_6052" data-name="Path 6052" d="M2923.068,1957.368l-4.37-2.14a2.977,2.977,0,0,1,.326-.007l4.37,2.142a2.921,2.921,0,0,0-.326.005" transform="translate(-2916.948 -1955.219)" fill="#ff6355"/>
                <path id="Path_6053" data-name="Path 6053" d="M2923.361,1957.363l-4.37-2.142a2.664,2.664,0,0,1,.3.03l4.37,2.14a2.611,2.611,0,0,0-.3-.029" transform="translate(-2916.915 -1955.219)" fill="#ff6355"/>
                <path id="Path_6054" data-name="Path 6054" d="M2923.628,1957.388l-4.37-2.14a2.365,2.365,0,0,1,.281.062l4.371,2.14a2.726,2.726,0,0,0-.282-.062" transform="translate(-2916.885 -1955.216)" fill="#ff6355"/>
                <path id="Path_6055" data-name="Path 6055" d="M2923.882,1957.444l-4.371-2.14a2.26,2.26,0,0,1,.276.1l4.37,2.141a2.4,2.4,0,0,0-.275-.1" transform="translate(-2916.856 -1955.21)" fill="#ff6355"/>
                <path id="Path_6056" data-name="Path 6056" d="M2924.129,1957.532l-4.37-2.141c.04.017.08.035.119.055l4.371,2.14c-.04-.019-.08-.038-.12-.054" transform="translate(-2916.829 -1955.2)" fill="#ff6355"/>
              </g>
            </g>
          </g>
          <g id="Group_3920" data-name="Group 3920" transform="translate(0 0.572)" style="isolation: isolate">
            <path id="Path_6058" data-name="Path 6058" d="M2918.535,1970.469l-4.371-2.14c-.049-.025-.1-.05-.146-.077q-1.473-.826-1.438-3.747a10.324,10.324,0,0,1,1.492-5.119,9.153,9.153,0,0,1,3.561-3.651l4.371,2.141a9.16,9.16,0,0,0-3.561,3.65,10.325,10.325,0,0,0-1.491,5.121c-.023,1.944.456,3.2,1.438,3.746C2918.437,1970.42,2918.486,1970.445,2918.535,1970.469Z" transform="translate(-2912.579 -1955.734)" fill="#ff6355"/>
            <g id="Group_3919" data-name="Group 3919" clip-path="url(#clip-path-2)">
              <g id="Group_3918" data-name="Group 3918" style="isolation: isolate">
                <path id="Path_6059" data-name="Path 6059" d="M2918.535,1969.638l-4.371-2.14c-.049-.025-.1-.05-.146-.077q-1.473-.826-1.438-3.747c0-.175.009-.349.021-.524l4.371,2.142c-.012.174-.019.348-.021.524-.023,1.944.456,3.2,1.438,3.746.048.028.1.053.146.077" transform="translate(-2912.579 -1954.904)" fill="#ff6355"/>
                <path id="Path_6060" data-name="Path 6060" d="M2916.97,1965.372l-4.371-2.142q.026-.4.086-.8l4.371,2.142c-.04.265-.069.529-.087.8" transform="translate(-2912.577 -1954.984)" fill="#ff6355"/>
                <path id="Path_6061" data-name="Path 6061" d="M2917.048,1964.636l-4.371-2.142q.047-.3.111-.6l4.371,2.141c-.043.2-.08.4-.111.6" transform="translate(-2912.568 -1955.044)" fill="#ff6355"/>
                <path id="Path_6062" data-name="Path 6062" d="M2917.148,1964.088l-4.371-2.141q.057-.257.127-.514l4.371,2.142c-.048.171-.09.342-.127.513" transform="translate(-2912.557 -1955.096)" fill="#ff6355"/>
                <path id="Path_6063" data-name="Path 6063" d="M2917.262,1963.623l-4.371-2.142c.042-.156.09-.311.14-.468l4.371,2.142q-.077.233-.14.468" transform="translate(-2912.544 -1955.143)" fill="#ff6355"/>
                <path id="Path_6064" data-name="Path 6064" d="M2917.388,1963.2l-4.371-2.142c.049-.149.1-.3.158-.447l4.371,2.142q-.085.223-.158.447" transform="translate(-2912.53 -1955.188)" fill="#ff6355"/>
                <path id="Path_6065" data-name="Path 6065" d="M2917.53,1962.8l-4.371-2.142c.055-.147.115-.295.178-.441l4.37,2.14c-.062.148-.122.295-.177.443" transform="translate(-2912.514 -1955.232)" fill="#ff6355"/>
                <path id="Path_6066" data-name="Path 6066" d="M2917.689,1962.4l-4.37-2.14c.064-.151.132-.3.2-.453l4.371,2.141q-.109.227-.206.452" transform="translate(-2912.496 -1955.278)" fill="#ff6355"/>
                <path id="Path_6067" data-name="Path 6067" d="M2917.874,1962l-4.371-2.141c.077-.159.157-.318.242-.478l4.37,2.142c-.084.159-.166.318-.241.477" transform="translate(-2912.476 -1955.326)" fill="#ff6355"/>
                <path id="Path_6068" data-name="Path 6068" d="M2918.091,1961.573l-4.37-2.142q.107-.2.224-.4l.08-.138,4.371,2.142c-.028.044-.054.091-.081.137q-.115.2-.224.4" transform="translate(-2912.451 -1955.38)" fill="#ff6355"/>
                <path id="Path_6069" data-name="Path 6069" d="M2918.365,1961.091l-4.371-2.142c.115-.192.23-.378.351-.557l4.371,2.141q-.18.27-.35.558" transform="translate(-2912.421 -1955.436)" fill="#ff6355"/>
                <path id="Path_6070" data-name="Path 6070" d="M2918.68,1960.589l-4.371-2.141q.193-.29.4-.559l4.371,2.142q-.2.268-.4.558" transform="translate(-2912.385 -1955.493)" fill="#ff6355"/>
                <path id="Path_6071" data-name="Path 6071" d="M2919.037,1960.1l-4.371-2.142q.257-.34.53-.644l4.371,2.142q-.274.3-.531.644" transform="translate(-2912.346 -1955.557)" fill="#ff6355"/>
                <path id="Path_6072" data-name="Path 6072" d="M2919.514,1959.628l-4.371-2.142a8.014,8.014,0,0,1,2.2-1.752l4.371,2.141a8.035,8.035,0,0,0-2.2,1.753" transform="translate(-2912.292 -1955.734)" fill="#ff6355"/>
              </g>
            </g>
          </g>
          <g id="Group_3921" data-name="Group 3921" transform="translate(4.371 2.141)">
            <path id="Path_6074" data-name="Path 6074" d="M2921.563,1957.717q2.072-1.1,3.453-.079t1.358,3.6a10.156,10.156,0,0,1-1.53,5.307,9.254,9.254,0,0,1-3.426,3.448,3.47,3.47,0,0,1-3.469.236c-.982-.551-1.461-1.8-1.438-3.746a10.325,10.325,0,0,1,1.491-5.121A9.16,9.16,0,0,1,2921.563,1957.717Z" transform="translate(-2916.51 -1957.145)" fill="#e65245"/>
          </g>
        </g>
        <g id="Group_3930" data-name="Group 3930" style="isolation: isolate">
          <g id="Group_3925" data-name="Group 3925" transform="translate(11.328 10.365)" style="isolation: isolate">
            <path id="Path_6075" data-name="Path 6075" d="M2919.035,1958.867l-4.37-2.142a1.89,1.89,0,0,1-.277-.162c-.768-.516-1.137-1.688-1.116-3.531a23.445,23.445,0,0,1,.925-6.427,29.187,29.187,0,0,1,2.316-5.642q1.426-2.657,3.854-6.569c1.421-2.272,2.444-3.972,3.076-5.085a23.549,23.549,0,0,0,1.6-3.441,10.425,10.425,0,0,0,.676-3.466c.025-2.2-.606-3.691-1.887-4.508a3.4,3.4,0,0,0-.325-.182l4.37,2.14a3.274,3.274,0,0,1,.326.184c1.281.816,1.913,2.312,1.886,4.508a10.4,10.4,0,0,1-.675,3.465,23.655,23.655,0,0,1-1.6,3.442c-.633,1.113-1.656,2.813-3.077,5.085q-2.425,3.91-3.854,6.57a29.231,29.231,0,0,0-2.317,5.641,23.49,23.49,0,0,0-.924,6.427c-.022,1.843.348,3.015,1.116,3.531A2.15,2.15,0,0,0,2919.035,1958.867Z" transform="translate(-2913.271 -1917.711)" fill="#ff6355"/>
            <g id="Group_3924" data-name="Group 3924" clip-path="url(#clip-path-3)">
              <g id="Group_3923" data-name="Group 3923" style="isolation: isolate">
                <path id="Path_6076" data-name="Path 6076" d="M2919.035,1955.46l-4.37-2.142a1.89,1.89,0,0,1-.277-.162c-.768-.516-1.137-1.688-1.116-3.531.007-.5.026-1,.059-1.489l4.37,2.142c-.032.488-.052.984-.058,1.488-.022,1.843.348,3.015,1.116,3.531a2.15,2.15,0,0,0,.276.164" transform="translate(-2913.271 -1914.305)" fill="#ff6355"/>
                <path id="Path_6077" data-name="Path 6077" d="M2917.695,1950.485l-4.37-2.142q.07-1.046.222-2.047l4.371,2.142q-.153,1-.224,2.047" transform="translate(-2913.265 -1914.511)" fill="#ff6355"/>
                <path id="Path_6078" data-name="Path 6078" d="M2917.9,1948.577l-4.371-2.142q.109-.7.257-1.385l4.37,2.141q-.148.682-.256,1.386" transform="translate(-2913.243 -1914.65)" fill="#ff6355"/>
                <path id="Path_6079" data-name="Path 6079" d="M2918.126,1947.3l-4.37-2.141q.12-.552.268-1.089l4.37,2.141c-.1.358-.187.722-.268,1.089" transform="translate(-2913.217 -1914.76)" fill="#ff6355"/>
                <path id="Path_6080" data-name="Path 6080" d="M2918.367,1946.338,2914,1944.2c.038-.14.078-.279.119-.417q.125-.426.263-.842l4.37,2.141c-.09.278-.178.559-.262.842-.04.139-.08.278-.119.417" transform="translate(-2913.19 -1914.886)" fill="#ff6355"/>
                <path id="Path_6081" data-name="Path 6081" d="M2918.71,1945.208l-4.37-2.141q.212-.65.45-1.282l4.371,2.141q-.238.632-.451,1.282" transform="translate(-2913.151 -1915.016)" fill="#ff6355"/>
                <path id="Path_6082" data-name="Path 6082" d="M2919.116,1944.044l-4.371-2.141q.223-.594.47-1.171l4.371,2.142q-.247.577-.47,1.17" transform="translate(-2913.106 -1915.134)" fill="#ff6355"/>
                <path id="Path_6083" data-name="Path 6083" d="M2919.539,1942.986l-4.371-2.142q.24-.56.5-1.109l4.371,2.142q-.262.547-.5,1.109" transform="translate(-2913.059 -1915.245)" fill="#ff6355"/>
                <path id="Path_6084" data-name="Path 6084" d="M2919.99,1941.987l-4.371-2.142c.176-.366.358-.728.549-1.085l4.371,2.141q-.287.537-.549,1.086" transform="translate(-2913.008 -1915.354)" fill="#ff6355"/>
                <path id="Path_6085" data-name="Path 6085" d="M2920.484,1941.286l-4.371-2.141.082-.154q.864-1.609,2.095-3.678l4.371,2.141q-1.231,2.07-2.095,3.679c-.028.051-.055.1-.082.153" transform="translate(-2912.953 -1915.74)" fill="#ff6355"/>
                <path id="Path_6086" data-name="Path 6086" d="M2922.442,1938.125l-4.371-2.141q.8-1.349,1.759-2.891,1.419-2.27,2.312-3.773l4.371,2.14q-.894,1.5-2.312,3.773-.957,1.542-1.759,2.891" transform="translate(-2912.734 -1916.411)" fill="#ff6355"/>
                <path id="Path_6087" data-name="Path 6087" d="M2926.1,1931.649l-4.371-2.14q.448-.754.765-1.312c.1-.182.205-.365.3-.548l4.371,2.141c-.1.184-.2.367-.3.548q-.317.558-.765,1.312" transform="translate(-2912.324 -1916.598)" fill="#ff6355"/>
                <path id="Path_6088" data-name="Path 6088" d="M2927.063,1929.881l-4.371-2.141q.242-.455.464-.916l4.371,2.14q-.222.462-.464.916" transform="translate(-2912.216 -1916.691)" fill="#ff6355"/>
                <path id="Path_6089" data-name="Path 6089" d="M2927.48,1929.057l-4.371-2.14q.219-.456.416-.92l4.371,2.142q-.2.464-.416.918" transform="translate(-2912.17 -1916.783)" fill="#ff6355"/>
                <path id="Path_6090" data-name="Path 6090" d="M2927.854,1928.235l-4.371-2.142q.2-.475.387-.961l4.37,2.14q-.184.486-.386.962" transform="translate(-2912.128 -1916.88)" fill="#ff6355"/>
                <path id="Path_6091" data-name="Path 6091" d="M2928.2,1927.326l-4.37-2.14.036-.1q.078-.214.148-.426l4.371,2.141c-.047.142-.1.283-.148.426l-.037.1" transform="translate(-2912.089 -1916.933)" fill="#ff6355"/>
                <path id="Path_6092" data-name="Path 6092" d="M2928.367,1926.858l-4.371-2.141c.059-.18.112-.359.162-.538l4.37,2.142c-.049.178-.1.357-.161.537" transform="translate(-2912.07 -1916.987)" fill="#ff6355"/>
                <path id="Path_6093" data-name="Path 6093" d="M2928.512,1926.378l-4.37-2.142q.077-.283.139-.567l4.371,2.142q-.062.282-.14.567" transform="translate(-2912.054 -1917.044)" fill="#ff6355"/>
                <path id="Path_6094" data-name="Path 6094" d="M2928.638,1925.875l-4.371-2.142c.047-.212.086-.425.118-.636l4.371,2.142c-.032.21-.071.422-.118.636" transform="translate(-2912.04 -1917.108)" fill="#ff6355"/>
                <path id="Path_6095" data-name="Path 6095" d="M2928.744,1925.319l-4.371-2.142q.062-.4.089-.8l4.37,2.14c-.018.266-.047.532-.088.8" transform="translate(-2912.028 -1917.188)" fill="#ff6355"/>
                <path id="Path_6096" data-name="Path 6096" d="M2929.044,1925.041l-4.37-2.14c.011-.167.018-.333.02-.5.025-2.2-.606-3.691-1.887-4.508a3.4,3.4,0,0,0-.325-.182l4.37,2.14a3.274,3.274,0,0,1,.326.184c1.281.816,1.913,2.312,1.886,4.508,0,.165-.008.331-.02.5" transform="translate(-2912.24 -1917.711)" fill="#ff6355"/>
              </g>
            </g>
          </g>
          <g id="Group_3928" data-name="Group 3928" style="isolation: isolate">
            <path id="Path_6098" data-name="Path 6098" d="M2909.08,1942.013l-4.371-2.141a2.428,2.428,0,0,1-.4-.248,3.3,3.3,0,0,1-1.228-2.842,25.206,25.206,0,0,1,2.1-8.975,37.107,37.107,0,0,1,5.912-9.744,29.775,29.775,0,0,1,8.982-7.383q4.754-2.529,8.368-2.267a8.015,8.015,0,0,1,2.956.761l4.371,2.14a8.015,8.015,0,0,0-2.956-.76q-3.615-.255-8.367,2.267a29.773,29.773,0,0,0-8.982,7.383,37.092,37.092,0,0,0-5.912,9.745,25.194,25.194,0,0,0-2.1,8.974,3.29,3.29,0,0,0,1.228,2.842A2.328,2.328,0,0,0,2909.08,1942.013Z" transform="translate(-2903.083 -1908.39)" fill="#ff6355"/>
            <g id="Group_3927" data-name="Group 3927" clip-path="url(#clip-path-4)">
              <g id="Group_3926" data-name="Group 3926" transform="translate(0 0)" style="isolation: isolate">
                <path id="Path_6099" data-name="Path 6099" d="M2909.08,1939.244l-4.371-2.141a2.428,2.428,0,0,1-.4-.248,3.3,3.3,0,0,1-1.228-2.842c0-.291.016-.588.036-.888l4.371,2.141q-.03.452-.036.888a3.29,3.29,0,0,0,1.228,2.842,2.328,2.328,0,0,0,.4.248" transform="translate(-2903.083 -1905.62)" fill="#ff6355"/>
                <path id="Path_6100" data-name="Path 6100" d="M2907.487,1935.424l-4.371-2.141q.052-.766.175-1.57l4.371,2.14q-.124.806-.175,1.57" transform="translate(-2903.08 -1905.778)" fill="#ff6355"/>
                <path id="Path_6101" data-name="Path 6101" d="M2907.644,1933.992l-4.371-2.14q.1-.676.257-1.38l4.371,2.14q-.153.706-.257,1.38" transform="translate(-2903.062 -1905.917)" fill="#ff6355"/>
                <path id="Path_6102" data-name="Path 6102" d="M2907.875,1932.748l-4.371-2.14q.144-.661.333-1.348l4.371,2.14q-.188.687-.332,1.348" transform="translate(-2903.036 -1906.053)" fill="#ff6355"/>
                <path id="Path_6103" data-name="Path 6103" d="M2908.174,1931.541l-4.371-2.14q.189-.684.419-1.392l4.371,2.142q-.232.709-.419,1.391" transform="translate(-2903.003 -1906.193)" fill="#ff6355"/>
                <path id="Path_6104" data-name="Path 6104" d="M2908.551,1930.3l-4.371-2.142q.242-.735.529-1.5l4.37,2.14q-.286.764-.528,1.5" transform="translate(-2902.961 -1906.344)" fill="#ff6355"/>
                <path id="Path_6105" data-name="Path 6105" d="M2909.026,1928.953l-4.37-2.14q.167-.444.35-.9c.083-.207.169-.412.257-.618l4.371,2.141q-.132.308-.257.619-.183.452-.352.9" transform="translate(-2902.907 -1906.497)" fill="#ff6355"/>
                <path id="Path_6106" data-name="Path 6106" d="M2909.573,1927.568l-4.371-2.141q.277-.649.585-1.291l4.37,2.141q-.307.642-.584,1.291" transform="translate(-2902.847 -1906.627)" fill="#ff6355"/>
                <path id="Path_6107" data-name="Path 6107" d="M2910.1,1926.411l-4.37-2.141q.322-.674.678-1.34l4.371,2.14q-.357.667-.679,1.34" transform="translate(-2902.787 -1906.762)" fill="#ff6355"/>
                <path id="Path_6108" data-name="Path 6108" d="M2910.709,1925.216l-4.371-2.14q.387-.726.813-1.441l4.371,2.142q-.427.716-.813,1.44" transform="translate(-2902.719 -1906.907)" fill="#ff6355"/>
                <path id="Path_6109" data-name="Path 6109" d="M2911.44,1923.94l-4.371-2.142q.487-.819,1.026-1.628l4.371,2.14q-.539.809-1.027,1.629" transform="translate(-2902.637 -1907.071)" fill="#ff6355"/>
                <path id="Path_6110" data-name="Path 6110" d="M2912.363,1922.511l-4.371-2.14q.668-1,1.413-1.986l4.37,2.142q-.744.984-1.412,1.985" transform="translate(-2902.534 -1907.271)" fill="#ff6355"/>
                <path id="Path_6111" data-name="Path 6111" d="M2913.633,1920.767l-4.37-2.142q.549-.724,1.14-1.44.4-.483.816-.947l4.371,2.142q-.415.462-.816.946-.591.716-1.141,1.441" transform="translate(-2902.392 -1907.511)" fill="#ff6355"/>
                <path id="Path_6112" data-name="Path 6112" d="M2915.393,1919.076l-4.371-2.142a29.528,29.528,0,0,1,8.166-6.436q.478-.253.942-.479l4.371,2.142q-.465.225-.942.478a29.525,29.525,0,0,0-8.167,6.437" transform="translate(-2902.195 -1908.207)" fill="#ff6355"/>
                <path id="Path_6113" data-name="Path 6113" d="M2923.584,1912.274l-4.371-2.142a21.6,21.6,0,0,1,2.762-1.123l4.371,2.14a21.593,21.593,0,0,0-2.762,1.124" transform="translate(-2901.278 -1908.32)" fill="#ff6355"/>
                <path id="Path_6114" data-name="Path 6114" d="M2926.068,1911.2l-4.371-2.14a15.127,15.127,0,0,1,1.8-.468l4.37,2.14a15.416,15.416,0,0,0-1.8.468" transform="translate(-2901 -1908.368)" fill="#ff6355"/>
                <path id="Path_6115" data-name="Path 6115" d="M2927.688,1910.748l-4.37-2.14a12.056,12.056,0,0,1,1.4-.191l4.371,2.142a11.894,11.894,0,0,0-1.4.19" transform="translate(-2900.818 -1908.387)" fill="#ff6355"/>
                <path id="Path_6116" data-name="Path 6116" d="M2928.95,1910.56l-4.371-2.142a10.346,10.346,0,0,1,1.182-.021l4.371,2.141a10.293,10.293,0,0,0-1.182.022" transform="translate(-2900.677 -1908.39)" fill="#ff6355"/>
                <path id="Path_6117" data-name="Path 6117" d="M2930.013,1910.537l-4.371-2.141c.093,0,.186.009.277.016q.408.03.795.092l4.37,2.141q-.385-.062-.794-.092c-.091-.007-.185-.011-.277-.016" transform="translate(-2900.558 -1908.389)" fill="#ff6355"/>
                <path id="Path_6118" data-name="Path 6118" d="M2930.976,1910.634l-4.37-2.141a8.467,8.467,0,0,1,.97.213l4.37,2.141a8.205,8.205,0,0,0-.97-.213" transform="translate(-2900.45 -1908.378)" fill="#ff6355"/>
                <path id="Path_6119" data-name="Path 6119" d="M2931.848,1910.826l-4.37-2.141a7.574,7.574,0,0,1,.849.3l4.372,2.142a7.2,7.2,0,0,0-.851-.3" transform="translate(-2900.353 -1908.357)" fill="#ff6355"/>
                <path id="Path_6120" data-name="Path 6120" d="M2932.613,1911.1l-4.371-2.142c.116.05.23.1.342.157l4.371,2.14c-.113-.054-.226-.107-.341-.156" transform="translate(-2900.267 -1908.326)" fill="#ff6355"/>
              </g>
            </g>
          </g>
          <g id="Group_3929" data-name="Group 3929" transform="translate(4.371 2.141)">
            <path id="Path_6122" data-name="Path 6122" d="M2937.923,1913.334a11.776,11.776,0,0,1,1.891,7.158,20.36,20.36,0,0,1-1.208,6.726,36.323,36.323,0,0,1-2.741,5.969q-1.581,2.74-5.665,9.411-1.129,1.861-1.816,3.183a18.486,18.486,0,0,0-1.015,2.3,15.079,15.079,0,0,0-.531,1.882c-.126.593-.322,1.631-.575,3.1q-.675,4.615-3.955,6.356a2.609,2.609,0,0,1-2.848.118c-.768-.516-1.139-1.688-1.117-3.531a23.489,23.489,0,0,1,.924-6.427,29.2,29.2,0,0,1,2.317-5.641q1.424-2.659,3.854-6.57c1.421-2.272,2.444-3.972,3.077-5.085a23.6,23.6,0,0,0,1.6-3.442,10.4,10.4,0,0,0,.675-3.465c.027-2.2-.6-3.692-1.886-4.508s-2.949-.678-5,.415a12.576,12.576,0,0,0-5.341,5.1,34.585,34.585,0,0,0-2.96,8.248q-1.169,5.239-4.285,6.892a2.681,2.681,0,0,1-3.076.027,3.291,3.291,0,0,1-1.228-2.842,25.2,25.2,0,0,1,2.1-8.974,37.091,37.091,0,0,1,5.912-9.745,29.776,29.776,0,0,1,8.982-7.383q4.753-2.527,8.368-2.267A7.08,7.08,0,0,1,2937.923,1913.334Z" transform="translate(-2907.014 -1910.315)" fill="#e65245"/>
          </g>
        </g>
      </g>
    </g>
  </g>
</svg>
