<svg xmlns="http://www.w3.org/2000/svg" xmlns:xlink="http://www.w3.org/1999/xlink" width="458.993" height="586.275" viewBox="0 0 458.993 586.275">
  <defs>
    <linearGradient id="linear-gradient" x1="0.5" y1="0.888" x2="0.5" y2="0.09" gradientUnits="objectBoundingBox">
      <stop offset="0" stop-color="#ff6355" stop-opacity="0.698"/>
      <stop offset="1" stop-color="#ff6355" stop-opacity="0"/>
    </linearGradient>
    <linearGradient id="linear-gradient-2" x1="0.494" y1="-0.025" x2="0.511" y2="0.884" gradientUnits="objectBoundingBox">
      <stop offset="0" stop-color="#fff" stop-opacity="0.698"/>
      <stop offset="1" stop-color="#fff" stop-opacity="0"/>
    </linearGradient>
    <linearGradient id="linear-gradient-3" y1="0.5" x2="1" y2="0.5" gradientUnits="objectBoundingBox">
      <stop offset="0.25" stop-color="#fff"/>
      <stop offset="0.7" stop-color="#dee4f7"/>
    </linearGradient>
  </defs>
  <g id="Group_3936" data-name="Group 3936" transform="translate(-2265.52 -1023.755)">
    <g id="Group_3941" data-name="Group 3941">
      <g id="Group_3936-2" data-name="Group 3936">
        <path id="Path_6124" data-name="Path 6124" d="M2704.18,1272.325c-.062,21.872-15.541,30.706-34.586,19.71s-34.414-37.639-34.352-59.511,15.542-30.693,34.576-19.7S2704.242,1250.453,2704.18,1272.325Zm-34.562,11.341c15.024,8.674,27.24,1.724,27.289-15.54s-12.088-38.274-27.112-46.949-27.231-1.706-27.28,15.546,12.089,38.275,27.1,46.943" fill="#5869a3"/>
      </g>
      <g id="Group_3937" data-name="Group 3937">
        <path id="Path_6125" data-name="Path 6125" d="M2688.439,1263.237c-.033,11.891-8.445,16.685-18.794,10.711s-18.7-20.445-18.662-32.336,8.446-16.673,18.784-10.7S2688.473,1251.358,2688.439,1263.237Zm-18.77,2.258c6.286,3.629,11.394.718,11.414-6.505s-5.054-16-11.34-19.629-11.383-.713-11.4,6.5,5.054,16.013,11.33,19.636" fill="#5869a3"/>
      </g>
      <g id="Group_3938" data-name="Group 3938">
        <path id="Path_6126" data-name="Path 6126" d="M2669.618,1283.666c15.024,8.674,27.24,1.724,27.289-15.54s-12.088-38.274-27.112-46.948-27.231-1.707-27.28,15.545S2654.6,1275,2669.618,1283.666Zm.027-9.718c-10.338-5.969-18.7-20.445-18.662-32.336s8.446-16.673,18.784-10.7,18.706,20.45,18.672,32.329-8.445,16.685-18.794,10.711" fill="#34478b"/>
      </g>
      <g id="Group_3939" data-name="Group 3939">
        <path id="Path_6127" data-name="Path 6127" d="M2626.38,1227.407c-.078,27.508,19.257,61,43.185,74.812s43.4,2.731,43.478-24.777-19.257-60.985-43.2-74.806S2626.458,1199.912,2626.38,1227.407Zm43.214,64.628c-19.035-10.99-34.414-37.639-34.351-59.511s15.541-30.693,34.576-19.7,34.423,37.633,34.361,59.505-15.541,30.706-34.586,19.71" fill="#34478b"/>
      </g>
      <g id="Group_3940" data-name="Group 3940">
        <path id="Path_6128" data-name="Path 6128" d="M2658.339,1245.859c.021-7.211,5.129-10.122,11.4-6.5s11.361,12.418,11.34,19.629-5.128,10.134-11.414,6.505S2658.319,1253.082,2658.339,1245.859Z" fill="#34478b"/>
      </g>
      <path id="Path_6129" data-name="Path 6129" d="M2666.319,1200.778q-1.04-.5-2.065-.943c-.243-.1-.486-.215-.727-.313-.646-.264-1.285-.505-1.921-.731-.155-.055-.313-.12-.467-.173q-1.182-.405-2.339-.722c-.457-.125-.908-.232-1.359-.337-.206-.048-.415-.107-.62-.151q-.99-.213-1.961-.364c-.984-.151-1.945-.237-2.894-.29-.191-.011-.384-.024-.573-.031-.852-.031-1.69-.028-2.51.02-.145.009-.285.027-.429.038-.662.05-1.314.128-1.955.229-.2.031-.4.062-.6.1-.735.136-1.46.3-2.163.5-.034.01-.066.023-.1.033-.666.2-1.313.431-1.948.687-.188.076-.372.156-.556.237q-.816.357-1.6.78c-.172.093-.35.175-.519.273l11.47-6.665.237-.136c.091-.051.19-.087.281-.137q.78-.424,1.6-.781c.1-.044.2-.1.3-.145.083-.035.173-.057.256-.091.636-.256,1.282-.49,1.948-.687.028-.008.055-.021.084-.029l.016,0c.7-.2,1.429-.363,2.164-.5.086-.016.166-.043.252-.058.113-.02.234-.023.347-.041.642-.1,1.293-.178,1.957-.228.106-.008.207-.03.314-.037.037,0,.076,0,.113,0,.82-.048,1.658-.051,2.509-.02.083,0,.162-.006.245,0,.109.005.223.027.331.033.949.053,1.911.139,2.894.29h.006c.643.1,1.294.221,1.952.362.21.046.424.105.636.155.407.1.812.185,1.224.3.039.011.081.026.12.037.772.213,1.551.451,2.339.721.155.053.313.118.468.174.635.226,1.274.466,1.919.73.086.035.169.061.255.1.157.065.318.15.475.217q1.024.439,2.062.942c.261.127.522.251.784.384.909.459,1.823.942,2.746,1.475,1.15.664,2.287,1.388,3.414,2.14.193.128.386.253.578.384q1.612,1.1,3.188,2.316c.2.158.408.318.612.479,1.068.839,2.125,1.707,3.163,2.618.09.079.178.162.268.242,1,.888,1.991,1.812,2.964,2.762.1.095.2.181.3.277.06.06.118.124.179.183.745.74,1.484,1.493,2.209,2.266.049.052.1.107.145.159q1.017,1.089,2.006,2.22c.064.074.132.143.2.217.082.094.157.2.238.29q1.632,1.891,3.186,3.881c.03.038.063.074.093.112.08.1.153.213.233.316q1.233,1.6,2.41,3.268c.078.11.162.215.24.325.036.052.069.1.1.157q1.126,1.611,2.192,3.272c.068.107.143.209.211.316.1.159.195.324.295.484q.861,1.362,1.682,2.752c.085.144.177.284.262.429.031.054.06.11.092.165q.926,1.594,1.793,3.219c.048.089.1.176.148.265.1.179.181.362.275.542q.678,1.293,1.319,2.6c.088.181.186.358.273.54.052.108.1.218.149.326.528,1.1,1.039,2.212,1.524,3.329.016.035.033.07.048.1.053.12.1.242.149.363q.648,1.51,1.24,3.033c.064.164.137.327.2.491.052.136.095.273.147.41.455,1.2.891,2.4,1.294,3.607.008.024.018.048.025.071.025.074.044.148.068.222.41,1.241.786,2.483,1.138,3.727.044.155.1.311.142.466.024.085.039.17.063.255q.594,2.169,1.062,4.333c.028.128.067.256.094.383.04.187.069.373.108.56.116.567.223,1.133.326,1.7.072.393.145.787.21,1.179.1.583.181,1.165.263,1.746.039.274.089.55.124.824.01.072.012.142.021.213q.237,1.871.365,3.718c.019.262.033.523.048.785.074,1.264.124,2.521.12,3.763-.038,13.665-4.861,23.279-12.64,27.8l-11.469,6.666c7.779-4.521,12.6-14.134,12.64-27.8,0-1.241-.046-2.5-.12-3.762-.016-.262-.03-.524-.048-.786-.088-1.231-.207-2.469-.365-3.715-.044-.347-.1-.7-.146-1.044-.082-.58-.166-1.159-.263-1.741-.065-.394-.138-.789-.21-1.184-.1-.563-.209-1.127-.325-1.692-.065-.315-.134-.631-.2-.946q-.471-2.164-1.063-4.335c-.065-.238-.135-.476-.2-.714-.353-1.246-.73-2.491-1.14-3.735-.032-.1-.06-.192-.092-.289-.4-1.205-.839-2.408-1.294-3.607q-.172-.453-.349-.9-.594-1.52-1.239-3.03c-.067-.156-.13-.313-.2-.469-.486-1.116-1-2.226-1.524-3.329-.138-.289-.281-.576-.422-.864q-.643-1.314-1.324-2.612c-.139-.265-.274-.531-.415-.794q-.872-1.626-1.8-3.224c-.116-.2-.237-.4-.354-.595q-.82-1.389-1.682-2.752c-.168-.266-.334-.532-.5-.8q-1.069-1.659-2.194-3.275c-.113-.162-.231-.321-.345-.482q-1.174-1.66-2.407-3.264c-.111-.144-.218-.291-.329-.434q-1.549-1.992-3.187-3.88c-.144-.167-.286-.338-.431-.5q-1-1.138-2.021-2.236l-.129-.143q-1.09-1.161-2.212-2.268c-.157-.155-.317-.3-.475-.459q-1.459-1.425-2.965-2.763c-.089-.079-.177-.163-.267-.242-1.039-.911-2.1-1.778-3.163-2.618-.2-.16-.407-.321-.612-.479q-1.575-1.212-3.188-2.316c-.192-.13-.386-.255-.578-.384-1.128-.752-2.264-1.475-3.415-2.14-.923-.533-1.837-1.016-2.746-1.476C2666.839,1201.028,2666.579,1200.9,2666.319,1200.778Z" fill="#223165"/>
    </g>
    <g id="Group_3944" data-name="Group 3944">
      <g id="Group_3943" data-name="Group 3943" style="isolation: isolate">
        <g id="Group_3942" data-name="Group 3942">
          <path id="Path_6130" data-name="Path 6130" d="M2386.482,1164.927l21.8-17.673-4.35,27.615-6.411-3.647-12.3,21.314-9.5-5.413-27.736,48.047-16.137-9.2-19.2,33.254-4.15-2.365,23.319-40.39,16.137,9.19,27.736-48.041,9.5,5.414,8.184-14.175Z" fill="#34478b"/>
        </g>
      </g>
    </g>
    <g id="Group_3954" data-name="Group 3954">
      <g id="Group_3945" data-name="Group 3945">
        <path id="Path_6131" data-name="Path 6131" d="M2307.538,1211.993q.018-.469.017-.935C2307.556,1211.369,2307.55,1211.68,2307.538,1211.993Z" fill="#127171"/>
      </g>
      <g id="Group_3946" data-name="Group 3946">
        <path id="Path_6132" data-name="Path 6132" d="M2304.781,1223.119c.225-.514.441-1.032.64-1.549a34.521,34.521,0,0,0,1.19-3.643,33.948,33.948,0,0,1-1.19,3.647Q2305.12,1222.349,2304.781,1223.119Z" fill="#1bafaf"/>
      </g>
      <g id="Group_3951" data-name="Group 3951" style="isolation: isolate">
        <g id="Group_3947" data-name="Group 3947">
          <path id="Path_6133" data-name="Path 6133" d="M2302.794,1200.682a8.1,8.1,0,0,1,2.575,2.355A8.145,8.145,0,0,0,2302.794,1200.682Z" fill="#1bafaf"/>
        </g>
        <g id="Group_3948" data-name="Group 3948">
          <path id="Path_6134" data-name="Path 6134" d="M2299.445,1199.665a8.114,8.114,0,0,1,3.349,1.017A8.221,8.221,0,0,0,2299.445,1199.665Z" fill="#1bafaf"/>
        </g>
        <g id="Group_3949" data-name="Group 3949">
          <path id="Path_6135" data-name="Path 6135" d="M2299,1199.636a11.335,11.335,0,0,0-3.452.423q-.5.133-1.012.311.513-.179,1.012-.315A11.449,11.449,0,0,1,2299,1199.636Z" fill="#1bafaf"/>
        </g>
        <g id="Group_3950" data-name="Group 3950">
          <path id="Path_6136" data-name="Path 6136" d="M2291.373,1201.839l.051,17.866,13.121,3.939c-.506,1.1-1.067,2.189-1.677,3.245a38.193,38.193,0,0,1-3.332,4.875,33.4,33.4,0,0,1-3.884,4.1,25.821,25.821,0,0,1-4.173,3.037,17.582,17.582,0,0,1-4.177,1.784,11.2,11.2,0,0,1-3.9.39,7.932,7.932,0,0,1-5.924-3.372,11.113,11.113,0,0,1-1.624-3.543,17.283,17.283,0,0,1-.559-4.479,25.484,25.484,0,0,1,.532-5.112,33.511,33.511,0,0,1,1.6-5.4,39.1,39.1,0,0,1,5.886-10.19,33.491,33.491,0,0,1,3.884-4.1A26.067,26.067,0,0,1,2291.373,1201.839Z" fill="#34478b"/>
        </g>
      </g>
      <g id="Group_3952" data-name="Group 3952">
        <path id="Path_6137" data-name="Path 6137" d="M2305.369,1203.037a10.084,10.084,0,0,1,1.085,1.961A10.3,10.3,0,0,0,2305.369,1203.037Z" fill="#1bafaf"/>
      </g>
      <g id="Group_3953" data-name="Group 3953">
        <path id="Path_6138" data-name="Path 6138" d="M2291.373,1201.839a18.486,18.486,0,0,1,3.165-1.469q.513-.177,1.012-.311a11.227,11.227,0,0,1,3.667-.412q.114.008.228.018a7.9,7.9,0,0,1,5.924,3.372,10.3,10.3,0,0,1,1.085,1.961,12.7,12.7,0,0,1,.542,1.576,17.5,17.5,0,0,1,.559,4.483q0,.467-.017.936a26.644,26.644,0,0,1-.515,4.176q-.178.878-.412,1.758a34.521,34.521,0,0,1-1.19,3.643c-.2.517-.415,1.035-.64,1.549q-.115.264-.234.526l-13.123-3.94Z" fill="#223165"/>
      </g>
    </g>
    <g id="Group_3958" data-name="Group 3958">
      <g id="Group_3957" data-name="Group 3957">
        <g id="Group_3955" data-name="Group 3955">
          <path id="Path_6139" data-name="Path 6139" d="M2663.021,1452.61c11.595,6.7,11.655,17.552.136,24.246L2558.625,1537.6c-11.52,6.694-30.264,6.694-41.858,0l-105.217-60.747c-11.594-6.694-11.655-17.551-.136-24.246l104.532-60.747c11.52-6.7,30.264-6.7,41.858,0Z" fill="#1a50b2" opacity="0.15"/>
          <path id="Path_6140" data-name="Path 6140" d="M2643.021,1392.61c11.595,6.7,11.655,17.552.136,24.246L2538.625,1477.6c-11.52,6.694-30.264,6.694-41.858,0l-105.217-60.747c-11.594-6.694-11.655-17.551-.136-24.246l104.532-60.747c11.52-6.7,30.264-6.7,41.858,0Z" fill="#f5f7ff"/>
          <path id="Path_6141" data-name="Path 6141" d="M2651.734,1405.339c-.008.149-.017.3-.032.447-.013.13-.031.259-.049.389-.02.148-.042.295-.069.443-.025.131-.053.262-.082.393s-.067.287-.1.43-.074.262-.115.392-.091.286-.142.429c-.045.127-.094.254-.144.381q-.09.225-.189.449c-.056.125-.114.25-.175.374-.072.149-.15.3-.229.445-.065.119-.13.239-.2.357-.1.177-.213.352-.326.527-.068.1-.134.211-.2.316-.133.192-.275.384-.42.574-.062.082-.12.166-.185.247-.239.3-.5.6-.768.9-.07.076-.145.151-.217.227q-.321.336-.67.666c-.106.1-.213.2-.323.3-.139.125-.282.249-.427.372s-.269.228-.408.341-.306.242-.463.362-.29.221-.44.33-.331.235-.5.352-.311.214-.471.319c-.176.115-.356.228-.538.34-.226.141-.449.282-.685.419L2538.625,1477.6c-.642.373-1.313.717-2,1.048q-.27.131-.543.256c-.619.285-1.25.557-1.9.81-.084.033-.165.069-.25.1-.692.264-1.405.5-2.125.728-.5.158-1.013.3-1.526.436-.386.1-.768.217-1.161.312-.539.131-1.09.24-1.64.351-.4.08-.789.171-1.19.241-.167.03-.336.053-.5.081q-1.016.166-2.047.289c-.2.025-.4.051-.6.072q-1.2.129-2.4.2c-.149.009-.3.015-.447.023-.54.027-1.082.034-1.623.044s-1.083.015-1.624.008c-.452-.006-.9-.02-1.354-.038q-.753-.029-1.5-.08-.686-.048-1.366-.114-.742-.072-1.479-.165-.664-.086-1.323-.187-.79-.123-1.57-.273c-.545-.1-1.09-.207-1.626-.329-.129-.03-.258-.057-.386-.088-.755-.179-1.5-.381-2.23-.6-.209-.062-.416-.128-.623-.194q-.915-.287-1.8-.614c-.171-.063-.345-.123-.514-.188-.538-.208-1.057-.439-1.575-.669-.253-.113-.514-.214-.761-.332-.747-.354-1.474-.73-2.171-1.133l-105.217-60.747c-5.834-3.368-8.748-7.791-8.736-12.207l-.1,29.477c-.012,4.416,2.9,8.838,8.736,12.207l105.217,60.747c.7.4,1.424.779,2.171,1.133.247.118.508.219.761.331.443.2.879.4,1.336.582.078.031.16.057.239.088.169.065.343.124.514.188q.885.327,1.8.614c.207.065.414.132.623.194.141.042.276.089.418.13.6.17,1.2.323,1.812.468.128.031.257.058.386.088.3.067.59.139.889.2.243.05.493.081.738.128.52.1,1.042.191,1.569.273.211.032.416.079.628.109.23.032.464.048.7.078q.736.093,1.478.165c.236.023.468.059.7.079.22.018.443.02.663.035.5.035,1,.06,1.5.08.252.01.5.034.753.041.2,0,.4-.006.6,0,.542.007,1.082,0,1.623-.008.269-.005.538.006.807,0s.546-.027.819-.041c.148-.007.3-.013.444-.022.675-.04,1.35-.089,2.02-.155.129-.013.255-.032.384-.046.2-.022.4-.048.6-.072q1.031-.123,2.047-.289c.168-.028.337-.051.5-.081.08-.014.161-.024.241-.038.322-.058.633-.139.952-.2.549-.111,1.1-.219,1.637-.35.393-.095.775-.207,1.163-.313.512-.139,1.024-.277,1.524-.435.108-.034.221-.059.328-.093q.913-.3,1.8-.635c.085-.033.166-.069.25-.1.648-.253,1.278-.525,1.9-.81q.273-.126.543-.256c.684-.331,1.355-.675,2-1.048l104.532-60.748.361-.213c.112-.068.215-.138.325-.206.181-.113.361-.225.536-.34s.318-.213.474-.32.336-.233.5-.351.3-.22.443-.331.31-.239.46-.361.276-.227.411-.342.286-.246.424-.37c.058-.052.12-.1.176-.154s.1-.1.148-.147c.233-.22.455-.442.669-.666.073-.076.149-.151.219-.227.271-.3.528-.593.767-.9.01-.013.023-.026.033-.038.055-.07.1-.142.154-.212.144-.19.286-.38.418-.572.071-.106.138-.212.206-.317.112-.175.222-.349.325-.525.027-.048.061-.095.088-.143.04-.072.073-.144.111-.216.08-.147.157-.295.229-.443.061-.125.119-.25.175-.376.067-.149.13-.3.189-.448.027-.067.059-.133.084-.2s.039-.121.061-.182q.075-.213.141-.428c.041-.131.08-.261.115-.392s.072-.287.1-.43c.017-.078.041-.156.057-.235.01-.052.015-.105.025-.158.027-.148.049-.3.069-.443.018-.13.036-.259.049-.389.015-.149.024-.3.032-.447,0-.087.016-.174.019-.261s0-.174,0-.26l.1-29.477C2651.756,1404.991,2651.744,1405.165,2651.734,1405.339Z" fill="#cad4ef"/>
        </g>
        <g id="Group_3956" data-name="Group 3956">
          <path id="Path_6142" data-name="Path 6142" d="M2613.065,1376.787c8.56,4.942,8.6,12.957.1,17.9L2536,1439.533c-8.505,4.942-22.342,4.943-30.9,0l-77.676-44.847c-8.56-4.942-8.6-12.957-.1-17.9l77.171-44.847c8.5-4.942,22.342-4.942,30.9,0Z" fill="#f5f7ff"/>
          <path id="Path_6143" data-name="Path 6143" d="M2619.5,1386.184c-.006.11-.012.22-.023.33s-.023.191-.036.287-.032.218-.052.327-.039.194-.06.29-.049.212-.077.318-.055.193-.085.289-.067.211-.1.316-.069.189-.106.282c-.044.111-.091.221-.14.331-.041.093-.084.185-.129.277-.054.11-.11.219-.17.328-.047.088-.095.176-.146.264-.076.13-.157.26-.24.389-.051.077-.1.155-.152.233-.1.142-.2.283-.31.424-.046.061-.089.122-.137.182-.176.224-.366.444-.566.662-.052.056-.108.111-.161.167q-.237.249-.494.492c-.079.074-.158.148-.239.222-.1.092-.208.183-.315.274s-.2.168-.3.252-.225.178-.341.267-.215.163-.325.244-.245.173-.37.259-.229.158-.348.236-.263.168-.4.251c-.166.1-.331.208-.506.309L2536,1439.533c-.474.276-.97.53-1.475.774-.132.065-.266.127-.4.189-.457.211-.923.412-1.4.6-.062.024-.122.052-.185.075-.511.2-1.036.371-1.568.538-.37.116-.748.219-1.127.322-.285.077-.567.16-.857.23-.4.1-.8.177-1.21.259-.293.06-.583.127-.879.178-.124.022-.249.04-.372.06q-.75.123-1.511.214c-.148.017-.295.037-.444.053q-.882.095-1.773.148l-.331.017c-.4.02-.8.025-1.2.033s-.8.01-1.2.005c-.333,0-.666-.014-1-.028-.371-.014-.74-.033-1.11-.059-.337-.023-.673-.052-1.009-.084q-.547-.053-1.091-.122-.49-.063-.977-.138c-.389-.06-.774-.128-1.158-.2-.4-.076-.8-.152-1.2-.242-.095-.022-.191-.042-.285-.065-.557-.132-1.106-.281-1.646-.442-.155-.046-.307-.095-.461-.143q-.675-.211-1.328-.454c-.126-.046-.255-.09-.38-.138-.4-.154-.78-.324-1.163-.494-.186-.083-.379-.158-.561-.245-.552-.261-1.088-.539-1.6-.836l-77.676-44.847c-4.308-2.487-6.459-5.752-6.45-9.012l-.073,21.761c-.009,3.261,2.142,6.526,6.45,9.013l77.676,44.846c.515.3,1.051.575,1.6.836.182.087.375.162.561.245.327.145.649.3.987.43l.176.064c.125.048.254.092.38.139q.654.242,1.328.454c.154.048.306.1.461.143.1.03.2.066.308.1.44.126.887.239,1.338.346.094.023.19.043.285.065.218.05.435.1.656.148.179.037.364.06.545.095.384.073.769.141,1.158.2.156.024.308.059.464.081s.343.035.513.057q.545.069,1.091.122c.174.017.346.044.521.058s.326.015.489.027c.369.025.738.044,1.108.059.185.007.37.025.555.029.149,0,.3,0,.446,0,.4.005.8,0,1.2-.006.2,0,.4,0,.595,0s.4-.02.605-.03c.109-.006.218-.01.328-.017.5-.029,1-.065,1.491-.114.095-.01.189-.024.283-.034.149-.016.3-.035.444-.053q.761-.091,1.511-.214c.124-.02.248-.038.372-.059.059-.011.119-.018.178-.029.237-.042.467-.1.7-.15.406-.082.811-.162,1.209-.258.29-.07.572-.153.858-.231.378-.1.757-.205,1.126-.322.079-.025.163-.043.242-.068.45-.146.891-.3,1.326-.469.063-.024.123-.051.185-.076.478-.186.944-.387,1.4-.6.134-.062.268-.124.4-.188.5-.245,1-.5,1.475-.774l77.17-44.847c.09-.052.179-.1.267-.158s.159-.1.24-.152c.133-.083.266-.166.4-.25s.234-.158.349-.237.248-.172.368-.259.219-.163.327-.245.229-.176.34-.266.2-.167.3-.252.211-.182.313-.274c.043-.038.089-.075.13-.113s.072-.073.11-.109c.171-.162.336-.326.493-.491.054-.056.11-.112.162-.168q.3-.327.566-.661l.024-.028c.041-.052.075-.1.114-.156.107-.141.211-.281.309-.423.053-.077.1-.156.152-.234.083-.128.164-.257.239-.387.021-.036.046-.07.066-.106.029-.052.053-.106.082-.159.059-.109.115-.218.169-.327.045-.093.088-.185.129-.278.049-.11.1-.22.139-.33.02-.05.044-.1.063-.148s.028-.09.044-.134c.038-.106.072-.211.1-.317s.058-.192.084-.289.054-.211.078-.318c.013-.057.03-.115.042-.173.008-.039.011-.078.018-.117.02-.109.037-.218.052-.327s.026-.191.036-.287.017-.22.023-.33c0-.064.012-.128.014-.193s0-.128,0-.192l.073-21.761C2619.514,1385.927,2619.5,1386.056,2619.5,1386.184Z" fill="#cad4ef"/>
        </g>
        <path id="Path_6144" data-name="Path 6144" d="M2438.151,1023.755V1385.49c.088,2.611,1.887,5.2,5.331,7.174l64.234,37.1c7.086,4.08,18.516,4.08,25.558,0l63.817-37.1c3.4-1.974,5.155-4.541,5.243-7.108v-361.8Z" fill="url(#linear-gradient)"/>
        <path id="Path_6145" data-name="Path 6145" d="M2597.584,1377.806c7.132,4.118,7.17,10.8.084,14.914l-64.3,37.368c-7.086,4.118-18.616,4.118-25.748,0l-64.721-37.367c-7.132-4.118-7.17-10.8-.084-14.914l64.3-37.368c7.086-4.118,18.617-4.118,25.749,0Z" fill="#ff6355"/>
      </g>
    </g>
    <g id="Group_3966" data-name="Group 3966">
      <g id="Group_3959" data-name="Group 3959">
        <path id="Path_6146" data-name="Path 6146" d="M2535.685,1308.405c0-17.994-8.238-32.581-18.4-32.581s-18.4,14.587-18.4,32.581,18.4,83.589,18.4,83.589S2535.685,1326.4,2535.685,1308.405Z" fill="url(#linear-gradient-2)"/>
      </g>
      <g id="Group_3965" data-name="Group 3965">
        <g id="Group_3964" data-name="Group 3964">
          <path id="Path_6147" data-name="Path 6147" d="M2501.878,1279.4c8.879-5.122,23.294-5.122,32.193.022,8.891,5.124,8.907,13.459.008,18.579-8.881,5.136-23.293,5.136-32.2-.011S2492.99,1284.536,2501.878,1279.4Z" fill="#ff6355"/>
          <path id="Path_6148" data-name="Path 6148" d="M2492.446,1177.146c14.08-8.12,36.937-8.12,51.042.035,6.773,3.9,10.261,8.98,10.536,14.1-.016.593-.031,1.192-.044,1.793-.742,30.7-2.562,71.214-6.348,87.122a10.975,10.975,0,0,1-1.52,4.747,4.868,4.868,0,0,1-1.234,1.792l-.021.012a20.842,20.842,0,0,1-5.867,4.847c-11.586,6.7-30.4,6.7-42.014-.016a20.984,20.984,0,0,1-5.813-4.786c-.027-.02-.055-.039-.083-.057a5.185,5.185,0,0,1-1.317-1.968,10.935,10.935,0,0,1-1.426-4.538c-3.8-15.9-5.62-56.529-6.358-87.27-.015-.564-.032-1.127-.042-1.681C2482.191,1186.148,2485.672,1181.061,2492.446,1177.146Z" fill="#34478b"/>
          <path id="Path_6149" data-name="Path 6149" d="M2492.446,1177.146c14.08-8.12,36.937-8.12,51.042.035,6.773,3.9,10.261,8.98,10.536,14.1-.016.593-.031,1.192-.044,1.793-.742,30.7-2.562,71.214-6.348,87.122a10.975,10.975,0,0,1-1.52,4.747,4.868,4.868,0,0,1-1.234,1.792l-.021.012a20.842,20.842,0,0,1-5.867,4.847c-11.586,6.7-30.4,6.7-42.014-.016-.552-.321-1.068-.653-1.569-.992-.163-.11-.316-.222-.474-.335-.34-.242-.666-.491-.981-.743-.144-.118-.3-.234-.435-.355-.376-.315-.728-.636-1.06-.965-.05-.047-.1-.092-.153-.141,18.231,12.8,32.925,5.261,34.037-1.976.021-.363.055-.723.06-1.089.9-13.621,1.4-44.792,1.672-73.07l.008,0c-12.229,2.048-25.968.29-35.619-5.289-6.573-3.8-10.04-8.693-10.483-13.662-.015-.564-.032-1.127-.042-1.681C2482.191,1186.148,2485.672,1181.061,2492.446,1177.146Z" opacity="0.15" style="mix-blend-mode: overlay;isolation: isolate"/>
          <path id="Path_6150" data-name="Path 6150" d="M2469.255,1308.775l-3.379-1.649c-.76-39.648,8.487-90.625,17.376-95.035l3.376,1.648,6.589,72.775A180.007,180.007,0,0,0,2469.255,1308.775Z" fill="url(#linear-gradient-3)"/>
          <g id="Group_3960" data-name="Group 3960" opacity="0.05" style="mix-blend-mode: multiply;isolation: isolate">
            <path id="Path_6151" data-name="Path 6151" d="M2493.217,1286.514l-6.589-72.775c-8.881,4.414-18.128,55.387-17.373,95.036A180.007,180.007,0,0,1,2493.217,1286.514Z" fill="#1a50b2"/>
          </g>
          <path id="Path_6152" data-name="Path 6152" d="M2566.7,1308.775l3.381-1.649c.76-39.648-8.487-90.625-17.376-95.035l-3.373,1.648-6.586,72.775A179.98,179.98,0,0,1,2566.7,1308.775Z" fill="url(#linear-gradient-3)"/>
          <g id="Group_3961" data-name="Group 3961" opacity="0.05" style="mix-blend-mode: multiply;isolation: isolate">
            <path id="Path_6153" data-name="Path 6153" d="M2549.333,1213.739l3.373-1.648c8.889,4.41,18.136,55.387,17.376,95.035l-3.381,1.649C2567.463,1269.126,2558.216,1218.153,2549.333,1213.739Z" fill="#1a50b2"/>
          </g>
          <path id="Path_6154" data-name="Path 6154" d="M2563.638,1310.11a14.175,14.175,0,0,1,12.7,1.789c3.223,2.516,2.767,5.806-1.024,7.331a14.164,14.164,0,0,1-12.7-1.787C2559.391,1314.92,2559.853,1311.64,2563.638,1310.11Z" fill="#ff6355"/>
          <path id="Path_6155" data-name="Path 6155" d="M2558.255,1309.686c-.868-9.123,2.521-37.358,3.841-46.752,1.524-10.836,5.032-15.006,6.054-15.81l.01.007a8.322,8.322,0,0,1,2.578-1.587c4.942-1.995,12.363-.95,16.569,2.34a8.384,8.384,0,0,1,2.041,2.227l.02,0c.76,1.052,2.985,6.027,1.463,16.863-1.32,9.392-5.842,37.44-9.19,45.986a4.351,4.351,0,0,1-.861,1.791,1.909,1.909,0,0,1-.586.636l-.01,0a8.319,8.319,0,0,1-2.58,1.588c-4.942,2-12.363.955-16.572-2.336a8.418,8.418,0,0,1-2.027-2.209.19.19,0,0,1-.029-.029,2.058,2.058,0,0,1-.412-.847A4.311,4.311,0,0,1,2558.255,1309.686Z" fill="#34478b"/>
          <path id="Path_6156" data-name="Path 6156" d="M2572.919,1314.1c.028-.143.059-.283.083-.428,1.877-9.008,6.1-37.915,7.462-47.568,1.566-11.145-1.221-12.467-1.623-17.358l-7.476-3.422c4.927-1.673,11.907-.592,15.942,2.564a8.384,8.384,0,0,1,2.041,2.227l.02,0c.76,1.052,2.985,6.027,1.463,16.863-1.32,9.392-5.842,37.44-9.19,45.986a4.351,4.351,0,0,1-.861,1.791,1.909,1.909,0,0,1-.586.636l-.01,0a8.319,8.319,0,0,1-2.58,1.588c-.088.034-.187.057-.28.09v.006c-.316.122-.643.229-.977.325-.179.049-.369.089-.553.134-.254.06-.513.114-.778.166-.179.034-.355.065-.536.091-.418.066-.841.112-1.271.148-.122.008-.249.01-.373.014-.369.022-.742.03-1.118.03-.078-.005-.156.005-.233,0l0-.008a18.067,18.067,0,0,1-10.458-3.335,9.03,9.03,0,0,1-1.649-1.654C2565.866,1319.043,2572.078,1316.887,2572.919,1314.1Z" opacity="0.15" style="mix-blend-mode: overlay;isolation: isolate"/>
          <path id="Path_6157" data-name="Path 6157" d="M2566.636,1249.852c-.527,3.735,4.3,7.5,10.768,8.412s12.141-1.382,12.667-5.119-3.205-15.267-9.674-16.176S2567.162,1246.116,2566.636,1249.852Z" fill="url(#linear-gradient-3)"/>
          <path id="Path_6158" data-name="Path 6158" d="M2590.071,1253.145c-.526,3.737-6.2,6.032-12.667,5.119-5.759-.809-10.2-3.882-10.74-7.178.9,5.02,12.532,7.162,14.031,3.581a15.405,15.405,0,0,0,.643-2.748c.487-3.462.7-13.268-.586-14.881.148.028.3.07.449.109C2587.172,1238.848,2590.574,1249.567,2590.071,1253.145Z" style="mix-blend-mode: overlay;isolation: isolate"/>
          <path id="Path_6159" data-name="Path 6159" d="M2459.616,1311.894a14.185,14.185,0,0,1,12.7-1.779c3.79,1.529,4.257,4.819,1.034,7.328a14.161,14.161,0,0,1-12.7,1.784C2456.857,1317.692,2456.4,1314.412,2459.616,1311.894Z" fill="#ff6355"/>
          <path id="Path_6160" data-name="Path 6160" d="M2454.323,1312.973c-3.347-8.531-7.874-36.608-9.2-46-1.52-10.836.705-15.811,1.465-16.863h.009a8.383,8.383,0,0,1,2.042-2.237c4.2-3.278,11.62-4.319,16.571-2.315a8.338,8.338,0,0,1,2.576,1.578l.018-.011c1.019.8,4.531,4.974,6.055,15.81,1.317,9.389,4.705,37.6,3.845,46.735a4.383,4.383,0,0,1-.337,1.961,1.924,1.924,0,0,1-.389.772l-.006.006a8.307,8.307,0,0,1-2.045,2.239c-4.2,3.282-11.623,4.325-16.572,2.323a8.51,8.51,0,0,1-2.56-1.565c-.008-.008-.023-.013-.033-.021a2.065,2.065,0,0,1-.629-.7A4.316,4.316,0,0,1,2454.323,1312.973Z" fill="#34478b"/>
          <path id="Path_6161" data-name="Path 6161" d="M2469.635,1313.169c-.012-.144-.02-.29-.039-.436-.678-9.175-4.583-38.126-5.94-47.779-1.566-11.146-4.608-11.648-6.342-16.24l-8.129-1.229c4.273-2.967,11.283-3.851,16.029-1.928a8.338,8.338,0,0,1,2.576,1.578l.018-.011c1.019.8,4.531,4.974,6.055,15.81,1.317,9.389,4.705,37.6,3.845,46.735a4.383,4.383,0,0,1-.337,1.961,1.924,1.924,0,0,1-.389.772l-.006.006a8.307,8.307,0,0,1-2.045,2.239c-.075.055-.163.107-.244.164v.005c-.268.2-.547.4-.848.581-.158.1-.329.187-.5.283-.228.128-.459.252-.7.373-.164.081-.324.161-.493.236-.381.177-.775.34-1.178.49-.118.043-.235.078-.352.117-.355.125-.708.232-1.069.335-.077.02-.149.051-.222.07v-.009a18.079,18.079,0,0,1-10.971-.322,9,9,0,0,1-2.041-1.137C2464.219,1319.87,2469.6,1316.082,2469.635,1313.169Z" opacity="0.15" style="mix-blend-mode: overlay;isolation: isolate"/>
          <path id="Path_6162" data-name="Path 6162" d="M2445.886,1253.145c.527,3.737,6.2,6.029,12.668,5.119s11.293-4.677,10.768-8.412-7.288-13.792-13.759-12.883S2445.362,1249.409,2445.886,1253.145Z" fill="url(#linear-gradient-3)"/>
          <path id="Path_6163" data-name="Path 6163" d="M2469.322,1249.852c.525,3.735-4.294,7.5-10.768,8.412-5.757.809-10.868-.918-12.3-3.939,2.253,4.577,14.025,3.43,14.477-.425a15.638,15.638,0,0,0-.139-2.821c-.488-3.459-2.991-12.945-4.665-14.142.149-.013.3-.013.46-.02C2462.6,1236.908,2468.819,1246.274,2469.322,1249.852Z" style="mix-blend-mode: overlay;isolation: isolate"/>
          <path id="Path_6164" data-name="Path 6164" d="M2488.608,1109.542l.029.01a22.848,22.848,0,0,1,6.4-5.293c12.653-7.3,33.2-7.3,45.872.032a22.824,22.824,0,0,1,6.389,5.267l.054-.016c2.464,2.564,10.406,15.224,10.406,45.224,0,7.192-.122,18.361-.42,31.263-.016.648-.031,1.3-.047,1.959-.516,5.394-4.3,10.7-11.435,14.81-15.376,8.887-40.334,8.887-55.735-.019-7.177-4.143-10.966-9.491-11.448-14.92q-.029-.921-.047-1.833c-.3-12.9-.419-24.068-.419-31.26C2478.2,1124.766,2486.145,1112.106,2488.608,1109.542Z" fill="#fff"/>
          <g id="Group_3962" data-name="Group 3962" opacity="0.05" style="mix-blend-mode: multiply;isolation: isolate">
            <path id="Path_6165" data-name="Path 6165" d="M2518.254,1109.847l-.371-11.057c8.328-.006,16.662,1.823,23.023,5.5a22.824,22.824,0,0,1,6.389,5.267l.054-.016c2.464,2.564,10.406,15.224,10.406,45.224,0,7.192-.122,18.361-.42,31.263-.016.648-.031,1.3-.047,1.959-.516,5.394-4.3,10.7-11.435,14.81a50.57,50.57,0,0,1-16.854,5.758c.2-21.386.277-41.262.277-52.2C2529.276,1125.5,2521.207,1122.976,2518.254,1109.847Z" fill="#1a50b2"/>
          </g>
          <path id="Path_6166" data-name="Path 6166" d="M2485.541,1117.519c0,10.346,14.524,18.733,32.44,18.733s32.441-8.387,32.441-18.733-14.526-40.225-32.441-40.225S2485.541,1107.175,2485.541,1117.519Z" fill="#34478b"/>
          <g id="Group_3963" data-name="Group 3963">
            <path id="Path_6167" data-name="Path 6167" d="M2480.928,1161.917c-2.044,6.507.07,15.875,4.714,20.928s10.056,3.863,12.1-2.632-.072-15.876-4.711-20.931S2482.964,1155.41,2480.928,1161.917Z" fill="#e3e7fa"/>
          </g>
          <path id="Path_6168" data-name="Path 6168" d="M2484.869,1164.233c-1.523,4.858.053,11.852,3.522,15.625s7.507,2.887,9.031-1.965-.052-11.852-3.516-15.627S2486.392,1159.375,2484.869,1164.233Z" fill="#cad4ef"/>
        </g>
      </g>
    </g>
    <g id="Group_3971" data-name="Group 3971">
      <g id="Group_3970" data-name="Group 3970">
        <path id="Path_6169" data-name="Path 6169" d="M2662.28,1529.759c.239,5.122-.172,5.992-2.025,11.767-2.539,7.955-2.357,6.178-5.447,7.1s-1.889,3.386-.209,6.756,8.4.516,12.517-.631,2.191-4.779,3.968-8.422-1.961-2.739-1.586-14.716c.006-.223.027-.42.04-.641C2667.652,1532.407,2663.724,1531.425,2662.28,1529.759Z" fill="#fbb686"/>
        <path id="Path_6170" data-name="Path 6170" d="M2654.6,1555.382c1.68,3.369,8.4.516,12.517-.631s2.146-4.8,3.968-8.422c.9-1.786.514-2.258.033-3.469a9.928,9.928,0,0,0-10.22,4.428c-1.616,2.722-3.75,5.248-4.951,3.915-.987-1.1.4-2.117,1.392-3.195a23.276,23.276,0,0,1-2.53.618C2651.721,1549.552,2652.919,1552.012,2654.6,1555.382Z" fill="#3e4357"/>
        <path id="Path_6171" data-name="Path 6171" d="M2671.532,1543.957a5.118,5.118,0,0,0-.8-2.215c-.929-.973-4.295-.434-6.268.72-1.014.595-2.112,2.073-3.474,4.678a1.456,1.456,0,0,0-.094.148c-1.616,2.722-3.75,5.248-4.951,3.915-.987-1.1.4-2.117,1.392-3.195a23.276,23.276,0,0,1-2.53.618c-3.087.926-1.889,3.386-.209,6.756s8.4.516,12.517-.631c2.969-.826,2.772-2.96,3.118-5.441a9.244,9.244,0,0,1,.85-2.981,4.718,4.718,0,0,0,.514-1.474A6.642,6.642,0,0,0,2671.532,1543.957Z" fill="#090d30"/>
        <path id="Path_6172" data-name="Path 6172" d="M2672.485,1493.451c-.057-.366-.127-.726-.19-1.09-.094-.526-.2-1.047-.309-1.558-.067-.295-.13-.589-.2-.881-.194-.809-.6-3.946-.6-3.946-1.813-13.752-1.55-29.236.157-38.052.024-.164.049-.328.073-.484a42.981,42.981,0,0,0,1.2-10.3q0-1.08-.051-2.136v-.049c0-5.007.7-8.483-.46-11.334a21.6,21.6,0,0,0-1.435-3.15c-.514-1.061-1.02-2.075-1.449-3.107a6.276,6.276,0,0,1-.415.53,6.449,6.449,0,0,0-2.524-1.712,14.374,14.374,0,0,0-1.383-3.889c-5.236-5.841-6.44-1.834-9.866,1.285a138.711,138.711,0,0,0-7.82,24.025c-1.3,6.979,13.694,70.782,14.554,84.076.239,3.636.417,6.154.508,8.082,1.444,1.666,5.372,2.648,7.258,1.213.054-1.139,4.821-23.3,3.15-36.062C2672.627,1494.419,2672.564,1493.932,2672.485,1493.451Z" fill="#fbb686"/>
        <path id="Path_6173" data-name="Path 6173" d="M2662.443,1548.2c-2.312,3.562-4.957,8.646-7.09,6.38a35.415,35.415,0,0,1-2.279-2.715,21.541,21.541,0,0,0,1.525,3.521c1.68,3.369,8.4.516,12.517-.631s2.191-4.779,3.968-8.422a5.071,5.071,0,0,0,.387-1.057C2668.233,1545.344,2663.954,1545.862,2662.443,1548.2Z" fill="#3e4357"/>
        <path id="Path_6174" data-name="Path 6174" d="M2662.443,1548.2c-2.312,3.562-4.957,8.646-7.09,6.38a35.415,35.415,0,0,1-2.279-2.715,21.541,21.541,0,0,0,1.525,3.521c1.68,3.369,8.4.516,12.517-.631s2.191-4.779,3.968-8.422a5.071,5.071,0,0,0,.387-1.057C2668.233,1545.344,2663.954,1545.862,2662.443,1548.2Z" fill="#101542"/>
        <path id="Path_6175" data-name="Path 6175" d="M2639.328,1538.172a27.948,27.948,0,0,1-1.408,11.195c-2.808,8.459-5.287,14.249-7.977,14.548s-7.5,3.211-4.01,5.868,5.91,2.736,10.323.324,5.6-9.392,11.634-10.135c3.214-.394,4.648-2.685,3.4-5.66s-3.017-5.514-2.757-13.8c0-.088.012-.173.015-.262C2646.7,1542.275,2640.917,1540.35,2639.328,1538.172Z" fill="#fbb686"/>
        <path id="Path_6176" data-name="Path 6176" d="M2655.81,1454.584c1.5-2.952,11.66-15.849,4.53-30.716-8.552-17.834-15.247-18.671-21.158-8.024-4.022,7.246-5.456,14.99-5.949,30.723-.557,17.779,5.844,87.768,6.095,91.6,1.589,2.178,7.375,4.1,9.218,2.081,0-.068.006-.15.009-.219l.034.219c2.036-10.365,5.011-28.6,2.745-43.676.148-2.82.266-5.411.339-7.623C2651.848,1483.282,2654.9,1456.38,2655.81,1454.584Z" fill="#fbb686" fill-rule="evenodd"/>
        <g id="Group_3967" data-name="Group 3967">
          <path id="Path_6177" data-name="Path 6177" d="M2672.994,1447.694c.024-.167.048-.329.072-.487a43.118,43.118,0,0,0,1.2-10.3c0-.721-.018-1.435-.049-2.138v-.049a28.673,28.673,0,0,0-2.118-11.334,21.725,21.725,0,0,0-1.432-3.15c-.514-1.059-1.02-2.073-1.449-3.107a5.777,5.777,0,0,1-.418.53,6.472,6.472,0,0,0-2.521-1.712,14.161,14.161,0,0,0-1.383-3.889c-5.236-5.839-6.44-1.834-9.866,1.287-.1.205-.2.435-.3.65-5.98-7.964-11-6.591-15.556,1.616-4.025,7.246-7.115,14.99-7.608,30.725-.206,6.637.784,20.552,2.125,35.584,10.177,8.83,28.578-1.589,36.759-8.486A142.86,142.86,0,0,1,2672.994,1447.694Z" fill="#223165"/>
          <path id="Path_6178" data-name="Path 6178" d="M2646.11,1425.869a126.619,126.619,0,0,1,1.516-16.9c-.057-.015-.1-.118-.136-.26-2.981-.212-5.723,2.237-8.311,6.9-4.025,7.246-7.115,14.99-7.608,30.725-.206,6.637.784,20.552,2.125,35.584a14.148,14.148,0,0,0,8.592,3.346c-.243-9.293-.612-19.561-1.175-30.789C2640.157,1435.45,2646.086,1430.871,2646.11,1425.869Z" fill="#34478b"/>
        </g>
        <path id="Path_6179" data-name="Path 6179" d="M2651.733,1556.407a13.1,13.1,0,0,0-1.613-5.295c-4.9-.208-10.263,5.859-12.717,10.281l-.6.979.012,0c-.215.3-.43.593-.614.9-1.95,3.143-3.874,5.525-6.768,3.8-2.557-1.52-1.125-2.134.639-3.19-.045.01-.088.03-.133.036-2.688.3-7.5,3.211-4.01,5.868s5.91,2.736,10.323.324,5.6-9.392,11.634-10.135c2.39-.294,3.761-1.65,3.8-3.55Z" fill="#090d30" fill-rule="evenodd"/>
        <path id="Path_6180" data-name="Path 6180" d="M2639.3,1563.408c-3.683,4.669-5.377,9.877-11.013,6.545a23.2,23.2,0,0,1-3.528-2.53,2.351,2.351,0,0,0,1.174,2.36c3.486,2.661,5.91,2.736,10.323.324s5.6-9.392,11.634-10.135c2.079-.255,3.392-1.308,3.743-2.821C2648.4,1558.21,2642.578,1559.254,2639.3,1563.408Z" fill="#3e4357"/>
        <path id="Path_6181" data-name="Path 6181" d="M2639.3,1563.408c-3.683,4.669-5.377,9.877-11.013,6.545a23.2,23.2,0,0,1-3.528-2.53,2.351,2.351,0,0,0,1.174,2.36c3.486,2.661,5.91,2.736,10.323.324s5.6-9.392,11.634-10.135c2.079-.255,3.392-1.308,3.743-2.821C2648.4,1558.21,2642.578,1559.254,2639.3,1563.408Z" fill="#101542"/>
        <path id="Path_6182" data-name="Path 6182" d="M2648.4,1559.067c-1.992.89-2.739-.083-2.049,2.236s-.39,11.434.076,11.924a.953.953,0,0,0,1.528.049c.557-.524.714-10.5,2.185-12.749S2650.271,1558.235,2648.4,1559.067Z" fill="#090d30"/>
        <path id="Path_6183" data-name="Path 6183" d="M2667.619,1546.81c-1.995.884-2.739-.088-2.049,2.232s-.388,11.434.076,11.928a.958.958,0,0,0,1.531.049c.557-.524.708-10.5,2.182-12.754S2669.492,1545.973,2667.619,1546.81Z" fill="#090d30"/>
        <path id="Path_6184" data-name="Path 6184" d="M2622.972,1410.764l14.688-7.837,1.22-9.854-5.682-1.408-9.616,7.414-4.068,9.2Z" fill="#101542"/>
        <g id="Group_3969" data-name="Group 3969">
          <path id="Path_6185" data-name="Path 6185" d="M2648.244,1354.555c1.274-.452,2.442,6.98-1.329,8.941s19.26,1.608,17.6-.4-1.047-4.115-2.434-4.041-7.127-5.458-3.87-11.194-6.7-5.029-7.845-3.515-5.49,2.636-4.509,4.548S2646.285,1355.256,2648.244,1354.555Z" fill="#f7b6b2"/>
          <path id="Path_6186" data-name="Path 6186" d="M2648.244,1354.555c1.274-.452,2.442,6.98-1.329,8.941s19.26,1.608,17.6-.4-1.047-4.115-2.434-4.041-7.127-5.458-3.87-11.194-6.7-5.029-7.845-3.515-5.49,2.636-4.509,4.548S2646.285,1355.256,2648.244,1354.555Z" opacity="0.2" style="mix-blend-mode: overlay;isolation: isolate"/>
          <path id="Path_6187" data-name="Path 6187" d="M2640.6,1333.3a3.756,3.756,0,0,1,6.576-.888c3.075,3.9,3.293,5.607,6.967,9.748a13.183,13.183,0,0,0,.968.978,6.03,6.03,0,0,1,.185-1.031c.611-2.209,2.318-3.662,3.823-3.251s2.23,2.538,1.619,4.747a5.1,5.1,0,0,1-1.713,2.716c-2.479,4-3.069,5.482-7.373,7.223-3.453,1.4-7.956,2.077-8.843-.723-.729-2.284-3.017-4.047-3.017-7.439,0-2.209,1.177-6.224.844-8.15A11.455,11.455,0,0,1,2640.6,1333.3Z" fill="#f7b6b2"/>
          <path id="Path_6188" data-name="Path 6188" d="M2640.6,1333.3a3.756,3.756,0,0,1,6.576-.888c3.075,3.9,3.293,5.607,6.967,9.748a13.183,13.183,0,0,0,.968.978,6.03,6.03,0,0,1,.185-1.031c.611-2.209,2.318-3.662,3.823-3.251s2.23,2.538,1.619,4.747a5.1,5.1,0,0,1-1.713,2.716c-2.479,4-3.069,5.482-7.373,7.223-3.453,1.4-7.956,2.077-8.843-.723-.729-2.284-3.017-4.047-3.017-7.439,0-2.209,1.177-6.224.844-8.15A11.455,11.455,0,0,1,2640.6,1333.3Z" fill="#fbb686"/>
          <g id="Group_3968" data-name="Group 3968">
            <path id="Path_6189" data-name="Path 6189" d="M2665.113,1358.909c-6.825.22-12.139,1.331-16.969,3.6a74.241,74.241,0,0,0-10.466,5.925c-.051.039-.1.065-.151.1-.076.057-.151.11-.221.165-.508.363-1,.73-1.456,1.1a46.135,46.135,0,0,0-5.256,5.012,5.823,5.823,0,0,0-.778,1.015l-16.994,26.866a7.022,7.022,0,0,0,.618,9.757,3.206,3.206,0,0,0,1.631.838c2.27.2,6.591-.788,7.9-2.526,0,0,10.466-12.3,11.088-13.128.962,5.9,1.019,25.118,1.76,25.905s11.473,4.951,21.681.8c.161-.067.3-.127.46-.194,6.274-2.583,9.924-4.736,11.268-6.79a15,15,0,0,1-1.292-5.975c0-7.924.865-9.151,2.705-16.933a4,4,0,0,1,.209-.619c.13-.422.254-.816.378-1.143.59-1.357,1.214-2.649,1.858-3.822,4.546-8.277,5.2-15.837,5.2-22.974C2678.287,1359.271,2668.151,1358.854,2665.113,1358.909Z" fill="#090d30"/>
          </g>
          <path id="Path_6190" data-name="Path 6190" d="M2678.054,1364.358c-.908-3.207-4.646-4.554-8-5.1a.256.256,0,0,1-.027,0c-.318-.052-.633-.095-.944-.134-.031-.005-.067-.008-.1-.011-.288-.036-.569-.065-.842-.09l-.16-.011c-.248-.02-.493-.039-.729-.053-.079-.005-.155-.008-.234-.011-.2-.01-.4-.02-.581-.026l-.345-.007c-.127,0-.26-.006-.375-.006-.224,0-.433,0-.608,0-6.825.22-12.139,1.331-16.969,3.6-.639.3-1.32.636-2.01.985a12.464,12.464,0,0,1-1.319.687c-.448.238-.893.466-1.35.715-1.707.858-3.114,2.034-4.591,2.727a40.89,40.89,0,0,0-7.739,6.708,6.122,6.122,0,0,1,.654-.462,5.769,5.769,0,0,0-.772.566.091.091,0,0,0-.018.015,5.852,5.852,0,0,0-.741.784l-.01.014c-1.265,1.947-2.43,3.76-3.525,5.467l-13.9,21.978a6.929,6.929,0,0,0-.432,8.521,10.175,10.175,0,0,0,1.05,1.236,3.206,3.206,0,0,0,1.631.838c-1.062-1.447-1.462-2.652,1.389-6.259,1.9-2.393,6.794-8.31,11.068-13.909,5.1-6.682,9.687-8.111,8.425-5.042,0,0-2.3,7.736-1.812,10.718.057,1.057.272,3.159.415,3.942.571,7.289.616,20.114,1.264,20.8a1.554,1.554,0,0,0,.315.216c.042.024.1.056.154.08.127.07.273.139.448.218.07.032.148.064.227.1.209.088.442.18.7.274.073.027.142.053.221.08a25.5,25.5,0,0,0,2.636.775.178.178,0,0,0,.03.006c.491.118,1.014.227,1.559.33.085.013.166.028.248.042.5.089,1.017.17,1.556.236.1.014.193.027.29.038.606.073,1.229.132,1.874.168a.233.233,0,0,1,.039,0l.006,0c0-6.482-2.736-6.482-2.736-15.645,0-6.431,1.743-14.036,1.743-18.473,0-6.719-1.722-8.964-4.337-14.785-.23-.512-.444-.961-.644-1.374l0-.011c-.914-2.094-1.232-3.6-.009-4.462l.166-.116c.167-.115.33-.229.5-.344q.545-.363,1.116-.722l.185-.118c.433-.269.872-.538,1.313-.8,2.379-1.411,4.855-2.693,6.97-3.688,4.833-2.271,10.148-3.382,16.969-3.6,2.086-.037,7.5.149,10.7,2.4Z" fill="#101542"/>
          <path id="Path_6191" data-name="Path 6191" d="M2668.336,1326.37a12.75,12.75,0,0,0-2.176-2.522c-.115-.107-.23-.216-.351-.32-.082-.068-.163-.132-.245-.2-.112-.093-.227-.187-.339-.274l-.015.006a16.644,16.644,0,0,0-9.991-3.2c-8.207,0-14.859,5.492-14.859,12.268a10.355,10.355,0,0,0,.92,4.215c.009.03.012.058.021.088,2.243,6.715,3.1,5.038,3.922,11.414,1.943,15.129-6.016,12.911-6.945,20.178a68.938,68.938,0,0,1,6.727-3.957.138.138,0,0,0,.028-.016c3.108-1.537,4.276.229,10.317-1.16s10.274-2.806,14.726-13.139C2672.921,1343.141,2672.918,1332.911,2668.336,1326.37Z" fill="#090d30"/>
        </g>
      </g>
    </g>
    <g id="Group_3973" data-name="Group 3973">
      <path id="Path_6192" data-name="Path 6192" d="M2347.764,1365.088l-9.594,5.576a.968.968,0,0,1,.92.015l9.594-5.576A.97.97,0,0,0,2347.764,1365.088Z" fill="#e65245"/>
      <path id="Path_6193" data-name="Path 6193" d="M2364.1,1363.269l9.595-5.576a16.881,16.881,0,0,0-7.711-.78l-9.594,5.575A16.892,16.892,0,0,1,2364.1,1363.269Z" fill="#e65245"/>
      <path id="Path_6194" data-name="Path 6194" d="M2351.319,1354.707l9.594-5.576a2.91,2.91,0,0,0-.956-.939,1.343,1.343,0,0,0-1.348-.106l-9.594,5.575a1.342,1.342,0,0,1,1.347.107A2.9,2.9,0,0,1,2351.319,1354.707Z" fill="#e65245"/>
      <g id="Group_3972" data-name="Group 3972">
        <path id="Path_6195" data-name="Path 6195" d="M2373.893,1430.966a.957.957,0,0,1-.437.793l9.594-5.576a.957.957,0,0,0,.438-.793l.638-7.2-9.594,5.575Z" fill="#e65245"/>
        <path id="Path_6196" data-name="Path 6196" d="M2348.684,1365.1l-.06-.026a1.428,1.428,0,0,0-.169-.059,1.287,1.287,0,0,0-.128-.027c-.037-.005-.073-.009-.108-.011s-.066,0-.1,0-.062.006-.092.011a.868.868,0,0,0-.087.02c-.029.009-.058.019-.085.03a.794.794,0,0,0-.083.041l-.009.005-9.594,5.576.009,0a.624.624,0,0,1,.083-.041.582.582,0,0,1,.084-.03.854.854,0,0,1,.088-.02.7.7,0,0,1,.092-.011c.032,0,.065,0,.1,0a1.022,1.022,0,0,1,.109.011,1.008,1.008,0,0,1,.127.027,1.325,1.325,0,0,1,.169.058c.02.009.041.017.061.027l6.581,3.094,9.594-5.575Z" fill="#e65245"/>
        <path id="Path_6197" data-name="Path 6197" d="M2410.591,1402.541v-.008l-.006-.029c-.011-.084-.025-.168-.043-.251-.007-.038-.018-.076-.027-.113l-.014-.057c0-.019-.009-.038-.014-.056-.018-.067-.038-.132-.06-.2-.014-.04-.029-.081-.044-.121l-.01-.028-.01-.029c-.021-.055-.044-.11-.067-.164s-.047-.1-.071-.155l-.017-.034-.012-.023c-.015-.03-.03-.061-.046-.091-.025-.048-.052-.095-.079-.142s-.052-.087-.079-.129l0-.005,0-.005c-.03-.047-.061-.093-.092-.138s-.068-.094-.1-.14c-.011-.015-.024-.029-.035-.043l-.027-.033-.059-.072c-.052-.059-.1-.116-.159-.169l-.02-.017a2.571,2.571,0,0,0-.322-.268l-6.573-4.5c-.09-.524-.193-1.048-.3-1.574-.011-.056-.02-.112-.032-.168-.032-.148-.069-.3-.1-.447-.054-.237-.107-.475-.164-.713-.052-.215-.108-.431-.163-.647-.061-.239-.123-.477-.188-.716-.022-.08-.04-.16-.063-.24s-.042-.132-.06-.2q-.308-1.087-.666-2.176c-.01-.03-.018-.061-.028-.091-.022-.066-.049-.131-.071-.2q-.337-1-.716-1.994c-.013-.035-.024-.069-.037-.1l-.019-.046q-.266-.692-.552-1.378l4.232-3.409a.739.739,0,0,0,.173-.207.848.848,0,0,0,.038-.091,1.172,1.172,0,0,0,.072-.184c.01-.041.014-.087.021-.131a1.559,1.559,0,0,0,.026-.2c0-.05,0-.1,0-.156,0-.072,0-.145-.011-.221,0-.019,0-.035,0-.054-.011-.085-.026-.172-.045-.26l0-.009,0-.017c-.014-.064-.03-.128-.048-.194s-.038-.132-.061-.2l0-.006,0-.009c-.019-.057-.04-.114-.062-.171s-.047-.119-.073-.179c-.008-.019-.017-.037-.025-.056l-.016-.035-.039-.085c-.028-.058-.057-.116-.088-.174s-.056-.1-.086-.154l-4.046-7.008-.011-.02c-.035-.06-.071-.119-.108-.177s-.079-.12-.12-.178c-.017-.025-.035-.048-.053-.072l-.029-.039c-.017-.024-.035-.049-.053-.072-.052-.068-.106-.133-.161-.2-.024-.028-.049-.052-.074-.079l-.065-.07c-.024-.025-.048-.053-.073-.077-.054-.054-.109-.1-.164-.146-.036-.03-.07-.064-.105-.092a2.612,2.612,0,0,0-.332-.231,1.822,1.822,0,0,0-.228-.114l-.018-.006-.047-.016c-.039-.014-.078-.03-.116-.04s-.054-.012-.081-.017l-.028-.006-.021-.005a1.027,1.027,0,0,0-.108-.01.754.754,0,0,0-.094,0h0c-.027,0-.054.005-.081.009s-.053.011-.078.018l-.055.018-5.1,1.909c-.08-.1-.16-.21-.241-.314-.092-.119-.188-.235-.281-.353-.177-.224-.354-.448-.533-.668-.137-.169-.276-.335-.415-.5-.179-.215-.359-.429-.541-.64-.063-.075-.125-.151-.189-.225s-.124-.135-.185-.205q-.453-.516-.916-1.015c-.09-.1-.178-.2-.269-.292q-.585-.624-1.187-1.221c-.025-.025-.049-.052-.074-.076-.064-.063-.129-.121-.193-.183q-.5-.493-1.019-.967c-.118-.109-.235-.217-.354-.324-.427-.385-.857-.763-1.293-1.126l-9.594,5.575c.436.364.866.742,1.293,1.127.119.107.236.215.354.323q.513.474,1.018.967c.089.087.179.171.268.259q.6.6,1.187,1.221c.091.1.179.195.269.293q.462.5.915,1.014c.126.143.252.286.376.431.181.211.36.424.539.638.139.167.278.334.416.5.179.222.357.446.534.67s.35.441.521.665l5.1-1.908a.729.729,0,0,1,.214-.046h0a.97.97,0,0,1,.225.014l.027.006a1.278,1.278,0,0,1,.2.058.42.42,0,0,1,.047.016,1.826,1.826,0,0,1,.246.119,2.646,2.646,0,0,1,.331.231c.036.028.071.062.106.093.079.07.159.142.237.223l.065.069c.1.108.195.223.288.348l.028.038a4.677,4.677,0,0,1,.293.448l4.046,7.007c.079.137.149.276.212.413l.017.036c.061.136.114.272.16.4l0,.009q.067.2.111.4l0,.018a3.013,3.013,0,0,1,.049.322,2.1,2.1,0,0,1,.012.221c0,.053,0,.107,0,.157a1.6,1.6,0,0,1-.026.2c-.007.043-.011.089-.021.129a1.152,1.152,0,0,1-.072.185c-.014.029-.022.063-.038.09a.765.765,0,0,1-.173.208l-4.232,3.408q.286.687.552,1.378l.056.15q.381,1,.717,2c.032.095.066.19.1.284q.36,1.087.666,2.177c.041.147.084.294.124.441.065.238.127.477.188.715.055.215.11.43.162.645.058.24.112.48.165.719.046.2.091.406.134.609.11.526.214,1.052.3,1.575l6.573,4.5a2.556,2.556,0,0,1,.322.268,3.106,3.106,0,0,1,.237.257l.028.033a3.771,3.771,0,0,1,.234.327l0,.005c.073.115.141.236.2.361l.012.024c.061.124.116.252.165.381l.01.03c.046.123.085.248.118.373,0,.019.009.039.014.058.029.121.053.242.07.363l.005.03a3,3,0,0,1,.027.407v.059l-8.057,4.683a16.637,16.637,0,0,1-3.215,7.006l4.2,8.276a3.278,3.278,0,0,1,.162.379l.008.022a2.92,2.92,0,0,1,.1.37l0,.022c.017.086.026.169.034.252a2.339,2.339,0,0,1,.01.372c0,.022,0,.045,0,.066a1.67,1.67,0,0,1-.081.385c-.011.032-.026.06-.038.091a1.209,1.209,0,0,1-.132.241c-.02.028-.039.057-.06.082a1,1,0,0,1-.263.227l9.594-5.576a1,1,0,0,0,.263-.227c.022-.025.04-.053.06-.081a1.221,1.221,0,0,0,.132-.242c.013-.03.027-.059.038-.091a1.716,1.716,0,0,0,.082-.384c0-.022,0-.045,0-.066a2.225,2.225,0,0,0-.01-.372c0-.021,0-.041,0-.062-.008-.063-.02-.126-.033-.19l0-.022,0-.01q-.018-.084-.042-.171c-.014-.049-.029-.1-.046-.149l-.014-.04-.008-.023c-.009-.024-.017-.049-.026-.073-.016-.042-.034-.084-.052-.127s-.036-.081-.056-.122l-.028-.056-4.2-8.276a14.557,14.557,0,0,0,1.668-2.636l-.009,3.06a1.382,1.382,0,0,1-.541,1.254l9.594-5.576a.874.874,0,0,0,.225-.19,1.643,1.643,0,0,0,.316-1.064l.019-6.6A3.239,3.239,0,0,0,2410.591,1402.541Z" fill="#e65245"/>
        <path id="Path_6198" data-name="Path 6198" d="M2383.685,1355.886c0-.04-.007-.081-.013-.121-.008-.066-.02-.133-.034-.2l-.01-.042-.008-.032c-.007-.03-.014-.06-.022-.089-.014-.05-.029-.1-.045-.149s-.03-.083-.045-.125l0-.007,0-.008c-.017-.046-.036-.091-.056-.136s-.04-.091-.062-.136c-.014-.03-.03-.061-.046-.092l-.01-.018-.013-.026c-.024-.047-.05-.093-.077-.139s-.058-.1-.088-.144l-.03-.044-.019-.029c-.018-.026-.035-.053-.053-.078-.039-.056-.079-.11-.12-.163l-.058-.071-.04-.048c-.017-.022-.034-.044-.052-.064-.068-.078-.138-.153-.211-.225l-.006-.005c-.069-.068-.142-.128-.215-.189-.037-.032-.073-.068-.111-.1a3.109,3.109,0,0,0-.349-.236l-5.741-3.314a2.643,2.643,0,0,0-.291-.145c-.024-.01-.047-.015-.071-.024a.733.733,0,0,0-.074-.025c-.03-.01-.062-.024-.092-.032a1.473,1.473,0,0,0-.174-.037c-.017,0-.032,0-.048-.005l-.03,0c-.022,0-.045-.006-.067-.007-.043,0-.085,0-.126,0a.98.98,0,0,0-.111.013l-.007,0h-.006c-.03.006-.06.012-.088.02a.921.921,0,0,0-.093.033.682.682,0,0,0-.086.042l-.009.005-9.594,5.576a.869.869,0,0,1,.276-.1h.006a1.183,1.183,0,0,1,.311-.009l.029,0a1.6,1.6,0,0,1,.315.074l.073.025a2.444,2.444,0,0,1,.363.169l2.333,1.347c-.033,0-.069-.008-.1-.01a14.882,14.882,0,0,0-1.6.014c-.4.026-.8.069-1.194.129l-5.075-7.782-.069-.1q-.045-.065-.093-.126c-.037-.048-.075-.094-.114-.139s-.1-.115-.157-.168a2.61,2.61,0,0,0-.523-.4,2.014,2.014,0,0,0-.242-.119,1.668,1.668,0,0,0-.212-.073,1.443,1.443,0,0,0-.166-.035,1.24,1.24,0,0,0-.144-.015c-.044,0-.087,0-.13,0a.93.93,0,0,0-.12.014.855.855,0,0,0-.113.026.817.817,0,0,0-.108.038,1.025,1.025,0,0,0-.1.051l-.009.005-4.072,2.32-9.594,5.576,4.072-2.321.008-.005a1.106,1.106,0,0,1,.1-.051c.036-.014.072-.027.108-.038s.075-.019.114-.026a1.175,1.175,0,0,1,.12-.014c.042,0,.086,0,.129,0a1.363,1.363,0,0,1,.144.014,1.439,1.439,0,0,1,.167.036,1.826,1.826,0,0,1,.212.072,2.3,2.3,0,0,1,.241.12,2.611,2.611,0,0,1,.523.4c.054.053.107.109.158.168s.077.09.114.138.062.083.093.127l.069.1,5.075,7.781q.585-.089,1.194-.128a14.94,14.94,0,0,1,1.6-.014,16.968,16.968,0,0,1,1.8.178,19.684,19.684,0,0,1,2.13.452c.326.089.656.186.987.293l7.983-4.639.205.118a3.064,3.064,0,0,1,.348.235c.038.029.073.065.11.1.073.062.147.122.217.191.094.092.183.191.269.293l.04.049c.081.1.159.2.23.311l.02.03c.076.115.145.233.208.352l.01.02a3.778,3.778,0,0,1,.167.37l0,.008a3.161,3.161,0,0,1,.111.362l.009.033a2.36,2.36,0,0,1,.056.364l.6,7.916,9.594-5.575Z" fill="#e65245"/>
        <path id="Path_6199" data-name="Path 6199" d="M2382.715,1414.627c-2.863.6-6.325-.071-10.054-2.223-9.812-5.666-17.743-19.4-17.711-30.683.014-5.106,1.663-8.826,4.37-10.849-4.675.987-7.754,5.389-7.773,12.381-.032,11.28,7.9,25.017,17.711,30.682C2374.629,1417.036,2379.445,1417.072,2382.715,1414.627Z" fill="#e65245"/>
      </g>
      <path id="Path_6200" data-name="Path 6200" d="M2337.61,1378.512a3.827,3.827,0,0,0,1.449,2.918l6.578,4.5a49.785,49.785,0,0,0,3.164,10.69l-4.236,3.406c-.528.43-.422,1.646.245,2.8l4.045,7.007a3.963,3.963,0,0,0,1.344,1.448,1.144,1.144,0,0,0,.959.166l5.1-1.905a50.257,50.257,0,0,0,7.69,8.111l.592,7.914a3.834,3.834,0,0,0,1.8,2.716l5.74,3.315c.943.544,1.732.269,1.808-.632l.639-7.2a16.918,16.918,0,0,0,7.711.781l5.071,7.779a2.889,2.889,0,0,0,.956.939,1.356,1.356,0,0,0,1.352.109l4.072-2.321c.667-.38.779-1.471.255-2.509l-4.2-8.276a16.637,16.637,0,0,0,3.215-7.006l6.577,3.092c.826.386,1.459-.154,1.462-1.237l.018-6.6a3.818,3.818,0,0,0-1.449-2.917l-6.573-4.5a49.977,49.977,0,0,0-3.165-10.69l4.232-3.408c.528-.431.422-1.647-.24-2.8l-4.046-7.007a3.977,3.977,0,0,0-1.348-1.45,1.141,1.141,0,0,0-.959-.167l-5.1,1.908a50.387,50.387,0,0,0-7.69-8.111l-.6-7.916a3.816,3.816,0,0,0-1.8-2.714l-5.741-3.315c-.943-.544-1.731-.269-1.812.629l-.635,7.207a16.892,16.892,0,0,0-7.71-.781l-5.075-7.781a2.9,2.9,0,0,0-.957-.939,1.342,1.342,0,0,0-1.347-.107l-4.073,2.321c-.671.378-.783,1.468-.259,2.506l4.2,8.278a16.6,16.6,0,0,0-3.215,7.007l-6.581-3.094c-.822-.384-1.459.153-1.462,1.237Zm13.937,4.741c.032-11.276,8.015-15.825,17.827-10.16s17.743,19.4,17.711,30.678-8.01,15.832-17.827,10.164S2351.515,1394.533,2351.547,1383.253Z" fill="#ff6355"/>
    </g>
    <g id="Group_3975" data-name="Group 3975">
      <path id="Path_6201" data-name="Path 6201" d="M2385.891,1592.091c-1.452,3.618-4.408,7.067-8.872,10-15.522,10.2-42.453,10.571-58.815,1.125a27.179,27.179,0,0,1-8.9-7.773c-3.373-4.857-10.106-8.745-18.52-10.692a49.2,49.2,0,0,1-13.462-5.139c-16.363-9.447-15.712-25,1.955-33.96,15.156-7.687,38.291-7.626,53.337.134a28.763,28.763,0,0,1,10.477,8.528c3.539,4.982,10.3,8.887,18.929,10.93a47.387,47.387,0,0,1,14.779,6.052c8.934,5.777,11.973,13.617,9.092,20.795" fill="#1a50b2" opacity="0.05"/>
      <path id="Path_6202" data-name="Path 6202" d="M2302.84,1556.851l5.853-1.531a9.184,9.184,0,0,1,4.171-.623h0c1.806.15,3.269.58,3.858,2.294h0c.369,1.073.255,7.875-10.1,10.724h0a8.061,8.061,0,0,0-4.18,2.986h0a8.467,8.467,0,0,1-7.816,3.451h0a4.331,4.331,0,0,1-3.791-3.637l-.142-.911.334-14.667,2.223,2.831Z" fill="#090d30"/>
      <path id="Path_6203" data-name="Path 6203" d="M2316.51,1464.567s-2.527,27.881-3.784,34.1c-1.142,5.656-8.591,37.726-10.339,56.8a5.99,5.99,0,0,1-5.991,5.429h0a6,6,0,0,1-5.973-5.649l-1.38-34.035a26.26,26.26,0,0,1,.845-8.316l2.7-10.1a26.246,26.246,0,0,0,.718-9.777c-1.442-12.534-5.009-45.213-3.954-53.19C2290.667,1429.907,2316.51,1464.567,2316.51,1464.567Z" fill="#34478b"/>
      <path id="Path_6204" data-name="Path 6204" d="M2312.726,1498.669c1.257-6.22,3.784-34.1,3.784-34.1s-4.033-5.407-8.992-11.338c-2.536,2.127-5.083,4.344-5.083,4.344l4.883,46.813-3.709,41.136C2306.349,1526.846,2311.765,1503.424,2312.726,1498.669Z" opacity="0.2" style="mix-blend-mode: overlay;isolation: isolate"/>
      <path id="Path_6205" data-name="Path 6205" d="M2338.481,1566.285l6.667,4.6a16.93,16.93,0,0,0,6.118,2.628l7.763,1.638a1.9,1.9,0,0,1,1.439,2.348h0a4.026,4.026,0,0,1-2.492,2.73l-6.747,2.49a15.463,15.463,0,0,1-8.73.584l-3.821-.853a10.412,10.412,0,0,0-3.289-.2l-3.339.327a6.083,6.083,0,0,1-6.122-3.466c-.1-.213-.149-.356-.13-.393.115-.225,3.288-12.429,3.288-12.429Z" fill="#090d30"/>
      <path id="Path_6206" data-name="Path 6206" d="M2335.221,1449.238s12.139,25.564,15.5,46.834a37.61,37.61,0,0,1-.256,13c-2.525,13.046-8.167,38.7-10.241,55.73a6.208,6.208,0,0,1-5.345,5.407h0a6.206,6.206,0,0,1-7.016-5.851l-1.144-37.994a22.008,22.008,0,0,1,1.079-7.953l1.27-3.852a21.972,21.972,0,0,0-1.066-16.406l-9.622-20.009a30.593,30.593,0,0,0-7.04-9.4c-3.6-3.262-8.426-8.43-9.849-13.713-.041-.15-.078-.3-.113-.449C2299.315,1445.687,2335.221,1449.238,2335.221,1449.238Z" fill="#34478b"/>
      <path id="Path_6207" data-name="Path 6207" d="M2405.483,1388.811c.233-.054.535-.084.656.122a.5.5,0,0,1,.05.257c0,1.634-3.66,7.391-4.543,8.5-1.658,2.084-6.493,4.177-8.874,4.769-.4.1-5.033,1.381-5.033,1.514l-2.935-5.905,2.216-1.04a4.234,4.234,0,0,0,2.159-2.33l1.5-3.895a6.335,6.335,0,0,1,2.01-2.719l.857-.674a1.046,1.046,0,0,1,1.257-.023,1.031,1.031,0,0,1,.434.857,1.1,1.1,0,0,1-.069.377l-.16.4c-.206.516-.474,2.237.034,2.628a1.545,1.545,0,0,0,.752.245C2397.285,1392.1,2404.612,1389.012,2405.483,1388.811Z" fill="#f89c69"/>
      <path id="Path_6208" data-name="Path 6208" d="M2331.75,1331.977s5.778,10.761-1.234,24.534c-1.445,2.839-5.555.685-6.451,2.385s-1.547,7.234-1.547,7.234l-15.2-2.664.384-2.49,2.028-12.007,12.881-16.633Z" fill="#f89c69"/>
      <path id="Path_6209" data-name="Path 6209" d="M2290.918,1400.136s2.822,13.972,1.858,23.776c-4.084,15.149-4.8,19.493-4.8,19.493s11.891,17.146,30.734,16.016,19.079-9.01,19.079-9.01.146-35.472,2.571-44.028c2.169,1.547,11.138,6.917,16.984,10.388a10.933,10.933,0,0,0,10.547.341l20.744-10.562a5.006,5.006,0,0,0,2.366-6.344h0a5,5,0,0,0-6.391-2.806l-15.043,5.625a5.534,5.534,0,0,1-5.8-1.114l-17.12-16.193a34.4,34.4,0,0,0-3.328-2.743l-18.188-12.269-.791-4.2a1.853,1.853,0,0,0-2.06-1.5c-3.212.414-10.161.541-14.218-5.1a.914.914,0,0,0-1.461-.054l-2.125,2.659s-13.237-2.879-18.11,11.258C2284.678,1380.59,2288.711,1395.187,2290.918,1400.136Z" fill="#101542"/>
      <path id="Path_6210" data-name="Path 6210" d="M2329.7,1429.563c.258,1.938-.517,17.16-.647,19.823-.127,2.637-11.656,9.942-11.878,10.082.506,0,1.015-.016,1.531-.047,18.843-1.13,19.079-9.01,19.079-9.01s.146-35.472,2.571-44.029l-9.881-4.732S2329.443,1427.625,2329.7,1429.563Z" fill="#090d30"/>
      <g id="Group_3974" data-name="Group 3974">
        <path id="Path_6211" data-name="Path 6211" d="M2305.865,1330.819c8.137-10.6,25.468-6.784,28.538-2.075,2.312,3.548-2.323,6.811-2.323,6.811-.211,5.7-.348,7.765-2.228,11.6a1.872,1.872,0,0,1-2.908.617,1.882,1.882,0,0,0-1.095-.514c-1.338-.141-2.292,1.211-2.991,2.36a18.455,18.455,0,0,1-6.525,6.883c-2.806,1.535-5.559,2.333-8.167.481C2306.412,1355.74,2302.077,1335.752,2305.865,1330.819Z" fill="#090d30"/>
      </g>
    </g>
    <path id="Path_6212" data-name="Path 6212" d="M2591.891,1573.687c1.282,3.2,3.894,6.243,7.837,8.833,13.712,9.008,37.5,9.339,51.956.994a23.989,23.989,0,0,0,7.862-6.866c2.98-4.291,8.928-7.725,16.36-9.445a43.461,43.461,0,0,0,11.893-4.54c14.455-8.345,13.88-22.083-1.727-30-13.389-6.791-33.826-6.737-47.118.118a25.415,25.415,0,0,0-9.254,7.533c-3.127,4.4-9.1,7.851-16.723,9.655a41.894,41.894,0,0,0-13.055,5.347c-7.892,5.1-10.576,12.029-8.031,18.37" fill="#1a50b2" opacity="0.05"/>
    <g id="Group_3982" data-name="Group 3982">
      <g id="Group_3977" data-name="Group 3977">
        <path id="Path_6213" data-name="Path 6213" d="M2429.792,1229.407l-17.7,10.219a5.642,5.642,0,0,1-5.056-.209l-16.974-9.8c-1.49-.86-1.654-2.174-.363-2.919l17.7-10.219a5.642,5.642,0,0,1,5.056.209l16.975,9.8C2430.919,1227.348,2431.082,1228.662,2429.792,1229.407Z" fill="#e3e7fa"/>
        <g id="Group_3976" data-name="Group 3976">
          <path id="Path_6214" data-name="Path 6214" d="M2430.638,1293.02v-64.646h0a1.613,1.613,0,0,1-.846,1.033l-17.7,10.219a4.568,4.568,0,0,1-2.347.5v65.1a4.589,4.589,0,0,0,2.347-.5l17.7-10.219A1.424,1.424,0,0,0,2430.638,1293.02Z" fill="#cad4ef"/>
          <path id="Path_6215" data-name="Path 6215" d="M2407.034,1239.417l-16.974-9.8a2.261,2.261,0,0,1-1.21-1.429v64.645c-.131.641.282,1.352,1.21,1.887l16.974,9.8a5.844,5.844,0,0,0,2.709.7v-65.1A5.831,5.831,0,0,1,2407.034,1239.417Z" fill="#fff"/>
        </g>
      </g>
      <g id="Group_3979" data-name="Group 3979">
        <path id="Path_6216" data-name="Path 6216" d="M2401.876,1267.93l-17.7,10.22a5.642,5.642,0,0,1-5.056-.21l-16.975-9.8c-1.49-.861-1.653-2.174-.363-2.92l17.7-10.219a5.642,5.642,0,0,1,5.056.209l16.975,9.8C2403,1265.871,2403.167,1267.185,2401.876,1267.93Z" fill="#e3e7fa"/>
        <g id="Group_3978" data-name="Group 3978">
          <path id="Path_6217" data-name="Path 6217" d="M2402.723,1309.091V1266.9h0a1.609,1.609,0,0,1-.847,1.033l-17.7,10.22a4.581,4.581,0,0,1-2.348.495V1321.3a4.582,4.582,0,0,0,2.348-.5l17.7-10.219A1.424,1.424,0,0,0,2402.723,1309.091Z" fill="#cad4ef"/>
          <path id="Path_6218" data-name="Path 6218" d="M2379.119,1277.94l-16.975-9.8a2.261,2.261,0,0,1-1.209-1.43V1308.9c-.131.64.282,1.351,1.209,1.886l16.975,9.8a5.841,5.841,0,0,0,2.708.705v-42.651A5.829,5.829,0,0,1,2379.119,1277.94Z" fill="#fff"/>
        </g>
      </g>
      <g id="Group_3981" data-name="Group 3981">
        <path id="Path_6219" data-name="Path 6219" d="M2374.577,1299.9l-17.7,10.219a5.642,5.642,0,0,1-5.056-.209l-16.975-9.8c-1.49-.86-1.653-2.174-.363-2.919l17.7-10.22a5.642,5.642,0,0,1,5.056.21l16.975,9.8C2375.7,1297.844,2375.868,1299.157,2374.577,1299.9Z" fill="#e3e7fa"/>
        <g id="Group_3980" data-name="Group 3980">
          <path id="Path_6220" data-name="Path 6220" d="M2375.423,1324.855V1298.87h0a1.6,1.6,0,0,1-.846,1.033l-17.7,10.22a4.59,4.59,0,0,1-2.348.5v26.442a4.59,4.59,0,0,0,2.348-.5l17.7-10.22A1.422,1.422,0,0,0,2375.423,1324.855Z" fill="#cad4ef"/>
          <path id="Path_6221" data-name="Path 6221" d="M2351.82,1309.913l-16.975-9.8a2.256,2.256,0,0,1-1.209-1.43v25.985c-.131.641.282,1.351,1.209,1.887l16.975,9.8a5.841,5.841,0,0,0,2.708.706v-26.442A5.84,5.84,0,0,1,2351.82,1309.913Z" fill="#fff"/>
        </g>
      </g>
    </g>
  </g>
</svg>
