<?xml version="1.0" encoding="utf-8"?>
<!-- Generator: Adobe Illustrator 24.1.0, SVG Export Plug-In . SVG Version: 6.00 Build 0)  -->
<svg version="1.1" id="Layer_1" xmlns="http://www.w3.org/2000/svg" xmlns:xlink="http://www.w3.org/1999/xlink" x="0px" y="0px"
	 viewBox="0 0 654.4 189.3" style="enable-background:new 0 0 654.4 189.3;" xml:space="preserve">
<style type="text/css">
	.st0{fill:#FFFFFF;}
</style>
<g id="Layer_1_1_">
	<path class="st0" d="M311.7,66.3v12.9c-5.1-7.1-14.7-12.9-27.2-12.9c-10.8-0.3-21.2,4.1-28.5,12c-7.3,7.7-11.3,18.2-11.3,30.4
		s4,22.8,11.3,30.7c7.4,7.8,17.8,12.1,28.5,11.9c12.5,0,22-5.9,27.2-13.1v13.1h17.4V66.3H311.7z M305.6,128.3
		c-4.9,4.9-11.6,7.7-18.5,7.5c-6.8,0.1-13.3-2.6-18.1-7.5c-4.7-5.4-7.2-12.4-7-19.5c0-7.8,2.5-14.7,7-19.4
		c4.7-4.9,11.3-7.6,18.1-7.5c6.9-0.2,13.6,2.5,18.5,7.5c5.1,5.2,7.8,12.2,7.6,19.4C313.4,116,310.6,123.1,305.6,128.3L305.6,128.3z"
		/>
	<path class="st0" d="M347.3,142.7c6.8,5.7,15.4,8.7,26.2,8.7s19.3-2.8,26.2-8.7s10.4-14.3,10.4-25.3V66.3h-17.7v49.8
		c0,12.3-6.9,19.5-18.8,19.5s-19-7.1-19-19.4v-50h-17.4v51.6C337.2,128.7,340.6,136.8,347.3,142.7z"/>
	<path class="st0" d="M554.3,78.7V66.3h-17.2v85.1h17.2v-49.8c0-11.6,7.2-20,17.1-20s15.6,7.3,15.6,19.1v50.7h17.2v-49.8
		c0-11.8,7.2-20,17.3-20s15.6,7.3,15.6,19.1v50.7h17.3V98c0-19.8-10.1-31.8-27.3-31.8c-12.8,0-20.9,5.4-25.7,13.7l-1,2.1l-0.9-2.1
		c-4-9.3-11-13.7-21.9-13.7C568.1,65.9,559.2,70.7,554.3,78.7z"/>
	<path class="st0" d="M462,66.3c-12.5,0-22.8,4-31.3,12c-8.3,7.9-12.8,19-12.5,30.5c0,12.3,4.1,22.3,12.5,30.4s18.8,12.2,31.3,12.2
		c10.2,0,18.6-2.5,25.1-7.5l-8.7-11.3c-4.8,2.1-10,3.1-15.3,3.1c-14.8,0.6-27.3-11-27.9-25.8c-0.6-14.8,11-27.3,25.8-27.9
		c0.7,0,1.4,0,2.1,0c5.4-0.1,10.8,1.1,15.7,3.4l8.1-11.6C480.4,68.7,472,66.3,462,66.3z"/>
	<path class="st0" d="M501.5,144.9c4.7,4.6,11.5,6.8,19.7,6.5h7.8v-15.6h-6.5c-7.1,0-11.2-4.6-11.2-12.3V81.8H529V66.3h-17.6V37.1
		h-17.5v86.3C494,133,496.5,140.2,501.5,144.9z"/>
	<path class="st0" d="M189.4,146.2c-2.4-7.8-13.5-8.7-21.6-8.7h-24.6c1.6-13.2,3.5-30.1,5.1-46.9c5.7-62.3,1.9-75.4-2.5-79.8
		s-28.2-11-40.3-6.3H105C58.1,28.6,25,77.4,10.8,98.3c-10.4,15.4-13.4,27.9-8.5,37s15.9,12.2,23.8,12.2H64c2.8,0,5-2.2,5-5l0,0
		c0-2.8-2.2-5-5-5H26.1c-4,0-12.2-1.5-15-6.8c-2.8-5.3-0.1-15,7.9-26.9c13.7-20.2,45.9-67.3,90.4-90.3c8.4-3.1,26.8,1.6,29.4,4.1
		s5.4,10.3-0.4,72.9c-1.6,16.9-3.5,33.8-5.1,46.9H62.7c-2.8,0-5,2.2-5,5l0,0c0,2.8,2.2,5,5,5h69.2c-1,7.6-1.8,12.8-2.1,14.1
		c-1.9,10.4-2.9,20.3,3.7,24.6c1.7,1.1,3.6,1.6,5.6,1.6c6.5,0,15.6-4.6,29.7-14.6C185.6,161.5,191.8,153.4,189.4,146.2z
		 M178.3,152.1c-1.9,2.5-6.2,6.6-15.1,13.1c-18.4,12.9-23.4,12.8-24.2,12.6s-1-3.7,0.9-14.6l0,0c0.1-1.3,1-7.1,2.2-15.7h25.9
		c2.7-0.1,5.3,0.1,7.9,0.4C176.3,148.1,180.2,149.3,178.3,152.1z"/>
	<path class="st0" d="M102.4,17.4c1-0.6,13.7-7.5,22.8-1.5c5.9,4.6,4.9,15,4.1,29s-11.2,105.8-11.5,122.6c0,7.4,2.1,30.6,30.3,18.1
		l-8.7-2.6c0,0,26.8-19.4,25.1-18.8s-7.6,4.3-10.7,5.4s-15.1,8.7-9.9-18.2S162.2,73,164.6,30.7c1.5-26.8-36-39.1-62.2-24.5
		L102.4,17.4z"/>
</g>
</svg>
