<svg xmlns="http://www.w3.org/2000/svg" xmlns:xlink="http://www.w3.org/1999/xlink" width="194.546" height="110.792" viewBox="0 0 194.546 110.792">
  <defs>
    <linearGradient id="linear-gradient" x1="0.878" y1="-0.401" x2="0.236" y2="1.13" gradientUnits="objectBoundingBox">
      <stop offset="0" stop-color="#425ab0"/>
      <stop offset="1" stop-color="#34478b"/>
    </linearGradient>
  </defs>
  <g id="Group_3113" data-name="Group 3113" transform="translate(-1979.963 -2758.304)">
    <g id="Group_3094" data-name="Group 3094">
      <g id="Group_3093" data-name="Group 3093">
        <path id="Path_4803" data-name="Path 4803" d="M2139.892,2806.415v53.274a9.409,9.409,0,0,1-9.407,9.407h-98.671a9.4,9.4,0,0,1-9.4-9.407v-53.274a9.4,9.4,0,0,1,9.4-9.407h98.671A9.409,9.409,0,0,1,2139.892,2806.415Z" fill="url(#linear-gradient)"/>
        <rect id="Rectangle_377" data-name="Rectangle 377" width="22.094" height="19.692" rx="9.846" transform="translate(2032.015 2814.406)" fill="#ff6355"/>
        <path id="Path_4804" data-name="Path 4804" d="M2050.2,2851.106h-15.291a2.955,2.955,0,0,1,0-5.909H2050.2a2.955,2.955,0,0,1,0,5.909Z" fill="#223165"/>
        <path id="Path_4805" data-name="Path 4805" d="M2127.392,2822.088h-28.013a2.955,2.955,0,0,1,0-5.909h28.013a2.955,2.955,0,0,1,0,5.909Z" fill="#223165"/>
        <path id="Path_4806" data-name="Path 4806" d="M2127.392,2832.326h-50.648a2.955,2.955,0,0,1,0-5.909h50.648a2.955,2.955,0,0,1,0,5.909Z" fill="#223165"/>
        <path id="Path_4807" data-name="Path 4807" d="M2075.931,2851.106h-15.292a2.955,2.955,0,0,1,0-5.909h15.292a2.955,2.955,0,0,1,0,5.909Z" fill="#223165"/>
        <path id="Path_4808" data-name="Path 4808" d="M2101.662,2851.106H2086.37a2.955,2.955,0,0,1,0-5.909h15.292a2.955,2.955,0,0,1,0,5.909Z" fill="#223165"/>
        <path id="Path_4809" data-name="Path 4809" d="M2127.392,2851.106H2112.1a2.955,2.955,0,0,1,0-5.909h15.292a2.955,2.955,0,0,1,0,5.909Z" fill="#223165"/>
        <path id="Path_4810" data-name="Path 4810" d="M2050.3,2819.911h3.8v-.591h-3.8a1.22,1.22,0,0,0-1.217,1.223v3.416h-2.352v-2.139a1.238,1.238,0,0,0-1.235-1.235h-2.139V2814.4h-.591v6.181h-2.092a1.238,1.238,0,0,0-1.235,1.235v2.139h-2.405v-3.416a1.22,1.22,0,0,0-1.217-1.223h-3.8v.591h3.8a.629.629,0,0,1,.627.632v7.422a.628.628,0,0,1-.627.632h-3.8v.591h3.8a1.22,1.22,0,0,0,1.217-1.223v-3.416h2.405v2.133a1.238,1.238,0,0,0,1.235,1.235h2.092v6.181h.591v-6.181h2.139a1.238,1.238,0,0,0,1.235-1.235v-2.133h2.352v3.416a1.22,1.22,0,0,0,1.217,1.223h3.8v-.591h-3.8a.628.628,0,0,1-.627-.632v-7.422A.629.629,0,0,1,2050.3,2819.911Zm-4.16,6.771a.646.646,0,0,1-.644.645h-4.822a.646.646,0,0,1-.644-.645v-4.862a.646.646,0,0,1,.644-.645h4.822a.646.646,0,0,1,.644.645Z" fill="#fff"/>
      </g>
    </g>
    <g id="Group_3100" data-name="Group 3100">
      <path id="Path_4811" data-name="Path 4811" d="M2151.141,2778.948c-.85,4.779-11.539,6.807-23.683,4.645s-21.3-7.788-20.447-12.566c.2-1.108.537-5.159,1.675-5.961,3.769-2.657,12.525-.439,21.853,1.221,8.682,1.546,18.247,1.668,20.6,5.687C2152.574,2774.411,2151.384,2777.586,2151.141,2778.948Z" fill="#007cff"/>
      <path id="Path_4812" data-name="Path 4812" d="M2151.147,2771.972c1.428,3.292.3,5.265-.007,6.976-.313,1.763-1.962,3.148-4.523,4.089-.306.121-.633.226-.971.327a27.846,27.846,0,0,1-6.127,1.008c-.295.027-.59.035-.893.048a49.129,49.129,0,0,1-7.322-.269c-.28-.03-.563-.067-.847-.1-.983-.121-1.989-.267-3-.451s-1.989-.383-2.956-.611c-.278-.06-.553-.131-.823-.2a48.914,48.914,0,0,1-6.7-2.185c-.265-.106-.517-.22-.771-.323a27.719,27.719,0,0,1-5.407-3.051c-.252-.182-.486-.365-.712-.552-2.245-1.843-3.4-3.812-3.074-5.651.212-1.192.387-5.123,1.668-5.963a9.935,9.935,0,0,1,5.289-1.165c.281,0,.574,0,.87.013,4.35.143,9.967,1.355,15.695,2.375,6.755,1.2,14.663,2.254,18.92,4.535a8.407,8.407,0,0,1,.741.437A7.507,7.507,0,0,1,2151.147,2771.972Z" fill="#34478b"/>
      <g id="Group_3095" data-name="Group 3095" opacity="0.2">
        <path id="Path_4813" data-name="Path 4813" d="M2115.07,2763.148l-.23.765-4.041,13.318c-.252-.182-.486-.365-.712-.552l3.883-12.779.3-.99Z"/>
      </g>
      <g id="Group_3096" data-name="Group 3096" opacity="0.2">
        <path id="Path_4814" data-name="Path 4814" d="M2121.142,2766.886l-4.165,13.719c-.265-.106-.517-.22-.771-.323l4.139-13.647Z"/>
      </g>
      <g id="Group_3097" data-name="Group 3097" opacity="0.2">
        <path id="Path_4815" data-name="Path 4815" d="M2135.247,2771.163l-3.943,12.988c-.28-.03-.563-.067-.847-.1l3.987-13.13Z"/>
      </g>
      <g id="Group_3098" data-name="Group 3098" opacity="0.2">
        <path id="Path_4816" data-name="Path 4816" d="M2128.69,2769.174l-4.188,13.811c-.278-.06-.553-.131-.823-.2l4.207-13.861Z"/>
      </g>
      <g id="Group_3099" data-name="Group 3099" opacity="0.2">
        <path id="Path_4817" data-name="Path 4817" d="M2143.358,2771.735l-3.839,12.637c-.295.027-.59.035-.893.048l3.929-12.931Z"/>
      </g>
      <ellipse id="Ellipse_119" data-name="Ellipse 119" cx="8.789" cy="22.333" rx="8.789" ry="22.333" transform="translate(2106.195 2775.61) rotate(-79.908)" fill="#425ab0"/>
      <ellipse id="Ellipse_120" data-name="Ellipse 120" cx="6.21" cy="17.674" rx="6.21" ry="17.674" transform="matrix(0.175, -0.985, 0.985, 0.175, 2111.693, 2773.969)" fill="#34478b"/>
    </g>
    <g id="Group_3106" data-name="Group 3106">
      <path id="Path_4818" data-name="Path 4818" d="M2172.786,2823.208c1.918,2.589-1.976,8.67-8.555,13.543s-13.467,6.725-15.385,4.136c-.444-.6-2.243-2.61-2.112-3.525.436-3.03,5.5-6.243,10.551-9.986,4.7-3.485,9.124-8.043,12.138-7.349C2171.25,2820.447,2172.24,2822.47,2172.786,2823.208Z" fill="#007cff"/>
      <path id="Path_4819" data-name="Path 4819" d="M2169.423,2820.024c2.24.812,2.676,2.257,3.362,3.184.709.955.625,2.382-.089,4.046-.081.2-.179.409-.284.618a18.5,18.5,0,0,1-2.308,3.415c-.121.155-.251.3-.383.453a32.555,32.555,0,0,1-3.468,3.41c-.142.122-.289.241-.436.361-.507.419-1.036.838-1.585,1.242s-1.092.785-1.642,1.148c-.156.106-.316.206-.47.307a32.411,32.411,0,0,1-4.109,2.238c-.172.08-.342.149-.507.225a18.4,18.4,0,0,1-3.937,1.217c-.2.039-.4.068-.591.092-1.913.243-3.389-.1-4.128-1.093-.478-.645-2.3-2.522-2.116-3.523a6.589,6.589,0,0,1,1.849-3.083c.128-.135.263-.275.4-.414a83.931,83.931,0,0,1,8.3-6.489c3.66-2.711,7.772-6.047,10.813-7.061a5.6,5.6,0,0,1,.549-.158A4.892,4.892,0,0,1,2169.423,2820.024Z" fill="#34478b"/>
      <g id="Group_3101" data-name="Group 3101" opacity="0.2">
        <path id="Path_4820" data-name="Path 4820" d="M2148.719,2833.408l.265.459,4.583,8.021c-.2.039-.4.068-.591.092l-4.4-7.7-.341-.6Z"/>
      </g>
      <g id="Group_3102" data-name="Group 3102" opacity="0.2">
        <path id="Path_4821" data-name="Path 4821" d="M2153.29,2832.182l4.721,8.264c-.172.08-.342.149-.507.225l-4.7-8.219Z"/>
      </g>
      <g id="Group_3103" data-name="Group 3103" opacity="0.2">
        <path id="Path_4822" data-name="Path 4822" d="M2161.784,2827.327l4.469,7.823c-.142.122-.289.241-.436.361l-4.518-7.909Z"/>
      </g>
      <g id="Group_3104" data-name="Group 3104" opacity="0.2">
        <path id="Path_4823" data-name="Path 4823" d="M2157.836,2829.584l4.754,8.317c-.156.106-.316.206-.47.307l-4.769-8.349Z"/>
      </g>
      <g id="Group_3105" data-name="Group 3105" opacity="0.2">
        <path id="Path_4824" data-name="Path 4824" d="M2165.758,2823.674l4.346,7.613c-.121.155-.251.3-.383.453l-4.448-7.79Z"/>
      </g>
      <ellipse id="Ellipse_121" data-name="Ellipse 121" cx="14.824" cy="5.834" rx="14.824" ry="5.834" transform="matrix(0.804, -0.595, 0.595, 0.804, 2143.741, 2833.995)" fill="#425ab0"/>
      <ellipse id="Ellipse_122" data-name="Ellipse 122" cx="11.731" cy="4.122" rx="11.731" ry="4.122" transform="translate(2147.493 2833.346) rotate(-36.531)" fill="#34478b"/>
    </g>
    <g id="Group_3112" data-name="Group 3112">
      <path id="Path_4825" data-name="Path 4825" d="M2005.37,2849.949c-1.971,2.549-8.881.452-15.358-4.556s-10.129-11.134-8.158-13.683c.457-.591,1.9-2.869,2.819-2.99,3.034-.4,7.5,3.595,12.476,7.442,4.631,3.581,10.219,6.6,10.369,9.686C2007.61,2847.721,2005.932,2849.222,2005.37,2849.949Z" fill="#007cff"/>
      <path id="Path_4826" data-name="Path 4826" d="M2007.521,2845.848c-.174,2.376-1.446,3.188-2.151,4.1-.727.941-2.123,1.248-3.919,1.013-.217-.022-.442-.062-.672-.106a18.487,18.487,0,0,1-3.913-1.293c-.182-.075-.358-.16-.54-.246a32.6,32.6,0,0,1-4.224-2.412c-.155-.1-.311-.212-.466-.322-.54-.373-1.088-.769-1.625-1.187s-1.052-.838-1.551-1.27c-.145-.12-.284-.247-.423-.368a32.413,32.413,0,0,1-3.27-3.347c-.123-.144-.236-.289-.354-.427a18.447,18.447,0,0,1-2.241-3.459c-.092-.184-.173-.364-.249-.543-.753-1.775-.827-3.289-.069-4.27.492-.635,1.8-2.894,2.816-2.993a6.589,6.589,0,0,1,3.469.942c.166.086.337.178.508.275a83.9,83.9,0,0,1,8.5,6.227c3.6,2.786,7.93,5.837,9.732,8.489a5.6,5.6,0,0,1,.3.486A4.993,4.993,0,0,1,2007.521,2845.848Z" fill="#34478b"/>
      <g id="Group_3107" data-name="Group 3107" opacity="0.2">
        <path id="Path_4827" data-name="Path 4827" d="M1989.018,2829.556l-.371.379-6.475,6.589c-.092-.184-.173-.364-.249-.543l6.216-6.321.482-.49Z"/>
      </g>
      <g id="Group_3108" data-name="Group 3108" opacity="0.2">
        <path id="Path_4828" data-name="Path 4828" d="M1991.439,2833.623l-6.672,6.787c-.123-.144-.236-.289-.354-.427l6.634-6.753Z"/>
      </g>
      <g id="Group_3109" data-name="Group 3109" opacity="0.2">
        <path id="Path_4829" data-name="Path 4829" d="M1998.418,2840.479l-6.316,6.425c-.155-.1-.311-.212-.466-.322l6.385-6.5Z"/>
      </g>
      <g id="Group_3110" data-name="Group 3110" opacity="0.2">
        <path id="Path_4830" data-name="Path 4830" d="M1995.173,2837.292l-6.713,6.833c-.145-.12-.284-.247-.423-.368l6.74-6.857Z"/>
      </g>
      <g id="Group_3111" data-name="Group 3111" opacity="0.2">
        <path id="Path_4831" data-name="Path 4831" d="M2003.013,2843.311l-6.147,6.251c-.182-.075-.358-.16-.54-.246l6.29-6.4Z"/>
      </g>
      <ellipse id="Ellipse_123" data-name="Ellipse 123" cx="5.834" cy="14.824" rx="5.834" ry="14.824" transform="matrix(0.612, -0.791, 0.791, 0.612, 1979.963, 2834.155)" fill="#425ab0"/>
      <ellipse id="Ellipse_124" data-name="Ellipse 124" cx="4.122" cy="11.731" rx="4.122" ry="11.731" transform="matrix(0.612, -0.791, 0.791, 0.612, 1983.702, 2834.881)" fill="#34478b"/>
    </g>
  </g>
</svg>
