<svg xmlns="http://www.w3.org/2000/svg" xmlns:xlink="http://www.w3.org/1999/xlink" width="20" height="20" viewBox="0 0 20 20">
  <defs>
    <clipPath id="clip-path">
      <rect id="Rectangle_409" data-name="Rectangle 409" width="20" height="20" transform="translate(0.089 0.267)" fill="#fff"/>
    </clipPath>
  </defs>
  <g id="Mask_Group_3" data-name="Mask Group 3" transform="translate(-0.089 -0.267)" clip-path="url(#clip-path)">
    <g id="twitter" transform="translate(0.109 2.124)">
      <g id="Group_3391" data-name="Group 3391" transform="translate(0 0)">
        <path id="Path_5071" data-name="Path 5071" d="M19.986,4.172a8.543,8.543,0,0,1-2.361.647,4.074,4.074,0,0,0,1.8-2.265,8.188,8.188,0,0,1-2.6.992,4.1,4.1,0,0,0-7.088,2.8,4.219,4.219,0,0,0,.095.934A11.6,11.6,0,0,1,1.392,3,4.1,4.1,0,0,0,2.651,8.473,4.046,4.046,0,0,1,.8,7.968v.045a4.116,4.116,0,0,0,3.283,4.026,4.089,4.089,0,0,1-1.074.135,3.623,3.623,0,0,1-.776-.07,4.136,4.136,0,0,0,3.829,2.854,8.233,8.233,0,0,1-5.08,1.747A7.675,7.675,0,0,1,0,16.65a11.535,11.535,0,0,0,6.286,1.839A11.581,11.581,0,0,0,17.947,6.829c0-.181-.006-.356-.015-.53A8.174,8.174,0,0,0,19.986,4.172Z" transform="translate(0 -2.25)" fill="#fff"/>
      </g>
    </g>
  </g>
</svg>
