<svg id="Capa_1" data-name="Capa 1" xmlns="http://www.w3.org/2000/svg" viewBox="0 0 81 97.29"><defs><style>.cls-1{fill:#ff6355;}</style></defs><title>Arrow Icon</title><path class="cls-1" d="M71.84,35.73,40.93,4.82a1.83,1.83,0,0,0-2.58,0L7.44,35.73a1.83,1.83,0,0,0,0,2.58l8.24,8.23a1.82,1.82,0,0,0,1.29.54,1.86,1.86,0,0,0,1.29-.54L31.51,33.29V91.18A1.83,1.83,0,0,0,33.33,93H46a1.82,1.82,0,0,0,1.82-1.82V33.29L61,46.54a1.87,1.87,0,0,0,2.58,0l8.23-8.23A1.86,1.86,0,0,0,72.38,37,1.82,1.82,0,0,0,71.84,35.73Z"/></svg>