<svg xmlns="http://www.w3.org/2000/svg" xmlns:xlink="http://www.w3.org/1999/xlink" width="1011.287" height="754.543" viewBox="0 0 1011.287 754.543">
  <defs>
    <linearGradient id="linear-gradient" x1="0.271" y1="-0.276" x2="1.271" y2="-0.276" gradientUnits="objectBoundingBox">
      <stop offset="0.48" stop-color="#fff"/>
      <stop offset="0.52" stop-color="#dee4f7"/>
    </linearGradient>
  </defs>
  <g id="Group_4613" data-name="Group 4613" transform="translate(-3918.509 -569.614)">
    <g id="Group_4608" data-name="Group 4608" transform="translate(3918.509 569.614)">
      <g id="Group_4520" data-name="Group 4520" transform="translate(543.724)">
        <path id="Path_7069" data-name="Path 7069" d="M4611.633,611.751l-54-3.094L4375.19,711.864l50.433,33.19V833.4l-54,60.424-150,83.477,54,31.246,137.7-77.231a70,70,0,0,0,35.364-60.833V772.835a70,70,0,0,1,35.538-60.929l127.408-72.074Z" transform="translate(-4221.625 -538.622)" fill="#e65245"/>
        <g id="Group_4519" data-name="Group 4519" transform="translate(301.864)">
          <g id="Group_4517" data-name="Group 4517">
            <path id="Path_7070" data-name="Path 7070" d="M4555.608,597.341,4517.8,693.393l-127.894-73.84V591.825l165.7-22.212Z" transform="translate(-4389.91 -569.614)" fill="#e65245"/>
          </g>
          <g id="Group_4518" data-name="Group 4518">
            <path id="Path_7071" data-name="Path 7071" d="M4555.608,569.614,4517.8,665.665l-127.894-73.84Z" transform="translate(-4389.91 -569.614)" fill="#ff6355"/>
          </g>
        </g>
        <path id="Path_7072" data-name="Path 7072" d="M4557.638,593l-150.476,85.122a70,70,0,0,0-35.535,60.929v97.759a70,70,0,0,1-35.881,61.123l-114.122,63.71,54,31.174,114.123-63.71a70,70,0,0,0,35.879-61.121V770.229a70,70,0,0,1,35.535-60.929l150.475-85.122Z" transform="translate(-4221.625 -551.047)" fill="#ff6355"/>
        <path id="Path_7073" data-name="Path 7073" d="M4275.622,857.84V829.761l-54-31.246v28.079Z" transform="translate(-4221.625 -387.916)" fill="#e65245"/>
      </g>
      <g id="Group_4523" data-name="Group 4523" transform="translate(148.732 346.863)">
        <g id="Group_4521" data-name="Group 4521" transform="translate(30.814 86.938)" opacity="0.15" style="mix-blend-mode: multiply;isolation: isolate">
          <path id="Path_7074" data-name="Path 7074" d="M4310.763,1128.794c-7.853,4.535-20.6,4.529-28.46-.011L4024.5,979.946c-7.861-4.542-7.866-11.9-.016-16.433l257.495-148.665c7.857-4.536,20.6-4.531,28.461.013l257.8,148.834c7.862,4.544,7.872,11.9.009,16.435Z" transform="translate(-4018.603 -811.449)" fill="#1a50b2"/>
        </g>
        <path id="Path_7075" data-name="Path 7075" d="M4556.971,923.448h0c0-2.969-1.972-5.945-5.9-8.214l-257.8-148.843c-7.863-4.542-20.606-4.544-28.462-.009L4007.312,915.046c-3.969,2.291-5.923,5.3-5.878,8.309h-.008v41.11h.008c.044,2.94,2,5.876,5.894,8.122l257.8,148.841c7.861,4.544,20.608,4.544,28.461.009l257.5-148.663c3.968-2.294,5.924-5.306,5.878-8.312l.006,0Z" transform="translate(-4001.424 -762.983)" fill="url(#linear-gradient)"/>
        <g id="Group_4522" data-name="Group 4522" transform="translate(0.002)">
          <path id="Path_7076" data-name="Path 7076" d="M4556.971,923.448h0c0-2.969-1.972-5.945-5.9-8.214l-257.8-148.843c-7.863-4.542-20.606-4.544-28.462-.009L4007.312,915.046c-3.969,2.291-5.923,5.3-5.878,8.309h-.008v41.11h.008c.044,2.94,2,5.876,5.894,8.122l257.8,148.841c7.861,4.544,20.608,4.544,28.461.009l257.5-148.663c3.968-2.294,5.924-5.306,5.878-8.312l.006,0Z" transform="translate(-4001.425 -762.983)" fill="#cad4ef"/>
        </g>
        <path id="Path_7077" data-name="Path 7077" d="M4293.588,1080.332c-7.849,4.535-20.593,4.529-28.457-.011l-257.8-148.841c-7.866-4.544-7.872-11.9-.017-16.436l257.5-148.662c7.856-4.535,20.6-4.533,28.462.009l257.8,148.843c7.869,4.54,7.874,11.9.019,16.429Z" transform="translate(-4001.424 -762.983)" fill="#f5f7ff"/>
      </g>
      <g id="Group_4536" data-name="Group 4536" transform="translate(357.205 177.892)">
        <g id="Group_4529" data-name="Group 4529">
          <g id="Group_4524" data-name="Group 4524" transform="translate(52.069 184.001)" opacity="0.1" style="mix-blend-mode: multiply;isolation: isolate">
            <path id="Path_7078" data-name="Path 7078" d="M4149.623,806.734l193.333,111.618a15.725,15.725,0,0,0,14.228.005l48.433-27.151-207.57-119.844-48.433,27.154C4145.689,800.784,4145.689,804.459,4149.623,806.734Z" transform="translate(-4146.671 -771.362)" fill="#1a50b2"/>
          </g>
          <path id="Path_7079" data-name="Path 7079" d="M4193.892,780.539a4.046,4.046,0,0,0-2.373-3.281,12.668,12.668,0,0,0-11.458,0l-60.05,34.67a4.033,4.033,0,0,0-2.364,3.266h0v3.394l.009,0a4.042,4.042,0,0,0,2.364,3.243,12.656,12.656,0,0,0,11.456.005l60.056-34.669c1.6-.929,2.384-2.149,2.357-3.367l.01,0v-3.261Z" transform="translate(-4117.644 -583.77)" fill="#e3e7fa"/>
          <g id="Group_4525" data-name="Group 4525" transform="translate(0 196.796)" opacity="0.15" style="mix-blend-mode: multiply;isolation: isolate">
            <path id="Path_7080" data-name="Path 7080" d="M4191.528,781.8l-60.053,34.676a12.675,12.675,0,0,1-11.458-.007c-1.576-.91-2.368-2.1-2.373-3.292h0v3.338l.009,0a4.043,4.043,0,0,0,2.364,3.243,12.657,12.657,0,0,0,11.456.005l60.056-34.669c1.6-.929,2.384-2.149,2.357-3.367l.01,0v-3.234C4193.9,779.69,4193.108,780.888,4191.528,781.8Z" transform="translate(-4117.644 -778.495)" fill="#1a50b2"/>
          </g>
          <path id="Path_7081" data-name="Path 7081" d="M4145.4,697.645h0a2.239,2.239,0,0,0-1.323-1.837,7.03,7.03,0,0,0-6.37,0,2.24,2.24,0,0,0-1.323,1.84h0V862.069h0a2.261,2.261,0,0,0,1.324,1.842,7.061,7.061,0,0,0,6.374,0,2.235,2.235,0,0,0,1.317-1.842h0Z" transform="translate(-4102.77 -647.941)" fill="#e3e7fa"/>
          <g id="Group_4526" data-name="Group 4526" transform="translate(38.125 47.103)" opacity="0.15" style="mix-blend-mode: multiply;isolation: isolate">
            <path id="Path_7082" data-name="Path 7082" d="M4142.08,695.808a6.5,6.5,0,0,0-3.182-.764V864.671a6.511,6.511,0,0,0,3.189-.76,2.237,2.237,0,0,0,1.317-1.842V697.645A2.239,2.239,0,0,0,4142.08,695.808Z" transform="translate(-4138.898 -695.044)" fill="#1a50b2"/>
          </g>
          <path id="Path_7083" data-name="Path 7083" d="M4144.081,699.486a7.045,7.045,0,0,1-6.374,0c-1.76-1.019-1.764-2.666,0-3.681a7.032,7.032,0,0,1,6.371,0C4145.837,696.824,4145.837,698.47,4144.081,699.486Z" transform="translate(-4102.767 -647.941)" fill="#fff"/>
          <path id="Path_7084" data-name="Path 7084" d="M4145.051,669.26l-2.822,1.629-.022.013-.005,0h0c-1.279.748-2.069,2.336-2.069,4.592V816.286a15.726,15.726,0,0,0,7.118,12.322l193.332,111.616c1.946,1.126,3.706,1.236,4.994.524l0,.007.039-.027,0-.005,2.826-1.629h0c1.293-.746,2.1-2.336,2.1-4.61V793.7a15.734,15.734,0,0,0-7.123-12.323L4150.1,669.752c-1.931-1.114-3.678-1.229-4.958-.533l-.005-.009-.061.038Z" transform="translate(-4099.794 -668.785)" fill="#34478b"/>
          <path id="Path_7085" data-name="Path 7085" d="M4342.5,781.372l-193.33-111.62c-1.931-1.114-3.678-1.229-4.956-.533l-.006-.009-.06.038-.027.013-2.813,1.623c1.288-.728,3.06-.617,5.014.513l193.334,111.618a15.731,15.731,0,0,1,7.122,12.323V936.127c0,2.239-.782,3.819-2.045,4.57l2.787-1.6h0c1.293-.746,2.1-2.336,2.1-4.61V793.7A15.736,15.736,0,0,0,4342.5,781.372Z" transform="translate(-4098.861 -668.785)" fill="#223165"/>
          <path id="Path_7086" data-name="Path 7086" d="M4314.676,850.269a4.038,4.038,0,0,0-2.374-3.277,12.646,12.646,0,0,0-11.453,0L4240.8,881.658a4.041,4.041,0,0,0-2.363,3.27h0v3.39h.009a4.061,4.061,0,0,0,2.362,3.247,12.658,12.658,0,0,0,11.459,0l60.054-34.67c1.605-.927,2.386-2.142,2.36-3.362h.006l0-3.265Z" transform="translate(-4021.766 -528.416)" fill="#e3e7fa"/>
          <g id="Group_4527" data-name="Group 4527" transform="translate(216.664 321.887)" opacity="0.15" style="mix-blend-mode: multiply;isolation: isolate">
            <path id="Path_7087" data-name="Path 7087" d="M4312.314,851.537l-60.054,34.669a12.643,12.643,0,0,1-11.457,0,4.036,4.036,0,0,1-2.374-3.29h0v3.335h.009a4.061,4.061,0,0,0,2.362,3.247,12.658,12.658,0,0,0,11.459,0l60.054-34.67c1.605-.927,2.386-2.142,2.36-3.362h.006l0-3.231C4314.683,849.426,4313.894,850.622,4312.314,851.537Z" transform="translate(-4238.43 -848.231)" fill="#1a50b2"/>
          </g>
          <path id="Path_7088" data-name="Path 7088" d="M4266.186,767.381h0a2.244,2.244,0,0,0-1.324-1.837,7.049,7.049,0,0,0-6.374,0,2.235,2.235,0,0,0-1.315,1.84h0V931.8h0a2.23,2.23,0,0,0,1.32,1.835,7.008,7.008,0,0,0,6.372.005,2.237,2.237,0,0,0,1.32-1.84h0Z" transform="translate(-4006.89 -592.586)" fill="#e3e7fa"/>
          <g id="Group_4528" data-name="Group 4528" transform="translate(254.789 172.194)" opacity="0.15" style="mix-blend-mode: multiply;isolation: isolate">
            <path id="Path_7089" data-name="Path 7089" d="M4262.868,765.544a6.508,6.508,0,0,0-3.184-.764V934.4a6.49,6.49,0,0,0,3.187-.759,2.237,2.237,0,0,0,1.32-1.84V767.381A2.245,2.245,0,0,0,4262.868,765.544Z" transform="translate(-4259.685 -764.78)" fill="#1a50b2"/>
          </g>
          <path id="Path_7090" data-name="Path 7090" d="M4264.866,769.221a7.024,7.024,0,0,1-6.372,0c-1.762-1.013-1.762-2.664,0-3.677a7.05,7.05,0,0,1,6.374,0C4266.625,766.557,4266.625,768.206,4264.866,769.221Z" transform="translate(-4006.89 -592.586)" fill="#fff"/>
        </g>
        <g id="Group_4535" data-name="Group 4535" transform="translate(54.193 22.883)">
          <g id="Group_4532" data-name="Group 4532" transform="translate(0 31.351)">
            <g id="Group_4530" data-name="Group 4530" transform="translate(33.174 18.166)">
              <path id="Path_7091" data-name="Path 7091" d="M4166.4,710.557l-.048,16.073,7.362,4.234.048-16.072Z" transform="translate(-4166.349 -708.027)" fill="#5869a3" fill-rule="evenodd"/>
              <path id="Path_7092" data-name="Path 7092" d="M4178.718,716.038l-.057,18.944,7.362,4.234.057-18.944Z" transform="translate(-4156.576 -703.676)" fill="#5869a3" fill-rule="evenodd"/>
              <path id="Path_7093" data-name="Path 7093" d="M4172.578,709.147l-.073,24.952,7.362,4.235.073-24.953Z" transform="translate(-4161.464 -709.147)" fill="#fff" fill-rule="evenodd"/>
            </g>
            <g id="Group_4531" data-name="Group 4531">
              <path id="Path_7094" data-name="Path 7094" d="M4147.9,700.429l-.048,16.072,7.362,4.235.047-16.072Z" transform="translate(-4147.855 -697.9)" fill="#5869a3" fill-rule="evenodd"/>
              <path id="Path_7095" data-name="Path 7095" d="M4160.224,705.91l-.055,18.944,7.362,4.234.055-18.944Z" transform="translate(-4138.083 -693.549)" fill="#5869a3" fill-rule="evenodd"/>
              <path id="Path_7096" data-name="Path 7096" d="M4154.084,699.019l-.073,24.952,7.362,4.234.073-24.953Z" transform="translate(-4142.969 -699.019)" fill="#ff6355" fill-rule="evenodd"/>
            </g>
          </g>
          <g id="Group_4533" data-name="Group 4533" transform="translate(1.836 75.524)">
            <path id="Path_7097" data-name="Path 7097" d="M4176.765,734.624l-.082.256-2.895,8.937-.225.693-2.776,8.578-.225.693-2.1,6.489,7.351,30.812-14.608-8.4,23.681,13.62,7.117,4.093-4.352-18.788-1.754-7.571-.217-.937-2.839-12.255-.22-.948-2.719-11.74-.22-.948-2.834-12.231Z" transform="translate(-4139.095 -714.93)" fill="#fff" fill-rule="evenodd"/>
            <path id="Path_7098" data-name="Path 7098" d="M4167.427,723.645l-2.312,6.858-.229.679-2.993,8.88-.23.688-2.873,8.524-.232.688-3,8.9-.229.68-2.99,8.872-.23.68-2.983,8.855-.246.731,22.108,12.717,14.609,8.4-7.351-30.811-2.129-8.922-.228-.953-2.814-11.794-.229-.953-2.931-12.288-.225-.941Z" transform="translate(-4148.88 -723.645)" fill="#5869a3" fill-rule="evenodd"/>
            <path id="Path_7099" data-name="Path 7099" d="M4187.2,731.1l-1.089,5.786-.138.733-1.8,9.575-.138.733-1.8,9.567-.139.741-1.728,9.182-.14.742-1.8,9.585-.137.732-1.114,5.922,4.352,18.788-7.118-4.093,25.143,14.461-.143-.955-1.733-11.568-.133-.888-1.735-11.59-.133-.888-1.742-11.623-.135-.9-1.667-11.135-.135-.9-1.737-11.6-.133-.888-1.74-11.612-.133-.888Z" transform="translate(-4128.617 -717.725)" fill="#5869a3" fill-rule="evenodd"/>
          </g>
          <g id="Group_4534" data-name="Group 4534" transform="translate(100.661 126.594)">
            <path id="Path_7100" data-name="Path 7100" d="M4213,753.4c-5.563,3.372-9,10.364-9.023,20.239-.057,20,13.879,44.314,31.221,54.614-.038-4.87-.083-11.387-.124-18.639-8.355-5.211-15.007-16.969-14.979-26.668.012-4.831,1.683-8.264,4.39-9.938C4220.033,765.4,4216.017,758.551,4213,753.4Z" transform="translate(-4203.972 -751.098)" fill="#ff6355" fill-rule="evenodd"/>
            <path id="Path_7101" data-name="Path 7101" d="M4226.288,768.938c-5.674-3.275-10.316-.631-10.333,5.887s4.592,14.508,10.266,17.784,10.313.63,10.334-5.891S4231.959,772.212,4226.288,768.938Z" transform="translate(-4194.461 -739.878)" fill="#5869a3" fill-rule="evenodd"/>
            <path id="Path_7102" data-name="Path 7102" d="M4231.492,756.476c-8.527-4.922-16.279-5.534-22.006-2.555,3.028,5.161,7.044,12.013,11.5,19.631,2.781-1.247,6.442-.868,10.455,1.449a24.438,24.438,0,0,1,3.523,2.492c1.566-6,2.989-11.5,4.054-15.638A50.17,50.17,0,0,0,4231.492,756.476Z" transform="translate(-4199.594 -752.115)" fill="#5869a3" fill-rule="evenodd"/>
            <path id="Path_7103" data-name="Path 7103" d="M4249.285,773.933c-3.676.384-8.588.892-13.907,1.43a27.9,27.9,0,0,1,1.757,9.378c-.026,9.726-6.757,13.774-15.145,9.283.04,7.24.084,13.753.122,18.623,17.213,9.476,31.088,1.288,31.145-18.6A57.352,57.352,0,0,0,4249.285,773.933Z" transform="translate(-4189.67 -734.797)" fill="#5869a3" fill-rule="evenodd"/>
            <path id="Path_7104" data-name="Path 7104" d="M4228.4,758.126c-1.05,4.07-2.457,9.509-4.059,15.646a36.943,36.943,0,0,1,8.556,12.567c5.511-.556,10.329-1.055,13.9-1.426A74.514,74.514,0,0,0,4228.4,758.126Z" transform="translate(-4187.8 -747.344)" fill="#fff" fill-rule="evenodd"/>
          </g>
          <path id="Path_7105" data-name="Path 7105" d="M4149.5,688.011c0-.256.183-.362.408-.231l39.654,22.647a.887.887,0,0,1,.4.7l-.008,4.316c0,.256-.184.36-.407.231l-39.655-22.646a.891.891,0,0,1-.405-.7Z" transform="translate(-4146.561 -676.635)" fill="#5869a3" fill-rule="evenodd"/>
          <path id="Path_7106" data-name="Path 7106" d="M4289.318,809.507l.01-4.011L4234.769,774l-.01,4.011,54.56,31.492Zm.138-47.173-99.372-57.324-.011,4.009,99.37,57.326.013-4.011ZM4232.4,735.858l57.036,32.916-.012,4.011-57.035-32.916.011-4.011Zm56.967,56.079L4190,734.611l.049-16.727,99.372,57.324-.05,16.729Zm-.024,8.44-99.372-57.326.016-5.277,99.37,57.326Z" transform="translate(-4114.423 -662.913)" fill="#5869a3" fill-rule="evenodd"/>
          <path id="Path_7107" data-name="Path 7107" d="M4149.5,681.923c0-.341.242-.479.54-.307l52.535,30a1.179,1.179,0,0,1,.536.929l-.012,5.717c0,.341-.242.479-.539.307l-52.535-30a1.181,1.181,0,0,1-.537-.929Z" transform="translate(-4146.561 -681.542)" fill="#5869a3" fill-rule="evenodd"/>
        </g>
      </g>
      <g id="Group_4577" data-name="Group 4577" transform="translate(105.308 215.091)">
        <g id="Group_4537" data-name="Group 4537">
          <path id="Path_7108" data-name="Path 7108" d="M4151.368,690l2.821,1.629.023.013.006,0h0c1.279.75,2.067,2.336,2.067,4.594V783.1a15.728,15.728,0,0,1-7.119,12.323l-161.979,93.4c-1.945,1.128-3.7,1.238-4.992.524l0,.007-.04-.027,0-.005-2.827-1.629h0c-1.292-.746-2.1-2.334-2.1-4.608V796.218a15.727,15.727,0,0,1,7.123-12.322l161.979-93.406c1.93-1.114,3.676-1.23,4.956-.533l0-.011.062.04Z" transform="translate(-3977.217 -689.523)" fill="#223165"/>
          <path id="Path_7109" data-name="Path 7109" d="M3984.34,783.9l161.979-93.406c1.93-1.114,3.676-1.23,4.956-.533l0-.011.062.04.027.013,2.812,1.623c-1.288-.73-3.058-.619-5.015.513l-161.981,93.4a15.736,15.736,0,0,0-7.121,12.322v86.867c0,2.239.782,3.819,2.044,4.572l-2.785-1.606h0c-1.292-.746-2.1-2.334-2.1-4.608V796.218A15.727,15.727,0,0,1,3984.34,783.9Z" transform="translate(-3977.217 -689.523)" fill="#34478b"/>
        </g>
        <g id="Group_4565" data-name="Group 4565" transform="translate(69.476 34.535)">
          <g id="Group_4538" data-name="Group 4538" transform="translate(7.656 47.449)">
            <path id="Path_7110" data-name="Path 7110" d="M4020.216,802.229l1.926-1.179V735.227l-1.926,1.179Z" transform="translate(-4020.216 -735.227)" fill="#5869a3"/>
          </g>
          <g id="Group_4539" data-name="Group 4539" transform="translate(0 45.975)">
            <path id="Path_7111" data-name="Path 7111" d="M4015.948,807.569l1.925-1.179V734.406l-1.925,1.179Z" transform="translate(-4015.948 -734.406)" fill="#5869a3"/>
          </g>
          <g id="Group_4540" data-name="Group 4540" transform="translate(91.871 19.398)">
            <path id="Path_7112" data-name="Path 7112" d="M4067.164,763.08l1.925-1.179V719.589l-1.925,1.179Z" transform="translate(-4067.164 -719.589)" fill="#5869a3"/>
          </g>
          <g id="Group_4541" data-name="Group 4541" transform="translate(84.215 8.111)">
            <path id="Path_7113" data-name="Path 7113" d="M4062.9,772.761l1.925-1.179V713.3l-1.925,1.179Z" transform="translate(-4062.896 -713.297)" fill="#5869a3"/>
          </g>
          <g id="Group_4542" data-name="Group 4542" transform="translate(76.559 18.961)">
            <path id="Path_7114" data-name="Path 7114" d="M4058.628,772.648l1.925-1.179V719.346l-1.925,1.179Z" transform="translate(-4058.628 -719.346)" fill="#5869a3"/>
          </g>
          <g id="Group_4543" data-name="Group 4543" transform="translate(68.903 10.801)">
            <path id="Path_7115" data-name="Path 7115" d="M4054.359,780.946l1.926-1.179V714.8l-1.926,1.179Z" transform="translate(-4054.359 -714.796)" fill="#5869a3"/>
          </g>
          <g id="Group_4544" data-name="Group 4544" transform="translate(61.247 21.256)">
            <path id="Path_7116" data-name="Path 7116" d="M4050.092,781.007l1.925-1.179v-59.2l-1.925,1.179Z" transform="translate(-4050.092 -720.625)" fill="#5869a3"/>
          </g>
          <g id="Group_4545" data-name="Group 4545" transform="translate(53.591 15.391)">
            <path id="Path_7117" data-name="Path 7117" d="M4045.824,788.29l1.926-1.179V717.356l-1.926,1.179Z" transform="translate(-4045.824 -717.356)" fill="#5869a3"/>
          </g>
          <g id="Group_4546" data-name="Group 4546" transform="translate(45.935 25.519)">
            <path id="Path_7118" data-name="Path 7118" d="M4041.556,788.5l1.926-1.179V723l-1.926,1.179Z" transform="translate(-4041.556 -723.002)" fill="#5869a3"/>
          </g>
          <g id="Group_4547" data-name="Group 4547" transform="translate(38.279 34.27)">
            <path id="Path_7119" data-name="Path 7119" d="M4037.288,789.311l1.926-1.179V727.88l-1.926,1.179Z" transform="translate(-4037.288 -727.88)" fill="#5869a3"/>
          </g>
          <g id="Group_4548" data-name="Group 4548" transform="translate(30.624 29.191)">
            <path id="Path_7120" data-name="Path 7120" d="M4033.02,796.246l1.925-1.179V725.049l-1.925,1.179Z" transform="translate(-4033.02 -725.049)" fill="#5869a3"/>
          </g>
          <g id="Group_4549" data-name="Group 4549" transform="translate(22.968 38.532)">
            <path id="Path_7121" data-name="Path 7121" d="M4028.752,796.8l1.926-1.179V730.256l-1.926,1.179Z" transform="translate(-4028.752 -730.256)" fill="#5869a3"/>
          </g>
          <g id="Group_4550" data-name="Group 4550" transform="translate(15.312 37.583)">
            <path id="Path_7122" data-name="Path 7122" d="M4024.484,801.907l1.925-1.179v-71l-1.925,1.179Z" transform="translate(-4024.484 -729.727)" fill="#5869a3"/>
          </g>
          <g id="Group_4551" data-name="Group 4551" transform="translate(0.689)">
            <path id="Path_7123" data-name="Path 7123" d="M4024.558,754.8l-8.226-3.133.548-1.44,7.085,2.7,7.659-11.312,7.665,2.984,7.752-11.118,7.757,5.478,7.139-7.182,8.111-12.746,7.649,7.234,7.7-12.425,7.637,8.466,7.9-13.531,8.223,15.143-1.354.736-6.916-12.74L4093.3,724.9l-7.676-8.508-7.614,12.288-7.664-7.25-7.258,11.37-8.115,8.165-7.556-5.335-7.558,10.841-7.649-2.978Z" transform="translate(-4016.332 -708.775)" fill="#5869a3"/>
          </g>
          <g id="Group_4552" data-name="Group 4552" transform="translate(92.117 14.479)">
            <path id="Path_7124" data-name="Path 7124" d="M4067.3,718.266c0,.44.356.578.8.309a1.727,1.727,0,0,0,.794-1.283c0-.438-.357-.576-.794-.308A1.723,1.723,0,0,0,4067.3,718.266Z" transform="translate(-4067.302 -716.847)" fill="#5869a3"/>
          </g>
          <g id="Group_4553" data-name="Group 4553" transform="translate(84.436 0.671)">
            <path id="Path_7125" data-name="Path 7125" d="M4063.019,710.569c0,.44.355.578.795.309a1.72,1.72,0,0,0,.794-1.282c0-.439-.354-.578-.794-.309A1.722,1.722,0,0,0,4063.019,710.569Z" transform="translate(-4063.019 -709.149)" fill="#5869a3"/>
          </g>
          <g id="Group_4554" data-name="Group 4554" transform="translate(76.726 13.767)">
            <path id="Path_7126" data-name="Path 7126" d="M4058.722,717.87c0,.438.356.576.8.307a1.721,1.721,0,0,0,.794-1.281c0-.44-.357-.578-.794-.309A1.721,1.721,0,0,0,4058.722,717.87Z" transform="translate(-4058.722 -716.45)" fill="#5869a3"/>
          </g>
          <g id="Group_4555" data-name="Group 4555" transform="translate(69.07 5.412)">
            <path id="Path_7127" data-name="Path 7127" d="M4054.453,713.211c0,.44.357.578.8.309a1.729,1.729,0,0,0,.794-1.281c0-.439-.357-.578-.794-.309A1.725,1.725,0,0,0,4054.453,713.211Z" transform="translate(-4054.453 -711.792)" fill="#5869a3"/>
          </g>
          <g id="Group_4556" data-name="Group 4556" transform="translate(61.415 17.604)">
            <path id="Path_7128" data-name="Path 7128" d="M4050.185,720.008c0,.439.357.578.8.309a1.727,1.727,0,0,0,.795-1.281c0-.44-.357-.578-.795-.309A1.725,1.725,0,0,0,4050.185,720.008Z" transform="translate(-4050.185 -718.589)" fill="#5869a3"/>
          </g>
          <g id="Group_4557" data-name="Group 4557" transform="translate(53.759 10.558)">
            <path id="Path_7129" data-name="Path 7129" d="M4045.917,716.081c0,.44.357.578.8.309a1.726,1.726,0,0,0,.795-1.282c0-.44-.357-.578-.795-.308A1.725,1.725,0,0,0,4045.917,716.081Z" transform="translate(-4045.917 -714.661)" fill="#5869a3"/>
          </g>
          <g id="Group_4558" data-name="Group 4558" transform="translate(46.103 22.521)">
            <path id="Path_7130" data-name="Path 7130" d="M4041.649,722.75c0,.439.357.578.8.309a1.724,1.724,0,0,0,.8-1.283c0-.439-.356-.577-.8-.308A1.727,1.727,0,0,0,4041.649,722.75Z" transform="translate(-4041.649 -721.33)" fill="#5869a3"/>
          </g>
          <g id="Group_4559" data-name="Group 4559" transform="translate(38.447 30.077)">
            <path id="Path_7131" data-name="Path 7131" d="M4037.381,726.961c0,.439.357.578.794.308a1.724,1.724,0,0,0,.8-1.281c0-.439-.357-.578-.8-.309A1.727,1.727,0,0,0,4037.381,726.961Z" transform="translate(-4037.381 -725.542)" fill="#5869a3"/>
          </g>
          <g id="Group_4560" data-name="Group 4560" transform="translate(30.791 24.833)">
            <path id="Path_7132" data-name="Path 7132" d="M4033.114,724.039c0,.44.356.578.794.309a1.726,1.726,0,0,0,.8-1.283c0-.439-.358-.577-.8-.308A1.726,1.726,0,0,0,4033.114,724.039Z" transform="translate(-4033.114 -722.619)" fill="#5869a3"/>
          </g>
          <g id="Group_4561" data-name="Group 4561" transform="translate(23.135 35.79)">
            <path id="Path_7133" data-name="Path 7133" d="M4028.845,730.146c0,.439.357.578.795.309a1.724,1.724,0,0,0,.8-1.283c0-.438-.356-.576-.8-.307A1.723,1.723,0,0,0,4028.845,730.146Z" transform="translate(-4028.845 -728.727)" fill="#5869a3"/>
          </g>
          <g id="Group_4562" data-name="Group 4562" transform="translate(15.479 32.929)">
            <path id="Path_7134" data-name="Path 7134" d="M4024.577,728.553c0,.438.356.576.795.307a1.72,1.72,0,0,0,.8-1.281c0-.439-.358-.577-.8-.308A1.726,1.726,0,0,0,4024.577,728.553Z" transform="translate(-4024.577 -727.133)" fill="#5869a3"/>
          </g>
          <g id="Group_4563" data-name="Group 4563" transform="translate(7.824 44.17)">
            <path id="Path_7135" data-name="Path 7135" d="M4020.31,734.819c0,.44.355.578.794.308a1.723,1.723,0,0,0,.8-1.283c0-.439-.357-.578-.8-.309A1.724,1.724,0,0,0,4020.31,734.819Z" transform="translate(-4020.31 -733.399)" fill="#5869a3"/>
          </g>
          <g id="Group_4564" data-name="Group 4564" transform="translate(0.168 41.241)">
            <path id="Path_7136" data-name="Path 7136" d="M4016.041,733.185c0,.439.355.578.794.309a1.725,1.725,0,0,0,.8-1.283c0-.438-.357-.576-.8-.307A1.715,1.715,0,0,0,4016.041,733.185Z" transform="translate(-4016.041 -731.766)" fill="#5869a3"/>
          </g>
        </g>
        <g id="Group_4570" data-name="Group 4570" transform="translate(9.135 82.15)">
          <path id="Path_7137" data-name="Path 7137" d="M4003.077,757.671l13.864-8.488V735.319l-13.864,8.488Z" transform="translate(-3965.823 -735.319)" fill="#5869a3"/>
          <g id="Group_4566" data-name="Group 4566" transform="translate(0 10.349)">
            <path id="Path_7138" data-name="Path 7138" d="M3982.309,763.628l34.215-20.948v-1.59l-34.215,20.948Z" transform="translate(-3982.309 -741.089)" fill="#5869a3"/>
            <path id="Path_7139" data-name="Path 7139" d="M3984.081,763.962l31.036-19v-1.59l-31.036,19Z" transform="translate(-3980.903 -739.279)" fill="#5869a3"/>
            <path id="Path_7140" data-name="Path 7140" d="M3989.029,759.22v1.585l22.157-13.561v-1.6Z" transform="translate(-3976.975 -737.469)" fill="#5869a3"/>
            <path id="Path_7141" data-name="Path 7141" d="M3995.711,754.157v1.586l10.172-6.224v-1.585Z" transform="translate(-3971.671 -735.656)" fill="#5869a3"/>
          </g>
          <g id="Group_4567" data-name="Group 4567" transform="translate(0 31.341)">
            <path id="Path_7142" data-name="Path 7142" d="M3982.309,775.331l34.215-20.949v-1.59l-34.215,20.949Z" transform="translate(-3982.309 -752.792)" fill="#5869a3"/>
            <path id="Path_7143" data-name="Path 7143" d="M3984.081,775.665l31.036-19v-1.59l-31.036,19Z" transform="translate(-3980.903 -750.981)" fill="#5869a3"/>
            <path id="Path_7144" data-name="Path 7144" d="M3983.021,779.109l32.938-20.166v-1.59l-32.937,20.166Z" transform="translate(-3981.743 -749.171)" fill="#5869a3"/>
            <path id="Path_7145" data-name="Path 7145" d="M3988.685,775.17l22.777-13.946v-1.59l-22.777,13.946Z" transform="translate(-3977.248 -747.36)" fill="#5869a3"/>
          </g>
          <g id="Group_4568" data-name="Group 4568" transform="translate(0 60.157)">
            <path id="Path_7146" data-name="Path 7146" d="M3982.31,781.983v1.586l21.449-13.127v-1.585Z" transform="translate(-3982.31 -768.856)" fill="#5869a3"/>
            <path id="Path_7147" data-name="Path 7147" d="M3984.082,782.322v1.586l18.269-11.187v-1.585Z" transform="translate(-3980.902 -767.047)" fill="#5869a3"/>
            <path id="Path_7148" data-name="Path 7148" d="M3983.023,785.762v1.6l20.169-12.349v-1.6Z" transform="translate(-3981.743 -765.239)" fill="#5869a3"/>
            <path id="Path_7149" data-name="Path 7149" d="M3988.683,781.822v1.586l10.016-6.125V775.7Z" transform="translate(-3977.25 -763.426)" fill="#5869a3"/>
          </g>
          <g id="Group_4569" data-name="Group 4569" transform="translate(0 81.143)">
            <path id="Path_7150" data-name="Path 7150" d="M3982.31,793.683v1.6l21.449-13.127v-1.6Z" transform="translate(-3982.31 -780.555)" fill="#5869a3"/>
            <path id="Path_7151" data-name="Path 7151" d="M3984.082,794.017v1.6l18.269-11.187v-1.586Z" transform="translate(-3980.902 -778.742)" fill="#5869a3"/>
            <path id="Path_7152" data-name="Path 7152" d="M3983.023,797.467v1.586l20.169-12.34v-1.6Z" transform="translate(-3981.743 -776.934)" fill="#5869a3"/>
            <path id="Path_7153" data-name="Path 7153" d="M3988.683,793.531v1.585l10.016-6.125v-1.6Z" transform="translate(-3977.25 -775.125)" fill="#5869a3"/>
          </g>
        </g>
        <g id="Group_4575" data-name="Group 4575" transform="translate(34.584 130.609)">
          <g id="Group_4571" data-name="Group 4571" transform="translate(20.859)">
            <path id="Path_7154" data-name="Path 7154" d="M4012.761,762.335v28.754l-4.636,2.676V765.011Z" transform="translate(-4008.125 -762.335)" fill="#ff6355"/>
          </g>
          <g id="Group_4572" data-name="Group 4572" transform="translate(13.906 7.928)">
            <path id="Path_7155" data-name="Path 7155" d="M4008.884,766.754V791.6l-4.635,2.676V769.431Z" transform="translate(-4004.249 -766.754)" fill="#ff6355"/>
          </g>
          <g id="Group_4573" data-name="Group 4573" transform="translate(6.953 15.855)">
            <path id="Path_7156" data-name="Path 7156" d="M4005.008,771.174V792.1l-4.635,2.676V773.85Z" transform="translate(-4000.372 -771.174)" fill="#ff6355"/>
          </g>
          <g id="Group_4574" data-name="Group 4574" transform="translate(0 23.783)">
            <path id="Path_7157" data-name="Path 7157" d="M4001.132,775.593v17.015l-4.637,2.676V778.27Z" transform="translate(-3996.496 -775.593)" fill="#ff6355"/>
          </g>
        </g>
        <g id="Group_4576" data-name="Group 4576" transform="translate(50.426 108.263)">
          <path id="Path_7158" data-name="Path 7158" d="M4009.956,750.333a7.288,7.288,0,0,0-3.308,5.728c.006,1.64.91,2.517,2.172,2.327a10.392,10.392,0,0,0-3.492,7.218l0,1.379,9.328-5.385,0-1.38c-.007-2.5-1.506-3.742-3.523-3.168a7.351,7.351,0,0,0,2.151-4.822C4013.279,750.123,4011.788,749.274,4009.956,750.333Z" transform="translate(-4005.328 -749.877)" fill="#fff"/>
        </g>
      </g>
      <g id="Group_4583" data-name="Group 4583" transform="translate(296.517 265.108)">
        <g id="Group_4578" data-name="Group 4578" transform="translate(0 24.388)">
          <path id="Path_7159" data-name="Path 7159" d="M4101.091,748.988l-3.634-9.031s-1.515-4.275-2.76-5.119-2.576-.025-3.691-1.076-1.909-.384-1.909-.384-1.311-1.961-2.439-2.3a2.4,2.4,0,0,0-2.791,1.912c-.4,1.4,1.472,3.921,2.248,4.949s4.014,2.5,5.184,3.041,1.917.723,2.438,2.266l3.906,10.217" transform="translate(-4083.812 -731.003)" fill="#fbb686"/>
          <path id="Path_7160" data-name="Path 7160" d="M4116.667,733.406l-4.8,21.3c-4.628,7.457-7.88,13.581-12.28,12.888-6.429-1.008-9.4-21.05-9.4-21.05a11.7,11.7,0,0,0,4.79-3.154l5.258,10.991c.869-1.311,2.732-4.411,4.749-7.749.011-.013.011-.034.021-.045,2.947-4.867,6.221-10.242,7.24-11.369A6.244,6.244,0,0,1,4116.667,733.406Z" transform="translate(-4078.751 -729.095)" fill="#101542"/>
          <path id="Path_7161" data-name="Path 7161" d="M4100.537,740.778c-4.315,7.785-3.1,11.161-3.1,11.161l-1.654-3.412C4096.656,747.216,4098.52,744.116,4100.537,740.778Z" transform="translate(-4074.305 -723.243)" fill="#090d30"/>
        </g>
        <g id="Group_4579" data-name="Group 4579" transform="translate(34.511 79.01)">
          <path id="Path_7162" data-name="Path 7162" d="M4112.3,761.83c-3.356,4.847-8.145,10.939-8.145,10.939a7.95,7.95,0,0,0-1.106-1.421c1.393-1.9,5.285-7.344,4.892-9.179a6.911,6.911,0,0,0-.19-.716Z" transform="translate(-4103.051 -761.453)" fill="#ef9e1d"/>
        </g>
        <g id="Group_4580" data-name="Group 4580" transform="translate(25.089 169.37)">
          <path id="Path_7163" data-name="Path 7163" d="M4114.89,817.123a8.469,8.469,0,0,1-.1,2,16.939,16.939,0,0,1-3.153,2.441c-.433.142-.272-.075-.671.2s-2.112,1.677-3.33,2.515a10.53,10.53,0,0,1-4.584,1.876c-1.875.26-4.787-.276-5.01-2.323s2.793-2.436,2.793-2.436" transform="translate(-4097.618 -807.623)" fill="#170960"/>
          <path id="Path_7164" data-name="Path 7164" d="M4108.368,813.92c-.427.266-.659.249-1.388,1.467-.633,1.06-2.741,4.33-4.677,5.677s-4.218,2.534-4.459,3.684a3.346,3.346,0,0,0,2.356,3.614c2.726.952,5.721-.443,7.791-1.961s4.786-3.624,6.162-4.684c2.043-1.571.841-6.088.017-7.044C4113.079,813.405,4109.744,813.07,4108.368,813.92Z" transform="translate(-4097.798 -810.539)" fill="#090d30"/>
          <path id="Path_7165" data-name="Path 7165" d="M4103.65,811.827l-.35,4.739a1.018,1.018,0,0,0,.3.809c.734.707,2.646,1.953,5.482-.464a1.216,1.216,0,0,0,.4-.721l.582-3.525" transform="translate(-4093.435 -811.827)" fill="#ffe1bd"/>
        </g>
        <path id="Path_7166" data-name="Path 7166" d="M4124.7,777.346c-.72,4.063-2.429,10.133-4.167,15.965-2.309,7.767-4.648,15.1-4.648,16.582,0,2.594,2.787,9.609,2.685,16.339-.031,2.5-1.139,7.076-2.52,11.844-.03.134-.06.269-.089.375-2.308,7.961-5.292,16.295-5.292,16.295a7.221,7.221,0,0,1-3.883.54c-.929-.09-3.178-.135-3.178-1.394,0,0,1.65-29.893.585-40.177s-1.47-39.189-1.47-39.189-.165-5.591.18-9.758c.391-4.723,19.55-3.419,19.55-3.419A24.794,24.794,0,0,1,4124.7,777.346Z" transform="translate(-4068.835 -682.657)" fill="#34478b"/>
        <path id="Path_7167" data-name="Path 7167" d="M4110.727,800.419c0,2.594,2.787,9.609,2.684,16.339-.031,2.5-1.14,7.077-2.519,11.844a62.606,62.606,0,0,0,.75-13.478c-.315-3.627-2.25-8.754-2.443-11.557s.612-4.7.943-8.321c.418-4.545.96-22.126.96-22.126l4.273,10.718C4113.065,791.6,4110.727,798.933,4110.727,800.419Z" transform="translate(-4063.681 -673.183)" fill="#100942"/>
        <g id="Group_4581" data-name="Group 4581" transform="translate(38.159 177.449)">
          <path id="Path_7168" data-name="Path 7168" d="M4122.159,821.758a8.734,8.734,0,0,1-.2,1.97,16.77,16.77,0,0,1-3.181,2.319c-.433.127-.267-.081-.669.174s-2.132,1.6-3.36,2.389a10.438,10.438,0,0,1-4.577,1.72c-1.857.2-4.717-.411-4.88-2.436s2.829-2.325,2.829-2.325" transform="translate(-4104.921 -812.023)" fill="#170960"/>
          <path id="Path_7169" data-name="Path 7169" d="M4115.842,818.284a3.3,3.3,0,0,0-1.413,1.408c-.654,1.03-2.831,4.2-4.778,5.471s-4.236,2.38-4.506,3.509a3.3,3.3,0,0,0,2.221,3.634c2.666,1.019,5.662-.273,7.748-1.713s4.825-3.44,6.215-4.447c2.063-1.492,1.221-5.914.5-6.928S4115.842,818.284,4115.842,818.284Z" transform="translate(-4105.084 -814.782)" fill="#090d30"/>
          <path id="Path_7170" data-name="Path 7170" d="M4111.2,816.331l-.351,4.739a1.021,1.021,0,0,0,.3.811c.733.705,2.646,1.952,5.482-.466a1.218,1.218,0,0,0,.4-.721l.582-3.525" transform="translate(-4100.509 -816.331)" fill="#ffe1bd"/>
        </g>
        <path id="Path_7171" data-name="Path 7171" d="M4131.136,766.347a24.8,24.8,0,0,1,2.244,15.993c-1.666,9.484-8.811,29.956-8.811,32.552s2.787,9.611,2.69,16.34-7.9,28.516-7.9,28.516a7.366,7.366,0,0,1-3.891.542c-.931-.088-3.179-.142-3.179-1.4,0,0,1.649-29.9.592-40.179s-.88-38.866-.88-38.866-2.617-7.631-3.193-12.341S4131.136,766.347,4131.136,766.347Z" transform="translate(-4063.98 -679.577)" fill="#34478b"/>
        <path id="Path_7172" data-name="Path 7172" d="M4105.545,729.278c-.077,2.176.323,9.59.323,9.59s4.309-2.536,6.647-2.5-1.346-6.892-1.346-6.892" transform="translate(-4066.569 -707.983)" fill="#300e70"/>
        <path id="Path_7173" data-name="Path 7173" d="M4101.211,755.064c.1.266.2.531.307.789v.007s.006,0,.006.009a17.957,17.957,0,0,0,2.181,3.792,9.988,9.988,0,0,1,1.427,2.639h.007a10.5,10.5,0,0,1,.6,2.673,72.593,72.593,0,0,1-1.4,21.848s8.6,9.8,19.267,9.8,14.006-4.7,14.006-4.7-2.6-6.447-4.418-10.521c-1.313-2.945-1.336-9.531-.33-14.763s7.148-19.231,2.946-25.285c-4.282-6.19-19.989-7.607-26.992-7.937a4.147,4.147,0,0,0-4.33,4.42c.12,2.013.5,4.129-.2,5.932C4103.007,747.047,4099.8,751.112,4101.211,755.064Z" transform="translate(-4070.278 -704.707)" fill="#101542"/>
        <path id="Path_7174" data-name="Path 7174" d="M4107.9,752.833c2.166.735,6.954,2.217,11.048,3.392a10.337,10.337,0,0,0,4.3-.493c1.783-.755,2.286-6.522,2.286-6.524.036-2.7.083-4.628.083-4.628l6.377,12.745-1.81,9.995-11.235,4.831,6.667-8.293v-1.824a1.749,1.749,0,0,0-1.188-1.573c-2.008-.687-5.862-2.565-8.408-3.328-3.349-1.006-9.388-2.569-11.167-3.7h-.007a10.041,10.041,0,0,0-1.427-2.64,17.893,17.893,0,0,1-2.181-3.79C4101.393,747.263,4104.058,751.538,4107.9,752.833Z" transform="translate(-4069.984 -695.836)" fill="#090d30"/>
        <path id="Path_7175" data-name="Path 7175" d="M4108.117,735.117s-1.911,2.1.051,3.207l.886-1.848Z" transform="translate(-4065.181 -703.348)" fill="#090d30"/>
        <path id="Path_7176" data-name="Path 7176" d="M4116.261,729.172s2.692,7.995,2.762,9.351-4.375,7.053-10.346,4.52c0,0,.333-7.729-2.036-10.67" transform="translate(-4065.69 -708.067)" fill="#fbb686"/>
        <path id="Path_7177" data-name="Path 7177" d="M4104.316,724.713a35.176,35.176,0,0,0,.445,12.515c1.522,5.869,3.829,8.122,5.16,8.248s8.681-2.561,11.155-8.054,2.848-10.077,1.943-13.41-6.533-6.361-10.562-5.8S4104.846,720.88,4104.316,724.713Z" transform="translate(-4067.829 -716.818)" fill="#fbb686"/>
        <path id="Path_7178" data-name="Path 7178" d="M4123.983,721.9c-5.751-7.351-15.458-4.678-19.17.807-.089.145-.169.269-.255.407a5.179,5.179,0,0,0,3.438,7.476c1.576.389,10.573,1.177,10.685,3.8.034.811.005,1.677-.011,2.641l-.007.178c-.054,1.568-.16,4.807-.09,7.589h0s-.052,11.211.736,11.758,3.65-6.662,6.383-7.367C4125.689,749.191,4129.75,729.272,4123.983,721.9Z" transform="translate(-4067.847 -717.406)" fill="#090d30"/>
        <path id="Path_7179" data-name="Path 7179" d="M4111.825,727.7a2.3,2.3,0,0,1,2.125-1.058c1.261.251,1.284,2.2.824,3.729a2.826,2.826,0,0,1-2.943,2.059" transform="translate(-4061.575 -710.097)" fill="#fbb686"/>
        <g id="Group_4582" data-name="Group 4582" transform="translate(34.106 34.802)">
          <path id="Path_7180" data-name="Path 7180" d="M4119.8,764.813s-7.368,3.344-9.107,5.266c-.036.025-5.128-3.327-5.128-3.327.259-.106.52-.2.768-.294,2.495-.911,9.636-6.291,9.636-6.291Z" transform="translate(-4100.651 -718.266)" fill="#fbb686"/>
          <path id="Path_7181" data-name="Path 7181" d="M4112.8,762.309s-1.468,1.026-1.7,1.117a7.342,7.342,0,0,0-2.529.51c-1.061.549-1.64,1.738-2.274,1.986s-2.809.5-3.386,1.125,2.037,4.7,2.868,5.193,2.853.19,4.434-.425,2.393-3.164,3.086-3.844a14.486,14.486,0,0,1,2.036-1.5" transform="translate(-4102.825 -716.566)" fill="#fbb686"/>
          <path id="Path_7182" data-name="Path 7182" d="M4108.994,762.995a25.532,25.532,0,0,0-2.78.068,8.232,8.232,0,0,0-2.168,1.32c-.1.181.263.725.93.57a13.608,13.608,0,0,1,2.031-.172" transform="translate(-4101.87 -716.028)" fill="#fbb686"/>
          <path id="Path_7183" data-name="Path 7183" d="M4125.5,736.808s4.541-.034,5.095,7.45.157,18.2.09,22.433.142,6.37-.629,7.574c-1.479,2.312-16.355,11.3-16.355,11.3a7.433,7.433,0,0,0-3.812-5.268s6.161-5.584,10.265-9.118a2.776,2.776,0,0,0,.93-2.531c-.7-4.512-2.661-17.7-2.548-22.1C4118.67,741.208,4122.03,737.19,4125.5,736.808Z" transform="translate(-4097.221 -736.808)" fill="#101542"/>
        </g>
        <path id="Path_7184" data-name="Path 7184" d="M4104.288,722.475a7.516,7.516,0,0,0,0,6.21s.3-4.011,2.615-4.623" transform="translate(-4068.111 -713.383)" fill="#090d30"/>
      </g>
      <g id="Group_4588" data-name="Group 4588" transform="translate(462.095 328.869)">
        <path id="Path_7185" data-name="Path 7185" d="M4186.961,850.343c-.2,4.262.145,4.985,1.684,9.792,2.117,6.625,1.962,5.147,4.537,5.911s1.571,2.82.173,5.625-6.992.429-10.42-.526-1.822-3.979-3.3-7.01,1.628-2.284,1.318-12.25c-.005-.185-.025-.35-.033-.531C4182.488,852.548,4185.761,851.73,4186.961,850.343Z" transform="translate(-4173.642 -675.645)" fill="#f89c69"/>
        <path id="Path_7186" data-name="Path 7186" d="M4193.378,866.93c-1.4,2.8-6.992.429-10.42-.526s-1.784-4-3.3-7.01a2.619,2.619,0,0,1-.028-2.89,8.253,8.253,0,0,1,8.5,3.688c1.346,2.267,3.122,4.368,4.122,3.259.82-.913-.333-1.762-1.159-2.66a18.631,18.631,0,0,0,2.107.513C4195.773,862.076,4194.776,864.125,4193.378,866.93Z" transform="translate(-4173.665 -670.904)" fill="#3e4357"/>
        <path id="Path_7187" data-name="Path 7187" d="M4179.467,864.487c.049-.3.107-.6.16-.908.08-.438.167-.872.259-1.3.054-.246.108-.49.167-.732.162-.674.5-3.286.5-3.286,1.508-11.444-.087-24.331-1.511-31.667-.018-.14-.041-.274-.06-.405a35.828,35.828,0,0,1-1-8.574c0-.6.016-1.193.043-1.778V815.8c0-4.169,2.045-6.174,3.014-8.547.354-.965.248-2.264.688-3.04.43-.881.682-2.761.807-2.614a5.366,5.366,0,0,1,2.1-1.424,11.868,11.868,0,0,1,1.152-3.236c4.356-4.861,5.359-1.526,8.211,1.069a115.357,115.357,0,0,1,6.506,20c1.083,5.808-11.4,58.911-12.11,69.976-.2,3.028-.348,5.121-.423,6.727-1.2,1.387-4.474,2.2-6.04,1.012-.046-.951-4.014-19.391-2.624-30.015C4179.351,865.292,4179.4,864.887,4179.467,864.487Z" transform="translate(-4174.642 -720.007)" fill="#fbb686"/>
        <path id="Path_7188" data-name="Path 7188" d="M4187.381,884.181c-.716,11.062-.859,9.9,1.259,16.519s1.963,5.146,4.537,5.91,1.571,2.82.173,5.625-6.992.429-10.42-.526-1.821-3.979-3.3-7.01a3.343,3.343,0,0,1-.389-1.333,15.516,15.516,0,0,1,6.049,1.153c1.131.542-.669-4.388-.864-5.419s.578-29.82,1-38.964,5.037-28.647,3.285-32.957c-5.376-13.233-.7-17.2,6.5-27.94,1.507,5.306,3.853,12.727,4.273,14.966C4200.575,820.014,4188.1,873.117,4187.381,884.181Z" transform="translate(-4173.638 -716.21)" fill="#f89c69"/>
        <path id="Path_7189" data-name="Path 7189" d="M4179.276,857.934a4.247,4.247,0,0,1,.667-1.846c.768-.809,3.57-.361,5.211.6.845.5,1.759,1.727,2.894,3.9a1.451,1.451,0,0,1,.078.124c1.345,2.267,3.122,4.368,4.122,3.259.82-.913-.334-1.762-1.159-2.66a18.646,18.646,0,0,0,2.106.513c2.568.771,1.571,2.82.173,5.625s-6.992.429-10.42-.526c-2.468-.689-2.306-2.465-2.592-4.529a7.675,7.675,0,0,0-.707-2.481,3.955,3.955,0,0,1-.428-1.229A5.789,5.789,0,0,1,4179.276,857.934Z" transform="translate(-4173.655 -671.418)" fill="#090d30"/>
        <path id="Path_7190" data-name="Path 7190" d="M4186.792,859.974c1.925,2.965,4.126,7.2,5.9,5.309a28.573,28.573,0,0,0,1.9-2.26,17.926,17.926,0,0,1-1.268,2.933c-1.4,2.8-6.992.429-10.421-.526s-1.822-3.979-3.3-7.01a4.2,4.2,0,0,1-.323-.879C4181.975,857.6,4185.534,858.034,4186.792,859.974Z" transform="translate(-4173.609 -669.93)" fill="#3e4357"/>
        <path id="Path_7191" data-name="Path 7191" d="M4186.792,859.974c1.925,2.965,4.126,7.2,5.9,5.309a28.573,28.573,0,0,0,1.9-2.26,17.926,17.926,0,0,1-1.268,2.933c-1.4,2.8-6.992.429-10.421-.526s-1.822-3.979-3.3-7.01a4.2,4.2,0,0,1-.323-.879C4181.975,857.6,4185.534,858.034,4186.792,859.974Z" transform="translate(-4173.609 -669.93)" fill="#090d30"/>
        <path id="Path_7192" data-name="Path 7192" d="M4198.763,854.246a23.247,23.247,0,0,0,1.173,9.321c2.337,7.041,4.4,11.859,6.639,12.108s6.243,2.671,3.34,4.884-4.921,2.276-8.593.269-4.667-7.817-9.686-8.436c-2.674-.328-3.866-2.235-2.828-4.709s2.51-4.589,2.295-11.487c0-.074-.01-.144-.013-.219C4192.626,857.661,4197.441,856.058,4198.763,854.246Z" transform="translate(-4166.342 -672.547)" fill="#f89c69"/>
        <path id="Path_7193" data-name="Path 7193" d="M4189.141,832.283c-1.25-2.458-9.7-13.192-3.773-25.565,7.12-14.842,12.69-15.54,17.61-6.678,3.35,6.031,5.92,12.476,6.331,25.571.463,14.8-6.242,73.05-6.452,76.241-1.322,1.812-6.137,3.415-7.672,1.731,0-.056-.005-.124-.008-.183l-.025.183c-1.7-8.626-4.171-23.807-2.286-36.349-.123-2.346-.221-4.5-.28-6.345C4192.436,856.169,4189.9,833.777,4189.141,832.283Z" transform="translate(-4170.435 -720.152)" fill="#fbb686" fill-rule="evenodd"/>
        <path id="Path_7194" data-name="Path 7194" d="M4198.864,799.974c3.349,6.031,5.919,12.476,6.33,25.57.463,14.8-6.242,73.05-6.452,76.241a23.238,23.238,0,0,0,1.174,9.32c2.337,7.041,4.4,11.859,6.638,12.108s6.242,2.671,3.341,4.884-4.921,2.276-8.593.269-4.667-7.817-9.686-8.436c-1.866-.228-2.983-1.234-3.156-2.653l0,0c1.048-.4,3.562,1.028,5.254,1.571,2.373.764,1.414-3.984,2.039-10.124s-.706-32.57,1.5-76.4c.8-15.836-4.139-19.647-4.158-23.809a105.425,105.425,0,0,0-1.265-14.067,5.462,5.462,0,0,1,1.6-.057h0C4195.35,794.959,4197.148,796.882,4198.864,799.974Z" transform="translate(-4166.321 -720.087)" fill="#f89c69"/>
        <path id="Path_7195" data-name="Path 7195" d="M4188.437,864.66a10.878,10.878,0,0,1,1.342-4.406c4.081-.174,8.541,4.875,10.586,8.556l.5.813-.011,0c.18.247.357.495.513.748,1.622,2.615,3.223,4.6,5.633,3.164,2.125-1.263.935-1.774-.533-2.653.037.007.072.023.109.029,2.237.248,6.242,2.671,3.341,4.884s-4.921,2.276-8.593.269-4.667-7.817-9.686-8.436c-1.99-.244-3.128-1.372-3.161-2.954Z" transform="translate(-4166.34 -667.781)" fill="#090d30" fill-rule="evenodd"/>
        <g id="Group_4584" data-name="Group 4584" transform="translate(0.005 66.28)">
          <path id="Path_7196" data-name="Path 7196" d="M4195.194,858.645c-10.439-1.911-17.834-7.392-19.073-11.294,0-42.2,9.132-38.322,9.132-48.757,0-15.218,14.171-7.808,20.564,2.124,3.905,6.067,12.532,13.374,12.532,51.4C4216.137,856.421,4205.852,860.595,4195.194,858.645Z" transform="translate(-4176.121 -789.902)" fill="#34478b"/>
          <path id="Path_7197" data-name="Path 7197" d="M4194.424,825.279c.079-6.454-.977-11.234-1.267-14.743-.244-2.935-1.676-5.041-2.863-6.883-1.758-2.732-1.293-7.8.3-10.976a32.492,32.492,0,0,1,4.864,5.839c3.905,6.067,12.532,13.26,12.532,51.4-1.659,3.227-7.867,6.384-15.364,6.935l-.011-6.883C4192.327,842.844,4194.361,830.12,4194.424,825.279Z" transform="translate(-4165.764 -787.699)" fill="#22326b"/>
        </g>
        <path id="Path_7198" data-name="Path 7198" d="M4198.748,868.261c3.064,3.884,4.476,8.221,9.167,5.446a19.486,19.486,0,0,0,2.937-2.1,1.962,1.962,0,0,1-.975,1.964c-2.9,2.214-4.921,2.276-8.593.269s-4.667-7.817-9.687-8.436c-1.728-.212-2.822-1.089-3.113-2.346C4191.171,863.935,4196.018,864.8,4198.748,868.261Z" transform="translate(-4166.302 -665.555)" fill="#3e4357"/>
        <path id="Path_7199" data-name="Path 7199" d="M4198.748,868.261c3.064,3.884,4.476,8.221,9.167,5.446a19.486,19.486,0,0,0,2.937-2.1,1.962,1.962,0,0,1-.975,1.964c-2.9,2.214-4.921,2.276-8.593.269s-4.667-7.817-9.687-8.436c-1.728-.212-2.822-1.089-3.113-2.346C4191.171,863.935,4196.018,864.8,4198.748,868.261Z" transform="translate(-4166.302 -665.555)" fill="#090d30"/>
        <path id="Path_7200" data-name="Path 7200" d="M4190.856,864.127c1.658.739,2.28-.07,1.7,1.86s.326,9.516-.061,9.923a.792.792,0,0,1-1.271.041c-.466-.434-.6-8.736-1.821-10.61S4189.3,863.432,4190.856,864.127Z" transform="translate(-4165.983 -665.033)" fill="#090d30"/>
        <path id="Path_7201" data-name="Path 7201" d="M4181.939,858.439c1.659.737,2.278-.074,1.7,1.858s.323,9.516-.063,9.927a.8.8,0,0,1-1.273.041c-.465-.436-.592-8.739-1.818-10.614S4180.381,857.743,4181.939,858.439Z" transform="translate(-4173.062 -669.548)" fill="#090d30"/>
        <path id="Path_7202" data-name="Path 7202" d="M4196.082,773.2c-1.063-.377-2.032,5.808,1.1,7.441s-16.027,1.34-14.649-.33.87-3.424,2.027-3.363,5.928-4.544,3.219-9.317,5.57-4.185,6.528-2.926,4.571,2.194,3.752,3.785S4197.713,773.787,4196.082,773.2Z" transform="translate(-4171.08 -744.326)" fill="#f7b6b2"/>
        <path id="Path_7203" data-name="Path 7203" d="M4196.082,773.2c-1.063-.377-2.032,5.808,1.1,7.441s-16.027,1.34-14.649-.33.87-3.424,2.027-3.363,5.928-4.544,3.219-9.317,5.57-4.185,6.528-2.926,4.571,2.194,3.752,3.785S4197.713,773.787,4196.082,773.2Z" transform="translate(-4171.08 -744.326)" opacity="0.2" style="mix-blend-mode: overlay;isolation: isolate"/>
        <path id="Path_7204" data-name="Path 7204" d="M4201.1,760.092a3.126,3.126,0,0,0-5.472-.739c-2.562,3.245-2.744,4.667-5.8,8.113a10.722,10.722,0,0,1-.806.814,4.812,4.812,0,0,0-.152-.856c-.51-1.84-1.93-3.051-3.181-2.709s-1.859,2.113-1.351,3.952a4.267,4.267,0,0,0,1.429,2.26c2.063,3.326,2.554,4.563,6.134,6.013,2.874,1.164,6.621,1.727,7.36-.6.605-1.9,2.513-3.369,2.513-6.192,0-1.839-.983-5.181-.705-6.782A9.544,9.544,0,0,0,4201.1,760.092Z" transform="translate(-4169.734 -748.906)" fill="#f7b6b2"/>
        <path id="Path_7205" data-name="Path 7205" d="M4201.1,760.092a3.126,3.126,0,0,0-5.472-.739c-2.562,3.245-2.744,4.667-5.8,8.113a10.722,10.722,0,0,1-.806.814,4.812,4.812,0,0,0-.152-.856c-.51-1.84-1.93-3.051-3.181-2.709s-1.859,2.113-1.351,3.952a4.267,4.267,0,0,0,1.429,2.26c2.063,3.326,2.554,4.563,6.134,6.013,2.874,1.164,6.621,1.727,7.36-.6.605-1.9,2.513-3.369,2.513-6.192,0-1.839-.983-5.181-.705-6.782A9.544,9.544,0,0,0,4201.1,760.092Z" transform="translate(-4169.734 -748.906)" fill="#fbb686"/>
        <path id="Path_7206" data-name="Path 7206" d="M4228.576,776.01c.771-.549,1.109-3.225,1.109-5.806s-1.529-5.247-4.1-3.392-1.686,9.037,0,9.2S4227.338,776.895,4228.576,776.01Z" transform="translate(-4138.129 -742.441)" fill="#fbb686"/>
        <path id="Path_7207" data-name="Path 7207" d="M4228.576,777.46c.771-.549,3.114-8.813,3.114-11.394,0-1.29-1.059-2.777-1.626-.572.082,3.86-3.19,1.84-4.475,2.768-2.57,1.857-1.686,9.037,0,9.2S4227.338,778.345,4228.576,777.46Z" transform="translate(-4138.129 -743.892)" fill="#fbb686"/>
        <path id="Path_7208" data-name="Path 7208" d="M4228.959,775.731c.771-.549-1.166-3.226-1.166-5.807s-.549-4.494-3.12-2.639-.387,8.284,1.3,8.445S4227.72,776.615,4228.959,775.731Z" transform="translate(-4138.512 -742.162)" opacity="0.3" style="mix-blend-mode: overlay;isolation: isolate"/>
        <g id="Group_4586" data-name="Group 4586" transform="translate(26.302 4.64)">
          <g id="Group_4585" data-name="Group 4585" transform="translate(16.049)">
            <path id="Path_7209" data-name="Path 7209" d="M4203.2,774.363s1.547-4.777,2.831-5.36,5.044-1.916,7.04-2.82,3.033-.235,3.423-1.266-2.1-1.661-3.688-.94-1.951.19-2.337-.653,3.073-7.265,1.8-7.746-2.135,3.536-3.332,4.079c-.677.3-1.016-.438-1.588-.178s-.431.463-.676.576-.2-.072-.65.131-.454.558-.633.639-.32.065-.59.19a5.881,5.881,0,0,0-1.86,2.5c-.481,1.279-1.8,2.746-2.663,4.386a7.142,7.142,0,0,0,.152,5.8C4201.219,775.439,4202.621,775.913,4203.2,774.363Z" transform="translate(-4199.729 -755.539)" fill="#fbb686"/>
          </g>
          <path id="Path_7210" data-name="Path 7210" d="M4195.027,779.636a3.053,3.053,0,0,0-1.183.142,3.2,3.2,0,0,0,.769-.919l10.336-16.429,3.476,5-6.17,14.528a10.564,10.564,0,0,1-1.677,2.714,2.69,2.69,0,0,0-.293-1.5A6.994,6.994,0,0,0,4195.027,779.636Z" transform="translate(-4188.351 -750.069)" fill="#fbb686"/>
          <path id="Path_7211" data-name="Path 7211" d="M4191.585,774.352c3.754,1.928,6.776,3.372,9.477,4.49a10.692,10.692,0,0,0,1.946-1.779,2.681,2.681,0,0,0-.292-1.5,6.994,6.994,0,0,0-5.258-3.537,3.06,3.06,0,0,0-1.184.142,3.123,3.123,0,0,1-1.212.635L4190.781,774C4191.051,774.115,4191.306,774.208,4191.585,774.352Z" transform="translate(-4190.781 -742.458)" fill="#090d30"/>
        </g>
        <g id="Group_4587" data-name="Group 4587" transform="translate(0 22.175)">
          <path id="Path_7212" data-name="Path 7212" d="M4218.992,778.9c2.976-2.375,4.75-3.012,5.126-5.353s.311-1.259.8-2.391a9.451,9.451,0,0,1,2.271-3.3c1.191-1.144,1.83-2.789,2.63-2.515s.5,1.24.417,1.688-1.57,2.623-1.469,2.761a6.392,6.392,0,0,0,2.092-.432,9.6,9.6,0,0,0,2.582-1.22,5.711,5.711,0,0,1,.681,2.761c0,2.578-.34,5.252-1.105,5.8-2.21,1.232-5.7,2.068-6.83,3.358a23.38,23.38,0,0,1-3.833,3.851C4221.321,784.8,4216.787,780.665,4218.992,778.9Z" transform="translate(-4142.561 -765.314)" fill="#fbb686"/>
          <path id="Path_7213" data-name="Path 7213" d="M4210.939,784.763a3.039,3.039,0,0,0-1.125-.395,3.126,3.126,0,0,0,1.1-.488l17.393-12.034,1.03,6.734-12.924,11.45a10.672,10.672,0,0,1-2.7,1.7,2.666,2.666,0,0,0,.4-1.473A6.987,6.987,0,0,0,4210.939,784.763Z" transform="translate(-4149.371 -760.129)" fill="#fbb686"/>
          <path id="Path_7214" data-name="Path 7214" d="M4237.686,785.38a3.045,3.045,0,0,0-1.124-.395,3.147,3.147,0,0,1-1.37.036l-11.784-2.194c-5.8-1.108-10.4-2.789-18.324-6.779-1.351-.737-2.687-1.417-3.877-1.978a34.724,34.724,0,0,0-14.123-3c-2.529-.047-10.965.3-10.965,5.815,0,5.941.543,12.232,4.327,19.122.536.976,1.055,2.052,1.548,3.18.1.273.208.6.313.953a2.99,2.99,0,0,1,.174.513c1.53,6.479,2.251,7.5,2.251,14.094a12.468,12.468,0,0,1-1.075,4.972c1.117,1.71,4.155,3.5,9.378,5.652.132.052.247.1.382.161,8.495,3.451,17.428-.014,18.042-.671.557-.592.334-12.346.871-18.266a12.7,12.7,0,0,0,.206-1.726c.8-4.91,3.941-4.422,5.411-8.61a6.89,6.89,0,0,0,.4-2.038,15.522,15.522,0,0,1,8.142-1.806h.01l8.721.764a10.683,10.683,0,0,0,5.232-.839,2.665,2.665,0,0,0,.4-1.473A6.991,6.991,0,0,0,4237.686,785.38Z" transform="translate(-4176.118 -760.746)" fill="#101542"/>
        </g>
        <path id="Path_7215" data-name="Path 7215" d="M4182.1,758.373a10.562,10.562,0,0,1,1.809-2.1c.1-.088.194-.179.294-.265.065-.058.135-.111.2-.165.1-.077.188-.156.284-.228l.012.006a13.852,13.852,0,0,1,8.315-2.667c6.827,0,12.367,4.57,12.367,10.21a8.619,8.619,0,0,1-.765,3.509c-.009.023-.011.049-.021.074-1.866,5.588-2.583,4.192-3.263,9.5-1.619,12.591,5.008,10.745,5.78,16.793a56.829,56.829,0,0,0-5.6-3.293l-.022-.013c-2.586-1.281-3.558.188-8.587-.967s-8.55-2.335-12.254-10.935C4178.28,772.328,4178.281,763.815,4182.1,758.373Z" transform="translate(-4173.814 -752.952)" fill="#090d30"/>
      </g>
      <g id="Group_4590" data-name="Group 4590" transform="translate(200.276 293.757)">
        <path id="Path_7216" data-name="Path 7216" d="M4039.785,874.342a18.278,18.278,0,0,0,7.249,8.171c12.684,8.332,34.687,8.639,48.055.92a22.221,22.221,0,0,0,7.272-6.352c2.757-3.968,8.259-7.145,15.132-8.736a40.223,40.223,0,0,0,11-4.2c13.369-7.719,12.838-20.424-1.6-27.746-12.384-6.282-31.287-6.232-43.58.109a23.477,23.477,0,0,0-8.561,6.967c-2.893,4.07-8.416,7.261-15.467,8.931a38.771,38.771,0,0,0-12.076,4.944c-7.3,4.721-9.782,11.127-7.428,16.991" transform="translate(-4023.2 -655.315)" fill="#1a50b2" opacity="0.05"/>
        <path id="Path_7217" data-name="Path 7217" d="M4082.292,840.221l-4.784-1.25a7.513,7.513,0,0,0-3.406-.511h0c-1.477.124-2.671.475-3.154,1.874h0c-.3.877-.208,6.436,8.25,8.763h0a6.587,6.587,0,0,1,3.415,2.44h0a6.919,6.919,0,0,0,6.386,2.82h0a3.539,3.539,0,0,0,3.1-2.97l.117-.745-.273-11.984-1.817,2.312Z" transform="translate(-3997.848 -649.986)" fill="#090d30"/>
        <path id="Path_7218" data-name="Path 7218" d="M4071.008,806.984s2.065,22.781,3.092,27.863c.933,4.621,7.02,30.824,8.448,46.411a4.894,4.894,0,0,0,4.9,4.436h0a4.9,4.9,0,0,0,4.88-4.615l1.127-27.809a21.456,21.456,0,0,0-.69-6.795l-2.206-8.25a21.428,21.428,0,0,1-.587-7.989c1.178-10.241,4.091-36.941,3.229-43.46C4092.124,778.664,4071.008,806.984,4071.008,806.984Z" transform="translate(-3997.733 -692.151)" fill="#34478b"/>
        <path id="Path_7219" data-name="Path 7219" d="M4074.1,829.358c-1.027-5.082-3.092-27.863-3.092-27.863s3.3-4.418,7.348-9.265c2.071,1.738,4.152,3.55,4.152,3.55l-3.988,38.249,3.029,33.61C4079.309,852.379,4074.884,833.243,4074.1,829.358Z" transform="translate(-3997.733 -686.662)" opacity="0.2" style="mix-blend-mode: overlay;isolation: isolate"/>
        <path id="Path_7220" data-name="Path 7220" d="M4068.974,843.727l-5.448,3.755a13.786,13.786,0,0,1-5,2.147l-6.342,1.338a1.551,1.551,0,0,0-1.177,1.919h0a3.29,3.29,0,0,0,2.038,2.23l5.513,2.036a12.641,12.641,0,0,0,7.132.477l3.121-.7a8.522,8.522,0,0,1,2.689-.165l2.726.269a4.973,4.973,0,0,0,5-2.832c.08-.174.121-.291.105-.321-.093-.185-2.686-10.155-2.686-10.155Z" transform="translate(-4013.652 -645.784)" fill="#090d30"/>
        <path id="Path_7221" data-name="Path 7221" d="M4068.252,790.665s-9.918,20.889-12.665,38.267a30.676,30.676,0,0,0,.208,10.623c2.062,10.66,6.672,31.621,8.368,45.535a5.071,5.071,0,0,0,4.366,4.418h0a5.071,5.071,0,0,0,5.733-4.781l.934-31.043a17.933,17.933,0,0,0-.881-6.5l-1.038-3.146a17.954,17.954,0,0,1,.872-13.4l7.862-16.348a25.016,25.016,0,0,1,5.751-7.681c2.94-2.666,6.884-6.888,8.048-11.2.032-.122.063-.244.092-.366C4097.588,787.764,4068.252,790.665,4068.252,790.665Z" transform="translate(-4010.266 -688.358)" fill="#34478b"/>
        <path id="Path_7222" data-name="Path 7222" d="M4030.737,763.474c-.19-.043-.437-.068-.537.1a.424.424,0,0,0-.041.21c0,1.335,2.992,6.038,3.714,6.946,1.354,1.7,5.3,3.414,7.25,3.9.322.081,4.111,1.127,4.111,1.236l2.4-4.825-1.81-.848a3.458,3.458,0,0,1-1.763-1.9l-1.223-3.182a5.176,5.176,0,0,0-1.643-2.221l-.7-.551a.855.855,0,0,0-1.381.682.881.881,0,0,0,.056.307l.131.328c.168.421.388,1.828-.026,2.147a1.263,1.263,0,0,1-.616.2C4037.435,766.159,4031.448,763.639,4030.737,763.474Z" transform="translate(-4030.159 -710.539)" fill="#fbb686"/>
        <path id="Path_7223" data-name="Path 7223" d="M4064.875,737s-4.72,8.793,1.008,20.047c1.18,2.319,4.541.558,5.272,1.948s1.263,5.91,1.263,5.91l12.421-2.178-.315-2.032-1.657-9.812-10.524-13.59Z" transform="translate(-4004.054 -730.503)" fill="#fbb686"/>
        <path id="Path_7224" data-name="Path 7224" d="M4131.7,792.808c.352-5.421-1.279-20.561-4.456-29.779-3.98-11.552-19.337-11.034-19.337-11.034l-1.736-2.174a.748.748,0,0,0-1.2.045c-3.312,4.61-8.992,4.506-11.616,4.169a1.513,1.513,0,0,0-1.683,1.223l-.646,3.428-14.861,10.025a28.007,28.007,0,0,0-2.719,2.24l-13.988,13.231a4.518,4.518,0,0,1-4.736.909l-12.291-4.6a4.091,4.091,0,0,0-5.223,2.292h0a4.092,4.092,0,0,0,1.933,5.184l16.95,8.63a8.931,8.931,0,0,0,8.616-.278c4.778-2.836,12.105-7.224,13.877-8.488,1.982,6.99,2.1,35.974,2.1,35.974s.193,6.438,15.589,7.362,25.111-13.086,25.111-13.086-.587-3.55-3.923-15.927c-.788-8.011,1.518-19.427,1.518-19.427l.937,8.732-5.912,11.968,4.925,10.416C4124.427,805.122,4131.4,799.913,4131.7,792.808Z" transform="translate(-4024.801 -720.545)" fill="#101542"/>
        <path id="Path_7225" data-name="Path 7225" d="M4068.852,791.544c-.21,1.582.424,14.02.529,16.2.1,2.155,9.523,8.122,9.7,8.237-.413,0-.829-.013-1.25-.038-15.4-.924-15.588-7.362-15.588-7.362s-.12-28.984-2.1-35.974l8.074-3.867S4069.064,789.96,4068.852,791.544Z" transform="translate(-4006.357 -705.311)" fill="#090d30"/>
        <g id="Group_4589" data-name="Group 4589" transform="translate(58.127)">
          <path id="Path_7226" data-name="Path 7226" d="M4086.409,738.93c-6.648-8.658-20.81-5.543-23.317-1.7-1.889,2.9,1.9,5.564,1.9,5.564.172,4.657.283,6.345,1.821,9.482a1.529,1.529,0,0,0,2.374.5,1.539,1.539,0,0,1,.9-.42c1.095-.117,1.873.988,2.446,1.928a15.077,15.077,0,0,0,5.331,5.623c2.292,1.254,4.542,1.907,6.673.393C4085.96,759.291,4089.5,742.961,4086.409,738.93Z" transform="translate(-4062.564 -733.378)" fill="#090d30"/>
        </g>
      </g>
      <path id="Path_7227" data-name="Path 7227" d="M4172.825,840.353a13.342,13.342,0,0,1-5.3,5.97c-9.269,6.088-25.348,6.312-35.116.673a16.237,16.237,0,0,1-5.316-4.64c-2.015-2.9-6.034-5.222-11.059-6.386A29.376,29.376,0,0,1,4108,832.9c-9.77-5.641-9.381-14.926,1.169-20.277,9.05-4.59,22.862-4.554,31.846.079a17.153,17.153,0,0,1,6.255,5.092c2.113,2.974,6.151,5.306,11.3,6.526a28.307,28.307,0,0,1,8.825,3.614c5.334,3.449,7.149,8.13,5.429,12.417" transform="translate(-3773.689 -379.43)" fill="#1a50b2" opacity="0.05"/>
      <path id="Path_7228" data-name="Path 7228" d="M4248.019,888.17a13.33,13.33,0,0,1-5.3,5.971c-9.268,6.088-25.349,6.312-35.117.671a16.223,16.223,0,0,1-5.313-4.641c-2.016-2.9-6.035-5.222-11.06-6.384a29.335,29.335,0,0,1-8.037-3.067c-9.771-5.642-9.382-14.928,1.167-20.277,9.05-4.59,22.864-4.554,31.847.079a17.17,17.17,0,0,1,6.255,5.092c2.113,2.974,6.151,5.306,11.3,6.526a28.31,28.31,0,0,1,8.825,3.613c5.333,3.449,7.147,8.131,5.428,12.417" transform="translate(-3714.001 -341.473)" fill="#1a50b2" opacity="0.05"/>
      <g id="Group_4591" data-name="Group 4591" transform="translate(310.673 180.475)">
        <path id="Path_7229" data-name="Path 7229" d="M4113.2,725.822c-22.48-1.455-21.489-32.073-21.489-32.073l20.37-22.049,20.373-1.474,1.849,1.736C4134.343,678.093,4132.406,702.393,4113.2,725.822Z" transform="translate(-4091.704 -670.225)" fill="#34478b"/>
        <path id="Path_7230" data-name="Path 7230" d="M4113.132,725.112c-22.48-1.455-20.371-30.4-20.371-30.4l20.371-22.049,20.371-1.475S4135.611,697.691,4113.132,725.112Z" transform="translate(-4090.905 -669.457)" fill="#223165"/>
        <path id="Path_7231" data-name="Path 7231" d="M4108.026,679.531c-4.907,2.832-8.885,9.722-8.885,15.389s3.978,7.963,8.885,5.129,8.884-9.722,8.884-15.387S4112.934,676.7,4108.026,679.531Zm4.654,5.489-5.825,9.864-3.5-2.02c-.46-.266-.46-1.127,0-1.923s1.2-1.227,1.665-.961l1.859,1.073,4.157-7.041c.468-.793,1.215-1.211,1.667-.931S4113.147,684.227,4112.681,685.02Z" transform="translate(-4085.799 -663.801)" fill="#fafbff"/>
      </g>
      <g id="Group_4594" data-name="Group 4594" transform="translate(0 199.535)">
        <g id="Group_4593" data-name="Group 4593">
          <path id="Path_7232" data-name="Path 7232" d="M3918.509,821.624c0,4.883,3.439,6.843,7.642,4.354l89.126-52.8a17.571,17.571,0,0,0,7.736-13.409l.8-73.47c.054-4.884-3.349-6.858-7.561-4.384l-90.085,52.893a17.236,17.236,0,0,0-7.66,13.38Z" transform="translate(-3918.509 -680.851)" fill="#e3e7fa"/>
          <path id="Path_7233" data-name="Path 7233" d="M3921.173,823.4V749.967a17.233,17.233,0,0,1,7.66-13.378l90.087-52.9a6.309,6.309,0,0,1,4.047-1.013c-1.261-2.052-3.792-2.479-6.713-.762l-90.085,52.893a17.236,17.236,0,0,0-7.66,13.38v73.432c0,3.136,1.423,5.057,3.55,5.378A6.757,6.757,0,0,1,3921.173,823.4Z" transform="translate(-3918.509 -680.851)" fill="#f5f7ff"/>
          <g id="Group_4592" data-name="Group 4592" transform="translate(24.239 39.434)">
            <path id="Path_7234" data-name="Path 7234" d="M3983.789,709.32a16.632,16.632,0,0,0-4.829-4.226c-5.953-3.446-13.466-2.935-21.177,1.426-.066.038-.133.072-.2.109a44.036,44.036,0,0,0-9.229,7.215c-9.669,9.745-16.364,24.257-16.332,37.058.015,6.135,1.575,11.274,4.481,15.018a16.669,16.669,0,0,0,4.879,4.264,16.946,16.946,0,0,0,8.562,2.241,25.636,25.636,0,0,0,12.551-3.7c.072-.039.142-.074.214-.115a44.16,44.16,0,0,0,9.2-7.224c9.648-9.753,16.347-24.252,16.347-37.031C3988.257,718.214,3986.7,713.067,3983.789,709.32Zm-16.718,42.3a40.956,40.956,0,0,1-5.459,5.442,30.64,30.64,0,0,1-3.975,2.766c-4.418,2.551-8.5,3.123-11.195,1.57a7.587,7.587,0,0,1-3.051-3.717,17.439,17.439,0,0,1-1.227-6.8c-.022-8.931,4.516-19.509,11.028-27.271a40.733,40.733,0,0,1,5.473-5.435,30.231,30.231,0,0,1,3.966-2.745,16.02,16.02,0,0,1,7.708-2.423,6.991,6.991,0,0,1,3.539.868,7.556,7.556,0,0,1,3.022,3.693,17.289,17.289,0,0,1,1.214,6.788C3978.115,733.273,3973.574,743.847,3967.071,751.616Z" transform="translate(-3932.022 -702.834)" fill="#1a50b2" opacity="0.1"/>
            <path id="Path_7235" data-name="Path 7235" d="M3992.071,713.459a16.661,16.661,0,0,0-4.83-4.224c-5.953-3.446-13.467-2.935-21.176,1.426-.067.038-.133.072-.2.109a44.046,44.046,0,0,0-9.229,7.213c-9.67,9.747-16.365,24.257-16.333,37.059.015,6.135,1.575,11.274,4.481,15.018a16.655,16.655,0,0,0,4.878,4.264,16.95,16.95,0,0,0,8.562,2.238,25.641,25.641,0,0,0,12.552-3.7c.072-.039.142-.073.213-.115a44.168,44.168,0,0,0,9.2-7.224c9.649-9.753,16.347-24.254,16.347-37.031C3996.539,722.355,3994.985,717.208,3992.071,713.459Zm-16.718,42.3a40.928,40.928,0,0,1-5.458,5.442,30.5,30.5,0,0,1-3.975,2.764c-4.418,2.551-8.5,3.123-11.2,1.571a7.587,7.587,0,0,1-3.049-3.718,17.379,17.379,0,0,1-1.227-6.8c-.022-8.931,4.517-19.509,11.027-27.271a40.843,40.843,0,0,1,5.473-5.435,30.327,30.327,0,0,1,3.966-2.745,16.022,16.022,0,0,1,7.708-2.423,6.992,6.992,0,0,1,3.539.868,7.567,7.567,0,0,1,3.022,3.693,17.289,17.289,0,0,1,1.214,6.788C3986.4,737.412,3981.855,747.988,3975.353,755.757Z" transform="translate(-3925.448 -699.547)" fill="#cad4ef"/>
            <path id="Path_7236" data-name="Path 7236" d="M3962.059,720.7a16.017,16.017,0,0,1,7.707-2.422,6.981,6.981,0,0,1,3.538.868,7.562,7.562,0,0,1,3.025,3.694l6.886-8.246a16.631,16.631,0,0,0-4.829-4.224c-5.951-3.446-13.465-2.935-21.175,1.426l.883,11.651A29.981,29.981,0,0,1,3962.059,720.7Z" transform="translate(-3912.029 -698.65)" fill="#ff6355"/>
            <path id="Path_7237" data-name="Path 7237" d="M3962.265,721.812l-.883-11.651c-.068.038-.134.07-.2.109a44.037,44.037,0,0,0-9.226,7.213l4.837,9.763A40.54,40.54,0,0,1,3962.265,721.812Z" transform="translate(-3916.2 -697.019)" fill="#fff"/>
            <path id="Path_7238" data-name="Path 7238" d="M3952.99,751.277c-.021-8.931,4.517-19.509,11.03-27.271l-4.837-9.764c-9.673,9.747-16.367,24.259-16.334,37.06.014,6.133,1.575,11.272,4.481,15.018l6.888-8.244A17.441,17.441,0,0,1,3952.99,751.277Z" transform="translate(-3923.429 -693.778)" fill="#fff"/>
            <path id="Path_7239" data-name="Path 7239" d="M3992.632,711.721l-6.887,8.246a17.325,17.325,0,0,1,1.214,6.788c0,8.919-4.544,19.495-11.046,27.264a40.763,40.763,0,0,1-5.459,5.44,30.153,30.153,0,0,1-3.975,2.768c-4.417,2.549-8.5,3.121-11.194,1.57a7.6,7.6,0,0,1-3.051-3.719l-6.888,8.244a16.707,16.707,0,0,0,4.879,4.264,16.951,16.951,0,0,0,8.563,2.239,25.651,25.651,0,0,0,12.55-3.7c.072-.039.142-.073.213-.115a44.131,44.131,0,0,0,9.2-7.224c9.651-9.753,16.349-24.254,16.349-37.031C3997.1,720.615,3995.547,715.468,3992.632,711.721Z" transform="translate(-3921.446 -695.78)" fill="#34478b"/>
          </g>
        </g>
      </g>
      <g id="Group_4596" data-name="Group 4596" transform="translate(285.583 536.704)">
        <g id="Group_4595" data-name="Group 4595" transform="translate(4.751 5.378)" opacity="0.1">
          <path id="Path_7240" data-name="Path 7240" d="M4134.873,886.485l-25.409-14.671-29.1,16.87,25.41,14.669Z" transform="translate(-4080.365 -871.814)" fill="#1a50b2"/>
        </g>
        <path id="Path_7241" data-name="Path 7241" d="M4128.444,886.082l-25.411-14.673-25.317,14.69v5.672l25.41,14.669,25.318-14.685Z" transform="translate(-4077.717 -866.758)" fill="#e3e7fa"/>
        <path id="Path_7242" data-name="Path 7242" d="M4077.717,879.6l25.41,14.669v5.672l-25.41-14.669Z" transform="translate(-4077.717 -860.257)" fill="#fff"/>
        <path id="Path_7243" data-name="Path 7243" d="M4091.882,894.275v5.672l25.318-14.685v-5.673Z" transform="translate(-4066.472 -860.265)" fill="#cad4ef"/>
        <path id="Path_7244" data-name="Path 7244" d="M4117.241,886.082l-25.411-14.673.093,29.359Z" transform="translate(-4066.513 -866.758)" fill="#1a50b2" opacity="0.2"/>
        <path id="Path_7245" data-name="Path 7245" d="M4103.127,902.826l12.25-7.073c4.181-2.413,7.812-7.224,9.64-12.264l-25.411-14.673c-1.828,5.043-5.456,9.855-9.64,12.266l-12.249,7.075Z" transform="translate(-4077.717 -868.816)" fill="#e3e7fa"/>
      </g>
      <g id="Group_4604" data-name="Group 4604" transform="translate(390.695 480.523)">
        <g id="Group_4603" data-name="Group 4603">
          <g id="Group_4598" data-name="Group 4598" transform="translate(70.469)">
            <path id="Path_7246" data-name="Path 7246" d="M4227.882,854.639l-22.592,13.043a7.2,7.2,0,0,1-6.451-.267l-21.666-12.508c-1.9-1.1-2.109-2.775-.463-3.726l22.592-13.043a7.2,7.2,0,0,1,6.454.267l21.664,12.508C4229.32,852.011,4229.532,853.688,4227.882,854.639Z" transform="translate(-4175.6 -837.496)" fill="#34478b"/>
            <g id="Group_4597" data-name="Group 4597" transform="translate(0.001 15.585)">
              <path id="Path_7247" data-name="Path 7247" d="M4217.15,928.825V846.318h0a2.062,2.062,0,0,1-1.081,1.318l-22.591,13.043a5.854,5.854,0,0,1-3,.633V944.4a5.852,5.852,0,0,0,3-.633l22.591-13.042A1.818,1.818,0,0,0,4217.15,928.825Z" transform="translate(-4163.787 -846.079)" fill="#223165"/>
              <path id="Path_7248" data-name="Path 7248" d="M4198.838,860.517l-21.665-12.508a2.878,2.878,0,0,1-1.543-1.824v82.5c-.167.818.358,1.726,1.543,2.409l21.665,12.508a7.454,7.454,0,0,0,3.457.9v-83.09A7.458,7.458,0,0,1,4198.838,860.517Z" transform="translate(-4175.601 -846.185)" fill="#425ab0"/>
            </g>
          </g>
          <g id="Group_4600" data-name="Group 4600" transform="translate(34.841 49.166)">
            <path id="Path_7249" data-name="Path 7249" d="M4208.021,882.048l-22.592,13.044a7.2,7.2,0,0,1-6.453-.269l-21.664-12.508c-1.9-1.1-2.111-2.773-.464-3.726l22.591-13.043a7.2,7.2,0,0,1,6.454.267l21.663,12.508C4209.46,879.42,4209.669,881.1,4208.021,882.048Z" transform="translate(-4155.738 -864.905)" fill="#e3e7fa"/>
            <g id="Group_4599" data-name="Group 4599" transform="translate(0.001 15.585)">
              <path id="Path_7250" data-name="Path 7250" d="M4197.288,927.58V873.727h0a2.047,2.047,0,0,1-1.08,1.318l-22.592,13.044a5.849,5.849,0,0,1-3,.632v54.434a5.847,5.847,0,0,0,3-.632l22.592-13.044A1.814,1.814,0,0,0,4197.288,927.58Z" transform="translate(-4143.926 -873.488)" fill="#cad4ef"/>
              <path id="Path_7251" data-name="Path 7251" d="M4178.976,887.926l-21.663-12.508a2.884,2.884,0,0,1-1.544-1.824v53.851c-.167.818.359,1.724,1.544,2.407l21.663,12.508a7.434,7.434,0,0,0,3.458.9V888.827A7.437,7.437,0,0,1,4178.976,887.926Z" transform="translate(-4155.738 -873.594)" fill="#fff"/>
            </g>
          </g>
          <g id="Group_4602" data-name="Group 4602" transform="translate(0 89.973)">
            <path id="Path_7252" data-name="Path 7252" d="M4188.6,904.8l-22.59,13.043a7.2,7.2,0,0,1-6.453-.267l-21.666-12.508c-1.9-1.1-2.111-2.775-.462-3.726l22.591-13.043a7.2,7.2,0,0,1,6.453.267l21.665,12.508C4190.036,902.169,4190.244,903.846,4188.6,904.8Z" transform="translate(-4136.314 -887.654)" fill="#e3e7fa"/>
            <g id="Group_4601" data-name="Group 4601" transform="translate(0.001 15.585)">
              <path id="Path_7253" data-name="Path 7253" d="M4177.865,929.639V896.476h0a2.056,2.056,0,0,1-1.08,1.318l-22.591,13.043a5.852,5.852,0,0,1-3,.633v33.747a5.834,5.834,0,0,0,3-.633l22.591-13.043A1.815,1.815,0,0,0,4177.865,929.639Z" transform="translate(-4124.503 -896.237)" fill="#cad4ef"/>
              <path id="Path_7254" data-name="Path 7254" d="M4159.554,910.675l-21.665-12.508a2.876,2.876,0,0,1-1.543-1.824v33.163c-.169.818.359,1.724,1.543,2.407l21.665,12.508a7.422,7.422,0,0,0,3.454.9V911.576A7.445,7.445,0,0,1,4159.554,910.675Z" transform="translate(-4136.315 -896.343)" fill="#fff"/>
            </g>
          </g>
        </g>
      </g>
      <g id="Group_4607" data-name="Group 4607" transform="translate(914.691 22.671)">
        <g id="Group_4606" data-name="Group 4606">
          <g id="Group_4605" data-name="Group 4605">
            <path id="Path_7255" data-name="Path 7255" d="M4482.451,584.666l-5.631,3.272c2.637,2.023,3.779,4.16,3.4,6.395s-2.249,4.33-5.617,6.287l-7.546-4.357c2.07-1.2,3.194-2.346,3.359-3.451s-.481-2.056-1.923-2.89a8.674,8.674,0,0,0-4.517-1.209,9.011,9.011,0,0,0-4.5,1.248c-1.318.768-1.977,1.6-2,2.506s.571,2.2,1.812,3.882a28.982,28.982,0,0,1,2.788,4.325,7.269,7.269,0,0,1,.9,3.4,5.173,5.173,0,0,1-1.045,3.062,10.9,10.9,0,0,1-3.4,2.823,19.417,19.417,0,0,1-9.93,2.56,25.294,25.294,0,0,1-10.858-2.513l-5.155,3-4.156-2.4,5.132-2.983q-4.782-3.412-4.5-6.976c.168-2.366,2.04-4.581,5.579-6.639l7.535,4.352c-2.062,1.2-3.137,2.393-3.256,3.6s.754,2.334,2.6,3.4a10.071,10.071,0,0,0,4.836,1.394,8.446,8.446,0,0,0,4.571-1.117c1.423-.825,2.148-1.711,2.2-2.658s-.526-2.161-1.709-3.676a33.339,33.339,0,0,1-2.8-4.054,8.5,8.5,0,0,1-1.126-3.444,5.068,5.068,0,0,1,.917-3.187,10.476,10.476,0,0,1,3.555-3.023,19.525,19.525,0,0,1,10-2.545,24.861,24.861,0,0,1,10.756,2.427l5.553-3.227Z" transform="translate(-4428.433 -582.252)" fill="#fff"/>
          </g>
        </g>
      </g>
    </g>
    <g id="Group_4612" data-name="Group 4612" transform="translate(4763.872 813.459)">
      <path id="Path_7256" data-name="Path 7256" d="M4478.606,705.553l-67.753,54.3-5.183-18.175Z" transform="translate(-4377.174 -705.553)" fill="#e3e7fa"/>
      <g id="Group_4609" data-name="Group 4609" transform="translate(28.496 0)" opacity="0.1" style="mix-blend-mode: multiply;isolation: isolate">
        <path id="Path_7257" data-name="Path 7257" d="M4478.606,705.553l-67.753,54.3-5.183-18.175Z" transform="translate(-4405.67 -705.553)" fill="#1a50b2"/>
      </g>
      <g id="Group_4610" data-name="Group 4610">
        <path id="Path_7258" data-name="Path 7258" d="M4389.783,732.4l101.435-26.842-72.938,36.122Zm101.435-26.842-62.565,42.111,16.072,16.454Z" transform="translate(-4389.783 -705.553)" fill="#e3e7fa"/>
      </g>
      <g id="Group_4611" data-name="Group 4611" transform="translate(33.681 42.112)" opacity="0.1" style="mix-blend-mode: multiply;isolation: isolate">
        <path id="Path_7259" data-name="Path 7259" d="M4413.749,729.029l-5.188,12.186,9.589-7.684Z" transform="translate(-4408.561 -729.029)" fill="#1a50b2"/>
      </g>
    </g>
  </g>
</svg>
