<?xml version="1.0" encoding="utf-8"?>
<!-- Generator: Adobe Illustrator 24.1.0, SVG Export Plug-In . SVG Version: 6.00 Build 0)  -->
<svg version="1.1" id="Layer_1" xmlns="http://www.w3.org/2000/svg" xmlns:xlink="http://www.w3.org/1999/xlink" x="0px" y="0px"
	 viewBox="0 0 733 780.4" style="enable-background:new 0 0 733 780.4;" xml:space="preserve">
<style type="text/css">
	.st0{fill:#ECF1FA;}
	.st1{fill:url(#Path_6903_1_);}
	.st2{fill:#34478B;}
	.st3{fill:#223165;}
	.st4{fill:#425AB0;}
	.st5{fill-rule:evenodd;clip-rule:evenodd;fill:#FBB686;}
	.st6{fill-rule:evenodd;clip-rule:evenodd;fill:#D6E0E8;}
	.st7{fill-rule:evenodd;clip-rule:evenodd;fill:#F2F8FC;}
	.st8{fill-rule:evenodd;clip-rule:evenodd;fill:#F1B287;}
	.st9{fill-rule:evenodd;clip-rule:evenodd;fill:#101542;}
	.st10{fill-rule:evenodd;clip-rule:evenodd;fill:#090D30;}
	.st11{fill-rule:evenodd;clip-rule:evenodd;fill:#E8A476;}
	.st12{fill-rule:evenodd;clip-rule:evenodd;fill:#F89C69;}
	.st13{fill-rule:evenodd;clip-rule:evenodd;}
	.st14{fill-rule:evenodd;clip-rule:evenodd;fill:#34478B;}
	.st15{fill-rule:evenodd;clip-rule:evenodd;fill:#22326B;}
	.st16{fill:#FBB686;}
	.st17{fill:#101542;}
	.st18{fill:#090D30;}
	.st19{fill:#22326B;}
</style>
<g id="Group_4386" transform="translate(-2173.699 -172.525)">
	<g id="Group_4362" transform="translate(2173.699 172.525)">
		<g id="Group_4361" transform="translate(26.427 130.61)">
			<path id="Path_6902" class="st0" d="M124,12.1l-0.6,0.3c-1.3-0.7-2.6-1.5-4-2.2c-27.3-13.7-71.7-13.7-99,0s-27.3,35.8,0,49.5
				c1.4,0.7,3,1.4,4.5,2.1L704,461.4h95.1v-51.6L124,12.1z"/>
		</g>
		
			<radialGradient id="Path_6903_1_" cx="472.219" cy="115.0045" r="0.657" gradientTransform="matrix(176.5879 0 0 171.8161 -83339.7812 -19701.668)" gradientUnits="userSpaceOnUse">
			<stop  offset="0" style="stop-color:#FF6355"/>
			<stop  offset="0.317" style="stop-color:#FB6153"/>
			<stop  offset="0.557" style="stop-color:#F25A4C"/>
			<stop  offset="0.77" style="stop-color:#E24F42"/>
			<stop  offset="0.968" style="stop-color:#CB4033"/>
			<stop  offset="1" style="stop-color:#C73E31"/>
		</radialGradient>
		<path id="Path_6903" class="st1" d="M100.5,0.8h-0.2c-0.7-0.1-1.3-0.2-2-0.2c-0.1,0-0.3,0-0.4,0c-0.6-0.1-1.2-0.1-1.8-0.2
			c-0.2,0-0.4,0-0.6-0.1c-0.6,0-1.1-0.1-1.7-0.1c-0.2,0-0.4,0-0.7,0c-0.6,0-1.2-0.1-1.8-0.1c-0.2,0-0.4,0-0.6,0c-0.8,0-1.6,0-2.4,0
			s-1.7,0-2.5,0c-0.2,0-0.3,0-0.5,0c-0.7,0-1.4,0.1-2.1,0.1H83C40.2,2.7,5.5,35.7,0.6,78.2c0,0.1,0,0.2,0,0.3
			c-0.2,2-0.4,4.1-0.5,6.2c0,0.2,0,0.4,0,0.6c0,1-0.1,2-0.1,3c0,48.8,39.5,88.3,88.3,88.3s88.3-39.5,88.3-88.3
			C176.6,44.2,144.1,6.9,100.5,0.8L100.5,0.8z"/>
	</g>
	<g id="Group_4375" transform="translate(2318.111 422.209)">
		<g id="Group_4365">
			<path id="Path_6904" class="st0" d="M19.4,175.9L616,530.7l93.5-54.3L170.2,149.6L19.4,175.9z"/>
			<g id="Group_4364">
				<path id="Path_6905" class="st2" d="M192.8,63.2l-83.3,48.1c-6.1,3.5-16.8,3.1-23.8-1L5.8,64.2c-7-4-7.8-10.2-1.7-13.7L87.4,2.4
					c6.1-3.5,16.8-3.1,23.8,1l79.9,46.1C198.1,53.5,198.9,59.7,192.8,63.2z"/>
				<g id="Group_4363" transform="translate(0.004 57.484)">
					<path id="Path_6906" class="st3" d="M196.8,103.2V0.9l0,0l0,0c-0.6,2.1-2,3.9-4,4.9l-83.3,48.1c-3.4,1.7-7.2,2.6-11.1,2.3
						v104.5c3.8,0.2,7.6-0.6,11.1-2.3l83.3-48.1C196,108.4,197.3,105.8,196.8,103.2z"/>
					<path id="Path_6907" class="st4" d="M85.7,52.9L5.8,6.7C2.5,4.8,0.5,2.4,0.1,0v102.3c-0.6,3,1.3,6.4,5.7,8.9l79.9,46.1
						c3.9,2.1,8.3,3.3,12.7,3.3V56.2C94,56.1,89.6,55,85.7,52.9z"/>
				</g>
			</g>
		</g>
		<g id="Group_4374" transform="translate(141.63 69.532)">
			<path id="Path_6908" class="st5" d="M107.1,144.7c1.1,2,2.5,3.2,4.4,6.2c4.6,9.6,15.4,21.8,18.8,33.3c2.8,9.3,3.7,14.9,7.8,13.4
				l2.1-7.8l-0.7-1.6c-1.5-1-0.1-5.2-1.2-6.4c-6.4-7.7-4.9-22.1-9.7-30.7c-3-5.5-7.9-9.9-9.6-12.9
				C115.1,131.4,104.8,136.6,107.1,144.7z"/>
			<path id="Path_6909" class="st5" d="M67.8,91.1c0.7,5.5,1.8,6.1,1.6,11.6c-3.6,7.5-6.6,15.3-9,23.3c-1.2,4.1-4.6,11-3.9,16.7
				c1.7,6.3,8,7.6,12.6,4.9c2.4-7.9,16.8-17,20.8-29.7c1.6-2.6,4.4-3.9,6.4-6.5c3.1-4.3,4-9.8,2.4-14.8C96.1,89,87.3,84,79.8,80.9
				C77,80.4,70.9,89.1,67.8,91.1z"/>
			<path id="Path_6910" class="st5" d="M83.5,187.2c0,2-0.2,4-0.7,6c-0.3,1.6-0.1,3.1-0.8,4.6l1.8-0.3l5.1-7.6
				c1.9,1.8,1.9-1.2,3.3-5l0.2-0.3v-0.1c0.1-0.2,0.2-0.5,0.3-0.7c-0.2-0.1-0.3-0.2-0.4-0.3V181c-6.2-6.6-6.8-21.8-13.1-30.9
				c-3.6-5.1-7.8-8.1-9.4-11.1c-3.7-4.9-12-3.1-13.4,1.9c-0.4,1.3,0.4,3,1,4.6c1.4,2.2,3,4.3,4.6,6.3c3.4,5.6,8.9,12.4,13.9,19
				C79,174.9,83.2,182.2,83.5,187.2z"/>
			<path id="Path_6911" class="st5" d="M125.9,174c0.5,1.3,1.3,2.5,1.7,3.7c0.8,2.3,1.1,6.4,2.3,11.5c0.7,2.9,4.4,11,5.1,13.7
				c0.5,1.7,0.4,2.7,0.9,3.4c0.2,0.3,0.5,0.5,0.9,0.5l1.7-17.9l1.5-3.5c-0.7-1.2-1.2-2.5-1.5-3.8c-1-2.2-1.9-2.5-3.3-6.4
				c-0.8-2.2-1.5-4.4-2.1-6.6L125.9,174z"/>
			<g id="Group_4366" transform="translate(15.22)">
				<path id="Path_6912" class="st6" d="M53.6,46.5c4.5,5.4,2.3,15,1,14.8c-3.1-1.7-6-3.9-8.5-6.5C51,54.2,50,47.5,53.6,46.5z"/>
				<path id="Path_6913" class="st7" d="M51.7,44.2c-6.4-4.7-18.4-3.3-27.9-5.8l-3.9,6.7c0.5,1.4,1.2,1.8,4.5,2.9
					c6.6,2.2,21.7,8.5,26.2,8.1c2.2-0.2,5-1.3,5.1-4.4C55.8,47.7,53.5,45.6,51.7,44.2z"/>
				<path id="Path_6914" class="st8" d="M11.2,15.5c-1.8-2.4-1.6-7.6-2-8.8C8.5,5.1,6.9,3.8,4.8,2s-2-2.1-2.9-2
					C1.7,0,1.4,0.1,1.2,0.2c-2.6,1.1-0.3,6.9,0.4,9c0.5,1.5,0.7,2.4,0.9,3.1c0.3,1,0.8,1.8,2.6,3.7c0.1,0.2,0.3,0.5,0.5,0.8l0,0
					c0.5,0.9,1,2.3,1.1,2.5L8,17.2c0,0-0.2-0.3-0.5-0.8L11.2,15.5z"/>
				<path id="Path_6915" class="st9" d="M26.2,39.9L11.6,15c-2.2-1.7-6.5,0.5-6.2,2.8L14,36.6c1.1,2.3,3.7,7.4,4.7,8.7
					c1.4,1.6,2.8,1.3,4.3,1.6C27,47.7,27.2,42.8,26.2,39.9z"/>
				<path id="Path_6916" class="st10" d="M25.6,38.8L11.6,15c-0.7-0.6-1.7-0.8-2.6-0.6c4.7,8.5,10.8,18.2,14.1,25.8
					c0.3,0.6,0.8,1.1,1.4,1.3c6.4,2.6,20.5,7.6,26.9,8.3c0.1-3.7-0.1-4.8-0.8-6.3C44.5,39.9,34.2,40.7,25.6,38.8z"/>
			</g>
			<g id="Group_4368" transform="translate(25.101 20.839)">
				<g id="Group_4367" transform="translate(13.063 8.842)">
					<path id="Path_6917" class="st11" d="M20.3,15.5c1.1,1.4-4.6,10.2-7.3,11.2C9.6,23.3,6.6,20.3,2.1,18l6.1-9.6l1.4-2.7
						C12.6,11.1,15.2,12.8,20.3,15.5z"/>
					<path id="Path_6918" class="st12" d="M0,23.5c0.6,0.2,3.5-2.4,4.3-3.9c2.3,1.8,5.1,4,8.3,6.6c-1.9-3.8-3.6-6.9,1.6-14.6
						c-0.6-0.8-1-1.6-1.2-2.6c-0.2-2.4,0.5-5.7-0.6-8.8C8.6-2,2.9,10.4,0,23.5z"/>
				</g>
				<path id="Path_6919" class="st5" d="M13.1,32.3c1.1-0.1,3.7-6,4.1-6.3c4-2.9,9-6.4,8.8-8.1c-0.2-2.4,0.5-5.7-0.6-8.8
					C23.7,4.3,20,0.2,14.2,0C4-0.3-2.5,11.1,0.9,18.1c1.4,2.9,4.6,6.4,4.7,7.2C5.7,25.8,12.4,32.4,13.1,32.3z"/>
			</g>
			<path id="Path_6920" class="st9" d="M64.5,41.2c3,1.4,5.6,3.7,7.5,6.5c4.6,6.2,8.7,17.4,13.4,24c1.6,2.3,3.4,4.5,5.5,6.4
				c-0.3,1.4-10.2,8.7-21.7,14.8c-1.3-1.4-2.7-4.2-5-6.2c-4.6-4-10.2-9.9-13.7-12.5c-7.4-5.5-12.3-8.6-10.1-18.4
				c1.2-5.5,7.6-7.6,14.1-11.6C57.9,42.1,62.4,40.2,64.5,41.2z"/>
			<path id="Path_6921" class="st10" d="M66.1,42.1c2.4,1.4,4.4,3.3,6,5.6c4.6,6.2,8.7,17.4,13.4,24c0.4,0.6,0.8,1.1,1.2,1.6
				c-5.5,0.9-8.6,3.7-13.5,7.5c-5.1-5.5-9.4-15-16.5-22.2c-1.6-1.6-3.4-2.7-3.9-4C52.2,53,62.1,44.3,66.1,42.1z"/>
			<path id="Path_6922" class="st9" d="M47,55.3c-5.8-5.4-17.9-5.2-27.1-8.7l-4.6,6.2c0.3,1.5,1,1.9,4.1,3.4
				c6.3,2.9,20.7,10.7,25.2,10.8c2.2,0.1,5.1-0.8,5.5-3.8C50.8,59.1,48.7,56.8,47,55.3z"/>
			<g id="Group_4369" transform="translate(0 6.065)">
				<path id="Path_6923" class="st8" d="M8.7,7.4C8.3,5.8,6.8,4.3,4.8,2.2S3.1,0,2.2,0C2,0,1.7,0,1.5,0.1C-1.2,1,0.4,7,0.9,9.1
					c0.3,1.5,0.4,2.4,0.6,3.2c0.2,1,0.6,1.9,2.2,3.9c0.1,0.3,0.2,0.5,0.4,0.8l0,0c0.4,1,0.7,2.4,0.8,2.6l1.6-1.9
					c0,0-0.2-0.4-0.4-0.9l3.8-0.5C8.3,13.8,9,8.6,8.7,7.4z"/>
			</g>
			<g id="Group_4370" transform="translate(24.52 19.521)">
				<path id="Path_6924" class="st10" d="M39.9,17.9c-0.2-1.6,1.1-3.4,0.8-5.1c-0.4-1.5-1.7-2.7-3.2-2.9s-3.1-0.2-4.6,0
					c-2.3,0.1-4.7-0.5-6.7-1.7c-2-1.3-3.2-4.5-5.2-5.8c-2.1-1.4-4.5-2.2-7-2.3C7.6-0.1,1.9,6,0.4,12.1c-0.1,0.3-0.2,0.6-0.3,0.9
					c0,0.1,0,0.2,0,0.3C0,13.5,0,13.7,0,13.9c0,0.1,0,0.3,0,0.4c0,0.2,0,0.4,0,0.6c0,0.1,0.1,0.3,0.1,0.4c0,0.2,0.1,0.4,0.1,0.6
					s0.1,0.3,0.1,0.5c0.1,0.2,0.1,0.4,0.2,0.6s0.1,0.3,0.2,0.5s0.2,0.4,0.3,0.6s0.2,0.3,0.3,0.4s0.2,0.3,0.3,0.4
					C1.7,19,1.7,19,1.8,19.1s0.2,0.3,0.3,0.4s0.2,0.2,0.3,0.3s0.2,0.2,0.3,0.3c2.7,2,5.4,3.4,8,5.6c2.1,1.8,4.2,3.6,6.9,4.3
					c3.2,0.8,4.4,3,6.8,5.1c2.6,2.3,6.2,2.8,9.7,2.7c1.2,0,2.5-0.2,3.2-1.2c0.3-0.6,0.6-1.3,0.7-2c0.7-1.4,2-2.4,3.6-2.7
					c1.5-0.4,3.1-0.4,4.6-0.8c1.9-0.4,3.7-1.4,5.2-2.7c0.5-0.4,0.8-0.9,1.1-1.4c0.5-1.5-0.8-3-2.1-3.8c-2.6-1.6-5.8-2.1-8.7-3.3
					c-0.6-0.2-1.1-0.5-1.5-1C40.1,18.7,39.9,18.3,39.9,17.9z"/>
			</g>
			<path id="Path_6925" class="st9" d="M22.2,48.2L10.3,22c-2-1.9-6.5-0.2-6.5,2.1l6.6,19.6c0.9,2.4,2.9,7.7,3.8,9.1
				c1.2,1.8,2.6,1.5,4.1,2C22.1,56.1,22.9,51.3,22.2,48.2z"/>
			<path id="Path_6926" class="st10" d="M21.7,47.2L10.3,22c-0.7-0.6-1.6-0.9-2.5-0.9c3.8,8.9,8.8,19.3,11.3,27.1
				c0.2,0.6,0.7,1.1,1.2,1.5c6.1,3.3,19.6,9.7,25.9,11.1c0.5-3.7,0.4-4.8-0.1-6.3C40.4,50.2,30.1,49.9,21.7,47.2z"/>
			<path id="Path_6927" class="st5" d="M82.8,104c4.2,9.4,6.4,14.7,11.6,22.2c1.6,2.3,7.9,10.7,9.1,12.2c2.3,3.2,2.5,4.7,4.2,6.8
				c5.8,2.9,10.7-1.4,11.7-6.7c-4.4-7-3.6-23.8-11-35.4c1.6-8.4-2.2-16.9-9.6-21.3c-3.4-2-7-2.8-10.4-6.1l-10.7,5
				C76.7,89.5,77.2,96.6,82.8,104z"/>
			<g id="Group_4371" transform="translate(77.896 180.601)">
				<path id="Path_6928" class="st10" d="M14.2,0c-2.9,0.2-4.6,3.4-5.9,6.5C7,9.6,6,12.8,4.9,15.9C4.6,16.6,4.4,17,3.8,17
					c-1.7,0.1-3.1-0.2-3.6,0.3C0,17.6,0,18.2,0.4,19.2c0.5,1.2,1.3,2.3,2.4,3.2c0.9,0.6,2,1,3,0.9c1.2,0,2.4-0.3,3.7-0.7
					c1.5-0.4,3.2-0.6,3.3-2.1c0.1-3.1,0.5-4.1,1.6-7.4c0.2,1,0.4,2,0.5,3.1c0.3,2.8,0.4,5.5,0.6,8.3l0.7,0.4l0.5-0.2
					c0.1-3.9-0.4-10.6,0.8-14.1c0.4-1,0.8-2,1.1-3c0.1-1.2-0.1-2.3-0.7-3.4C17,2.8,15.3,1.7,14.2,0z"/>
				<path id="Path_6929" class="st13" d="M2.7,22.4c0.9,0.6,2,1,3,0.9c1.3,0,2.5-0.3,3.8-0.7c1.5-0.4,3.2-0.6,3.3-2.1
					c0.1-3.1,0.5-4.1,1.6-7.4c0-0.4-0.3-0.8-0.6-1c-0.7-0.3-1.5-0.3-2.2,0.1c-0.7,0.9-1.3,1.9-1.8,3C8,18.7,8.1,25.2,2.7,22.4z"/>
			</g>
			<g id="Group_4372" transform="translate(132.045 181.196)">
				<path id="Path_6930" class="st10" d="M0.3,9.7c0.7,3.9,3.1,9.9,3.1,13.4c0,1-1.3,2.2-1.1,2.7c0.9,1.1,2.3,1.8,3.8,1.8
					c1.9,0,6.7-4.1,8.5-5.4l0.9,0.7l1.2-1c-1-2-4.4-8-5.1-10.3c-0.8-2.7-1-5.8-1.4-6.6C9.6,4.2,8.7,3.4,6.3,1.5
					C4.7,0.3,3.1-0.4,2.1,0.2C0,1.5-0.3,6.3,0.3,9.7z"/>
				<path id="Path_6931" class="st13" d="M6.1,27.6c2-0.1,6.6-4.1,8.4-5.4l0.4,0.3c-1.4-2.4-3.3-5.8-5.5-8c-1-1.1-2.3-1.9-3.7-2.2
					c-1.2-0.2-0.9,0.5-0.6,1.4c0.8,1.9,1.5,3.9,2,6C7.7,22.6,8,25.8,6.1,27.6z"/>
			</g>
			<path id="Path_6932" class="st14" d="M67.8,91.1c0.7,5.5,1.8,6.1,1.6,11.6c-3.6,7.5-6.6,15.3-9,23.3c-0.7,2.3-1.3,3.3-2.3,6.6
				c5,4.6,19.3,5.4,30,5.4c4-3,9.5-16.6,13.2-23.4c5.7,6,13,11.5,15.9,17.9c-0.3-2.7-0.9-5.4-1.5-8.1c-1.6-8.4-2.7-13.6-7.4-21.5
				c1.5-8.4-2.3-16.8-9.6-21.1c-3.4-2-7-2.8-10.4-6.1l-10.7,5c0,0.3-0.1,0.6-0.1,0.9C74.6,83.7,70.3,89.5,67.8,91.1z"/>
			<g id="Group_4373" transform="translate(66.044 74.267)">
				<path id="Path_6933" class="st14" d="M24.1,2.9c-7,1-15.5,9.5-21.8,15.8c-0.9-1.3-1.7-2.6-2.3-4.1C6,8.5,15,0,21.4,0
					C22.4,0.9,23.1,1.8,24.1,2.9z"/>
				<path id="Path_6934" class="st15" d="M23.6,2.7c-2.6,0.4-5.9,2.1-9,4c-1.4,0.8-4,2.8-5.3,3C8.5,9.8,7.9,9.4,9,7.8
					c2.3-3.2,8.3-7.5,12.3-7.5C22.2,1,22.9,1.9,23.6,2.7z"/>
			</g>
			<path id="Path_6935" class="st15" d="M104,100.1c-4.5,5.7-8.6,7.9-17,10.2c3.3,0.9,6.1,0.3,9.9-0.8c-1.3,2.2-10.3,12.7-16.4,21.1
				c4.5-4.8,19.6-20.9,21.8-24.4c1.8-1.2,4.7-1.5,6.1-3.3c0.1-0.6,0.2-1.3,0.3-2C106.7,101.6,105.9,100.9,104,100.1z"/>
		</g>
	</g>
	<g id="Group_4379" transform="translate(2597.296 259.033)">
		<g id="Group_4378">
			<path id="Path_6936" class="st0" d="M19.4,175.9l378.4,222.4l93.5-54.3L170.2,149.6L19.4,175.9z"/>
			<g id="Group_4377">
				<path id="Path_6937" class="st2" d="M192.8,63.2l-83.3,48.1c-6.1,3.5-16.8,3.1-23.8-1L5.8,64.2c-7-4-7.8-10.2-1.7-13.7L87.4,2.4
					c6.1-3.5,16.8-3.1,23.8,1l79.9,46.1C198.1,53.5,198.9,59.7,192.8,63.2z"/>
				<g id="Group_4376" transform="translate(0.003 57.484)">
					<path id="Path_6938" class="st3" d="M196.8,103.2V0.9l0,0l0,0c-0.6,2.1-2,3.9-4,4.9l-83.3,48.1c-3.4,1.7-7.2,2.6-11.1,2.3
						v104.5c3.8,0.2,7.6-0.6,11.1-2.3l83.3-48.1C196,108.4,197.3,105.8,196.8,103.2z"/>
					<path id="Path_6939" class="st4" d="M85.7,52.9L5.8,6.7C2.5,4.8,0.5,2.4,0.1,0v102.3c-0.6,3,1.3,6.4,5.7,8.9l79.9,46.1
						c3.9,2.1,8.3,3.3,12.7,3.3V56.2C94,56.1,89.6,55,85.7,52.9z"/>
				</g>
			</g>
		</g>
	</g>
	<g id="Group_4381" transform="translate(2737.73 334.237)">
		<path id="Path_6940" class="st16" d="M17.1,12.6c-0.9-0.1-1.1-0.8-2.4-0.5s-1.1,1-0.4,1.2c1,0.3,1.8,1.1,2.1,2.1
			c0.7,1.6,2.5,3.8,4.8,3.7"/>
		<g id="Group_1717" transform="translate(15.399)">
			<path id="Path_3003" class="st16" d="M12.7,16.6c-0.9-0.4-1.6-2.9-2-4.1s-2.8-4-3.1-4.9C7,6,6.1,4.4,5.1,3c-0.9-0.5-1,0.3-1,0.3
				S3-0.3,2,0S1.6,1.8,1.6,1.8C1,1.9,0.6,2.5,0.7,3.1l0,0c0,0,0,0,0,0.1c0,0.4,0.1,0.9,0.3,1.3C0.4,4.1-0.1,4.9,0,5.6
				c0.5,1.8,1.4,5,1.7,6.8c0.3,1.7,0.9,3.3,2,4.6c2.3,3.8,7.7,5,9,5.2"/>
		</g>
		<path id="Path_6941" class="st17" d="M24,24.9c-2.7-3.9,1.5-11.2,4.9-10.3c8.7,3.2,16.8,6.4,22.7,9.9c7.3,4,17.1,9.2,22.1,15.8
			c2.3,8.4-1,14.2-6.3,15.5L47.5,36L24,24.9z"/>
		<path id="Path_6942" class="st2" d="M55.7,89.5C48,96,39.8,102.2,39,114.1c0.9,8.7,20.7,20.4,35.2,30.4c3.8,2.4,11.9-5.9,8.8-10.7
			c-6.4-6.9-13.4-13.3-20.9-19.1l7-12L55.7,89.5z"/>
		<path id="Path_6943" class="st18" d="M74.4,150l-0.8-5.8l2.7-6.1c1.1-2.3,3.6-3.6,6.1-3l1.2,0.3c1.9,1,3.5,2.4,4.8,4.1
			c0.5,0.6,0.6,1.4,0.4,2.2l-0.7,2l1.2,3.2c-1.8,3.9-4.9,7-8.8,8.9L74.4,150z"/>
		<path id="Path_6944" class="st18" d="M87.3,183l3.8,6.2l-1.6,3c-1,1.8-2.8,3.1-4.9,3.4c-2,0.2-3.7,1.3-4.8,2.9
			c-1.2,2.6,1.5,5.8,7.7,6.2c3.8-0.6,7.3-2.4,9.9-5.2l1.6,0.8c3.8-2,6.6-3.8,7.9-6.4c-2.3-5.8-4.4-8.6-7.6-10.1l-5.4-5.3L87.3,183z"
			/>
		<path id="Path_6945" class="st2" d="M89.8,191.2c-4.9-6.5-10.3-12.6-16.1-18.3c-5.4-5.4-10.7-10.5-15.3-16.3
			c-5.4-13.9-8.8-28.5-10.2-43.3c-0.1-1.1-0.2-2.2-0.3-3.4l21.2-2.3c0,0.6,0.1,1.2,0.1,1.8c0.3,4.9,0.9,9.7,1.6,14.4
			C72,132,73.6,140,74.7,148c8.6,8,17.7,21.5,26.9,36.8C102.8,188.3,91.5,194.8,89.8,191.2z"/>
		<path id="Path_6946" class="st19" d="M49.6,124.5c2.7,1,5.4,2.1,8,3.4c2.6,1.2,5.1,2.7,7.5,4.4c2.5,1.9,5,4,7.2,6.2
			c0.4,0.3,0.7,0.7,1.1,1c-0.8-5.1-1.7-10.3-2.5-15.5c-0.7-4.7-1.3-9.5-1.6-14.4c0-0.6-0.1-1.2-0.1-1.8L47.9,110
			c0.1,1.1,0.2,2.2,0.3,3.4C48.5,117.1,49,120.8,49.6,124.5z"/>
		<path id="Path_6947" class="st18" d="M81.8,97.2c0,8.3-4.4,14.9-8.4,17.9c-4.6,3.4-12.3,4.3-19,3.7c-2.9-0.2-5.7-0.8-8.4-1.7
			c-3.9-3.6-1.5-14.3-1.5-22.9c0-7.1-4.3-12.3-7.7-23.2c-1.6-5.1-2.7-10.3-3.3-15.6l7.7-4.3L66,39.6c2.6-0.1,5.2,0.2,7.7,0.7
			c7.4,12.2,4.4,29.4,5.7,41.9C80.1,88.9,81.8,97.2,81.8,97.2z"/>
		<path id="Path_6948" class="st17" d="M54.5,118.8c-2.9-0.2-5.7-0.8-8.4-1.7c-3.9-3.6-1-14.3-1.5-22.9c-0.3-5.8-7-18.1-9.9-31.5
			c1.7-1.7,8.9,1.7,8.3,2.3c-0.7,0.8,6,17.9,4.8,27.8C46.5,104.8,53.6,117.3,54.5,118.8z"/>
		<g id="Group_4380" transform="translate(33.684 13.615)">
			<path id="Path_6949" class="st16" d="M9.1,2.5C3,3,1.5,5.4,2,10.8c-1.4,3,2.4,9.7,4.3,13.8c0.6,1.2,1.5,2.9,4.1,2.7
				c0.9,0.2,1.3,1,1.6,1.9c0.3,1.1,0.5,2.4,0.4,3.5c7.1-0.5,13-2.2,15.2-7.2l-3.2-2.7L19.1,2.5H9.1z"/>
			<path id="Path_6950" class="st18" d="M1.7,13c1,0.1,2.3-0.6,3.9,2.6c0.6,1.2,1.3,2.6,1.3,2.6l3.4,0.6l1.9,4.3
				c0.6,1.4,2.8,3.7,4.3,3.7c2.5,0,6.6-1.8,7.9-3.5c0,0,1.2-8.9,0-13.1s-2.2-7.5-6.1-9.3S7.7,0.4,4.6,2.5C-1.9,7.2-0.2,11.8,1.7,13z
				"/>
			<path id="Path_6951" class="st16" d="M8.1,19.4c-0.2-0.6-0.4-1.2-0.4-1.8c-0.1-0.5,0.1-1.1,0.5-1.5c0.4-0.3,1-0.3,1.5,0
				c0.4,0.3,0.8,0.7,1,1.2c0.7,1.3,0.9,2.7,0.6,4.1c-0.1,0.4-0.3,0.9-0.7,0.9s-0.7-0.3-1-0.6c-0.7-0.9-1.2-1.8-1.7-2.8L8.1,19.4z"/>
		</g>
		<path id="Path_6952" class="st17" d="M42.2,49.7l3.4-4.7c7.2-0.5,14.3-3.7,15.8-6.6l3.8,1.8l-8,6.9L42.2,49.7z"/>
		<path id="Path_6953" class="st17" d="M37,50.6c0,0,10.2,5.7,25.1-3.3c5-3,5.4-6,5.4-6c0.3-1.4-2.2-2.6-4.5-2.2
			c-1.6,5.6-14,7.9-19.3,8.6L37,50.6z"/>
		<g id="Group_1717-2" transform="translate(0 3.428)">
			<path id="Path_3003-2" class="st16" d="M11.3,23.1c-1.2-1.5-2.3-3-3.3-4.6c-0.5-0.8,0.2-2.1,0.5-3.4s-0.3-2.3-0.1-3.2
				s1.9-1.9,1.5-2.4c-0.7-1-2,0.2-2,0.2c0-1.4,0.1-2.8,0.4-4.2C8.6,4.3,8.7,3.1,8.5,2c-0.3-0.4-1-0.2-1-0.2S8,0.2,7,0
				S5.8,1.3,5.8,1.3C5.1,1.1,4.5,1.5,4.3,2.1l0,0c0,0,0,0,0,0.1C4,2.8,3.8,3.4,3.7,4C2.9,4.2,2.4,4.7,2.2,5.4
				C1.8,7.2,1.3,9,0.7,10.7c-0.6,1.5-0.8,3.2-0.6,4.9c0.3,2.2,0.2,3.7,1.3,4.4c1.4,1.7,2.4,3.7,3.1,5.9c0.6,1.7,3.3,1.3,4.7,0.6
				S12.3,24.1,11.3,23.1z"/>
		</g>
		<path id="Path_6954" class="st17" d="M2.1,27.8c3.3,10.1,4.9,16.9,8.6,22c3.2,4.9,16.1,12.1,24.9,16.7c4.3,2.2,7.9,0.5,9.9-3.9
			l1.3-2c1.9-7.2-4-10.1-8.6-11.8c-6.5-2.4-12.6-5.6-18.3-9.6l-8.3-16.1C9.1,20.4,2.1,23.6,2.1,27.8z"/>
	</g>
	<g id="Group_4385" transform="translate(2314.002 238.014)">
		<g id="Group_4382" transform="translate(85.066 86.234)">
			<path id="Path_6955" class="st16" d="M6.1,0c0.2,1.9,0.1,3,0.6,4C7.2,5.1,7.3,6.2,7,7.4c-0.5,2.8-1.5,2.7-1.8,4.2
				s1.4,2.5,1.6,3.1s-1,2.5-4,0.6c-1.8-1-2.8-3-2.7-5L1.4,0H6.1z"/>
			<path id="Path_6956" class="st16" d="M7,6.4C6.9,7.5,7.1,8.5,7.5,9.5c0.2,0.4,0.4,0.9,0.6,1.3c0,0,0.2,1.3-1.4,0
				c-0.6-1-1.2-2.2-1.2-2.2L7,6.4z"/>
		</g>
		<g id="Group_4383" transform="translate(35.293 3.705)">
			<path id="Path_6957" class="st16" d="M8.8,2.3C3,2.7,1.5,5,1.9,10.2C0.5,13,4.1,19.6,5.8,23.6c0.5,1.2,1.4,2.8,3.9,2.6
				c0.9,0.2,2.1-0.5,2.4,0.3c0.5,1.6,4,6.3,4,6.3c6.8-0.4,8-3.3,10.2-8.1l-3-2.6L18.5,2.5L8.8,2.3z"/>
			<path id="Path_6958" class="st18" d="M1.6,12.3c0.9,0.1,2.2-0.6,3.8,2.5C6,16,6.6,17.3,6.6,17.3L9.9,18l1.8,4.2
				c0.6,1.3,2.7,3.6,4.1,3.6c2.4,0.1,6.4-1.6,7.7-3.3c0,0,1.3-8.6,0.2-12.6s-2-7.2-5.7-9.1S7.6,0.3,4.6,2.2
				C-1.8,6.6-0.2,11.2,1.6,12.3z"/>
			<path id="Path_6959" class="st16" d="M7.6,18.6c-0.2-0.6-0.4-1.2-0.4-1.8c-0.1-0.5,0.1-1.1,0.5-1.4c0.4-0.3,1-0.3,1.4,0
				s0.7,0.7,0.9,1.2c0.6,1.2,0.8,2.6,0.5,4c-0.1,0.4-0.3,0.8-0.7,0.9s-0.7-0.3-0.9-0.6c-0.6-0.9-1.2-1.8-1.6-2.7L7.6,18.6z"/>
		</g>
		<path id="Path_6960" d="M28.6,143.4c1.3,3.3,1.4,7.1-1.3,9.7c-3.5,0.3-6.3-0.1-8-1.7c-5.2-0.1-10.1-0.5-12.9-2.4
			c-3.4-1.4-5.2-4.2-6.3-7.7c-0.4-1.5,1-3.9,3.9-3.6l12.6,1.2l5.8-6.2l6.9,7.6L28.6,143.4z"/>
		<path id="Path_6961" d="M99.4,165c1.3,4.3,1.7,8.9,1.2,13.4c-2.7,1.4-5.7,2-8.7,1.8l-4-1.9l-5.6-1.3c-4.9-2.1-6.2-8.5-0.3-9.3
			l4.5-0.1l3.4-8.6l6.8,0.4L99.4,165z"/>
		<path id="Path_6962" class="st2" d="M100.7,165.1c-3.8,3.7-12,4.1-14.2,2.4l-18.1-38.2l-4.3-33.1l-0.3-2l5.5-1.5l14.8-4.1
			c0.3,3.8,0.7,8.1,1.1,12.7c0.6,7.1,2.6,17.9,2.4,26.4C93.6,140,94,142.1,100.7,165.1z"/>
		<path id="Path_6963" class="st19" d="M71,111.4c0.9-0.5,1.8-1,2.7-1.6c0.8-0.6,1.6-1.2,2.5-1.7c4.2-2.3,8.1,1.8,10.7,5.2
			c-0.5-4.3-1.1-8.5-1.4-11.8c-0.4-4.6-0.8-8.9-1.1-12.7l-14.8,4.1l-5.5,1.5l0.3,2l2.2,17C67.9,112.8,69.5,112.1,71,111.4z"/>
		<path id="Path_6964" class="st2" d="M77.4,101.3c-4.4,9.2-13.3,10.2-21.1,12.4c0,0-10.4,1.7-14.2,4.2c-5.4,9.5-5.6,16.7-12.6,27.7
			c-6.6,2.3-11.8-2.6-13-6.6c1.9-9.4,8-30.3,12.9-35.7L57.1,84C79.2,87.2,75.8,95.1,77.4,101.3z"/>
		<path id="Path_6965" class="st17" d="M74.1,30.1c4.3,5.1,13.7,21.7,15.4,27.9c1.3,4.9,3.7,28.7,3.7,28.7l-9,1.9l-3.5-23.5L70.1,50
			L74.1,30.1"/>
		<g id="Group_4384" transform="translate(41.921 26.607)">
			<path id="Path_6966" class="st17" d="M38.2,44c1.7,8.3,7.6,20.2,7.6,20.2s-0.5,3.7-6.4,8.1c-2.1,1.5-4.4,2.8-6.8,3.9
				c-10,4.7-25.4,0.8-32-8.7C-0.9,65.2,8,57,5.4,47.4c-3.2-11.8-6.9-22-4.8-28.5c3.5-4.3,7.2-8.4,11.1-12.2
				c8.9-8.1,15.5-6.6,15.5-6.6s7.5,2.3,9.8,13.3C38.4,19.7,36.6,35.7,38.2,44z"/>
			<path id="Path_6967" class="st18" d="M38.2,44c-1.7-8.3,0.1-24.2-1.2-30.5C34.7,2.4,27.2,3,27.2,3c-5.4-0.5-10.8,0.8-15.4,3.7
				C11.4,7,11,7.4,10.6,7.8c0.3-0.1,0.4,0.3,0.6,0.8c6.1,18.5-5.7,24.4,6.6,44c1.1,1.7,0.8,4,0.3,6c-0.8,2.4-1.9,4.7-3.2,6.8
				c-1.7,3.2-2.9,6.7-3.5,10.3c7,3,15.2,3.4,21.4,0.5c2.4-1.1,4.6-2.4,6.8-3.9c5.9-4.4,6.4-8.1,6.4-8.1S39.9,52.2,38.2,44z"/>
			<path id="Path_6968" class="st17" d="M18.9,0.1l2.8,1l-5.1,8.3L4.1,15.8l3.2-7.1"/>
			<path id="Path_6969" class="st17" d="M0.1,22.2c0,0,13.6-6.3,20.8-14c3.6-3.9,3.5-6.7,3.5-6.7c-0.4-0.9-3-1.6-4.7-1.1
				c0.2,5.3-11,12.2-15.5,14.3L0.1,22.2z"/>
		</g>
		<g id="Group_1717-3" transform="translate(1.886)">
			<path id="Path_3003-3" class="st16" d="M12.4,21.1c-1.4-1.2-2.7-2.4-4-3.8c-0.7-0.7-0.2-2-0.1-3.3s-0.6-2-0.6-3s1.4-2.1,1-2.5
				C7.9,7.7,6.8,9,6.8,9C6.6,7.7,6.4,6.3,6.4,5c0.2-1.1,0-2.3-0.4-3.3c-0.4-0.4-1,0-1,0S5.2,0,4.3,0s-1,1.5-1,1.5
				c-0.6-0.1-1.2,0.4-1.2,1l0,0c0,0,0,0,0,0.1C2,3.1,1.9,3.8,1.8,4.4C1.2,4.6,0.7,5.2,0.7,5.9c-0.1,1.8-0.2,3.5-0.5,5.3
				c-0.3,1.6-0.2,3.2,0.3,4.7c0.7,2,0.9,3.4,2,4c1.6,1.4,3,3.1,3.9,5c0.8,1.5,3.4,0.6,4.5-0.3S13.5,21.9,12.4,21.1z"/>
		</g>
		<path id="Path_6970" class="st17" d="M5.8,24c4.9,9,7.7,15.1,12,19.3c3.9,4,17.4,8.6,26.5,11.4c4.5,1.3,7.5-0.9,8.7-5.4l0.9-2.2
			c0.6-7.1-5.5-8.9-10.2-9.6c-6.5-1.2-12.9-3.1-19-5.8L14,17.9C11.2,15.7,5.1,20,5.8,24z"/>
	</g>
</g>
</svg>
