<svg xmlns="http://www.w3.org/2000/svg" width="1059.788" height="204.301" viewBox="0 0 1059.788 204.301">
  <g id="Group_3479" data-name="Group 3479" transform="translate(-3736.683 38.076)">
    <path id="Path_5080" data-name="Path 5080" d="M4722.5-21.74c-1.015.918-1.716,2.84-2.41,3.733a10.086,10.086,0,0,0-2.123,4.148c-.32,1.612-.045,3.293-.329,4.912a9.889,9.889,0,0,1-3.618,5.685c-1.17.975-2.486,1.776-3.564,2.851a5.38,5.38,0,0,0-1.812,4.037c.153,2.042,1.922,3.545,3.615,4.7a16.067,16.067,0,0,0,6.544,2.947,10.348,10.348,0,0,0,8.28-2.635,11.811,11.811,0,0,0,3.238-5.056c.617-1.887.094-3-.2-4.85-.781-4.86-1.242-9.69-2.551-14.46-.5-1.807-1.146-5-2.843-6.144A1.627,1.627,0,0,0,4722.5-21.74Z" transform="translate(34.172 0.558)" fill="#090d30"/>
    <path id="Path_5081" data-name="Path 5081" d="M4502.41-21.225a9.15,9.15,0,0,0-1.828,10.654l5.689-3.44,2.114-5.465-3.425-1.749Z" transform="translate(26.803 0.594)" fill="#090d30"/>
    <g id="Group_3425" data-name="Group 3425" transform="translate(4489.535 7.955)">
      <path id="Path_5082" data-name="Path 5082" d="M4499.821,6.812s14.218,11.958,14.645,18.722-29.188,18.89-32.418,20.535-10.664-7.862-5.423-10.923,21.2-10.535,21.478-12-6.291-4.18-7.968-6.283S4494.477,4.152,4499.821,6.812Z" transform="translate(-4463.604 -6.387)" fill="#090d30"/>
      <path id="Path_5083" data-name="Path 5083" d="M4475.587,36.614l-.029.021s-4.764-.335-7.652,1.31c-6.442,3.2-3.312,10.3-1.98,11.669.828.85,1.523,3.861,7.265.427,4.707-2.285,2.368-4.54,4.725-5.59l2.49-1.185c1.73-1.335,1.558-3.974.237-5.716h0A3.538,3.538,0,0,0,4475.587,36.614Z" transform="translate(-4463.985 -5.346)" fill="#f89c69"/>
    </g>
    <path id="Path_5084" data-name="Path 5084" d="M4465.427,41.5l-.851.133s-.362.474-2.607.51-3.49-2.642-3.078-2.706.683-1.675,0-2.577-6.481,1.61-8.866,3.994,2.333,11.435,8.866,11.516a68.518,68.518,0,0,0,7.913-.415,5.271,5.271,0,0,0,4.681-5.82h0A5.273,5.273,0,0,0,4465.427,41.5Z" transform="translate(25.035 2.635)" fill="#fbb686"/>
    <path id="Path_5085" data-name="Path 5085" d="M4055.6,41.38l.98.153s.418.547,3.005.588,4.021-3.045,3.546-3.119-.788-1.931,0-2.97,7.472,1.856,10.219,4.6-2.689,13.18-10.219,13.273a78.775,78.775,0,0,1-9.119-.478,6.076,6.076,0,0,1-5.4-6.707h0A6.079,6.079,0,0,1,4055.6,41.38Z" transform="translate(10.906 2.605)" fill="#fbb686"/>
    <path id="Path_5086" data-name="Path 5086" d="M4020.252-3.669s-16.12,13.558-16.6,21.227,33.092,21.416,36.753,23.282,12.09-8.913,6.148-12.384-24.038-11.944-24.349-13.6,7.131-4.74,9.033-7.124S4026.311-6.685,4020.252-3.669Z" transform="translate(9.322 1.196)" fill="#090d30"/>
    <path id="Path_5087" data-name="Path 5087" d="M4046.879,30.12l.033.023s5.4-.38,8.674,1.486c7.3,3.63,3.754,11.68,2.246,13.23-.938.964-1.727,4.378-8.236.483-5.336-2.591-2.684-5.147-5.357-6.339l-2.822-1.344c-1.962-1.515-1.768-4.505-.27-6.481h0A4.013,4.013,0,0,1,4046.879,30.12Z" transform="translate(10.603 2.376)" fill="#f89c69"/>
    <path id="Path_5088" data-name="Path 5088" d="M3945.929,41.226l.98.154s.418.546,3.005.587,4.022-3.045,3.547-3.119-.788-1.931,0-2.97,7.471,1.856,10.219,4.6-2.689,13.181-10.219,13.274a79.012,79.012,0,0,1-9.12-.478,6.077,6.077,0,0,1-5.4-6.707h0A6.08,6.08,0,0,1,3945.929,41.226Z" transform="translate(7.04 2.599)" fill="#fbb686"/>
    <path id="Path_5089" data-name="Path 5089" d="M3838.079,48.5l.851.133s.363.474,2.608.51,3.489-2.642,3.077-2.706-.683-1.675,0-2.577,6.482,1.61,8.866,3.994-2.333,11.435-8.866,11.516a68.512,68.512,0,0,1-7.912-.415,5.273,5.273,0,0,1-4.682-5.82h0A5.273,5.273,0,0,1,3838.079,48.5Z" transform="translate(3.271 2.882)" fill="#fbb686"/>
    <g id="Group_3426" data-name="Group 3426" transform="translate(3898.021 -6.447)">
      <path id="Path_5090" data-name="Path 5090" d="M3909.711-7.028s-16.595,13.959-17.093,21.854,34.069,22.049,37.838,23.969,12.447-9.176,6.329-12.749-24.748-12.3-25.067-14,7.341-4.88,9.3-7.334S3915.948-10.133,3909.711-7.028Z" transform="translate(-3892.613 7.524)" fill="#090d30"/>
      <path id="Path_5091" data-name="Path 5091" d="M3937.52,27.631l.031.022s5.044-.355,8.1,1.386c6.819,3.388,3.505,10.9,2.1,12.353-.876.9-1.613,4.087-7.69.451-4.983-2.419-2.506-4.806-5-5.919l-2.635-1.254c-1.832-1.414-1.649-4.207-.25-6.051h0A3.745,3.745,0,0,1,3937.52,27.631Z" transform="translate(-3891.257 8.738)" fill="#f89c69"/>
    </g>
    <g id="Group_3427" data-name="Group 3427" transform="translate(3792.448 8.99)">
      <path id="Path_5092" data-name="Path 5092" d="M3805.283,7.812s-14.218,11.958-14.645,18.722,29.188,18.89,32.417,20.535,10.664-7.862,5.424-10.923-21.2-10.535-21.476-12,6.289-4.18,7.966-6.283S3810.626,5.152,3805.283,7.812Z" transform="translate(-3790.634 -7.387)" fill="#090d30"/>
      <path id="Path_5093" data-name="Path 5093" d="M3828.768,37.614l.03.021s4.764-.335,7.65,1.31c6.442,3.2,3.312,10.3,1.98,11.669-.827.85-1.522,3.861-7.263.427-4.707-2.285-2.368-4.54-4.725-5.59l-2.49-1.185c-1.73-1.335-1.559-3.974-.237-5.716h0A3.537,3.537,0,0,1,3828.768,37.614Z" transform="translate(-3789.505 -6.346)" fill="#f89c69"/>
    </g>
    <path id="Path_5094" data-name="Path 5094" d="M4279.387,47.133l-198.446-1.321-17.034-9.307-96.49,9.084-16-11.464-97.129,17.9c-8.88-4.054-17.424-9.037-17.424-9.037l-27.146,11.143c-12.053,5.137,4.292,41.251,4.292,62.821,0,13.808-40.53,2.789-67.507-6.7-19.19-6.754,3.036-20.562,24.429-26.722" transform="translate(0 2.545)" fill="none" stroke="#ff544b" stroke-linecap="round" stroke-linejoin="round" stroke-width="5"/>
    <path id="Path_1297" data-name="Path 1297" d="M4271.695,68.191c-1.815-4.467-6.963-11.634-9.716-15.32a1.921,1.921,0,0,0,.923-.353c1.166-.954,4.983-6.783,4.451-7.527s-5.219-4.115-7.1-3.074c0,0-6.893,2.167-3.028,10.249-3.474,1.251-9.107,4.115-8.841,9.514a95.722,95.722,0,0,1-.007,12.151s6.233-.493,8.56-8.074a79.27,79.27,0,0,0,2.762-12.886,11.234,11.234,0,0,0,1.134.063,31.814,31.814,0,0,1-.641,13.69c-2.479,9.914,10.155,18.652,10.35,23.315C4270.525,89.956,4274.216,74.412,4271.695,68.191Z" transform="translate(17.949 2.813)" fill="#ff544b"/>
    <path id="Path_5095" data-name="Path 5095" d="M4050.509,33.4c.3.574,1.079,1.582.945,2.218l-.745,3.559a1.475,1.475,0,0,0,2.811.857c.8-1.989,2.06-4.791,2.109-5.96C4055.794,30.134,4048.851,30.263,4050.509,33.4Z" transform="translate(10.965 2.438)" fill="#f89c69"/>
    <g id="Group_3433" data-name="Group 3433" transform="translate(3994.801 -38.076)">
      <g id="Group_3432" data-name="Group 3432">
        <g id="Group_3428" data-name="Group 3428" transform="translate(62.551 165.887)">
          <path id="Path_5096" data-name="Path 5096" d="M4062.125,133.176a7.13,7.13,0,0,0,1.3,3.019c1.368,1.967,11.137,8.312,6.843,11.635-3.84,2.972-9.825.3-15.174-2.887a23.277,23.277,0,0,1-4.459-3.854s-.965.58-1.141.453l-2.49-1.7a1.053,1.053,0,0,1-.487-.935l.413-9.732.176-1.378a6.609,6.609,0,0,1,2.858-4.591,7.065,7.065,0,0,1,4.026-1.047,17.172,17.172,0,0,1,1.929.138,4.494,4.494,0,0,1,3.01,1.506,10.34,10.34,0,0,1,1.932,3.941A37.731,37.731,0,0,1,4062.125,133.176Z" transform="translate(-4046.518 -122.163)" fill="#090d30"/>
        </g>
        <g id="Group_3430" data-name="Group 3430" transform="translate(34.758 87.647)">
          <g id="Group_3429" data-name="Group 3429" transform="translate(62.507 72.877)">
            <path id="Path_5097" data-name="Path 5097" d="M4096.2,124.916a7.14,7.14,0,0,0,2.347,2.3c2.008,1.305,13.451,3.492,10.729,8.191-2.434,4.2-8.985,3.986-15.141,3.054a23.212,23.212,0,0,1-5.584-1.886s-.675.9-.885.851l-2.947-.63a1.052,1.052,0,0,1-.8-.681l-3.292-9.168-.356-1.343a6.6,6.6,0,0,1,.914-5.331,7.053,7.053,0,0,1,3.333-2.49,17.128,17.128,0,0,1,1.837-.6,4.494,4.494,0,0,1,3.357.258,10.336,10.336,0,0,1,3.275,2.921A37.481,37.481,0,0,1,4096.2,124.916Z" transform="translate(-4080.051 -116.982)" fill="#090d30"/>
          </g>
          <path id="Path_5098" data-name="Path 5098" d="M4043.259,50.133c7.109,6.429,30.486,29.114,32.437,31.8s20.522,36.778,24.185,43.127-15.566,9.476-17.042,7.092S4063.2,96.73,4060.008,92.869s-31.044-24.134-38.56-31.412S4032.008,39.959,4043.259,50.133Z" transform="translate(-4019.672 -46.587)" fill="#34478b"/>
          <path id="Path_5099" data-name="Path 5099" d="M4060.008,92.831c-3.194-3.861-31.044-24.134-38.56-31.412-4.465-4.323.1-11.1,6.9-13.75Z" transform="translate(-4019.672 -46.549)" opacity="0.2" style="mix-blend-mode: overlay;isolation: isolate"/>
        </g>
        <path id="Path_5100" data-name="Path 5100" d="M4005.946,62.394a32.677,32.677,0,0,0,6.422,14.186c6.981,8.168,23.8,16.776,25.363,19s6.552,29.056,8.859,40.333c1.355,6.63,18.769,3.514,17.358-2.039-2.959-11.342-6.619-41.055-9.177-45.912s-20.829-23.772-20.829-23.772-2.259-6.351-3.55-11.739C4027.161,38.977,4010.61,51.773,4005.946,62.394Z" transform="translate(-3985.397 41.063)" fill="#34478b"/>
        <path id="Path_5101" data-name="Path 5101" d="M4032.293,2.942c1.709,6.333,15.317,45.844,16.728,53.365.649,3.917-22,17.433-29.5,17.433s-13.522-1.907-14.528-5.907c-.347-1.375.688-11.075-1.129-17.236-3.469-11.764-11.9-23.306-13.217-28.847-2-8.445-1.6-14.562,2.174-16.741L4016.77-8.819C4025.111-13.635,4030.584-3.39,4032.293,2.942Z" transform="translate(-3985.979 39.064)" fill="#101542"/>
        <path id="Path_5102" data-name="Path 5102" d="M4049,55.54c-.741-3.953-4.85-16.737-8.832-28.9a16.216,16.216,0,0,1-2.021.234,36.079,36.079,0,0,1-11.566-1.758,46.251,46.251,0,0,1-16.431-9.083c-2.077-1.87-6.689-.216-9.258-1.315a46.741,46.741,0,0,0-6.771-2.457,15.67,15.67,0,0,0-3.979-.561,56.606,56.606,0,0,0,1.591,9.22c.375,1.58,1.274,1.3,2.111,4.285,3.574,4.006,6.229,11.33,9.613,15.5a117.587,117.587,0,0,1,9.938,13.281,68.013,68.013,0,0,1,3.649,7.333,31.119,31.119,0,0,0,3.234,5.905,14.7,14.7,0,0,0,5.282,4.292C4035.174,67.915,4049.516,58.668,4049,55.54Z" transform="translate(-3985.954 39.831)" fill="#090d30"/>
        <path id="Path_5103" data-name="Path 5103" d="M4015.086,1.385l1.444-2.8,1.078,5.867s15.83,30.3,17.228,34.085L4032.9,44.7l-6.981-3.045s-8.744-34.642-10.3-36.535l-3.472-3.732Z" transform="translate(-3985.179 39.368)" fill="#ff6355"/>
        <path id="Path_5104" data-name="Path 5104" d="M4001.207-4.225s.712.447.828,3.667c.089,2.5,9.539,5.437,14.139,1.752a3.707,3.707,0,0,0-.9-6.237,5.172,5.172,0,0,1-2.886-2.892C4010.88-12.336,4000.065-8.122,4001.207-4.225Z" transform="translate(-3985.568 39.072)" fill="#f89c69"/>
        <path id="Path_5105" data-name="Path 5105" d="M4002.042-1.2A40.478,40.478,0,0,0,4015.5,1.378l-.162,6.766s-12.191-2.6-14.833-8.108Z" transform="translate(-3985.589 39.376)" opacity="0.1"/>
        <path id="Path_5106" data-name="Path 5106" d="M4002.042-1.2A40.478,40.478,0,0,0,4015.5,1.378l-.579,5.735S4003.144,5.545,4000.5.036Z" transform="translate(-3985.589 39.376)" fill="#090d30"/>
        <path id="Path_5107" data-name="Path 5107" d="M4012.542-6.935a11.647,11.647,0,0,1,2.53,8.538l6.021,4.12s-1.309-9.914-7.432-13.3Z" transform="translate(-3985.165 39.151)" opacity="0.1"/>
        <path id="Path_5108" data-name="Path 5108" d="M4012.542-6.935a11.647,11.647,0,0,1,2.53,8.538l4.879,2.617s-.65-9.209-6.29-11.8Z" transform="translate(-3985.165 39.151)" fill="#090d30"/>
        <g id="Group_3431" data-name="Group 3431">
          <path id="Path_5109" data-name="Path 5109" d="M4014.127-25.842c1.623,4.308,5.787,13.6,5.477,17.668-.2,2.661-5.465,5.881-11.19,5.677-3.024-.107-6.64-1.257-10.66-4.125-2.757-1.967-7.6-6.552-8.572-11.206-1.856-7.987,2.053-15.16,8.711-17.525S4011.851-31.88,4014.127-25.842Z" transform="translate(-3986.005 38.153)" fill="#fbb686"/>
          <path id="Path_5110" data-name="Path 5110" d="M3999.553-21.578c2.1-3.717,6.724-1.108,10.292-2.259,2.536-.819,3.7-2.769,3.629-4.081.507-2.186,1.236-4.882-.407-6.85-3.427,4.114-13.976-10.879-23.722,2.108-7.966,10.887-.333,22.515,12.622,28.554h0a5.917,5.917,0,0,0-2.207-3.186c-1.929-1.416-4.776-4.027-3.838-6.563.687-1.854,2.6-.547,3.791.509a.448.448,0,0,0,.739-.413S3998.853-19.958,3999.553-21.578Z" transform="translate(-3986.097 38.076)" fill="#090d30"/>
        </g>
      </g>
      <path id="Path_5111" data-name="Path 5111" d="M4000.25,5.07c2.663,3.151,24.648,28.107,27.839,29.741,3.19,1.448,22.249,4.485,28.771,6.5,5.718,2.4,4.24,15.331-3.45,14.5-8.276-.894-30.084-4.761-33.287-6.056s-16.714-15.78-26.231-24.246C3981.6,13.057,3994-2.557,4000.25,5.07Z" transform="translate(-3986.007 39.526)" fill="#101542"/>
      <path id="Path_5112" data-name="Path 5112" d="M4060.412,44.634a4.141,4.141,0,0,1,4.2-.679,1.174,1.174,0,0,0,1.607-.688l1.257-3.7a1.585,1.585,0,0,1,1.52-1.076h0a1.583,1.583,0,0,1,1.551,1.82c-.347,2.279-.724,5.556-1.31,6.668-1.443,2.733-5.385,7.407-8.867,3.719S4060.412,44.634,4060.412,44.634Z" transform="translate(-3983.533 40.775)" fill="#fbb686"/>
    </g>
    <path id="Path_5113" data-name="Path 5113" d="M3940.91,30.691c.283.536,1.008,1.477.883,2.072l-.7,3.322a1.377,1.377,0,0,0,2.624.8c.749-1.857,1.924-4.474,1.969-5.564C3945.845,27.643,3939.362,27.764,3940.91,30.691Z" transform="translate(7.102 2.348)" fill="#f89c69"/>
    <path id="Path_5114" data-name="Path 5114" d="M3831.97,40.506c.268.506.953,1.4.835,1.957l-.657,3.139a1.3,1.3,0,0,0,2.479.757c.706-1.755,1.817-4.227,1.859-5.257C3836.632,37.627,3830.509,37.741,3831.97,40.506Z" transform="translate(3.263 2.698)" fill="#f89c69"/>
    <g id="Group_3443" data-name="Group 3443" transform="translate(3773.481 -25.634)">
      <g id="Group_3438" data-name="Group 3438" transform="translate(24.187 82.741)">
        <g id="Group_3435" data-name="Group 3435" transform="translate(13.95 1.271)">
          <g id="Group_3434" data-name="Group 3434" transform="translate(57.615 69.68)">
            <path id="Path_5115" data-name="Path 5115" d="M3871.2,137.519l.886-1.3-2.077-1.535Z" transform="translate(-3864.621 -121.969)" fill="#101542"/>
            <path id="Path_5116" data-name="Path 5116" d="M3865.3,131.126l2.8,5.812a1.533,1.533,0,0,0,1.269.863l2.012.15-1.191-2.836,2.712,2.005a5.832,5.832,0,0,0,2.937,1.117c3.937.355,11.791,1.132,13.215-1.581,2.37-4.513-3.365-5.3-6.268-6.705a18.537,18.537,0,0,1-7.154-5.95C3872.741,119.544,3862.446,125.206,3865.3,131.126Z" transform="translate(-3864.805 -122.402)" fill="#090d30"/>
          </g>
          <path id="Path_5117" data-name="Path 5117" d="M3830.559,58.146c6.028,5.452,28.263,31.026,29.918,33.3s16.838,31.3,19.944,36.681-12.2,7.87-13.45,5.848-16.506-32.008-19.214-35.282-30.825-25.061-37.2-31.233S3821.018,49.519,3830.559,58.146Z" transform="translate(-3809.152 -55.094)" fill="#34478b"/>
          <path id="Path_5118" data-name="Path 5118" d="M3837.6,83.221c-2.067-3.668-4.2-7.3-6.536-10.808a85.635,85.635,0,0,0-7.71-9.989c-1.391-1.536-2.809-3.059-4.256-4.544-.618-.635,1.152,5.087.487,4.5-5.078,2.527-12.087,1.094-8.571,4.5,4.666,4.517,23.027,20.163,30.906,26.533C3841.2,92.163,3838.3,84.476,3837.6,83.221Z" transform="translate(-3809.12 -54.998)" opacity="0.2" style="mix-blend-mode: overlay;isolation: isolate"/>
        </g>
        <g id="Group_3437" data-name="Group 3437" transform="translate(0 0)">
          <g id="Group_3436" data-name="Group 3436" transform="translate(41.304 78.289)">
            <path id="Path_5119" data-name="Path 5119" d="M3838,143.358l1.363-.787-1.2-2.285Z" transform="translate(-3835.489 -129.109)" fill="#101542"/>
            <path id="Path_5120" data-name="Path 5120" d="M3835.575,134.949V141.4a1.535,1.535,0,0,0,.767,1.329l1.747,1.008.159-3.072,1.573,2.985a5.816,5.816,0,0,0,2.16,2.281c3.392,2.03,10.13,6.14,12.591,4.315,4.093-3.037-.73-6.238-2.735-8.762a18.541,18.541,0,0,1-3.862-8.466C3847.307,127.746,3835.575,128.377,3835.575,134.949Z" transform="translate(-3835.575 -129.49)" fill="#090d30"/>
          </g>
          <path id="Path_5121" data-name="Path 5121" d="M3795.677,66.518s1.108,7.678,5.642,13.346c5.92,6.927,23.8,13.881,25.121,15.77s7.807,32.083,9.762,41.646c1.149,5.622,15.146,3.15,13.951-1.559-2.51-9.619-5.188-34.99-7.357-39.11s-20.074-26.5-20.074-26.5-1.915-5.386-3.01-9.954C3816.972,48.731,3798.437,54.075,3795.677,66.518Z" transform="translate(-3795.677 -53.866)" fill="#34478b"/>
        </g>
      </g>
      <g id="Group_3441" data-name="Group 3441">
        <path id="Path_5122" data-name="Path 5122" d="M3822.093,24.308c1.078,4.424,1.417,16.325,3.441,22.5,4.676,14.258,6.791,8.854,7.776,14.1.649,3.916-17.267,14.783-24.767,14.783s-12.727-1.538-12.941-5.658c-.342-6.6,3.118-12.675,2.475-16.787-2.942-18.848-12.341-14.309-13.984-21.241-2-8.445-2.691-14.741,1.085-16.92L3800.9,6.174C3807.508,2.353,3820.542,17.936,3822.093,24.308Z" transform="translate(-3771.956 27.172)" fill="#fff"/>
        <path id="Path_5123" data-name="Path 5123" d="M3833.31,60.947c-.984-5.249-3.1.155-7.776-14.1-.994-3.033-1.594-11.683-1.594-13.2.832-6.818.137-8.886-.65-11.064-1.787-4.94-8.841-10.634-13.986-16.649-2.423-1.365-4.748-1.821-6.625-.736l-.059.309-.28.195c9.792,4.1,13.331,35.294,13.331,35.294-2.6-13.738-26.154-28.332-26.155-28.332l-4.338,2.461c-3.775,2.179-3.085,8.476-1.085,16.92,1.707,7.2,8.688,5.113,12.186,26.488.6,3.683-.958,6.124-.677,11.54.213,4.119,5.441,5.658,12.941,5.658S3833.959,64.863,3833.31,60.947Z" transform="translate(-3771.956 27.138)" fill="#101542"/>
        <path id="Path_5124" data-name="Path 5124" d="M3815.013,40.98a138.161,138.161,0,0,0-3.083-16.209c-1.145-4.441-5.42-14.035-8.852-16.511-1.915-1.163-1.932-1.382-2.11-2.4l1.062-.679c.054-.027.107-.062.161-.089,0,0,9.468,4.065,12.578,12.583l-2.2,3.082,3.06.33S3816.564,34.466,3815.013,40.98Z" transform="translate(-3771.303 27.155)" fill="#090d30"/>
        <path id="Path_5125" data-name="Path 5125" d="M3789.721,5.575a8.658,8.658,0,0,1,1.3,6.219c-.385,2.469,10.273,7.652,14.379,5.975.8-2.113.173-8.475-2.323-9.64-1.232-.575-1.7-2.037-2.186-3.452C3799.39.278,3788.579,1.678,3789.721,5.575Z" transform="translate(-3771.703 27.045)" fill="#f89c69"/>
        <path id="Path_5126" data-name="Path 5126" d="M3801.819,31.062l1.9-3.9-4.623.278s-8.322-11.842-10.863-14.409l2.848-1.613c.01,0,21.792,15.594,24.384,29.335C3815.462,40.757,3807.059,33.29,3801.819,31.062Z" transform="translate(-3771.753 27.378)" fill="#090d30"/>
        <path id="Path_5127" data-name="Path 5127" d="M3814.062,36.427a13.762,13.762,0,0,1,.49,3.448S3814.4,38.557,3814.062,36.427Z" transform="translate(-3770.842 28.26)" fill="#414042"/>
        <path id="Path_5128" data-name="Path 5128" d="M3808.39,28.482c3.145,3.716,5.613,7.726,6.362,11.673Z" transform="translate(-3771.042 27.98)" fill="#090d30"/>
        <g id="Group_3440" data-name="Group 3440">
          <path id="Path_5129" data-name="Path 5129" d="M3800.046-21.791s5.145,5.651,8.332,27.852A41.1,41.1,0,0,0,3792.04,2S3794.549-26.488,3800.046-21.791Z" transform="translate(-3771.618 26.189)" fill="#090d30"/>
          <g id="Group_3439" data-name="Group 3439" transform="translate(3.611 0.722)">
            <path id="Path_5130" data-name="Path 5130" d="M3801.615-15.133c1.208,5.454,3.316,13.92,3,18.052-.225,2.929-2.06,4.648-8.49,4.03a45.127,45.127,0,0,1-11.146-2.556c-3.183-1.3-7.725-6.657-8.709-11.384-1.885-8.115,2.085-15.4,8.85-17.805S3800.2-21.535,3801.615-15.133Z" transform="translate(-3775.802 25.36)" fill="#fbb686"/>
          </g>
          <path id="Path_5131" data-name="Path 5131" d="M3800.892-19.534c-1.978,3.054-8.081,11.922-14.617,15.8a74.666,74.666,0,0,0,10.07,18.266s-16.3-.721-18.46-3.516c-5.918-7.648-9.64-29.724,2.2-34.752,12.373-5.252,18.58-.268,20.653,2.079A1.759,1.759,0,0,1,3800.892-19.534Z" transform="translate(-3772.314 26.057)" fill="#090d30"/>
        </g>
      </g>
      <g id="Group_3442" data-name="Group 3442" transform="translate(8.938 41.796)">
        <path id="Path_5132" data-name="Path 5132" d="M3832.989,61.456c-8.586-1.235-22.459-3.787-24.8-4.731-2.788-1.123-12-13.359-20.253-20.711a18.154,18.154,0,0,1-4.481-7.186,14.462,14.462,0,0,1-.679-3.843c-.278-6.783,4.563-11.417,8.17-7.019,2.3,2.733,21.377,24.387,24.151,25.8,1.29.583,5.577,1.47,10.363,2.428a1.148,1.148,0,0,0,.07.236A49.391,49.391,0,0,0,3832.989,61.456Z" transform="translate(-3780.884 -14.248)" fill="#090d30"/>
        <path id="Path_5133" data-name="Path 5133" d="M3791,16.063c2.311,2.734,21.385,24.386,24.154,25.8,2.767,1.256,19.3,3.89,24.962,5.64,4.961,2.08,3.678,13.3-2.993,12.58-7.18-.776-26.1-4.131-28.879-5.255s-14.5-13.691-22.759-21.035C3774.82,22.993,3785.584,9.446,3791,16.063Z" transform="translate(-3780.948 -14.316)" fill="#101542"/>
      </g>
      <path id="Path_5134" data-name="Path 5134" d="M3842.381,52.138a3.593,3.593,0,0,1,3.647-.59,1.018,1.018,0,0,0,1.394-.6l1.091-3.211a1.375,1.375,0,0,1,1.319-.933h0a1.373,1.373,0,0,1,1.345,1.579c-.3,1.977-.627,4.821-1.137,5.786-1.252,2.372-4.672,6.427-7.692,3.226S3842.381,52.138,3842.381,52.138Z" transform="translate(-3769.892 28.626)" fill="#fbb686"/>
    </g>
    <g id="Group_3449" data-name="Group 3449" transform="translate(3881.695 -35.814)">
      <g id="Group_3448" data-name="Group 3448">
        <g id="Group_3444" data-name="Group 3444" transform="translate(62.116 163.467)">
          <path id="Path_5135" data-name="Path 5135" d="M3952.45,133.022a7.134,7.134,0,0,0,1.3,3.02c1.368,1.967,11.137,8.311,6.843,11.635-3.84,2.971-9.824.3-15.175-2.887a23.28,23.28,0,0,1-4.459-3.854s-.964.58-1.14.452l-2.491-1.695a1.055,1.055,0,0,1-.488-.935l.413-9.732.176-1.378a6.607,6.607,0,0,1,2.858-4.591,7.058,7.058,0,0,1,4.027-1.047,16.923,16.923,0,0,1,1.927.138,4.5,4.5,0,0,1,3.01,1.505,10.345,10.345,0,0,1,1.932,3.942A37.524,37.524,0,0,1,3952.45,133.022Z" transform="translate(-3936.844 -122.01)" fill="#090d30"/>
        </g>
        <g id="Group_3446" data-name="Group 3446" transform="translate(34.324 85.227)">
          <g id="Group_3445" data-name="Group 3445" transform="translate(62.507 72.876)">
            <path id="Path_5136" data-name="Path 5136" d="M3986.523,124.763a7.131,7.131,0,0,0,2.347,2.3c2.009,1.305,13.451,3.493,10.729,8.191-2.434,4.2-8.986,3.987-15.142,3.055a23.212,23.212,0,0,1-5.584-1.886s-.675.9-.885.85l-2.946-.629a1.056,1.056,0,0,1-.8-.681l-3.291-9.169-.357-1.342a6.6,6.6,0,0,1,.914-5.331,7.058,7.058,0,0,1,3.333-2.49,17.277,17.277,0,0,1,1.836-.6,4.5,4.5,0,0,1,3.357.258,10.348,10.348,0,0,1,3.275,2.921A37.411,37.411,0,0,1,3986.523,124.763Z" transform="translate(-3970.377 -116.829)" fill="#090d30"/>
          </g>
          <path id="Path_5137" data-name="Path 5137" d="M3933.585,49.98c7.109,6.428,30.486,29.113,32.437,31.8s20.522,36.778,24.186,43.127-15.566,9.476-17.042,7.091-19.638-35.421-22.831-39.283-31.043-24.135-38.56-31.412S3922.335,39.806,3933.585,49.98Z" transform="translate(-3909.998 -46.434)" fill="#34478b"/>
          <path id="Path_5138" data-name="Path 5138" d="M3950.334,92.691c-3.193-3.861-31.044-24.135-38.56-31.412-4.7-4.549.6-11.809,7.984-14.131Z" transform="translate(-3909.999 -46.409)" opacity="0.2" style="mix-blend-mode: overlay;isolation: isolate"/>
        </g>
        <path id="Path_5139" data-name="Path 5139" d="M3898.07,63.476s.151,6.307,5.5,12.989c6.98,8.169,22.866,16.744,24.426,18.972s6.552,29.057,8.859,40.334c1.356,6.63,18.769,3.514,17.359-2.04-2.961-11.342-6.621-41.055-9.179-45.912S3924.2,64.046,3924.2,64.046s-2.259-6.351-3.55-11.738C3917.424,38.831,3912.015,50.45,3898.07,63.476Z" transform="translate(-3876.094 38.788)" fill="#34478b"/>
        <path id="Path_5140" data-name="Path 5140" d="M3922.635,2.789c1.709,6.332,15.318,45.844,16.728,53.364.649,3.917-19.614,15.622-27.115,15.622s-13.521-1.907-14.529-5.907c-.455-1.8.371-10.49-2.447-14.391-5.125-11.3-13.844-23.9-14.942-28.53-2-8.445-.942-15.913,2.832-18.092l23.948-13.826C3915.452-13.788,3920.926-3.544,3922.635,2.789Z" transform="translate(-3876.755 36.796)" fill="#101542"/>
        <path id="Path_5141" data-name="Path 5141" d="M3939.3,55.54c-.741-3.953-4.85-16.737-8.831-28.9a16.224,16.224,0,0,1-2.022.234,36.068,36.068,0,0,1-11.566-1.758,46.25,46.25,0,0,1-16.433-9.083c-2.077-1.87-6.689-.216-9.257-1.315a46.789,46.789,0,0,0-6.77-2.457,15.681,15.681,0,0,0-3.979-.561,56.365,56.365,0,0,0,1.591,9.22c.374,1.58,1.347,2.607,2.182,5.594,3.576,4.005,6.158,10.02,9.541,14.187a117.5,117.5,0,0,1,9.938,13.281,68.109,68.109,0,0,1,3.65,7.333,31.143,31.143,0,0,0,3.233,5.905,9.087,9.087,0,0,0,4.015,3.5C3926.566,67.084,3939.821,58.668,3939.3,55.54Z" transform="translate(-3876.715 37.569)" fill="#090d30"/>
        <path id="Path_5142" data-name="Path 5142" d="M3905.412,1.231l1.445-2.8,1.077,5.866s15.83,30.3,17.228,34.086l-1.931,6.163-6.979-3.044s-8.745-34.643-10.3-36.536l-3.471-3.731Z" transform="translate(-3875.939 37.101)" fill="#ff6355"/>
        <path id="Path_5143" data-name="Path 5143" d="M3891.928-5.06a23.039,23.039,0,0,1,.419,4.354c.089,2.5,9.539,5.437,14.139,1.752a3.708,3.708,0,0,0-.9-6.237,5.175,5.175,0,0,1-2.886-2.894C3901.192-12.484,3890.787-8.958,3891.928-5.06Z" transform="translate(-3876.314 36.8)" fill="#f89c69"/>
        <path id="Path_5144" data-name="Path 5144" d="M3892.367-1.357a40.477,40.477,0,0,0,13.455,2.581l-.161,6.766s-12.191-2.6-14.833-8.107Z" transform="translate(-3876.349 37.108)" opacity="0.1"/>
        <path id="Path_5145" data-name="Path 5145" d="M3892.367-1.357a40.477,40.477,0,0,0,13.455,2.581l-.579,5.736s-11.774-1.569-14.416-7.077Z" transform="translate(-3876.349 37.108)" fill="#090d30"/>
        <path id="Path_5146" data-name="Path 5146" d="M3902.869-7.089a11.648,11.648,0,0,1,2.529,8.538l6.021,4.121s-1.308-9.914-7.431-13.305Z" transform="translate(-3875.925 36.884)" opacity="0.1"/>
        <path id="Path_5147" data-name="Path 5147" d="M3902.869-7.089a11.648,11.648,0,0,1,2.529,8.538l4.879,2.617s-.649-9.209-6.289-11.8Z" transform="translate(-3875.925 36.884)" fill="#090d30"/>
        <g id="Group_3447" data-name="Group 3447">
          <path id="Path_5148" data-name="Path 5148" d="M3904.807-25.166c1.62,4.3,4.256,12.911,3.945,16.969-.224,2.932-.554,4.4-8.562,5.826-2.608.465-8.5-1.315-11.723-3.614-2.752-1.963-7.589-6.539-8.555-11.183-1.852-7.972,2.049-15.131,8.694-17.492S3902.537-31.194,3904.807-25.166Z" transform="translate(-3876.75 35.916)" fill="#fbb686"/>
          <path id="Path_5149" data-name="Path 5149" d="M3889.6-21.022a5.52,5.52,0,0,1,5.9-4.033c7.47.374,9.868-.173,10.145-.63.785-1.3-.614-6.383-2.519-7.986s-15.952-5.93-24.01,4.856c-6.1,8.167.624,19.26,13.555,25.288h0a5.9,5.9,0,0,0-2.2-3.179c-1.924-1.414-4.766-4.02-3.829-6.551.685-1.85,2.6-.547,3.782.508a.447.447,0,0,0,.738-.413Z" transform="translate(-3876.843 35.891)" fill="#090d30"/>
        </g>
      </g>
      <path id="Path_5150" data-name="Path 5150" d="M3950.739,44.48a4.144,4.144,0,0,1,4.2-.679,1.174,1.174,0,0,0,1.607-.687l1.257-3.7a1.588,1.588,0,0,1,1.521-1.076h0a1.583,1.583,0,0,1,1.55,1.82c-.347,2.279-.724,5.557-1.31,6.668-1.442,2.734-5.385,7.408-8.866,3.72S3950.739,44.48,3950.739,44.48Z" transform="translate(-3874.293 38.508)" fill="#fbb686"/>
      <path id="Path_5151" data-name="Path 5151" d="M3890.615,4.916c2.663,3.15,24.648,28.107,27.84,29.741,3.189,1.448,22.247,4.485,28.771,6.5,5.719,2.4,4.24,15.332-3.449,14.5-8.276-.894-30.084-4.761-33.286-6.056s-18.134-15.627-27.652-24.093C3870.543,13.056,3884.368-2.712,3890.615,4.916Z" transform="translate(-3876.805 37.259)" fill="#101542"/>
    </g>
    <path id="Path_5152" data-name="Path 5152" d="M4576.693,41.226l-.98.154s-.42.546-3.006.587-4.021-3.045-3.547-3.119.788-1.931,0-2.97-7.471,1.856-10.218,4.6,2.689,13.181,10.218,13.274a79.027,79.027,0,0,0,9.12-.478,6.077,6.077,0,0,0,5.4-6.707h0A6.079,6.079,0,0,0,4576.693,41.226Z" transform="translate(28.871 2.599)" fill="#fbb686"/>
    <path id="Path_5153" data-name="Path 5153" d="M4684.426,48.5l-.851.133s-.362.474-2.607.51-3.49-2.642-3.078-2.706.684-1.675,0-2.577-6.481,1.61-8.866,3.994,2.333,11.435,8.866,11.516a68.506,68.506,0,0,0,7.913-.415,5.271,5.271,0,0,0,4.682-5.82h0A5.273,5.273,0,0,0,4684.426,48.5Z" transform="translate(32.754 2.882)" fill="#fbb686"/>
    <g id="Group_3450" data-name="Group 3450" transform="translate(4601.967 -6.447)">
      <path id="Path_5154" data-name="Path 5154" d="M4613.618-7.028s16.6,13.959,17.094,21.854-34.069,22.049-37.838,23.969-12.448-9.176-6.331-12.749,24.748-12.3,25.068-14-7.342-4.88-9.3-7.334S4607.381-10.133,4613.618-7.028Z" transform="translate(-4572.172 7.524)" fill="#090d30"/>
      <path id="Path_5155" data-name="Path 5155" d="M4584.87,27.631l-.031.022s-5.043-.355-8.1,1.386c-6.819,3.388-3.5,10.9-2.1,12.353.875.9,1.612,4.087,7.689.451,4.982-2.419,2.506-4.806,5-5.919l2.636-1.254c1.832-1.414,1.649-4.207.251-6.051h0A3.746,3.746,0,0,0,4584.87,27.631Z" transform="translate(-4572.59 8.738)" fill="#f89c69"/>
    </g>
    <g id="Group_3451" data-name="Group 3451" transform="translate(4715.219 8.99)">
      <path id="Path_5156" data-name="Path 5156" d="M4717.821,7.812s14.218,11.958,14.645,18.722-29.188,18.89-32.418,20.535-10.664-7.862-5.423-10.923,21.2-10.535,21.478-12-6.291-4.18-7.968-6.283S4712.477,5.152,4717.821,7.812Z" transform="translate(-4681.604 -7.387)" fill="#090d30"/>
      <path id="Path_5157" data-name="Path 5157" d="M4693.586,37.614l-.029.021s-4.764-.335-7.651,1.31c-6.442,3.2-3.312,10.3-1.98,11.669.827.85,1.523,3.861,7.264.427,4.708-2.285,2.368-4.54,4.725-5.59l2.49-1.185c1.73-1.335,1.558-3.974.237-5.716h0A3.539,3.539,0,0,0,4693.586,37.614Z" transform="translate(-4681.985 -6.346)" fill="#f89c69"/>
    </g>
    <path id="Path_5158" data-name="Path 5158" d="M4260.76,47.133l198.445-1.321,18.961-2.523,94.563,2.3,16-11.464,97.13,17.9c8.879-4.054,17.423-9.037,17.423-9.037l41.9,10.973c17.853,7.609-.083,29.953-23.123,53.567-5.33,5.462-2.719,13.523,34.093,14.768,11.5.389,16.159,5.252,3.333,13.12" transform="translate(18.385 2.545)" fill="none" stroke="#ff544b" stroke-linecap="round" stroke-linejoin="round" stroke-width="5"/>
    <path id="Path_5159" data-name="Path 5159" d="M4581.014,30.691c-.283.536-1.007,1.477-.883,2.072l.7,3.322a1.378,1.378,0,0,1-2.625.8c-.748-1.857-1.923-4.474-1.969-5.564C4576.079,27.643,4582.562,27.764,4581.014,30.691Z" transform="translate(29.506 2.348)" fill="#f89c69"/>
    <path id="Path_5160" data-name="Path 5160" d="M4689.944,40.506c-.269.506-.952,1.4-.834,1.957l.659,3.139a1.3,1.3,0,0,1-2.479.757c-.708-1.755-1.817-4.227-1.86-5.257C4685.282,37.627,4691.407,37.741,4689.944,40.506Z" transform="translate(33.354 2.698)" fill="#f89c69"/>
    <g id="Group_3461" data-name="Group 3461" transform="translate(4664.488 -25.738)">
      <g id="Group_3456" data-name="Group 3456" transform="translate(0 82.845)">
        <g id="Group_3453" data-name="Group 3453" transform="translate(0 1.271)">
          <g id="Group_3452" data-name="Group 3452" transform="translate(0 69.68)">
            <path id="Path_5161" data-name="Path 5161" d="M4650.625,137.519l-.886-1.3,2.077-1.535Z" transform="translate(-4632.392 -121.969)" fill="#101542"/>
            <path id="Path_5162" data-name="Path 5162" d="M4657.3,131.126l-2.8,5.812a1.533,1.533,0,0,1-1.268.863l-2.013.15,1.19-2.836-2.712,2.005a5.831,5.831,0,0,1-2.937,1.117c-3.937.355-11.792,1.132-13.215-1.581-2.37-4.513,3.366-5.3,6.269-6.705a18.537,18.537,0,0,0,7.153-5.95C4649.857,119.544,4660.152,125.206,4657.3,131.126Z" transform="translate(-4632.983 -122.402)" fill="#090d30"/>
          </g>
          <path id="Path_5163" data-name="Path 5163" d="M4693.636,58.146c-6.029,5.452-28.264,31.026-29.918,33.3s-16.838,31.3-19.944,36.681,12.2,7.87,13.45,5.848,16.507-32.008,19.214-35.282,30.826-25.061,37.2-31.233S4703.176,49.519,4693.636,58.146Z" transform="translate(-4632.617 -55.094)" fill="#34478b"/>
          <path id="Path_5164" data-name="Path 5164" d="M4685.719,83.691c2.067-3.669,4.2-7.3,6.537-10.808a85.4,85.4,0,0,1,7.709-9.989c1.391-1.536,2.81-3.06,4.255-4.545.618-.635-1.15,5.088-.485,4.5,5.078,2.527,12.087,1.094,8.57,4.5-4.666,4.518-22.791,20.471-31.139,26.435C4681.883,92.533,4685.012,84.945,4685.719,83.691Z" transform="translate(-4631.285 -54.981)" opacity="0.2" style="mix-blend-mode: overlay;isolation: isolate"/>
        </g>
        <g id="Group_3455" data-name="Group 3455" transform="translate(34.474 0)">
          <g id="Group_3454" data-name="Group 3454" transform="translate(0 78.289)">
            <path id="Path_5165" data-name="Path 5165" d="M4683.8,143.358l-1.363-.787,1.2-2.285Z" transform="translate(-4665.714 -129.109)" fill="#101542"/>
            <path id="Path_5166" data-name="Path 5166" d="M4686.88,134.949V141.4a1.536,1.536,0,0,1-.768,1.329l-1.748,1.008-.158-3.072-1.573,2.985a5.832,5.832,0,0,1-2.161,2.281c-3.393,2.03-10.131,6.14-12.591,4.315-4.094-3.037.73-6.238,2.735-8.762a18.539,18.539,0,0,0,3.86-8.466C4675.147,127.746,4686.88,128.377,4686.88,134.949Z" transform="translate(-4666.283 -129.49)" fill="#090d30"/>
          </g>
          <path id="Path_5167" data-name="Path 5167" d="M4727.934,66.518s-1.108,7.678-5.642,13.346c-5.919,6.927-23.8,13.881-25.121,15.77s-7.807,32.083-9.762,41.646c-1.151,5.622-15.148,3.15-13.952-1.559,2.51-9.619,5.187-34.99,7.357-39.11s20.073-26.5,20.073-26.5,1.915-5.386,3.01-9.954C4706.638,48.731,4725.173,54.075,4727.934,66.518Z" transform="translate(-4666.033 -53.866)" fill="#34478b"/>
        </g>
      </g>
      <g id="Group_3459" data-name="Group 3459" transform="translate(59.191)">
        <path id="Path_5168" data-name="Path 5168" d="M4701.391,24.308c-1.076,4.424-1.416,16.325-3.441,22.5-4.675,14.258-6.792,8.854-7.775,14.1-.65,3.916,17.266,14.783,24.767,14.783s12.727-1.538,12.94-5.658c.342-6.6-3.117-12.675-2.476-16.787,2.942-18.848,12.342-14.309,13.984-21.241,2-8.445,2.69-14.741-1.084-16.92l-15.719-8.916C4715.977,2.353,4702.942,17.936,4701.391,24.308Z" transform="translate(-4690.158 27.277)" fill="#fff"/>
        <path id="Path_5169" data-name="Path 5169" d="M4690.175,60.947c.983-5.249,3.1.155,7.775-14.1.995-3.033,1.6-11.683,1.6-13.2-.833-6.818-.139-8.886.649-11.064,1.787-4.94,8.842-10.634,13.987-16.649,2.424-1.365,4.748-1.821,6.625-.736l.059.309.279.195c-9.792,4.1-13.33,35.294-13.33,35.294,2.6-13.738,26.153-28.332,26.153-28.332l4.339,2.461c3.774,2.179,3.084,8.476,1.084,16.92-1.706,7.2-8.687,5.113-12.186,26.488-.6,3.683.958,6.124.677,11.54-.213,4.119-5.44,5.658-12.94,5.658S4689.525,64.863,4690.175,60.947Z" transform="translate(-4690.158 27.242)" fill="#101542"/>
        <path id="Path_5170" data-name="Path 5170" d="M4707.248,40.98a138.22,138.22,0,0,1,3.083-16.209c1.146-4.441,5.422-14.035,8.853-16.511,1.916-1.163,1.933-1.382,2.111-2.4l-1.063-.679c-.052-.027-.106-.062-.16-.089,0,0-9.467,4.065-12.577,12.583l2.2,3.082-3.062.33S4705.7,34.466,4707.248,40.98Z" transform="translate(-4689.587 27.259)" fill="#090d30"/>
        <path id="Path_5171" data-name="Path 5171" d="M4732.582,5.575a8.656,8.656,0,0,0-1.3,6.219c.384,2.469-10.275,7.652-14.379,5.975-.8-2.113-.173-8.475,2.322-9.64,1.232-.575,1.7-2.037,2.186-3.452C4722.911.278,4733.722,1.678,4732.582,5.575Z" transform="translate(-4689.227 27.149)" fill="#f89c69"/>
        <path id="Path_5172" data-name="Path 5172" d="M4720.86,31.062l-1.9-3.9,4.622.278s8.324-11.842,10.863-14.409l-2.848-1.613c-.008,0-21.791,15.594-24.384,29.335C4707.218,40.757,4715.621,33.29,4720.86,31.062Z" transform="translate(-4689.557 27.482)" fill="#090d30"/>
        <path id="Path_5173" data-name="Path 5173" d="M4707.708,36.427a13.763,13.763,0,0,0-.49,3.448S4707.369,38.557,4707.708,36.427Z" transform="translate(-4689.557 28.364)" fill="#414042"/>
        <path id="Path_5174" data-name="Path 5174" d="M4713.581,28.482c-3.146,3.716-5.614,7.726-6.363,11.673Z" transform="translate(-4689.557 28.084)" fill="#090d30"/>
        <g id="Group_3458" data-name="Group 3458" transform="translate(28.916)">
          <g id="Group_3457" data-name="Group 3457" transform="translate(0 0.826)">
            <path id="Path_5175" data-name="Path 5175" d="M4721.12-15.133c-1.208,5.454-3.315,13.92-3,18.052.224,2.929,2.059,4.648,8.489,4.03a45.132,45.132,0,0,0,11.146-2.556c3.185-1.3,7.726-6.657,8.708-11.384,1.886-8.115-2.085-15.4-8.85-17.805S4722.539-21.535,4721.12-15.133Z" transform="translate(-4718.089 25.36)" fill="#fbb686"/>
          </g>
          <path id="Path_5176" data-name="Path 5176" d="M4735.995,23.74c4.282,2.175,8.671,3.169,13.306,1.575a5.888,5.888,0,0,0,1.543-.736c4.288-3.08-.117-8.678,2.6-12.289,1.695-2.251,5.214-2.1,7.379-3.9a2.559,2.559,0,0,0,1.013-1.672,2.732,2.732,0,0,0-.277-1.288c-1.185-2.744-3.952-4.393-6.49-5.971s-5.2-3.532-5.9-6.439a16.09,16.09,0,0,1-.268-3.057,25.325,25.325,0,0,0-2.1-9.01c-3.753-8.566-18.87-9.336-24.815-2.607a1.76,1.76,0,0,0-.15,2.125,76.556,76.556,0,0,0,5.314,7.249c1.954,2.355,6.412,5.059,6.674,8.315.213,2.642-1.088,4.973-2.565,7.041-1.19,1.667-2.369,3.654-1.872,5.642.571,2.285,3.25,3.994,2.813,6.309a19.909,19.909,0,0,1-.776,2.029,4.555,4.555,0,0,0,1.02,4.11A10.727,10.727,0,0,0,4735.995,23.74Z" transform="translate(-4717.967 26.158)" fill="#090d30"/>
        </g>
      </g>
      <g id="Group_3460" data-name="Group 3460" transform="translate(49.44 41.901)">
        <path id="Path_5177" data-name="Path 5177" d="M4690.474,61.456c8.587-1.235,22.459-3.787,24.8-4.731,2.789-1.123,12-13.359,20.253-20.711a18.161,18.161,0,0,0,4.481-7.186,14.474,14.474,0,0,0,.68-3.843c.277-6.783-4.564-11.417-8.171-7.019-2.3,2.733-21.376,24.387-24.151,25.8-1.29.583-5.577,1.47-10.363,2.428a1.163,1.163,0,0,1-.069.236A49.389,49.389,0,0,1,4690.474,61.456Z" transform="translate(-4680.396 -14.248)" fill="#090d30"/>
        <path id="Path_5178" data-name="Path 5178" d="M4732.866,16.063c-2.31,2.734-21.385,24.386-24.153,25.8-2.768,1.256-19.3,3.89-24.962,5.64-4.96,2.08-3.678,13.3,2.994,12.58,7.18-.776,26.1-4.131,28.879-5.255s14.5-13.691,22.758-21.035C4749.05,22.993,4738.286,9.446,4732.866,16.063Z" transform="translate(-4680.739 -14.316)" fill="#101542"/>
      </g>
      <path id="Path_5179" data-name="Path 5179" d="M4679.719,52.138a3.593,3.593,0,0,0-3.647-.59,1.018,1.018,0,0,1-1.394-.6l-1.091-3.211a1.376,1.376,0,0,0-1.318-.933h0a1.372,1.372,0,0,0-1.345,1.579c.3,1.977.627,4.821,1.136,5.786,1.251,2.372,4.672,6.427,7.692,3.226S4679.719,52.138,4679.719,52.138Z" transform="translate(-4631.646 28.73)" fill="#fbb686"/>
    </g>
    <g id="Group_3467" data-name="Group 3467" transform="translate(4550.368 -35.261)">
      <g id="Group_3466" data-name="Group 3466">
        <g id="Group_3462" data-name="Group 3462" transform="translate(39.517 162.913)">
          <path id="Path_5180" data-name="Path 5180" d="M4570.148,133.022a7.126,7.126,0,0,1-1.3,3.02c-1.368,1.967-11.138,8.311-6.844,11.635,3.84,2.971,9.826.3,15.175-2.887a23.242,23.242,0,0,0,4.459-3.854s.964.58,1.141.452l2.489-1.695a1.056,1.056,0,0,0,.489-.935l-.413-9.732-.177-1.378a6.6,6.6,0,0,0-2.858-4.591,7.055,7.055,0,0,0-4.026-1.047,16.908,16.908,0,0,0-1.928.138,4.5,4.5,0,0,0-3.011,1.505,10.342,10.342,0,0,0-1.931,3.942A37.56,37.56,0,0,0,4570.148,133.022Z" transform="translate(-4560.918 -122.01)" fill="#090d30"/>
        </g>
        <g id="Group_3464" data-name="Group 3464" transform="translate(0 84.673)">
          <g id="Group_3463" data-name="Group 3463" transform="translate(0 72.876)">
            <path id="Path_5181" data-name="Path 5181" d="M4536.239,124.763a7.128,7.128,0,0,1-2.346,2.3c-2.009,1.305-13.452,3.493-10.729,8.191,2.434,4.2,8.985,3.987,15.142,3.055a23.23,23.23,0,0,0,5.584-1.886s.674.9.885.85l2.945-.629a1.053,1.053,0,0,0,.8-.681l3.292-9.169.357-1.342a6.607,6.607,0,0,0-.914-5.331,7.062,7.062,0,0,0-3.333-2.49,17.294,17.294,0,0,0-1.837-.6,4.5,4.5,0,0,0-3.356.258,10.341,10.341,0,0,0-3.276,2.921A37.681,37.681,0,0,0,4536.239,124.763Z" transform="translate(-4522.748 -116.829)" fill="#090d30"/>
          </g>
          <path id="Path_5182" data-name="Path 5182" d="M4590.916,49.98c-7.109,6.428-30.486,29.113-32.437,31.8s-20.522,36.778-24.186,43.127,15.566,9.476,17.042,7.091,19.638-35.421,22.831-39.283,31.043-24.135,38.56-31.412S4602.166,39.806,4590.916,49.98Z" transform="translate(-4522.357 -46.434)" fill="#34478b"/>
          <path id="Path_5183" data-name="Path 5183" d="M4572.792,92.691c3.193-3.861,31.043-24.135,38.56-31.412,4.7-4.549-.6-11.809-7.983-14.131Z" transform="translate(-4520.983 -46.409)" opacity="0.2" style="mix-blend-mode: overlay;isolation: isolate"/>
        </g>
        <path id="Path_5184" data-name="Path 5184" d="M4625.6,63.476s-.151,6.307-5.5,12.989c-6.98,8.169-22.865,16.744-24.426,18.972s-6.552,29.057-8.858,40.334c-1.355,6.63-18.769,3.514-17.358-2.04,2.959-11.342,6.619-41.055,9.178-45.912s20.828-23.772,20.828-23.772,2.259-6.351,3.55-11.738C4606.243,38.831,4611.652,50.45,4625.6,63.476Z" transform="translate(-4521.104 38.235)" fill="#34478b"/>
        <path id="Path_5185" data-name="Path 5185" d="M4601.162,2.789c-1.709,6.332-15.318,45.844-16.727,53.364-.65,3.917,19.614,15.622,27.113,15.622s13.522-1.907,14.529-5.907c.455-1.8-.371-10.49,2.447-14.391,5.125-11.3,13.844-23.9,14.943-28.53,2-8.445.941-15.913-2.833-18.092L4616.687-8.972C4608.346-13.788,4602.872-3.544,4601.162,2.789Z" transform="translate(-4520.574 36.243)" fill="#101542"/>
        <path id="Path_5186" data-name="Path 5186" d="M4586.049,58.36c1.42-.12,2.838-.26,4.253-.431,10.573-1.275,21-4.225,29.851-10.317a55.186,55.186,0,0,0,12.377-11.669c2.71-3.534,4.942-7.4,7.532-11.021.686-1.822,1.361-2.744,1.659-4a56.514,56.514,0,0,0,1.592-9.22,15.687,15.687,0,0,0-3.98.561,46.834,46.834,0,0,0-6.771,2.457c-2.117.906-5.62-.055-7.949.626a88.036,88.036,0,0,1-6.269,6.335,60.554,60.554,0,0,1-17,11.2,44.166,44.166,0,0,1-11.082,3.049c-2.842,8.832-5.261,16.67-5.812,19.612C4584.338,56.248,4584.932,57.227,4586.049,58.36Z" transform="translate(-4520.573 37.015)" fill="#090d30"/>
        <path id="Path_5187" data-name="Path 5187" d="M4617.113,1.231l-1.444-2.8-1.077,5.866s-15.831,30.3-17.229,34.086l1.931,6.163,6.981-3.044s8.744-34.643,10.3-36.536l3.473-3.731Z" transform="translate(-4520.117 36.548)" fill="#ff6355"/>
        <path id="Path_5188" data-name="Path 5188" d="M4630.369-5.06a23.016,23.016,0,0,0-.418,4.354c-.09,2.5-9.54,5.437-14.139,1.752a3.707,3.707,0,0,1,.9-6.237,5.169,5.169,0,0,0,2.886-2.894C4621.1-12.484,4631.511-8.958,4630.369-5.06Z" transform="translate(-4519.514 36.246)" fill="#f89c69"/>
        <path id="Path_5189" data-name="Path 5189" d="M4629.9-1.357a40.475,40.475,0,0,1-13.455,2.581l.162,6.766s12.191-2.6,14.833-8.107Z" transform="translate(-4519.445 36.555)" opacity="0.1"/>
        <path id="Path_5190" data-name="Path 5190" d="M4629.9-1.357a40.475,40.475,0,0,1-13.455,2.581l.579,5.736s11.774-1.569,14.417-7.077Z" transform="translate(-4519.445 36.555)" fill="#090d30"/>
        <path id="Path_5191" data-name="Path 5191" d="M4619.176-7.089a11.652,11.652,0,0,0-2.53,8.538l-6.021,4.121s1.31-9.914,7.432-13.305Z" transform="translate(-4519.65 36.33)" opacity="0.1"/>
        <path id="Path_5192" data-name="Path 5192" d="M4619.137-7.089a11.652,11.652,0,0,0-2.53,8.538l-4.879,2.617s.65-9.209,6.29-11.8Z" transform="translate(-4519.611 36.33)" fill="#090d30"/>
        <g id="Group_3465" data-name="Group 3465" transform="translate(93.846)">
          <path id="Path_5193" data-name="Path 5193" d="M4617.964-25.166c-1.62,4.3-4.856,11.869-4.546,15.928.225,2.932.955,5.493,9.086,5.687,3.121.075,8.515-.407,11.738-2.706,2.751-1.963,7.652-6.266,8.617-10.91,1.852-7.972-2.049-15.131-8.694-17.492S4620.236-31.194,4617.964-25.166Z" transform="translate(-4613.397 35.362)" fill="#fbb686"/>
          <path id="Path_5194" data-name="Path 5194" d="M4631.033-18.741s4.738-6.14-4.153-5.63c-6.853.393-7.482-3.134-7.579-3.717-.25-1.5,1.933-3.256,3.838-4.857a14.114,14.114,0,0,1,19.554,3.764c5.757,7.433.36,19.358-12.57,25.386,0,0,.03-4.491,1.213-3.888,1.811.921,5.618-3.062,4.682-5.593-.686-1.85-2.6-.547-3.783.508a.447.447,0,0,1-.738-.413Z" transform="translate(-4613.19 35.357)" fill="#090d30"/>
        </g>
      </g>
      <path id="Path_5195" data-name="Path 5195" d="M4571.414,44.48a4.143,4.143,0,0,0-4.2-.679,1.174,1.174,0,0,1-1.606-.687l-1.257-3.7a1.587,1.587,0,0,0-1.52-1.076h0a1.583,1.583,0,0,0-1.55,1.82c.346,2.279.723,5.557,1.31,6.668,1.442,2.734,5.384,7.408,8.866,3.72S4571.414,44.48,4571.414,44.48Z" transform="translate(-4521.39 37.954)" fill="#fbb686"/>
      <path id="Path_5196" data-name="Path 5196" d="M4633.616,4.916c-2.663,3.15-24.648,28.107-27.838,29.741-3.19,1.448-22.249,4.485-28.772,6.5-5.717,2.4-4.24,15.332,3.451,14.5,8.274-.894,30.083-4.761,33.286-6.056s18.134-15.627,27.65-24.093C4653.688,13.056,4639.863-2.712,4633.616,4.916Z" transform="translate(-4520.958 36.706)" fill="#101542"/>
    </g>
    <path id="Path_5197" data-name="Path 5197" d="M3961.25,101.159a27.021,27.021,0,0,1,9.841,8.011c3.325,4.68,9.675,8.348,17.783,10.268a44.542,44.542,0,0,1,13.883,5.686c12.623,8.163,12.718,20.71.206,28.929-14.582,9.578-39.88,9.931-55.25,1.057a25.54,25.54,0,0,1-8.362-7.3c-3.168-4.563-9.493-8.215-17.4-10.044a46.261,46.261,0,0,1-12.647-4.828c-15.371-8.874-14.76-23.484,1.837-31.9C3925.383,93.812,3947.115,93.869,3961.25,101.159Z" transform="translate(5.606 4.714)" fill="#1a50b2" opacity="0.05"/>
    <path id="Path_5198" data-name="Path 5198" d="M3856.25,101.159a27.02,27.02,0,0,1,9.841,8.011c3.325,4.68,9.676,8.348,17.782,10.268a44.545,44.545,0,0,1,13.884,5.686c12.623,8.163,12.718,20.71.206,28.929-14.581,9.578-39.88,9.931-55.25,1.057a25.54,25.54,0,0,1-8.362-7.3c-3.168-4.563-9.493-8.215-17.4-10.044a46.261,46.261,0,0,1-12.647-4.828c-15.371-8.874-14.76-23.484,1.837-31.9C3820.383,93.812,3842.115,93.869,3856.25,101.159Z" transform="translate(1.905 4.714)" fill="#1a50b2" opacity="0.05"/>
    <path id="Path_5199" data-name="Path 5199" d="M4073.107,101.159a27.02,27.02,0,0,1,9.842,8.011c3.324,4.68,9.675,8.348,17.782,10.268a44.55,44.55,0,0,1,13.884,5.686c12.623,8.163,12.718,20.71.206,28.929-14.582,9.578-39.88,9.931-55.25,1.057a25.545,25.545,0,0,1-8.362-7.3c-3.167-4.563-9.493-8.215-17.4-10.044a46.268,46.268,0,0,1-12.646-4.828c-15.371-8.874-14.759-23.484,1.836-31.9C4037.24,93.812,4058.973,93.869,4073.107,101.159Z" transform="translate(9.549 4.714)" fill="#1a50b2" opacity="0.05"/>
    <path id="Path_5200" data-name="Path 5200" d="M4563.115,101.159a27.02,27.02,0,0,0-9.842,8.011c-3.324,4.68-9.675,8.348-17.783,10.268a44.546,44.546,0,0,0-13.882,5.686c-12.623,8.163-12.718,20.71-.207,28.929,14.583,9.578,39.881,9.931,55.251,1.057a25.534,25.534,0,0,0,8.36-7.3c3.169-4.563,9.495-8.215,17.4-10.044a46.232,46.232,0,0,0,12.646-4.828c15.373-8.874,14.761-23.484-1.836-31.9C4598.982,93.812,4577.249,93.869,4563.115,101.159Z" transform="translate(27.244 4.714)" fill="#1a50b2" opacity="0.05"/>
    <path id="Path_5201" data-name="Path 5201" d="M4668.115,101.159a27.02,27.02,0,0,0-9.842,8.011c-3.324,4.68-9.675,8.348-17.783,10.268a44.546,44.546,0,0,0-13.882,5.686c-12.623,8.163-12.718,20.71-.207,28.929,14.583,9.578,39.881,9.931,55.251,1.057a25.534,25.534,0,0,0,8.36-7.3c3.169-4.563,9.495-8.215,17.4-10.044a46.232,46.232,0,0,0,12.646-4.828c15.373-8.874,14.761-23.484-1.836-31.9C4703.982,93.812,4682.249,93.869,4668.115,101.159Z" transform="translate(30.945 4.714)" fill="#1a50b2" opacity="0.05"/>
    <path id="Path_5202" data-name="Path 5202" d="M4451.257,101.159a27.008,27.008,0,0,0-9.841,8.011c-3.326,4.68-9.675,8.348-17.783,10.268a44.55,44.55,0,0,0-13.884,5.686c-12.623,8.163-12.718,20.71-.207,28.929,14.583,9.578,39.881,9.931,55.251,1.057a25.539,25.539,0,0,0,8.36-7.3c3.169-4.563,9.494-8.215,17.4-10.044a46.238,46.238,0,0,0,12.646-4.828c15.373-8.874,14.761-23.484-1.836-31.9C4487.124,93.812,4465.391,93.869,4451.257,101.159Z" transform="translate(23.301 4.714)" fill="#1a50b2" opacity="0.05"/>
    <path id="Path_5203" data-name="Path 5203" d="M4471.943,39.506c-.268.506-.951,1.4-.834,1.957l.659,3.139a1.3,1.3,0,0,1-2.479.757c-.707-1.755-1.816-4.227-1.86-5.257C4467.282,36.627,4473.406,36.74,4471.943,39.506Z" transform="translate(25.67 2.663)" fill="#f89c69"/>
    <g id="Group_3478" data-name="Group 3478" transform="translate(4437.769 -29.474)">
      <g id="Group_3472" data-name="Group 3472" transform="translate(0 86.581)">
        <g id="Group_3469" data-name="Group 3469" transform="translate(0 1.271)">
          <g id="Group_3468" data-name="Group 3468" transform="translate(0 69.68)">
            <path id="Path_5204" data-name="Path 5204" d="M4431.626,137.519l-.886-1.3,2.077-1.535Z" transform="translate(-4413.392 -121.969)" fill="#101542"/>
            <path id="Path_5205" data-name="Path 5205" d="M4438.3,131.126l-2.8,5.812a1.535,1.535,0,0,1-1.269.863l-2.013.15,1.19-2.836-2.712,2.005a5.832,5.832,0,0,1-2.937,1.117c-3.937.355-11.791,1.132-13.215-1.581-2.37-4.513,3.365-5.3,6.269-6.705a18.537,18.537,0,0,0,7.153-5.95C4430.856,119.544,4441.152,125.206,4438.3,131.126Z" transform="translate(-4413.982 -122.402)" fill="#090d30"/>
          </g>
          <path id="Path_5206" data-name="Path 5206" d="M4474.636,58.146c-6.029,5.452-28.264,31.026-29.918,33.3s-16.837,31.3-19.944,36.681,12.2,7.87,13.45,5.848,16.507-32.008,19.214-35.282,30.827-25.061,37.2-31.233S4484.176,49.519,4474.636,58.146Z" transform="translate(-4413.617 -55.094)" fill="#34478b"/>
          <path id="Path_5207" data-name="Path 5207" d="M4466.708,83.691c2.067-3.669,4.2-7.3,6.537-10.808a85.41,85.41,0,0,1,7.71-9.989c1.39-1.536,2.809-3.06,4.254-4.545.618-.635-1.151,5.088-.486,4.5,5.078,2.527,12.087,1.094,8.57,4.5-4.665,4.518-22.475,19.466-30.823,25.43C4463.188,91.527,4466,84.945,4466.708,83.691Z" transform="translate(-4412.274 -54.981)" opacity="0.2" style="mix-blend-mode: overlay;isolation: isolate"/>
        </g>
        <g id="Group_3471" data-name="Group 3471" transform="translate(34.474)">
          <g id="Group_3470" data-name="Group 3470" transform="translate(0 78.289)">
            <path id="Path_5208" data-name="Path 5208" d="M4464.8,143.358l-1.363-.787,1.2-2.285Z" transform="translate(-4446.714 -129.109)" fill="#101542"/>
            <path id="Path_5209" data-name="Path 5209" d="M4467.88,134.949V141.4a1.536,1.536,0,0,1-.768,1.329l-1.748,1.008-.158-3.072-1.573,2.985a5.828,5.828,0,0,1-2.16,2.281c-3.393,2.03-10.131,6.14-12.591,4.315-4.095-3.037.73-6.238,2.735-8.762a18.545,18.545,0,0,0,3.861-8.466C4456.147,127.746,4467.88,128.377,4467.88,134.949Z" transform="translate(-4447.283 -129.49)" fill="#090d30"/>
          </g>
          <path id="Path_5210" data-name="Path 5210" d="M4508.935,66.518s-1.108,7.678-5.643,13.346c-5.919,6.927-23.8,13.881-25.12,15.77s-7.807,32.083-9.762,41.646c-1.15,5.622-15.148,3.15-13.952-1.559,2.51-9.619,5.188-34.99,7.357-39.11s20.074-26.5,20.074-26.5,1.915-5.386,3.01-9.954C4487.638,48.731,4506.173,54.075,4508.935,66.518Z" transform="translate(-4447.033 -53.866)" fill="#34478b"/>
        </g>
      </g>
      <g id="Group_3476" data-name="Group 3476" transform="translate(59.191)">
        <path id="Path_5211" data-name="Path 5211" d="M4482.391,24.308c-1.076,4.424-1.416,16.325-3.441,22.5-4.675,14.258-6.791,8.854-7.775,14.1-.65,3.916,17.266,14.783,24.767,14.783s12.727-1.538,12.94-5.658c.342-6.6-3.117-12.675-2.475-16.787,2.942-18.848,12.342-14.309,13.984-21.241,2-8.445,2.69-14.741-1.084-16.92l-15.719-8.916C4496.977,2.353,4483.942,17.936,4482.391,24.308Z" transform="translate(-4471.158 31.013)" fill="#fff"/>
        <path id="Path_5212" data-name="Path 5212" d="M4471.175,60.947c.984-5.249,3.1.155,7.775-14.1.995-3.033,1.6-11.683,1.6-13.2-.833-6.818-.139-8.886.649-11.064,1.787-4.94,8.842-10.634,13.987-16.649,2.424-1.365,4.748-1.821,6.625-.736l.059.309.28.195c-9.792,4.1-13.33,35.294-13.33,35.294,2.6-13.738,26.154-28.332,26.154-28.332l4.338,2.461c3.774,2.179,3.084,8.476,1.084,16.92-1.706,7.2-8.687,5.113-12.186,26.488-.6,3.683.958,6.124.677,11.54-.213,4.119-5.44,5.658-12.94,5.658S4470.525,64.863,4471.175,60.947Z" transform="translate(-4471.158 30.978)" fill="#101542"/>
        <path id="Path_5213" data-name="Path 5213" d="M4488.248,40.98a138.22,138.22,0,0,1,3.083-16.209c1.146-4.441,5.422-14.035,8.853-16.511,1.915-1.163,1.932-1.382,2.111-2.4l-1.063-.679c-.053-.027-.107-.062-.161-.089,0,0-9.467,4.065-12.577,12.583l2.2,3.082-3.062.33S4486.7,34.466,4488.248,40.98Z" transform="translate(-4470.587 30.996)" fill="#090d30"/>
        <path id="Path_5214" data-name="Path 5214" d="M4515.734,2.583s-4.039,5.526-3.456,9.267c.384,2.469-10.274,7.652-14.379,5.975-.8-2.113-.173-8.475,2.322-9.64,1.232-.575,1.7-2.037,2.186-3.452C4503.911.333,4516.876-1.316,4515.734,2.583Z" transform="translate(-4470.227 30.83)" fill="#f89c69"/>
        <path id="Path_5215" data-name="Path 5215" d="M4501.86,31.062l-1.9-3.9,4.623.278s8.323-11.842,10.863-14.409l-2.848-1.613c-.008,0-21.791,15.594-24.385,29.335C4488.217,40.757,4496.621,33.29,4501.86,31.062Z" transform="translate(-4470.556 31.219)" fill="#090d30"/>
        <path id="Path_5216" data-name="Path 5216" d="M4488.707,36.427a13.785,13.785,0,0,0-.49,3.448S4488.369,38.557,4488.707,36.427Z" transform="translate(-4470.556 32.1)" fill="#414042"/>
        <path id="Path_5217" data-name="Path 5217" d="M4494.58,28.482c-3.146,3.716-5.614,7.726-6.363,11.673Z" transform="translate(-4470.556 31.82)" fill="#090d30"/>
        <g id="Group_3475" data-name="Group 3475" transform="translate(28.143)">
          <g id="Group_3473" data-name="Group 3473" transform="translate(0 4.576)">
            <path id="Path_5218" data-name="Path 5218" d="M4502.146-15.133c-1.734,4.984-4.091,12.949-3.774,17.081.224,2.929,3.407,5.34,9.837,4.722,2.643-.254,7.579-1.516,8.526-5.086,3.353,3.425,9.772-3.847,10.755-8.574,1.886-8.115-2.085-15.4-8.85-17.805S4504.3-21.326,4502.146-15.133Z" transform="translate(-4498.343 25.347)" fill="#fbb686"/>
          </g>
          <g id="Group_3474" data-name="Group 3474" transform="translate(21.558)">
            <path id="Path_5219" data-name="Path 5219" d="M4519.332-20.694a24.651,24.651,0,0,1-.144-3.857,5.28,5.28,0,0,1,1.149-3.565,4.781,4.781,0,0,1,2.081-1.107,12.99,12.99,0,0,1,6.381-.267,7.644,7.644,0,0,1,4.625,2.63,10.084,10.084,0,0,1,1.553,4.338,11.1,11.1,0,0,1,.211,3.865,7.173,7.173,0,0,1-2.988,4.481,11.767,11.767,0,0,1-5.128,1.911,17.418,17.418,0,0,1-6.853-.359" transform="translate(-4519.167 29.767)" fill="#090d30"/>
            <path id="Path_5220" data-name="Path 5220" d="M4533.17-19.535a6.938,6.938,0,0,1-4.67-2.059c-2.612-2.26-5.461-4.97-9.1-4.779a9.311,9.311,0,0,0-.207,1.7,24.65,24.65,0,0,0,.143,3.857l.886,8.068a17.417,17.417,0,0,0,6.853.359A11.762,11.762,0,0,0,4532.2-14.3a7.178,7.178,0,0,0,2.989-4.481,7,7,0,0,0,.085-1.237A5.549,5.549,0,0,1,4533.17-19.535Z" transform="translate(-4519.167 29.886)" fill="#070a24"/>
          </g>
          <path id="Path_5221" data-name="Path 5221" d="M4501.862-20.381c1.977,3.053,14.8,17.694,15.634,16.966,2.4-2.842,7.141-1.239,1.895,4.3-.4.351-1.75.753-1.895-.655-.064-.621-3.15,2.013-2.843,5.173,0,0,7.377-1.267,10.639-5.975,5.05-7.287,6.852-20.275-3.352-23.974-10.249-3.717-17.855-.306-19.929,2.04A1.76,1.76,0,0,0,4501.862-20.381Z" transform="translate(-4498.229 29.893)" fill="#090d30"/>
        </g>
      </g>
      <g id="Group_3477" data-name="Group 3477" transform="translate(49.44 45.637)">
        <path id="Path_5222" data-name="Path 5222" d="M4471.474,61.456c8.587-1.235,22.459-3.787,24.8-4.731,2.789-1.123,12-13.359,20.253-20.711a18.155,18.155,0,0,0,4.481-7.186,14.474,14.474,0,0,0,.68-3.843c.278-6.783-4.564-11.417-8.171-7.019-2.3,2.733-21.377,24.387-24.152,25.8-1.29.583-5.576,1.47-10.362,2.428a1.163,1.163,0,0,1-.069.236A49.391,49.391,0,0,1,4471.474,61.456Z" transform="translate(-4461.396 -14.248)" fill="#090d30"/>
        <path id="Path_5223" data-name="Path 5223" d="M4513.867,16.063c-2.31,2.734-21.385,24.386-24.153,25.8-2.768,1.256-19.3,3.89-24.962,5.64-4.961,2.08-3.678,13.3,2.994,12.58,7.179-.776,26.1-4.131,28.879-5.255s14.5-13.691,22.758-21.035C4530.05,22.993,4519.287,9.446,4513.867,16.063Z" transform="translate(-4461.739 -14.316)" fill="#101542"/>
      </g>
      <path id="Path_5224" data-name="Path 5224" d="M4460.719,45.138a3.592,3.592,0,0,0-3.647-.59,1.018,1.018,0,0,1-1.394-.6l-1.091-3.211a1.376,1.376,0,0,0-1.318-.933h0a1.372,1.372,0,0,0-1.345,1.579c.3,1.977.627,4.821,1.136,5.786,1.252,2.372,4.672,6.427,7.692,3.226S4460.719,45.138,4460.719,45.138Z" transform="translate(-4412.646 32.219)" fill="#fbb686"/>
    </g>
  </g>
</svg>
